<?xml version="1.0"?>
<svg xmlns="http://www.w3.org/2000/svg" xmlns:lc="http://www.librecad.org" xmlns:xlink="http://www.w3.org/1999/xlink" width="456.11051593mm" height="202.12980594mm" viewBox="0 0 456.11051593 202.12980594">
    <g lc:layername="0" lc:is_locked="false" lc:is_construction="false" fill="none" stroke="black" stroke-width="1">
        <path d="M94.11121593,30 L112.11121593,30 L112.11121593,13 L94.11121593,13 L94.11121593,30 Z "/>
        <path d="M94.11121593,60 L121.11121593,60 L121.11121593,43 L94.11121593,43 L94.11121593,60 Z "/>
        <line x1="94.11121593" y1="13" x2="112.11121593" y2="30"/>
        <line x1="112.11121593" y1="30" x2="112.11121593" y2="13"/>
        <line x1="112.11121593" y1="13" x2="94.11121593" y2="30"/>
        <line x1="212.11109593" y1="130" x2="226.11059593" y2="130"/>
        <line x1="226.11059593" y1="130" x2="226.11059593" y2="144.0011"/>
        <line x1="226.11059593" y1="144.0011" x2="212.11109593" y2="144.0011"/>
        <line x1="212.11109593" y1="144.0011" x2="212.11109593" y2="130"/>
        <line x1="194.11121593" y1="130" x2="208.11069593" y2="130"/>
        <line x1="208.11069593" y1="130" x2="208.11069593" y2="144.0011"/>
        <line x1="208.11069593" y1="144.0011" x2="194.11121593" y2="144.0011"/>
        <line x1="194.11121593" y1="144.0011" x2="194.11121593" y2="130"/>
        <line x1="284.11099593" y1="121.9013" x2="298.11159593" y2="121.9013"/>
        <line x1="298.11159593" y1="121.9013" x2="298.11159593" y2="135.901"/>
        <line x1="298.11159593" y1="135.901" x2="284.11099593" y2="135.901"/>
        <line x1="284.11099593" y1="135.901" x2="284.11099593" y2="121.9013"/>
        <line x1="266.11089593" y1="121" x2="280.11049593" y2="121"/>
        <line x1="280.11049593" y1="121" x2="280.11049593" y2="135.001"/>
        <line x1="280.11049593" y1="135.001" x2="266.11089593" y2="135.001"/>
        <line x1="266.11089593" y1="135.001" x2="266.11089593" y2="121"/>
        <line x1="230.11099593" y1="121" x2="244.11059593" y2="121"/>
        <line x1="244.11059593" y1="121" x2="244.11059593" y2="135.001"/>
        <line x1="244.11059593" y1="135.001" x2="230.11099593" y2="135.001"/>
        <line x1="230.11099593" y1="135.001" x2="230.11099593" y2="121"/>
        <line x1="248.11109593" y1="116.5007" x2="262.11039593" y2="116.5007"/>
        <line x1="262.11039593" y1="116.5007" x2="262.11039593" y2="130.5003"/>
        <line x1="262.11039593" y1="130.5003" x2="248.11109593" y2="130.5003"/>
        <line x1="248.11109593" y1="130.5003" x2="248.11109593" y2="116.5007"/>
        <line x1="194.11121593" y1="130" x2="208.11069593" y2="144.0011"/>
        <line x1="208.11069593" y1="144.0011" x2="208.11069593" y2="130"/>
        <line x1="208.11069593" y1="130" x2="194.11121593" y2="144.0011"/>
        <line x1="94.11121593" y1="43" x2="121.11121593" y2="60"/>
        <line x1="121.11121593" y1="60" x2="121.11121593" y2="43"/>
        <line x1="121.11121593" y1="43" x2="94.11121593" y2="60"/>
        <line x1="212.11109593" y1="147" x2="226.11059593" y2="147"/>
        <line x1="226.11059593" y1="147" x2="226.11059593" y2="161.0007"/>
        <line x1="226.11059593" y1="161.0007" x2="212.11109593" y2="161.0007"/>
        <line x1="212.11109593" y1="161.0007" x2="212.11109593" y2="147"/>
        <line x1="194.11121593" y1="147" x2="208.11069593" y2="147"/>
        <line x1="208.11069593" y1="147" x2="208.11069593" y2="161.0007"/>
        <line x1="208.11069593" y1="161.0007" x2="194.11121593" y2="161.0007"/>
        <line x1="194.11121593" y1="161.0007" x2="194.11121593" y2="147"/>
        <line x1="284.11099593" y1="138.9013" x2="298.11159593" y2="138.9013"/>
        <line x1="298.11159593" y1="138.9013" x2="298.11159593" y2="152.9005"/>
        <line x1="298.11159593" y1="152.9005" x2="284.11099593" y2="152.9005"/>
        <line x1="284.11099593" y1="152.9005" x2="284.11099593" y2="138.9013"/>
        <line x1="266.11089593" y1="137.9999" x2="280.11049593" y2="137.9999"/>
        <line x1="280.11049593" y1="137.9999" x2="280.11049593" y2="152.0006"/>
        <line x1="280.11049593" y1="152.0006" x2="266.11089593" y2="152.0006"/>
        <line x1="266.11089593" y1="152.0006" x2="266.11089593" y2="137.9999"/>
        <line x1="230.11099593" y1="137.9999" x2="244.11059593" y2="137.9999"/>
        <line x1="244.11059593" y1="137.9999" x2="244.11059593" y2="152.0006"/>
        <line x1="244.11059593" y1="152.0006" x2="230.11099593" y2="152.0006"/>
        <line x1="230.11099593" y1="152.0006" x2="230.11099593" y2="137.9999"/>
        <line x1="248.11109593" y1="133.5006" x2="262.11039593" y2="133.5006"/>
        <line x1="262.11039593" y1="133.5006" x2="262.11039593" y2="147.5002"/>
        <line x1="262.11039593" y1="147.5002" x2="248.11109593" y2="147.5002"/>
        <line x1="248.11109593" y1="147.5002" x2="248.11109593" y2="133.5006"/>
        <line x1="212.11109593" y1="164" x2="226.11059593" y2="164"/>
        <line x1="226.11059593" y1="164" x2="226.11059593" y2="177.9994"/>
        <line x1="226.11059593" y1="177.9994" x2="212.11109593" y2="177.9994"/>
        <line x1="212.11109593" y1="177.9994" x2="212.11109593" y2="164"/>
        <line x1="194.11121593" y1="164" x2="208.11069593" y2="164"/>
        <line x1="208.11069593" y1="164" x2="208.11069593" y2="177.9994"/>
        <line x1="208.11069593" y1="177.9994" x2="194.11121593" y2="177.9994"/>
        <line x1="194.11121593" y1="177.9994" x2="194.11121593" y2="164"/>
        <line x1="284.11099593" y1="155.8998" x2="298.11159593" y2="155.8998"/>
        <line x1="298.11159593" y1="155.8998" x2="298.11159593" y2="169.8993"/>
        <line x1="298.11159593" y1="169.8993" x2="284.11099593" y2="169.8993"/>
        <line x1="284.11099593" y1="169.8993" x2="284.11099593" y2="155.8998"/>
        <line x1="266.11089593" y1="154.9999" x2="280.11049593" y2="154.9999"/>
        <line x1="280.11049593" y1="154.9999" x2="280.11049593" y2="168.9995"/>
        <line x1="280.11049593" y1="168.9995" x2="266.11089593" y2="168.9995"/>
        <line x1="266.11089593" y1="168.9995" x2="266.11089593" y2="154.9999"/>
        <line x1="230.11099593" y1="154.9999" x2="244.11059593" y2="154.9999"/>
        <line x1="244.11059593" y1="154.9999" x2="244.11059593" y2="168.9995"/>
        <line x1="244.11059593" y1="168.9995" x2="230.11099593" y2="168.9995"/>
        <line x1="230.11099593" y1="168.9995" x2="230.11099593" y2="154.9999"/>
        <line x1="248.11109593" y1="150.4992" x2="262.11039593" y2="150.4992"/>
        <line x1="262.11039593" y1="150.4992" x2="262.11039593" y2="164.4988"/>
        <line x1="262.11039593" y1="164.4988" x2="248.11109593" y2="164.4988"/>
        <line x1="248.11109593" y1="164.4988" x2="248.11109593" y2="150.4992"/>
        <path d="M282.11073593,171.40035 L300.11073593,171.40035 L300.11073593,154.40035 L282.11073593,154.40035 L282.11073593,171.40035 Z "/>
        <path d="M3.21792161,135.88099812 L20.60458649,140.53974093 L25.00451025,124.11900188 L7.61784538,119.46025907 L3.21792161,135.88099812 Z "/>
        <line x1="7.61784538" y1="119.46025907" x2="20.60458649" y2="140.53974093"/>
        <line x1="20.60458649" y1="140.53974093" x2="25.00451025" y2="124.11900188"/>
        <line x1="25.00451025" y1="124.11900188" x2="3.21792161" y2="135.88099812"/>
        <path d="M14.72243186,196.94134295 L28.22243186,173.55865705 L13.5,165.05865705 L0,188.44134295 L14.72243186,196.94134295 Z "/>
        <line x1="0" y1="188.44134295" x2="28.22243186" y2="173.55865705"/>
        <line x1="28.22243186" y1="173.55865705" x2="13.5" y2="165.05865705"/>
        <line x1="13.5" y1="165.05865705" x2="14.72243186" y2="196.94134295"/>
        <path d="M264.11063593,170.50045 L282.11063593,170.50045 L282.11063593,153.50045 L264.11063593,153.50045 L264.11063593,170.50045 Z "/>
        <line x1="280.07059593" y1="187.8864" x2="293.59359593" y2="191.5093"/>
        <line x1="293.59359593" y1="191.5093" x2="297.21559593" y2="177.9866"/>
        <line x1="297.21559593" y1="177.9866" x2="283.69329593" y2="174.3637"/>
        <line x1="283.69329593" y1="174.3637" x2="280.07059593" y2="187.8864"/>
        <line x1="261.61149593" y1="173.2999" x2="275.61119593" y2="173.2999"/>
        <line x1="275.61119593" y1="173.2999" x2="275.61119593" y2="187.2994"/>
        <line x1="275.61119593" y1="187.2994" x2="261.61149593" y2="187.2994"/>
        <line x1="261.61149593" y1="187.2994" x2="261.61149593" y2="173.2999"/>
        <line x1="243.61179593" y1="173.2999" x2="257.61139593" y2="173.2999"/>
        <line x1="257.61139593" y1="173.2999" x2="257.61139593" y2="187.2994"/>
        <line x1="257.61139593" y1="187.2994" x2="243.61179593" y2="187.2994"/>
        <line x1="243.61179593" y1="187.2994" x2="243.61179593" y2="173.2999"/>
        <line x1="283.69329593" y1="174.3637" x2="293.59359593" y2="191.5093"/>
        <line x1="280.07059593" y1="187.8864" x2="297.21559593" y2="177.9866"/>
        <path d="M259.61123593,188.80045 L277.61123593,188.80045 L277.61123593,171.80045 L259.61123593,171.80045 L259.61123593,188.80045 Z "/>
        <path d="M277.7500641,188.81734656 L295.13672897,193.47608937 L299.53665274,177.05535032 L282.14998786,172.39660751 L277.7500641,188.81734656 Z "/>
        <line x1="282.14998786" y1="172.39660751" x2="295.13672897" y2="193.47608937"/>
        <line x1="295.13672897" y1="193.47608937" x2="299.53665274" y2="177.05535032"/>
        <line x1="299.53665274" y1="177.05535032" x2="277.7500641" y2="188.81734656"/>
        <line x1="299.98878831" y1="188.7503873" x2="312.11378831" y2="195.7508073"/>
        <line x1="312.11378831" y1="195.7508073" x2="319.11278831" y2="183.6267873"/>
        <line x1="319.11278831" y1="183.6267873" x2="306.98878831" y2="176.6263873"/>
        <line x1="306.98878831" y1="176.6263873" x2="299.98878831" y2="188.7503873"/>
        <line x1="306.98878831" y1="176.6263873" x2="312.11378831" y2="195.7508073"/>
        <line x1="299.98878831" y1="188.7503873" x2="319.11278831" y2="183.6267873"/>
        <path d="M310.16246825,202.12980594 L323.66246825,178.74712003 L308.94003639,170.24712003 L295.44003639,193.62980594 L310.16246825,202.12980594 Z "/>
        <line x1="295.44003639" y1="193.62980594" x2="323.66246825" y2="178.74712003"/>
        <line x1="323.66246825" y1="178.74712003" x2="308.94003639" y2="170.24712003"/>
        <line x1="308.94003639" y1="170.24712003" x2="310.16246825" y2="202.12980594"/>
        <g lc:blockname="keycap">
            <g lc:layername="0" lc:is_locked="false" lc:is_construction="false" fill="none" stroke="black" stroke-width="1">
                <path d="M386.22217186,73.37074406 L404.22217186,73.37074406 L404.22217186,56.37074406 L386.22217186,56.37074406 L386.22217186,73.37074406 Z "/>
                <line x1="386.22217186" y1="56.37074406" x2="404.22217186" y2="73.37074406"/>
                <line x1="404.22217186" y1="56.37074406" x2="386.22217186" y2="73.37074406"/>
            </g>
            <g lc:layername="outline" lc:is_locked="false" lc:is_construction="false" fill="none" stroke="black" stroke-width="1"/>
        </g>
        <g lc:blockname="keycap-0">
            <g lc:layername="0" lc:is_locked="false" lc:is_construction="false" fill="none" stroke="black" stroke-width="1">
                <path d="M386.22217186,107.37074406 L404.22217186,107.37074406 L404.22217186,90.37074406 L386.22217186,90.37074406 L386.22217186,107.37074406 Z "/>
                <line x1="386.22217186" y1="90.37074406" x2="404.22217186" y2="107.37074406"/>
                <line x1="404.22217186" y1="90.37074406" x2="386.22217186" y2="107.37074406"/>
            </g>
            <g lc:layername="outline" lc:is_locked="false" lc:is_construction="false" fill="none" stroke="black" stroke-width="1"/>
        </g>
        <g lc:blockname="keycap">
            <g lc:layername="0" lc:is_locked="false" lc:is_construction="false" fill="none" stroke="black" stroke-width="1">
                <path d="M476.22195186,65.27204406 L494.22195186,65.27204406 L494.22195186,48.27204406 L476.22195186,48.27204406 L476.22195186,65.27204406 Z "/>
                <line x1="476.22195186" y1="48.27204406" x2="494.22195186" y2="65.27204406"/>
                <line x1="494.22195186" y1="48.27204406" x2="476.22195186" y2="65.27204406"/>
            </g>
            <g lc:layername="outline" lc:is_locked="false" lc:is_construction="false" fill="none" stroke="black" stroke-width="1"/>
        </g>
        <g lc:blockname="keycap">
            <g lc:layername="0" lc:is_locked="false" lc:is_construction="false" fill="none" stroke="black" stroke-width="1">
                <path d="M440.22205186,59.87144406 L458.22205186,59.87144406 L458.22205186,42.87144406 L440.22205186,42.87144406 L440.22205186,59.87144406 Z "/>
                <line x1="440.22205186" y1="42.87144406" x2="458.22205186" y2="59.87144406"/>
                <line x1="458.22205186" y1="42.87144406" x2="440.22205186" y2="59.87144406"/>
            </g>
            <g lc:layername="outline" lc:is_locked="false" lc:is_construction="false" fill="none" stroke="black" stroke-width="1"/>
        </g>
        <g lc:blockname="keycap-3">
            <g lc:layername="0" lc:is_locked="false" lc:is_construction="false" fill="none" stroke="black" stroke-width="1">
                <path d="M422.22195186,64.37074406 L440.22195186,64.37074406 L440.22195186,47.37074406 L422.22195186,47.37074406 L422.22195186,64.37074406 Z "/>
                <line x1="422.22195186" y1="47.37074406" x2="440.22195186" y2="64.37074406"/>
                <line x1="440.22195186" y1="47.37074406" x2="422.22195186" y2="64.37074406"/>
            </g>
            <g lc:layername="outline" lc:is_locked="false" lc:is_construction="false" fill="none" stroke="black" stroke-width="1"/>
        </g>
        <g lc:blockname="keycap">
            <g lc:layername="0" lc:is_locked="false" lc:is_construction="false" fill="none" stroke="black" stroke-width="1">
                <path d="M404.22205186,73.37074406 L422.22205186,73.37074406 L422.22205186,56.37074406 L404.22205186,56.37074406 L404.22205186,73.37074406 Z "/>
                <line x1="404.22205186" y1="56.37074406" x2="422.22205186" y2="73.37074406"/>
                <line x1="422.22205186" y1="56.37074406" x2="404.22205186" y2="73.37074406"/>
            </g>
            <g lc:layername="outline" lc:is_locked="false" lc:is_construction="false" fill="none" stroke="black" stroke-width="1"/>
        </g>
        <g lc:blockname="usb">
            <g lc:layername="0" lc:is_locked="false" lc:is_construction="false" fill="none" stroke="black" stroke-width="1">
                <path d="M409.58181186,56.87019406 L420.22181186,56.87019406 L420.22181186,47.45019406 L409.58181186,47.45019406 L409.58181186,56.87019406 Z "/>
                <line x1="420.22181186" y1="49.45019406" x2="409.58181186" y2="49.45019406"/>
            </g>
            <g lc:layername="outline" lc:is_locked="false" lc:is_construction="false" fill="none" stroke="black" stroke-width="1"/>
        </g>
        <g lc:blockname="keycap-5">
            <g lc:layername="0" lc:is_locked="false" lc:is_construction="false" fill="none" stroke="black" stroke-width="1">
                <path d="M435.72275186,116.67064406 L453.72275186,116.67064406 L453.72275186,99.67064406 L435.72275186,99.67064406 L435.72275186,116.67064406 Z "/>
                <line x1="435.72275186" y1="99.67064406" x2="453.72275186" y2="116.67064406"/>
                <line x1="453.72275186" y1="99.67064406" x2="435.72275186" y2="116.67064406"/>
            </g>
            <g lc:layername="outline" lc:is_locked="false" lc:is_construction="false" fill="none" stroke="black" stroke-width="1"/>
        </g>
        <line x1="246.11083593" y1="115.00125" x2="246.11083593" y2="119.50055"/>
        <line x1="436.11037593" y1="130" x2="422.11087593" y2="130"/>
        <line x1="422.11087593" y1="130" x2="422.11087593" y2="144.0011"/>
        <line x1="422.11087593" y1="144.0011" x2="436.11037593" y2="144.0011"/>
        <line x1="436.11037593" y1="144.0011" x2="436.11037593" y2="130"/>
        <line x1="454.11025593" y1="130" x2="440.11077593" y2="130"/>
        <line x1="440.11077593" y1="130" x2="440.11077593" y2="144.0011"/>
        <line x1="440.11077593" y1="144.0011" x2="454.11025593" y2="144.0011"/>
        <line x1="454.11025593" y1="144.0011" x2="454.11025593" y2="130"/>
        <line x1="364.11047593" y1="121.9013" x2="350.10987593" y2="121.9013"/>
        <line x1="350.10987593" y1="121.9013" x2="350.10987593" y2="135.901"/>
        <line x1="350.10987593" y1="135.901" x2="364.11047593" y2="135.901"/>
        <line x1="364.11047593" y1="135.901" x2="364.11047593" y2="121.9013"/>
        <line x1="382.11057593" y1="121" x2="368.11097593" y2="121"/>
        <line x1="368.11097593" y1="121" x2="368.11097593" y2="135.001"/>
        <line x1="368.11097593" y1="135.001" x2="382.11057593" y2="135.001"/>
        <line x1="382.11057593" y1="135.001" x2="382.11057593" y2="121"/>
        <line x1="418.11047593" y1="121" x2="404.11087593" y2="121"/>
        <line x1="404.11087593" y1="121" x2="404.11087593" y2="135.001"/>
        <line x1="404.11087593" y1="135.001" x2="418.11047593" y2="135.001"/>
        <line x1="418.11047593" y1="135.001" x2="418.11047593" y2="121"/>
        <line x1="400.11037593" y1="116.5007" x2="386.11107593" y2="116.5007"/>
        <line x1="386.11107593" y1="116.5007" x2="386.11107593" y2="130.5003"/>
        <line x1="386.11107593" y1="130.5003" x2="400.11037593" y2="130.5003"/>
        <line x1="400.11037593" y1="130.5003" x2="400.11037593" y2="116.5007"/>
        <line x1="454.11025593" y1="130" x2="440.11077593" y2="144.0011"/>
        <line x1="440.11077593" y1="144.0011" x2="440.11077593" y2="130"/>
        <line x1="440.11077593" y1="130" x2="454.11025593" y2="144.0011"/>
        <line x1="436.11037593" y1="147" x2="422.11087593" y2="147"/>
        <line x1="422.11087593" y1="147" x2="422.11087593" y2="161.0007"/>
        <line x1="422.11087593" y1="161.0007" x2="436.11037593" y2="161.0007"/>
        <line x1="436.11037593" y1="161.0007" x2="436.11037593" y2="147"/>
        <line x1="454.11025593" y1="147" x2="440.11077593" y2="147"/>
        <line x1="440.11077593" y1="147" x2="440.11077593" y2="161.0007"/>
        <line x1="440.11077593" y1="161.0007" x2="454.11025593" y2="161.0007"/>
        <line x1="454.11025593" y1="161.0007" x2="454.11025593" y2="147"/>
        <line x1="364.11047593" y1="138.9013" x2="350.10987593" y2="138.9013"/>
        <line x1="350.10987593" y1="138.9013" x2="350.10987593" y2="152.9005"/>
        <line x1="350.10987593" y1="152.9005" x2="364.11047593" y2="152.9005"/>
        <line x1="364.11047593" y1="152.9005" x2="364.11047593" y2="138.9013"/>
        <line x1="382.11057593" y1="137.9999" x2="368.11097593" y2="137.9999"/>
        <line x1="368.11097593" y1="137.9999" x2="368.11097593" y2="152.0006"/>
        <line x1="368.11097593" y1="152.0006" x2="382.11057593" y2="152.0006"/>
        <line x1="382.11057593" y1="152.0006" x2="382.11057593" y2="137.9999"/>
        <line x1="418.11047593" y1="137.9999" x2="404.11087593" y2="137.9999"/>
        <line x1="404.11087593" y1="137.9999" x2="404.11087593" y2="152.0006"/>
        <line x1="404.11087593" y1="152.0006" x2="418.11047593" y2="152.0006"/>
        <line x1="418.11047593" y1="152.0006" x2="418.11047593" y2="137.9999"/>
        <line x1="400.11037593" y1="133.5006" x2="386.11107593" y2="133.5006"/>
        <line x1="386.11107593" y1="133.5006" x2="386.11107593" y2="147.5002"/>
        <line x1="386.11107593" y1="147.5002" x2="400.11037593" y2="147.5002"/>
        <line x1="400.11037593" y1="147.5002" x2="400.11037593" y2="133.5006"/>
        <line x1="436.11037593" y1="164" x2="422.11087593" y2="164"/>
        <line x1="422.11087593" y1="164" x2="422.11087593" y2="177.9994"/>
        <line x1="422.11087593" y1="177.9994" x2="436.11037593" y2="177.9994"/>
        <line x1="436.11037593" y1="177.9994" x2="436.11037593" y2="164"/>
        <line x1="454.11025593" y1="164" x2="440.11077593" y2="164"/>
        <line x1="440.11077593" y1="164" x2="440.11077593" y2="177.9994"/>
        <line x1="440.11077593" y1="177.9994" x2="454.11025593" y2="177.9994"/>
        <line x1="454.11025593" y1="177.9994" x2="454.11025593" y2="164"/>
        <line x1="364.11047593" y1="155.8998" x2="350.10987593" y2="155.8998"/>
        <line x1="350.10987593" y1="155.8998" x2="350.10987593" y2="169.8993"/>
        <line x1="350.10987593" y1="169.8993" x2="364.11047593" y2="169.8993"/>
        <line x1="364.11047593" y1="169.8993" x2="364.11047593" y2="155.8998"/>
        <line x1="382.11057593" y1="154.9999" x2="368.11097593" y2="154.9999"/>
        <line x1="368.11097593" y1="154.9999" x2="368.11097593" y2="168.9995"/>
        <line x1="368.11097593" y1="168.9995" x2="382.11057593" y2="168.9995"/>
        <line x1="382.11057593" y1="168.9995" x2="382.11057593" y2="154.9999"/>
        <line x1="418.11047593" y1="154.9999" x2="404.11087593" y2="154.9999"/>
        <line x1="404.11087593" y1="154.9999" x2="404.11087593" y2="168.9995"/>
        <line x1="404.11087593" y1="168.9995" x2="418.11047593" y2="168.9995"/>
        <line x1="418.11047593" y1="168.9995" x2="418.11047593" y2="154.9999"/>
        <line x1="400.11037593" y1="150.4992" x2="386.11107593" y2="150.4992"/>
        <line x1="386.11107593" y1="150.4992" x2="386.11107593" y2="164.4988"/>
        <line x1="386.11107593" y1="164.4988" x2="400.11037593" y2="164.4988"/>
        <line x1="400.11037593" y1="164.4988" x2="400.11037593" y2="150.4992"/>
        <path d="M456.11051593,145.50055 L438.11051593,145.50055 L438.11051593,128.50055 L456.11051593,128.50055 L456.11051593,145.50055 Z "/>
        <line x1="456.11051593" y1="128.50055" x2="438.11051593" y2="145.50055"/>
        <line x1="438.11051593" y1="145.50055" x2="438.11051593" y2="128.50055"/>
        <line x1="438.11051593" y1="128.50055" x2="456.11051593" y2="145.50055"/>
        <path d="M366.11073593,171.40035 L348.11073593,171.40035 L348.11073593,154.40035 L366.11073593,154.40035 L366.11073593,171.40035 Z "/>
        <path d="M384.11083593,170.50045 L366.11083593,170.50045 L366.11083593,153.50045 L384.11083593,153.50045 L384.11083593,170.50045 Z "/>
        <line x1="368.15087593" y1="187.8864" x2="354.62787593" y2="191.5093"/>
        <line x1="354.62787593" y1="191.5093" x2="351.00587593" y2="177.9866"/>
        <line x1="351.00587593" y1="177.9866" x2="364.52817593" y2="174.3637"/>
        <line x1="364.52817593" y1="174.3637" x2="368.15087593" y2="187.8864"/>
        <line x1="386.60997593" y1="173.2999" x2="372.61027593" y2="173.2999"/>
        <line x1="372.61027593" y1="173.2999" x2="372.61027593" y2="187.2994"/>
        <line x1="372.61027593" y1="187.2994" x2="386.60997593" y2="187.2994"/>
        <line x1="386.60997593" y1="187.2994" x2="386.60997593" y2="173.2999"/>
        <line x1="404.60967593" y1="173.2999" x2="390.61007593" y2="173.2999"/>
        <line x1="390.61007593" y1="173.2999" x2="390.61007593" y2="187.2994"/>
        <line x1="390.61007593" y1="187.2994" x2="404.60967593" y2="187.2994"/>
        <line x1="404.60967593" y1="187.2994" x2="404.60967593" y2="173.2999"/>
        <line x1="364.52817593" y1="174.3637" x2="354.62787593" y2="191.5093"/>
        <line x1="368.15087593" y1="187.8864" x2="351.00587593" y2="177.9866"/>
        <path d="M388.61023593,188.80045 L370.61023593,188.80045 L370.61023593,171.80045 L388.61023593,171.80045 L388.61023593,188.80045 Z "/>
        <path d="M370.47140777,188.81734656 L353.08474289,193.47608937 L348.68481913,177.05535032 L366.071484,172.39660751 L370.47140777,188.81734656 Z "/>
        <line x1="366.071484" y1="172.39660751" x2="353.08474289" y2="193.47608937"/>
        <line x1="353.08474289" y1="193.47608937" x2="348.68481913" y2="177.05535032"/>
        <line x1="348.68481913" y1="177.05535032" x2="370.47140777" y2="188.81734656"/>
        <line x1="348.23268355" y1="188.7503873" x2="336.10768355" y2="195.7508073"/>
        <line x1="336.10768355" y1="195.7508073" x2="329.10868355" y2="183.6267873"/>
        <line x1="329.10868355" y1="183.6267873" x2="341.23268355" y2="176.6263873"/>
        <line x1="341.23268355" y1="176.6263873" x2="348.23268355" y2="188.7503873"/>
        <line x1="341.23268355" y1="176.6263873" x2="336.10768355" y2="195.7508073"/>
        <line x1="348.23268355" y1="188.7503873" x2="329.10868355" y2="183.6267873"/>
        <path d="M338.05900361,202.12980594 L324.55900361,178.74712003 L339.28143548,170.24712003 L352.78143548,193.62980594 L338.05900361,202.12980594 Z "/>
        <line x1="352.78143548" y1="193.62980594" x2="324.55900361" y2="178.74712003"/>
        <line x1="324.55900361" y1="178.74712003" x2="339.28143548" y2="170.24712003"/>
        <line x1="339.28143548" y1="170.24712003" x2="338.05900361" y2="202.12980594"/>
    </g>
    <g lc:layername="outline" lc:is_locked="false" lc:is_construction="false" fill="none" stroke="black" stroke-width="1">
        <g lc:blockname="edge2">
            <g lc:layername="0" lc:is_locked="false" lc:is_construction="false" fill="none" stroke="black" stroke-width="1"/>
            <g lc:layername="outline" lc:is_locked="false" lc:is_construction="false" fill="none" stroke="black" stroke-width="1">
                <line x1="440.22205186" y1="47.37074406" x2="409.58181186" y2="47.37074406"/>
                <line x1="409.58181186" y1="47.37074406" x2="409.58181186" y2="56.37074406"/>
                <line x1="409.58181186" y1="56.37074406" x2="386.22217186" y2="56.37074406"/>
                <line x1="386.22217186" y1="56.37074406" x2="386.22217186" y2="107.37074406"/>
                <line x1="386.22217186" y1="107.37074406" x2="435.72275186" y2="107.37074406"/>
                <line x1="435.72275186" y1="107.37074406" x2="435.72275186" y2="116.67064406"/>
                <line x1="435.72275186" y1="116.67064406" x2="471.86128003" y2="116.67064406"/>
                <path d="M471.86128003,116.68754062 A67.96275006,67.96275006 0 0,1 504.27368418,130 "/>
                <line x1="494.22195186" y1="65.27204406" x2="494.22195186" y2="48.27204406"/>
                <line x1="494.22195186" y1="48.27204406" x2="458.22276164" y2="48.27204406"/>
                <line x1="458.22276164" y1="48.27204406" x2="458.22276164" y2="42.87144406"/>
                <line x1="458.22276164" y1="42.87144406" x2="440.22205186" y2="42.87144406"/>
                <line x1="440.22205186" y1="42.87144406" x2="440.22205186" y2="47.37074406"/>
                <line x1="494.22195186" y1="65.27204406" x2="494.22195186" y2="55.27204406"/>
                <line x1="517.22195186" y1="65.27204406" x2="494.22195186" y2="65.27204406"/>
                <line x1="504.27368418" y1="130" x2="517.22195186" y2="107.5729425"/>
                <line x1="517.22195186" y1="65.27204406" x2="517.22195186" y2="107.5729425"/>
            </g>
        </g>
        <g lc:blockname="edge2">
            <g lc:layername="0" lc:is_locked="false" lc:is_construction="false" fill="none" stroke="black" stroke-width="1"/>
            <g lc:layername="outline" lc:is_locked="false" lc:is_construction="false" fill="none" stroke="black" stroke-width="1">
                <line x1="704.22161186" y1="47.37074406" x2="673.58137186" y2="47.37074406"/>
                <line x1="673.58137186" y1="47.37074406" x2="673.58137186" y2="56.37074406"/>
                <line x1="673.58137186" y1="56.37074406" x2="650.22173186" y2="56.37074406"/>
                <line x1="650.22173186" y1="56.37074406" x2="650.22173186" y2="107.37074406"/>
                <line x1="650.22173186" y1="107.37074406" x2="699.72231186" y2="107.37074406"/>
                <line x1="699.72231186" y1="107.37074406" x2="699.72231186" y2="116.67064406"/>
                <line x1="699.72231186" y1="116.67064406" x2="735.86084003" y2="116.67064406"/>
                <path d="M735.86084003,116.68754062 A67.96275006,67.96275006 0 0,1 768.27324418,130 "/>
                <line x1="758.22151186" y1="65.27204406" x2="758.22151186" y2="48.27204406"/>
                <line x1="758.22151186" y1="48.27204406" x2="722.22232164" y2="48.27204406"/>
                <line x1="722.22232164" y1="48.27204406" x2="722.22232164" y2="42.87144406"/>
                <line x1="722.22232164" y1="42.87144406" x2="704.22161186" y2="42.87144406"/>
                <line x1="704.22161186" y1="42.87144406" x2="704.22161186" y2="47.37074406"/>
                <line x1="758.22151186" y1="65.27204406" x2="758.22151186" y2="55.27204406"/>
                <line x1="781.22151186" y1="65.27204406" x2="758.22151186" y2="65.27204406"/>
                <line x1="768.27324418" y1="130" x2="781.22151186" y2="107.5729425"/>
                <line x1="781.22151186" y1="65.27204406" x2="781.22151186" y2="107.5729425"/>
            </g>
        </g>
    </g>
</svg>
