999
dxfrw 0.6.3
  0
SECTION
  2
HEADER
  9
$ACADVER
  1
AC1021
  9
$DWGCODEPAGE
  3
ANSI_1252
  9
$INSBASE
 10
0
 20
0
 30
0
  9
$EXTMIN
 10
-110.6426419710468
 20
-79.61003795657018
 30
0
  9
$EXTMAX
 10
321.838225
 20
112.6689276285905
 30
0
  9
$LIMMIN
 10
0
 20
0
  9
$LIMMAX
 10
420
 20
297
  9
$ORTHOMODE
 70
    0
  9
$REGENMODE
 70
    1
  9
$FILLMODE
 70
    0
  9
$QTEXTMODE
 70
    0
  9
$MIRRTEXT
 70
    0
  9
$LTSCALE
 40
1
  9
$ATTMODE
 70
    0
  9
$TEXTSIZE
 40
2.5
  9
$TRACEWID
 40
15.68
  9
$TEXTSTYLE
  7
STANDARD
  9
$CLAYER
  8
0
  9
$CELTYPE
  6
BYLAYER
  9
$CECOLOR
 62
  256
  9
$CELTSCALE
 40
1
  9
$DISPSILH
 70
    0
  9
$DIMSCALE
 40
1
  9
$DIMASZ
 40
2.5
  9
$DIMEXO
 40
0.625
  9
$DIMDLI
 40
3.75
  9
$DIMRND
 40
0
  9
$DIMDLE
 40
0
  9
$DIMEXE
 40
1.25
  9
$DIMTP
 40
0
  9
$DIMTM
 40
0
  9
$DIMTXT
 40
2.5
  9
$DIMCEN
 40
2.5
  9
$DIMTSZ
 40
0
  9
$DIMTOL
 70
    0
  9
$DIMLIM
 70
    0
  9
$DIMTIH
 70
    0
  9
$DIMTOH
 70
    0
  9
$DIMSE1
 70
    0
  9
$DIMSE2
 70
    0
  9
$DIMTAD
 70
    1
  9
$DIMZIN
 70
    1
  9
$DIMBLK
  1

  9
$DIMASO
 70
    1
  9
$DIMSHO
 70
    1
  9
$DIMPOST
  1

  9
$DIMAPOST
  1

  9
$DIMALT
 70
    0
  9
$DIMALTD
 70
    3
  9
$DIMALTF
 40
0.03937
  9
$DIMLFAC
 40
1
  9
$DIMTOFL
 70
    1
  9
$DIMTVP
 40
0
  9
$DIMTIX
 70
    0
  9
$DIMSOXD
 70
    0
  9
$DIMSAH
 70
    0
  9
$DIMBLK1
  1

  9
$DIMBLK2
  1

  9
$DIMSTYLE
  2
Standard
  9
$DIMCLRD
 70
    0
  9
$DIMCLRE
 70
    0
  9
$DIMCLRT
 70
    0
  9
$DIMTFAC
 40
1
  9
$DIMGAP
 40
0.625
  9
$DIMJUST
 70
    0
  9
$DIMSD1
 70
    0
  9
$DIMSD2
 70
    0
  9
$DIMTOLJ
 70
    0
  9
$DIMTZIN
 70
    8
  9
$DIMALTZ
 70
    0
  9
$DIMALTTZ
 70
    0
  9
$DIMUPT
 70
    0
  9
$DIMDEC
 70
    4
  9
$DIMTDEC
 70
    2
  9
$DIMALTU
 70
    2
  9
$DIMALTTD
 70
    3
  9
$DIMTXSTY
  7
standard
  9
$DIMAUNIT
 70
    0
  9
$DIMADEC
 70
    2
  9
$DIMALTRND
 40
0
  9
$DIMAZIN
 70
    0
  9
$DIMDSEP
 70
    0
  9
$DIMATFIT
 70
    3
  9
$DIMFRAC
 70
    0
  9
$DIMLDRBLK
  1
STANDARD
  9
$DIMLUNIT
 70
    2
  9
$DIMLWD
 70
   -2
  9
$DIMLWE
 70
   -2
  9
$DIMTMOVE
 70
    0
  9
$DIMFXL
 40
1
  9
$DIMFXLON
 70
    0
  9
$DIMJOGANG
 40
0.7854
  9
$DIMTFILL
 70
    0
  9
$DIMTFILLCLR
 70
    0
  9
$DIMARCSYM
 70
    0
  9
$DIMLTYPE
  6

  9
$DIMLTEX1
  6

  9
$DIMLTEX2
  6

  9
$LUNITS
 70
    2
  9
$LUPREC
 70
    4
  9
$SKETCHINC
 40
1
  9
$FILLETRAD
 40
0
  9
$AUNITS
 70
    0
  9
$AUPREC
 70
    2
  9
$MENU
  1
.
  9
$ELEVATION
 40
0
  9
$PELEVATION
 40
0
  9
$THICKNESS
 40
0
  9
$LIMCHECK
 70
    0
  9
$CHAMFERA
 40
0
  9
$CHAMFERB
 40
0
  9
$CHAMFERC
 40
0
  9
$CHAMFERD
 40
0
  9
$SKPOLY
 70
    0
  9
$USRTIMER
 70
    1
  9
$ANGBASE
 50
0
  9
$ANGDIR
 70
    0
  9
$PDMODE
 70
   34
  9
$PDSIZE
 40
0
  9
$PLINEWID
 40
0
  9
$SPLFRAME
 70
    1
  9
$SPLINETYPE
 70
    2
  9
$SPLINESEGS
 70
    8
  9
$HANDSEED
  5
20000
  9
$SURFTAB1
 70
    6
  9
$SURFTAB2
 70
    6
  9
$SURFTYPE
 70
    6
  9
$SURFU
 70
    6
  9
$SURFV
 70
    6
  9
$UCSBASE
  2

  9
$UCSNAME
  2

  9
$UCSORG
 10
0
 20
0
 30
0
  9
$UCSXDIR
 10
1
 20
0
 30
0
  9
$UCSYDIR
 10
0
 20
1
 30
0
  9
$UCSORTHOREF
  2

  9
$UCSORTHOVIEW
 70
    0
  9
$UCSORGTOP
 10
0
 20
0
 30
0
  9
$UCSORGBOTTOM
 10
0
 20
0
 30
0
  9
$UCSORGLEFT
 10
0
 20
0
 30
0
  9
$UCSORGRIGHT
 10
0
 20
0
 30
0
  9
$UCSORGFRONT
 10
0
 20
0
 30
0
  9
$UCSORGBACK
 10
0
 20
0
 30
0
  9
$PUCSBASE
  2

  9
$PUCSNAME
  2

  9
$PUCSORG
 10
0
 20
0
 30
0
  9
$PUCSXDIR
 10
1
 20
0
 30
0
  9
$PUCSYDIR
 10
0
 20
1
 30
0
  9
$PUCSORTHOREF
  2

  9
$PUCSORTHOVIEW
 70
    0
  9
$PUCSORGTOP
 10
0
 20
0
 30
0
  9
$PUCSORGBOTTOM
 10
0
 20
0
 30
0
  9
$PUCSORGLEFT
 10
0
 20
0
 30
0
  9
$PUCSORGRIGHT
 10
0
 20
0
 30
0
  9
$PUCSORGFRONT
 10
0
 20
0
 30
0
  9
$PUCSORGBACK
 10
0
 20
0
 30
0
  9
$USERI1
 70
    0
  9
$USERI2
 70
    0
  9
$USERI3
 70
    0
  9
$USERI4
 70
    0
  9
$USERI5
 70
    0
  9
$USERR1
 40
0
  9
$USERR2
 40
0
  9
$USERR3
 40
0
  9
$USERR4
 40
0
  9
$USERR5
 40
0
  9
$WORLDVIEW
 70
    1
  9
$SHADEDGE
 70
    3
  9
$SHADEDIF
 70
   70
  9
$TILEMODE
 70
    1
  9
$MAXACTVP
 70
   64
  9
$PINSBASE
 10
0
 20
0
 30
0
  9
$PLIMCHECK
 70
    0
  9
$PEXTMIN
 10
0
 20
0
 30
0
  9
$PEXTMAX
 10
0
 20
0
 30
0
  9
$GRIDMODE
 70
    1
  9
$SNAPSTYLE
 70
    0
  9
$GRIDUNIT
 10
19.05
 20
19.05
  9
$PLIMMIN
 10
0
 20
0
  9
$PLIMMAX
 10
215.9
 20
279.4
  9
$UNITMODE
 70
    0
  9
$VISRETAIN
 70
    1
  9
$PLINEGEN
 70
    0
  9
$PSLTSCALE
 70
    1
  9
$TREEDEPTH
 70
 3020
  9
$CMLSTYLE
  2
Standard
  9
$CMLJUST
 70
    0
  9
$CMLSCALE
 40
20
  9
$PROXYGRAPHICS
 70
    1
  9
$MEASUREMENT
 70
    1
  9
$CELWEIGHT
370
   -1
  9
$ENDCAPS
280
    0
  9
$JOINSTYLE
280
    0
  9
$LWDISPLAY
290
    0
  9
$INSUNITS
 70
    4
  9
$HYPERLINKBASE
  1

  9
$STYLESHEET
  1

  9
$XEDIT
290
    1
  9
$CEPSNTYPE
380
    0
  9
$PSTYLEMODE
290
    1
  9
$EXTNAMES
290
    1
  9
$PSVPSCALE
 40
1
  9
$OLESTARTUP
290
    0
  9
$SORTENTS
280
  127
  9
$INDEXCTL
280
    0
  9
$HIDETEXT
280
    1
  9
$XCLIPFRAME
290
    0
  9
$HALOGAP
280
    0
  9
$OBSCOLOR
 70
  257
  9
$OBSLTYPE
280
    0
  9
$INTERSECTIONDISPLAY
280
    0
  9
$INTERSECTIONCOLOR
 70
  257
  9
$DIMASSOC
280
    1
  9
$PROJECTNAME
  1

  9
$CAMERADISPLAY
290
    0
  9
$LENSLENGTH
 40
50
  9
$CAMERAHEIGHT
 40
0
  9
$STEPSPERSEC
 40
2
  9
$STEPSIZE
 40
50
  9
$3DDWFPREC
 40
2
  9
$PSOLWIDTH
 40
5
  9
$PSOLHEIGHT
 40
80
  9
$LOFTANG1
 40
1.570796326794897
  9
$LOFTANG2
 40
1.570796326794897
  9
$LOFTMAG1
 40
0
  9
$LOFTMAG2
 40
0
  9
$LOFTPARAM
 70
    7
  9
$LOFTNORMALS
280
    1
  9
$LATITUDE
 40
1
  9
$LONGITUDE
 40
1
  9
$NORTHDIRECTION
 40
0
  9
$TIMEZONE
 70
-8000
  9
$LIGHTGLYPHDISPLAY
280
    1
  9
$TILEMODELIGHTSYNCH
280
    1
  9
$SOLIDHIST
280
    1
  9
$SHOWHIST
280
    1
  9
$DWFFRAME
280
    2
  9
$DGNFRAME
280
    0
  9
$REALWORLDSCALE
290
    1
  9
$INTERFERECOLOR
 62
    1
  9
$CSHADOW
280
    0
  9
$SHADOWPLANELOCATION
 40
0
  0
ENDSEC
  0
SECTION
  2
CLASSES
  0
ENDSEC
  0
SECTION
  2
TABLES
  0
TABLE
  2
VPORT
  5
8
330
0
100
AcDbSymbolTable
 70
    1
  0
VPORT
  5
31
330
2
100
AcDbSymbolTableRecord
100
AcDbViewportTableRecord
  2
*ACTIVE
 70
    0
 10
0
 20
0
 11
1
 21
1
 12
335.699250000004
 22
110.1468750000013
 13
0
 23
0
 14
10
 24
10
 15
19.05
 25
19.05
 16
0
 26
0
 36
1
 17
0
 27
0
 37
0
 40
504.543750000006
 41
1.88056338028169
 42
50
 43
0
 44
0
 50
0
 51
0
 71
    0
 72
  100
 73
    1
 74
    3
 75
    0
 76
    1
 77
    0
 78
    0
281
    0
 65
    1
110
0
120
0
130
0
111
1
121
0
131
0
112
0
122
1
132
0
 79
    0
146
0
348
10020
 60
    3
 61
    5
292
1
282
    1
141
0
142
0
 63
  250
421
3358443
  0
ENDTAB
  0
TABLE
  2
LTYPE
  5
5
330
0
100
AcDbSymbolTable
 70
    4
  0
LTYPE
  5
14
330
5
100
AcDbSymbolTableRecord
100
AcDbLinetypeTableRecord
  2
ByBlock
 70
    0
  3

 72
   65
 73
    0
 40
0
  0
LTYPE
  5
15
330
5
100
AcDbSymbolTableRecord
100
AcDbLinetypeTableRecord
  2
ByLayer
 70
    0
  3

 72
   65
 73
    0
 40
0
  0
LTYPE
  5
16
330
5
100
AcDbSymbolTableRecord
100
AcDbLinetypeTableRecord
  2
Continuous
 70
    0
  3
Solid line
 72
   65
 73
    0
 40
0
  0
LTYPE
  5
32
330
5
100
AcDbSymbolTableRecord
100
AcDbLinetypeTableRecord
  2
DOT
 70
    0
  3
Dot . . . . . . . . . . . . . . . . . . . . . .
 72
   65
 73
    2
 40
6.35
 49
0
 74
    0
 49
-6.35
 74
    0
  0
LTYPE
  5
33
330
5
100
AcDbSymbolTableRecord
100
AcDbLinetypeTableRecord
  2
DOTTINY
 70
    0
  3
Dot (.15x) .....................................
 72
   65
 73
    2
 40
0.9525
 49
0
 74
    0
 49
-0.9525
 74
    0
  0
LTYPE
  5
34
330
5
100
AcDbSymbolTableRecord
100
AcDbLinetypeTableRecord
  2
DOT2
 70
    0
  3
Dot (.5x) .....................................
 72
   65
 73
    2
 40
3.175
 49
0
 74
    0
 49
-3.175
 74
    0
  0
LTYPE
  5
35
330
5
100
AcDbSymbolTableRecord
100
AcDbLinetypeTableRecord
  2
DOTX2
 70
    0
  3
Dot (2x) .  .  .  .  .  .  .  .  .  .  .  .  .
 72
   65
 73
    2
 40
12.7
 49
0
 74
    0
 49
-12.7
 74
    0
  0
LTYPE
  5
36
330
5
100
AcDbSymbolTableRecord
100
AcDbLinetypeTableRecord
  2
DASHED
 70
    0
  3
Dashed _ _ _ _ _ _ _ _ _ _ _ _ _ _ _ _ _
 72
   65
 73
    2
 40
19.05
 49
12.7
 74
    0
 49
-6.35
 74
    0
  0
LTYPE
  5
37
330
5
100
AcDbSymbolTableRecord
100
AcDbLinetypeTableRecord
  2
DASHEDTINY
 70
    0
  3
Dashed (.15x) _ _ _ _ _ _ _ _ _ _ _ _ _ _ _ _ _
 72
   65
 73
    2
 40
2.8575
 49
1.905
 74
    0
 49
-0.9525
 74
    0
  0
LTYPE
  5
38
330
5
100
AcDbSymbolTableRecord
100
AcDbLinetypeTableRecord
  2
DASHED2
 70
    0
  3
Dashed (.5x) _ _ _ _ _ _ _ _ _ _ _ _ _ _ _ _ _
 72
   65
 73
    2
 40
9.524999999999999
 49
6.35
 74
    0
 49
-3.175
 74
    0
  0
LTYPE
  5
39
330
5
100
AcDbSymbolTableRecord
100
AcDbLinetypeTableRecord
  2
DASHEDX2
 70
    0
  3
Dashed (2x) ____  ____  ____  ____  ____  ___
 72
   65
 73
    2
 40
38.09999999999999
 49
25.4
 74
    0
 49
-12.7
 74
    0
  0
LTYPE
  5
3A
330
5
100
AcDbSymbolTableRecord
100
AcDbLinetypeTableRecord
  2
DASHDOT
 70
    0
  3
Dash dot __ . __ . __ . __ . __ . __ . __ . __
 72
   65
 73
    4
 40
25.4
 49
12.7
 74
    0
 49
-6.35
 74
    0
 49
0
 74
    0
 49
-6.35
 74
    0
  0
LTYPE
  5
3B
330
5
100
AcDbSymbolTableRecord
100
AcDbLinetypeTableRecord
  2
DASHDOTTINY
 70
    0
  3
Dash dot (.15x) _._._._._._._._._._._._._._._.
 72
   65
 73
    4
 40
3.81
 49
1.905
 74
    0
 49
-0.9525
 74
    0
 49
0
 74
    0
 49
-0.9525
 74
    0
  0
LTYPE
  5
3C
330
5
100
AcDbSymbolTableRecord
100
AcDbLinetypeTableRecord
  2
DASHDOT2
 70
    0
  3
Dash dot (.5x) _._._._._._._._._._._._._._._.
 72
   65
 73
    4
 40
12.7
 49
6.35
 74
    0
 49
-3.175
 74
    0
 49
0
 74
    0
 49
-3.175
 74
    0
  0
LTYPE
  5
3D
330
5
100
AcDbSymbolTableRecord
100
AcDbLinetypeTableRecord
  2
DASHDOTX2
 70
    0
  3
Dash dot (2x) ____  .  ____  .  ____  .  ___
 72
   65
 73
    4
 40
50.8
 49
25.4
 74
    0
 49
-12.7
 74
    0
 49
0
 74
    0
 49
-12.7
 74
    0
  0
LTYPE
  5
3E
330
5
100
AcDbSymbolTableRecord
100
AcDbLinetypeTableRecord
  2
DIVIDE
 70
    0
  3
Divide ____ . . ____ . . ____ . . ____ . . ____
 72
   65
 73
    6
 40
31.75
 49
12.7
 74
    0
 49
-6.35
 74
    0
 49
0
 74
    0
 49
-6.35
 74
    0
 49
0
 74
    0
 49
-6.35
 74
    0
  0
LTYPE
  5
3F
330
5
100
AcDbSymbolTableRecord
100
AcDbLinetypeTableRecord
  2
DIVIDETINY
 70
    0
  3
Divide (.15x) __..__..__..__..__..__..__..__.._
 72
   65
 73
    6
 40
4.7625
 49
1.905
 74
    0
 49
-0.9525
 74
    0
 49
0
 74
    0
 49
-0.9525
 74
    0
 49
0
 74
    0
 49
-0.9525
 74
    0
  0
LTYPE
  5
40
330
5
100
AcDbSymbolTableRecord
100
AcDbLinetypeTableRecord
  2
DIVIDE2
 70
    0
  3
Divide (.5x) __..__..__..__..__..__..__..__.._
 72
   65
 73
    6
 40
15.875
 49
6.35
 74
    0
 49
-3.175
 74
    0
 49
0
 74
    0
 49
-3.175
 74
    0
 49
0
 74
    0
 49
-3.175
 74
    0
  0
LTYPE
  5
41
330
5
100
AcDbSymbolTableRecord
100
AcDbLinetypeTableRecord
  2
DIVIDEX2
 70
    0
  3
Divide (2x) ________  .  .  ________  .  .  _
 72
   65
 73
    6
 40
63.5
 49
25.4
 74
    0
 49
-12.7
 74
    0
 49
0
 74
    0
 49
-12.7
 74
    0
 49
0
 74
    0
 49
-12.7
 74
    0
  0
LTYPE
  5
42
330
5
100
AcDbSymbolTableRecord
100
AcDbLinetypeTableRecord
  2
BORDER
 70
    0
  3
Border __ __ . __ __ . __ __ . __ __ . __ __ .
 72
   65
 73
    6
 40
44.45
 49
12.7
 74
    0
 49
-6.35
 74
    0
 49
12.7
 74
    0
 49
-6.35
 74
    0
 49
0
 74
    0
 49
-6.35
 74
    0
  0
LTYPE
  5
43
330
5
100
AcDbSymbolTableRecord
100
AcDbLinetypeTableRecord
  2
BORDERTINY
 70
    0
  3
Border (.15x) __.__.__.__.__.__.__.__.__.__.__.
 72
   65
 73
    6
 40
6.6675
 49
1.905
 74
    0
 49
-0.9525
 74
    0
 49
1.905
 74
    0
 49
-0.9525
 74
    0
 49
0
 74
    0
 49
-0.9525
 74
    0
  0
LTYPE
  5
44
330
5
100
AcDbSymbolTableRecord
100
AcDbLinetypeTableRecord
  2
BORDER2
 70
    0
  3
Border (.5x) __.__.__.__.__.__.__.__.__.__.__.
 72
   65
 73
    6
 40
22.225
 49
6.35
 74
    0
 49
-3.175
 74
    0
 49
6.35
 74
    0
 49
-3.175
 74
    0
 49
0
 74
    0
 49
-3.175
 74
    0
  0
LTYPE
  5
45
330
5
100
AcDbSymbolTableRecord
100
AcDbLinetypeTableRecord
  2
BORDERX2
 70
    0
  3
Border (2x) ____  ____  .  ____  ____  .  ___
 72
   65
 73
    6
 40
88.89999999999999
 49
25.4
 74
    0
 49
-12.7
 74
    0
 49
25.4
 74
    0
 49
-12.7
 74
    0
 49
0
 74
    0
 49
-12.7
 74
    0
  0
LTYPE
  5
46
330
5
100
AcDbSymbolTableRecord
100
AcDbLinetypeTableRecord
  2
CENTER
 70
    0
  3
Center ____ _ ____ _ ____ _ ____ _ ____ _ ____
 72
   65
 73
    4
 40
50.8
 49
31.75
 74
    0
 49
-6.35
 74
    0
 49
6.35
 74
    0
 49
-6.35
 74
    0
  0
LTYPE
  5
47
330
5
100
AcDbSymbolTableRecord
100
AcDbLinetypeTableRecord
  2
CENTERTINY
 70
    0
  3
Center (.15x) ___ _ ___ _ ___ _ ___ _ ___ _ ___
 72
   65
 73
    4
 40
7.62
 49
4.7625
 74
    0
 49
-0.9525
 74
    0
 49
0.9525
 74
    0
 49
-0.9525
 74
    0
  0
LTYPE
  5
48
330
5
100
AcDbSymbolTableRecord
100
AcDbLinetypeTableRecord
  2
CENTER2
 70
    0
  3
Center (.5x) ___ _ ___ _ ___ _ ___ _ ___ _ ___
 72
   65
 73
    4
 40
28.575
 49
19.05
 74
    0
 49
-3.175
 74
    0
 49
3.175
 74
    0
 49
-3.175
 74
    0
  0
LTYPE
  5
49
330
5
100
AcDbSymbolTableRecord
100
AcDbLinetypeTableRecord
  2
CENTERX2
 70
    0
  3
Center (2x) ________  __  ________  __  _____
 72
   65
 73
    4
 40
101.6
 49
63.5
 74
    0
 49
-12.7
 74
    0
 49
12.7
 74
    0
 49
-12.7
 74
    0
  0
ENDTAB
  0
TABLE
  2
LAYER
  5
2
330
0
100
AcDbSymbolTable
 70
    1
  0
LAYER
  5
10
330
2
100
AcDbSymbolTableRecord
100
AcDbLayerTableRecord
  2
0
 70
    0
 62
    7
  6
CONTINUOUS
370
   -3
390
F
  0
ENDTAB
  0
TABLE
  2
STYLE
  5
3
330
0
100
AcDbSymbolTable
 70
    3
  0
STYLE
  5
4A
330
2
100
AcDbSymbolTableRecord
100
AcDbTextStyleTableRecord
  2
STANDARD
 70
    0
 40
0
 41
1
 50
0
 71
    0
 42
1
  3
STANDARD
  4

  0
ENDTAB
  0
TABLE
  2
VIEW
  5
6
330
0
100
AcDbSymbolTable
 70
    0
  0
ENDTAB
  0
TABLE
  2
UCS
  5
7
330
0
100
AcDbSymbolTable
 70
    0
  0
ENDTAB
  0
TABLE
  2
APPID
  5
9
330
0
100
AcDbSymbolTable
 70
    1
  0
APPID
  5
12
330
9
100
AcDbSymbolTableRecord
100
AcDbRegAppTableRecord
  2
ACAD
 70
    0
  0
APPID
  5
4B
330
9
100
AcDbSymbolTableRecord
100
AcDbRegAppTableRecord
  2
LibreCad
 70
    0
  0
ENDTAB
  0
TABLE
  2
DIMSTYLE
  5
A
330
0
100
AcDbSymbolTable
 70
    1
100
AcDbDimStyleTable
 71
    1
  0
DIMSTYLE
105
4C
330
A
100
AcDbSymbolTableRecord
100
AcDbDimStyleTableRecord
  2
Standard
 70
    0
 40
1
 41
2.5
 42
0.625
 43
0.38
 44
1.25
 45
0
 46
0
 47
0
 48
0
 49
1
140
2.5
141
0.09
142
0
143
25.4
144
1
145
0
146
1
147
0.625
148
0
 71
    0
 72
    0
 73
    0
 74
    1
 75
    0
 76
    0
 77
    0
 78
    1
 79
    0
170
    0
171
    2
172
    0
173
    0
174
    0
175
    0
176
    0
177
    0
178
    0
179
    2
271
    4
272
    4
273
    2
274
    2
275
    0
276
    0
277
    2
278
    0
279
    0
280
    0
281
    0
282
    0
283
    1
284
    0
285
    0
286
    0
288
    0
289
    3
340
standard
341

371
   -2
372
   -2
  0
ENDTAB
  0
TABLE
  2
BLOCK_RECORD
  5
1
330
0
100
AcDbSymbolTable
 70
    2
  0
BLOCK_RECORD
  5
1F
330
1
100
AcDbSymbolTableRecord
100
AcDbBlockTableRecord
  2
*Model_Space
 70
    0
280
    1
281
    0
  0
BLOCK_RECORD
  5
1E
330
1
100
AcDbSymbolTableRecord
100
AcDbBlockTableRecord
  2
*Paper_Space
 70
    0
280
    1
281
    0
  0
BLOCK_RECORD
  5
4D
330
1
100
AcDbSymbolTableRecord
100
AcDbBlockTableRecord
  2
328beb9a7a8f13a202a9b0bb2260a7621978f5cf_switch
 70
    0
280
    1
281
    0
  0
BLOCK_RECORD
  5
50
330
1
100
AcDbSymbolTableRecord
100
AcDbBlockTableRecord
  2
fat-edge
 70
    0
280
    1
281
    0
  0
ENDTAB
  0
ENDSEC
  0
SECTION
  2
BLOCKS
  0
BLOCK
  5
20
330
1F
100
AcDbEntity
  8
0
100
AcDbBlockBegin
  2
*Model_Space
 70
    0
 10
0
 20
0
 30
0
  3
*Model_Space
  1

  0
ENDBLK
  5
21
330
1F
100
AcDbEntity
  8
0
100
AcDbBlockEnd
  0
BLOCK
  5
1C
330
1B
100
AcDbEntity
  8
0
100
AcDbBlockBegin
  2
*Paper_Space
 70
    0
 10
0
 20
0
 30
0
  3
*Paper_Space
  1

  0
ENDBLK
  5
1D
330
1F
100
AcDbEntity
  8
0
100
AcDbBlockEnd
  0
BLOCK
  5
4E
330
4D
100
AcDbEntity
  8
0
100
AcDbBlockBegin
  2
328beb9a7a8f13a202a9b0bb2260a7621978f5cf_switch
 70
    0
 10
0
 20
0
  3
328beb9a7a8f13a202a9b0bb2260a7621978f5cf_switch
  1

  0
LINE
  5
53
100
AcDbEntity
  8
0
  6
ByLayer
 62
    0
370
   -1
100
AcDbLine
 10
0.09508460000000001
 20
95.50749999999999
 11
295.37
 21
95.50749999999999
  0
LINE
  5
54
100
AcDbEntity
  8
0
  6
ByLayer
 62
    0
370
   -1
100
AcDbLine
 10
295.37
 20
95.50749999999999
 11
295.37
 21
0.21084
  0
LINE
  5
55
100
AcDbEntity
  8
0
  6
ByLayer
 62
    0
370
   -1
100
AcDbLine
 10
295.37
 20
0.21084
 11
0.09508460000000001
 21
0.21084
  0
LINE
  5
56
100
AcDbEntity
  8
0
  6
ByLayer
 62
    0
370
   -1
100
AcDbLine
 10
0.09508460000000001
 20
0.21084
 11
0.09508460000000001
 21
95.50749999999999
  0
LINE
  5
57
100
AcDbEntity
  8
0
  6
ByLayer
 62
    0
370
   -1
100
AcDbLine
 10
119.119
 20
14.7864
 11
131.243
 21
7.78591
  0
LINE
  5
58
100
AcDbEntity
  8
0
  6
ByLayer
 62
    0
370
   -1
100
AcDbLine
 10
131.243
 20
7.78591
 11
138.243
 21
19.9113
  0
LINE
  5
59
100
AcDbEntity
  8
0
  6
ByLayer
 62
    0
370
   -1
100
AcDbLine
 10
138.243
 20
19.9113
 11
126.119
 21
26.9117
  0
LINE
  5
5A
100
AcDbEntity
  8
0
  6
ByLayer
 62
    0
370
   -1
100
AcDbLine
 10
126.119
 20
26.9117
 11
119.119
 21
14.7864
  0
LINE
  5
5B
100
AcDbEntity
  8
0
  6
ByLayer
 62
    0
370
   -1
100
AcDbLine
 10
164.364
 20
24.0357
 11
171.363
 21
11.9118
  0
LINE
  5
5C
100
AcDbEntity
  8
0
  6
ByLayer
 62
    0
370
   -1
100
AcDbLine
 10
171.363
 20
11.9118
 11
183.487
 21
18.9108
  0
LINE
  5
5D
100
AcDbEntity
  8
0
  6
ByLayer
 62
    0
370
   -1
100
AcDbLine
 10
183.487
 20
18.9108
 11
176.488
 21
31.0348
  0
LINE
  5
5E
100
AcDbEntity
  8
0
  6
ByLayer
 62
    0
370
   -1
100
AcDbLine
 10
176.488
 20
31.0348
 11
164.364
 21
24.0357
  0
LINE
  5
5F
100
AcDbEntity
  8
0
  6
ByLayer
 62
    0
370
   -1
100
AcDbLine
 10
98.2003
 20
16.3628
 11
111.723
 21
12.74
  0
LINE
  5
60
100
AcDbEntity
  8
0
  6
ByLayer
 62
    0
370
   -1
100
AcDbLine
 10
111.723
 20
12.74
 11
115.346
 21
26.2626
  0
LINE
  5
61
100
AcDbEntity
  8
0
  6
ByLayer
 62
    0
370
   -1
100
AcDbLine
 10
115.346
 20
26.2626
 11
101.823
 21
29.8855
  0
LINE
  5
62
100
AcDbEntity
  8
0
  6
ByLayer
 62
    0
370
   -1
100
AcDbLine
 10
101.823
 20
29.8855
 11
98.2003
 21
16.3628
  0
LINE
  5
63
100
AcDbEntity
  8
0
  6
ByLayer
 62
    0
370
   -1
100
AcDbLine
 10
231.22
 20
31.0706
 11
245.219
 21
31.0706
  0
LINE
  5
64
100
AcDbEntity
  8
0
  6
ByLayer
 62
    0
370
   -1
100
AcDbLine
 10
245.219
 20
31.0706
 11
245.219
 21
17.0711
  0
LINE
  5
65
100
AcDbEntity
  8
0
  6
ByLayer
 62
    0
370
   -1
100
AcDbLine
 10
245.219
 20
17.0711
 11
231.22
 21
17.0711
  0
LINE
  5
66
100
AcDbEntity
  8
0
  6
ByLayer
 62
    0
370
   -1
100
AcDbLine
 10
231.22
 20
17.0711
 11
231.22
 21
31.0706
  0
LINE
  5
67
100
AcDbEntity
  8
0
  6
ByLayer
 62
    0
370
   -1
100
AcDbLine
 10
212.17
 20
31.0706
 11
226.169
 21
31.0706
  0
LINE
  5
68
100
AcDbEntity
  8
0
  6
ByLayer
 62
    0
370
   -1
100
AcDbLine
 10
226.169
 20
31.0706
 11
226.169
 21
17.0711
  0
LINE
  5
69
100
AcDbEntity
  8
0
  6
ByLayer
 62
    0
370
   -1
100
AcDbLine
 10
226.169
 20
17.0711
 11
212.17
 21
17.0711
  0
LINE
  5
6A
100
AcDbEntity
  8
0
  6
ByLayer
 62
    0
370
   -1
100
AcDbLine
 10
212.17
 20
17.0711
 11
212.17
 21
31.0706
  0
LINE
  5
6B
100
AcDbEntity
  8
0
  6
ByLayer
 62
    0
370
   -1
100
AcDbLine
 10
78.8197
 20
31.0706
 11
92.819
 21
31.0706
  0
LINE
  5
6C
100
AcDbEntity
  8
0
  6
ByLayer
 62
    0
370
   -1
100
AcDbLine
 10
92.819
 20
31.0706
 11
92.819
 21
17.0711
  0
LINE
  5
6D
100
AcDbEntity
  8
0
  6
ByLayer
 62
    0
370
   -1
100
AcDbLine
 10
92.819
 20
17.0711
 11
78.8197
 21
17.0711
  0
LINE
  5
6E
100
AcDbEntity
  8
0
  6
ByLayer
 62
    0
370
   -1
100
AcDbLine
 10
78.8197
 20
17.0711
 11
78.8197
 21
31.0706
  0
LINE
  5
6F
100
AcDbEntity
  8
0
  6
ByLayer
 62
    0
370
   -1
100
AcDbLine
 10
59.7697
 20
31.0706
 11
73.76900000000001
 21
31.0706
  0
LINE
  5
70
100
AcDbEntity
  8
0
  6
ByLayer
 62
    0
370
   -1
100
AcDbLine
 10
73.76900000000001
 20
31.0706
 11
73.76900000000001
 21
17.0711
  0
LINE
  5
71
100
AcDbEntity
  8
0
  6
ByLayer
 62
    0
370
   -1
100
AcDbLine
 10
73.76900000000001
 20
17.0711
 11
59.7697
 21
17.0711
  0
LINE
  5
72
100
AcDbEntity
  8
0
  6
ByLayer
 62
    0
370
   -1
100
AcDbLine
 10
59.7697
 20
17.0711
 11
59.7697
 21
31.0706
  0
LINE
  5
73
100
AcDbEntity
  8
0
  6
ByLayer
 62
    0
370
   -1
100
AcDbLine
 10
188.408
 20
30.8626
 11
192.031
 21
17.3398
  0
LINE
  5
74
100
AcDbEntity
  8
0
  6
ByLayer
 62
    0
370
   -1
100
AcDbLine
 10
192.031
 20
17.3398
 11
205.555
 21
20.9627
  0
LINE
  5
75
100
AcDbEntity
  8
0
  6
ByLayer
 62
    0
370
   -1
100
AcDbLine
 10
205.555
 20
20.9627
 11
201.931
 21
34.4868
  0
LINE
  5
76
100
AcDbEntity
  8
0
  6
ByLayer
 62
    0
370
   -1
100
AcDbLine
 10
201.931
 20
34.4868
 11
188.408
 21
30.8626
  0
LINE
  5
77
100
AcDbEntity
  8
0
  6
ByLayer
 62
    0
370
   -1
100
AcDbLine
 10
278.845
 20
40.5955
 11
292.844
 21
40.5955
  0
LINE
  5
78
100
AcDbEntity
  8
0
  6
ByLayer
 62
    0
370
   -1
100
AcDbLine
 10
292.844
 20
40.5955
 11
292.844
 21
26.5961
  0
LINE
  5
79
100
AcDbEntity
  8
0
  6
ByLayer
 62
    0
370
   -1
100
AcDbLine
 10
292.844
 20
26.5961
 11
278.845
 21
26.5961
  0
LINE
  5
7A
100
AcDbEntity
  8
0
  6
ByLayer
 62
    0
370
   -1
100
AcDbLine
 10
278.845
 20
26.5961
 11
278.845
 21
40.5955
  0
LINE
  5
7B
100
AcDbEntity
  8
0
  6
ByLayer
 62
    0
370
   -1
100
AcDbLine
 10
259.795
 20
40.5955
 11
273.794
 21
40.5955
  0
LINE
  5
7C
100
AcDbEntity
  8
0
  6
ByLayer
 62
    0
370
   -1
100
AcDbLine
 10
273.794
 20
40.5955
 11
273.794
 21
26.5961
  0
LINE
  5
7D
100
AcDbEntity
  8
0
  6
ByLayer
 62
    0
370
   -1
100
AcDbLine
 10
273.794
 20
26.5961
 11
259.795
 21
26.5961
  0
LINE
  5
7E
100
AcDbEntity
  8
0
  6
ByLayer
 62
    0
370
   -1
100
AcDbLine
 10
259.795
 20
26.5961
 11
259.795
 21
40.5955
  0
LINE
  5
7F
100
AcDbEntity
  8
0
  6
ByLayer
 62
    0
370
   -1
100
AcDbLine
 10
31.1947
 20
40.5955
 11
45.194
 21
40.5955
  0
LINE
  5
80
100
AcDbEntity
  8
0
  6
ByLayer
 62
    0
370
   -1
100
AcDbLine
 10
45.194
 20
40.5955
 11
45.194
 21
26.5961
  0
LINE
  5
81
100
AcDbEntity
  8
0
  6
ByLayer
 62
    0
370
   -1
100
AcDbLine
 10
45.194
 20
26.5961
 11
31.1947
 21
26.5961
  0
LINE
  5
82
100
AcDbEntity
  8
0
  6
ByLayer
 62
    0
370
   -1
100
AcDbLine
 10
31.1947
 20
26.5961
 11
31.1947
 21
40.5955
  0
LINE
  5
83
100
AcDbEntity
  8
0
  6
ByLayer
 62
    0
370
   -1
100
AcDbLine
 10
7.38216
 20
40.5955
 11
21.3817
 21
40.5955
  0
LINE
  5
84
100
AcDbEntity
  8
0
  6
ByLayer
 62
    0
370
   -1
100
AcDbLine
 10
21.3817
 20
40.5955
 11
21.3817
 21
26.5961
  0
LINE
  5
85
100
AcDbEntity
  8
0
  6
ByLayer
 62
    0
370
   -1
100
AcDbLine
 10
21.3817
 20
26.5961
 11
7.38216
 21
26.5961
  0
LINE
  5
86
100
AcDbEntity
  8
0
  6
ByLayer
 62
    0
370
   -1
100
AcDbLine
 10
7.38216
 20
26.5961
 11
7.38216
 21
40.5955
  0
LINE
  5
87
100
AcDbEntity
  8
0
  6
ByLayer
 62
    0
370
   -1
100
AcDbLine
 10
183.595
 20
49.1684
 11
197.594
 21
49.1684
  0
LINE
  5
88
100
AcDbEntity
  8
0
  6
ByLayer
 62
    0
370
   -1
100
AcDbLine
 10
197.594
 20
49.1684
 11
197.594
 21
35.1689
  0
LINE
  5
89
100
AcDbEntity
  8
0
  6
ByLayer
 62
    0
370
   -1
100
AcDbLine
 10
197.594
 20
35.1689
 11
183.595
 21
35.1689
  0
LINE
  5
8A
100
AcDbEntity
  8
0
  6
ByLayer
 62
    0
370
   -1
100
AcDbLine
 10
183.595
 20
35.1689
 11
183.595
 21
49.1684
  0
LINE
  5
8B
100
AcDbEntity
  8
0
  6
ByLayer
 62
    0
370
   -1
100
AcDbLine
 10
107.395
 20
49.1684
 11
121.394
 21
49.1684
  0
LINE
  5
8C
100
AcDbEntity
  8
0
  6
ByLayer
 62
    0
370
   -1
100
AcDbLine
 10
121.394
 20
49.1684
 11
121.394
 21
35.1689
  0
LINE
  5
8D
100
AcDbEntity
  8
0
  6
ByLayer
 62
    0
370
   -1
100
AcDbLine
 10
121.394
 20
35.1689
 11
107.395
 21
35.1689
  0
LINE
  5
8E
100
AcDbEntity
  8
0
  6
ByLayer
 62
    0
370
   -1
100
AcDbLine
 10
107.395
 20
35.1689
 11
107.395
 21
49.1684
  0
LINE
  5
8F
100
AcDbEntity
  8
0
  6
ByLayer
 62
    0
370
   -1
100
AcDbLine
 10
240.745
 20
50.1206
 11
254.744
 21
50.1206
  0
LINE
  5
90
100
AcDbEntity
  8
0
  6
ByLayer
 62
    0
370
   -1
100
AcDbLine
 10
254.744
 20
50.1206
 11
254.744
 21
36.1213
  0
LINE
  5
91
100
AcDbEntity
  8
0
  6
ByLayer
 62
    0
370
   -1
100
AcDbLine
 10
254.744
 20
36.1213
 11
240.745
 21
36.1213
  0
LINE
  5
92
100
AcDbEntity
  8
0
  6
ByLayer
 62
    0
370
   -1
100
AcDbLine
 10
240.745
 20
36.1213
 11
240.745
 21
50.1206
  0
LINE
  5
93
100
AcDbEntity
  8
0
  6
ByLayer
 62
    0
370
   -1
100
AcDbLine
 10
202.645
 20
50.1206
 11
216.644
 21
50.1206
  0
LINE
  5
94
100
AcDbEntity
  8
0
  6
ByLayer
 62
    0
370
   -1
100
AcDbLine
 10
216.644
 20
50.1206
 11
216.644
 21
36.1213
  0
LINE
  5
95
100
AcDbEntity
  8
0
  6
ByLayer
 62
    0
370
   -1
100
AcDbLine
 10
216.644
 20
36.1213
 11
202.645
 21
36.1213
  0
LINE
  5
96
100
AcDbEntity
  8
0
  6
ByLayer
 62
    0
370
   -1
100
AcDbLine
 10
202.645
 20
36.1213
 11
202.645
 21
50.1206
  0
LINE
  5
97
100
AcDbEntity
  8
0
  6
ByLayer
 62
    0
370
   -1
100
AcDbLine
 10
88.3447
 20
50.1206
 11
102.344
 21
50.1206
  0
LINE
  5
98
100
AcDbEntity
  8
0
  6
ByLayer
 62
    0
370
   -1
100
AcDbLine
 10
102.344
 20
50.1206
 11
102.344
 21
36.1213
  0
LINE
  5
99
100
AcDbEntity
  8
0
  6
ByLayer
 62
    0
370
   -1
100
AcDbLine
 10
102.344
 20
36.1213
 11
88.3447
 21
36.1213
  0
LINE
  5
9A
100
AcDbEntity
  8
0
  6
ByLayer
 62
    0
370
   -1
100
AcDbLine
 10
88.3447
 20
36.1213
 11
88.3447
 21
50.1206
  0
LINE
  5
9B
100
AcDbEntity
  8
0
  6
ByLayer
 62
    0
370
   -1
100
AcDbLine
 10
50.2447
 20
50.1206
 11
64.244
 21
50.1206
  0
LINE
  5
9C
100
AcDbEntity
  8
0
  6
ByLayer
 62
    0
370
   -1
100
AcDbLine
 10
64.244
 20
50.1206
 11
64.244
 21
36.1213
  0
LINE
  5
9D
100
AcDbEntity
  8
0
  6
ByLayer
 62
    0
370
   -1
100
AcDbLine
 10
64.244
 20
36.1213
 11
50.2447
 21
36.1213
  0
LINE
  5
9E
100
AcDbEntity
  8
0
  6
ByLayer
 62
    0
370
   -1
100
AcDbLine
 10
50.2447
 20
36.1213
 11
50.2447
 21
50.1206
  0
LINE
  5
9F
100
AcDbEntity
  8
0
  6
ByLayer
 62
    0
370
   -1
100
AcDbLine
 10
221.695
 20
52.4069
 11
235.694
 21
52.4069
  0
LINE
  5
A0
100
AcDbEntity
  8
0
  6
ByLayer
 62
    0
370
   -1
100
AcDbLine
 10
235.694
 20
52.4069
 11
235.694
 21
38.4073
  0
LINE
  5
A1
100
AcDbEntity
  8
0
  6
ByLayer
 62
    0
370
   -1
100
AcDbLine
 10
235.694
 20
38.4073
 11
221.695
 21
38.4073
  0
LINE
  5
A2
100
AcDbEntity
  8
0
  6
ByLayer
 62
    0
370
   -1
100
AcDbLine
 10
221.695
 20
38.4073
 11
221.695
 21
52.4069
  0
LINE
  5
A3
100
AcDbEntity
  8
0
  6
ByLayer
 62
    0
370
   -1
100
AcDbLine
 10
69.29470000000001
 20
52.4069
 11
83.294
 21
52.4069
  0
LINE
  5
A4
100
AcDbEntity
  8
0
  6
ByLayer
 62
    0
370
   -1
100
AcDbLine
 10
83.294
 20
52.4069
 11
83.294
 21
38.4073
  0
LINE
  5
A5
100
AcDbEntity
  8
0
  6
ByLayer
 62
    0
370
   -1
100
AcDbLine
 10
83.294
 20
38.4073
 11
69.29470000000001
 21
38.4073
  0
LINE
  5
A6
100
AcDbEntity
  8
0
  6
ByLayer
 62
    0
370
   -1
100
AcDbLine
 10
69.29470000000001
 20
38.4073
 11
69.29470000000001
 21
52.4069
  0
LINE
  5
A7
100
AcDbEntity
  8
0
  6
ByLayer
 62
    0
370
   -1
100
AcDbLine
 10
278.845
 20
59.6456
 11
292.844
 21
59.6456
  0
LINE
  5
A8
100
AcDbEntity
  8
0
  6
ByLayer
 62
    0
370
   -1
100
AcDbLine
 10
292.844
 20
59.6456
 11
292.844
 21
45.6463
  0
LINE
  5
A9
100
AcDbEntity
  8
0
  6
ByLayer
 62
    0
370
   -1
100
AcDbLine
 10
292.844
 20
45.6463
 11
278.845
 21
45.6463
  0
LINE
  5
AA
100
AcDbEntity
  8
0
  6
ByLayer
 62
    0
370
   -1
100
AcDbLine
 10
278.845
 20
45.6463
 11
278.845
 21
59.6456
  0
LINE
  5
AB
100
AcDbEntity
  8
0
  6
ByLayer
 62
    0
370
   -1
100
AcDbLine
 10
259.795
 20
59.6456
 11
273.794
 21
59.6456
  0
LINE
  5
AC
100
AcDbEntity
  8
0
  6
ByLayer
 62
    0
370
   -1
100
AcDbLine
 10
273.794
 20
59.6456
 11
273.794
 21
45.6463
  0
LINE
  5
AD
100
AcDbEntity
  8
0
  6
ByLayer
 62
    0
370
   -1
100
AcDbLine
 10
273.794
 20
45.6463
 11
259.795
 21
45.6463
  0
LINE
  5
AE
100
AcDbEntity
  8
0
  6
ByLayer
 62
    0
370
   -1
100
AcDbLine
 10
259.795
 20
45.6463
 11
259.795
 21
59.6456
  0
LINE
  5
AF
100
AcDbEntity
  8
0
  6
ByLayer
 62
    0
370
   -1
100
AcDbLine
 10
31.1947
 20
59.6456
 11
45.194
 21
59.6456
  0
LINE
  5
B0
100
AcDbEntity
  8
0
  6
ByLayer
 62
    0
370
   -1
100
AcDbLine
 10
45.194
 20
59.6456
 11
45.194
 21
45.6463
  0
LINE
  5
B1
100
AcDbEntity
  8
0
  6
ByLayer
 62
    0
370
   -1
100
AcDbLine
 10
45.194
 20
45.6463
 11
31.1947
 21
45.6463
  0
LINE
  5
B2
100
AcDbEntity
  8
0
  6
ByLayer
 62
    0
370
   -1
100
AcDbLine
 10
31.1947
 20
45.6463
 11
31.1947
 21
59.6456
  0
LINE
  5
B3
100
AcDbEntity
  8
0
  6
ByLayer
 62
    0
370
   -1
100
AcDbLine
 10
7.38216
 20
59.6456
 11
21.3817
 21
59.6456
  0
LINE
  5
B4
100
AcDbEntity
  8
0
  6
ByLayer
 62
    0
370
   -1
100
AcDbLine
 10
21.3817
 20
59.6456
 11
21.3817
 21
45.6463
  0
LINE
  5
B5
100
AcDbEntity
  8
0
  6
ByLayer
 62
    0
370
   -1
100
AcDbLine
 10
21.3817
 20
45.6463
 11
7.38216
 21
45.6463
  0
LINE
  5
B6
100
AcDbEntity
  8
0
  6
ByLayer
 62
    0
370
   -1
100
AcDbLine
 10
7.38216
 20
45.6463
 11
7.38216
 21
59.6456
  0
LINE
  5
B7
100
AcDbEntity
  8
0
  6
ByLayer
 62
    0
370
   -1
100
AcDbLine
 10
183.595
 20
68.2184
 11
197.594
 21
68.2184
  0
LINE
  5
B8
100
AcDbEntity
  8
0
  6
ByLayer
 62
    0
370
   -1
100
AcDbLine
 10
197.594
 20
68.2184
 11
197.594
 21
54.2188
  0
LINE
  5
B9
100
AcDbEntity
  8
0
  6
ByLayer
 62
    0
370
   -1
100
AcDbLine
 10
197.594
 20
54.2188
 11
183.595
 21
54.2188
  0
LINE
  5
BA
100
AcDbEntity
  8
0
  6
ByLayer
 62
    0
370
   -1
100
AcDbLine
 10
183.595
 20
54.2188
 11
183.595
 21
68.2184
  0
LINE
  5
BB
100
AcDbEntity
  8
0
  6
ByLayer
 62
    0
370
   -1
100
AcDbLine
 10
107.395
 20
68.2184
 11
121.394
 21
68.2184
  0
LINE
  5
BC
100
AcDbEntity
  8
0
  6
ByLayer
 62
    0
370
   -1
100
AcDbLine
 10
121.394
 20
68.2184
 11
121.394
 21
54.2188
  0
LINE
  5
BD
100
AcDbEntity
  8
0
  6
ByLayer
 62
    0
370
   -1
100
AcDbLine
 10
121.394
 20
54.2188
 11
107.395
 21
54.2188
  0
LINE
  5
BE
100
AcDbEntity
  8
0
  6
ByLayer
 62
    0
370
   -1
100
AcDbLine
 10
107.395
 20
54.2188
 11
107.395
 21
68.2184
  0
LINE
  5
BF
100
AcDbEntity
  8
0
  6
ByLayer
 62
    0
370
   -1
100
AcDbLine
 10
240.745
 20
69.17059999999999
 11
254.744
 21
69.17059999999999
  0
LINE
  5
C0
100
AcDbEntity
  8
0
  6
ByLayer
 62
    0
370
   -1
100
AcDbLine
 10
254.744
 20
69.17059999999999
 11
254.744
 21
55.1713
  0
LINE
  5
C1
100
AcDbEntity
  8
0
  6
ByLayer
 62
    0
370
   -1
100
AcDbLine
 10
254.744
 20
55.1713
 11
240.745
 21
55.1713
  0
LINE
  5
C2
100
AcDbEntity
  8
0
  6
ByLayer
 62
    0
370
   -1
100
AcDbLine
 10
240.745
 20
55.1713
 11
240.745
 21
69.17059999999999
  0
LINE
  5
C3
100
AcDbEntity
  8
0
  6
ByLayer
 62
    0
370
   -1
100
AcDbLine
 10
202.645
 20
69.17059999999999
 11
216.644
 21
69.17059999999999
  0
LINE
  5
C4
100
AcDbEntity
  8
0
  6
ByLayer
 62
    0
370
   -1
100
AcDbLine
 10
216.644
 20
69.17059999999999
 11
216.644
 21
55.1713
  0
LINE
  5
C5
100
AcDbEntity
  8
0
  6
ByLayer
 62
    0
370
   -1
100
AcDbLine
 10
216.644
 20
55.1713
 11
202.645
 21
55.1713
  0
LINE
  5
C6
100
AcDbEntity
  8
0
  6
ByLayer
 62
    0
370
   -1
100
AcDbLine
 10
202.645
 20
55.1713
 11
202.645
 21
69.17059999999999
  0
LINE
  5
C7
100
AcDbEntity
  8
0
  6
ByLayer
 62
    0
370
   -1
100
AcDbLine
 10
88.3447
 20
69.17059999999999
 11
102.344
 21
69.17059999999999
  0
LINE
  5
C8
100
AcDbEntity
  8
0
  6
ByLayer
 62
    0
370
   -1
100
AcDbLine
 10
102.344
 20
69.17059999999999
 11
102.344
 21
55.1713
  0
LINE
  5
C9
100
AcDbEntity
  8
0
  6
ByLayer
 62
    0
370
   -1
100
AcDbLine
 10
102.344
 20
55.1713
 11
88.3447
 21
55.1713
  0
LINE
  5
CA
100
AcDbEntity
  8
0
  6
ByLayer
 62
    0
370
   -1
100
AcDbLine
 10
88.3447
 20
55.1713
 11
88.3447
 21
69.17059999999999
  0
LINE
  5
CB
100
AcDbEntity
  8
0
  6
ByLayer
 62
    0
370
   -1
100
AcDbLine
 10
50.2447
 20
69.17059999999999
 11
64.244
 21
69.17059999999999
  0
LINE
  5
CC
100
AcDbEntity
  8
0
  6
ByLayer
 62
    0
370
   -1
100
AcDbLine
 10
64.244
 20
69.17059999999999
 11
64.244
 21
55.1713
  0
LINE
  5
CD
100
AcDbEntity
  8
0
  6
ByLayer
 62
    0
370
   -1
100
AcDbLine
 10
64.244
 20
55.1713
 11
50.2447
 21
55.1713
  0
LINE
  5
CE
100
AcDbEntity
  8
0
  6
ByLayer
 62
    0
370
   -1
100
AcDbLine
 10
50.2447
 20
55.1713
 11
50.2447
 21
69.17059999999999
  0
LINE
  5
CF
100
AcDbEntity
  8
0
  6
ByLayer
 62
    0
370
   -1
100
AcDbLine
 10
221.695
 20
71.4569
 11
235.694
 21
71.4569
  0
LINE
  5
D0
100
AcDbEntity
  8
0
  6
ByLayer
 62
    0
370
   -1
100
AcDbLine
 10
235.694
 20
71.4569
 11
235.694
 21
57.4573
  0
LINE
  5
D1
100
AcDbEntity
  8
0
  6
ByLayer
 62
    0
370
   -1
100
AcDbLine
 10
235.694
 20
57.4573
 11
221.695
 21
57.4573
  0
LINE
  5
D2
100
AcDbEntity
  8
0
  6
ByLayer
 62
    0
370
   -1
100
AcDbLine
 10
221.695
 20
57.4573
 11
221.695
 21
71.4569
  0
LINE
  5
D3
100
AcDbEntity
  8
0
  6
ByLayer
 62
    0
370
   -1
100
AcDbLine
 10
69.29470000000001
 20
71.4569
 11
83.294
 21
71.4569
  0
LINE
  5
D4
100
AcDbEntity
  8
0
  6
ByLayer
 62
    0
370
   -1
100
AcDbLine
 10
83.294
 20
71.4569
 11
83.294
 21
57.4573
  0
LINE
  5
D5
100
AcDbEntity
  8
0
  6
ByLayer
 62
    0
370
   -1
100
AcDbLine
 10
83.294
 20
57.4573
 11
69.29470000000001
 21
57.4573
  0
LINE
  5
D6
100
AcDbEntity
  8
0
  6
ByLayer
 62
    0
370
   -1
100
AcDbLine
 10
69.29470000000001
 20
57.4573
 11
69.29470000000001
 21
71.4569
  0
LINE
  5
D7
100
AcDbEntity
  8
0
  6
ByLayer
 62
    0
370
   -1
100
AcDbLine
 10
278.845
 20
78.6956
 11
292.844
 21
78.6956
  0
LINE
  5
D8
100
AcDbEntity
  8
0
  6
ByLayer
 62
    0
370
   -1
100
AcDbLine
 10
292.844
 20
78.6956
 11
292.844
 21
64.69629999999999
  0
LINE
  5
D9
100
AcDbEntity
  8
0
  6
ByLayer
 62
    0
370
   -1
100
AcDbLine
 10
292.844
 20
64.69629999999999
 11
278.845
 21
64.69629999999999
  0
LINE
  5
DA
100
AcDbEntity
  8
0
  6
ByLayer
 62
    0
370
   -1
100
AcDbLine
 10
278.845
 20
64.69629999999999
 11
278.845
 21
78.6956
  0
LINE
  5
DB
100
AcDbEntity
  8
0
  6
ByLayer
 62
    0
370
   -1
100
AcDbLine
 10
259.795
 20
78.6956
 11
273.794
 21
78.6956
  0
LINE
  5
DC
100
AcDbEntity
  8
0
  6
ByLayer
 62
    0
370
   -1
100
AcDbLine
 10
273.794
 20
78.6956
 11
273.794
 21
64.69629999999999
  0
LINE
  5
DD
100
AcDbEntity
  8
0
  6
ByLayer
 62
    0
370
   -1
100
AcDbLine
 10
273.794
 20
64.69629999999999
 11
259.795
 21
64.69629999999999
  0
LINE
  5
DE
100
AcDbEntity
  8
0
  6
ByLayer
 62
    0
370
   -1
100
AcDbLine
 10
259.795
 20
64.69629999999999
 11
259.795
 21
78.6956
  0
LINE
  5
DF
100
AcDbEntity
  8
0
  6
ByLayer
 62
    0
370
   -1
100
AcDbLine
 10
31.1947
 20
78.6956
 11
45.194
 21
78.6956
  0
LINE
  5
E0
100
AcDbEntity
  8
0
  6
ByLayer
 62
    0
370
   -1
100
AcDbLine
 10
45.194
 20
78.6956
 11
45.194
 21
64.69629999999999
  0
LINE
  5
E1
100
AcDbEntity
  8
0
  6
ByLayer
 62
    0
370
   -1
100
AcDbLine
 10
45.194
 20
64.69629999999999
 11
31.1947
 21
64.69629999999999
  0
LINE
  5
E2
100
AcDbEntity
  8
0
  6
ByLayer
 62
    0
370
   -1
100
AcDbLine
 10
31.1947
 20
64.69629999999999
 11
31.1947
 21
78.6956
  0
LINE
  5
E3
100
AcDbEntity
  8
0
  6
ByLayer
 62
    0
370
   -1
100
AcDbLine
 10
7.38216
 20
78.6956
 11
21.3817
 21
78.6956
  0
LINE
  5
E4
100
AcDbEntity
  8
0
  6
ByLayer
 62
    0
370
   -1
100
AcDbLine
 10
21.3817
 20
78.6956
 11
21.3817
 21
64.69629999999999
  0
LINE
  5
E5
100
AcDbEntity
  8
0
  6
ByLayer
 62
    0
370
   -1
100
AcDbLine
 10
21.3817
 20
64.69629999999999
 11
7.38216
 21
64.69629999999999
  0
LINE
  5
E6
100
AcDbEntity
  8
0
  6
ByLayer
 62
    0
370
   -1
100
AcDbLine
 10
7.38216
 20
64.69629999999999
 11
7.38216
 21
78.6956
  0
LINE
  5
E7
100
AcDbEntity
  8
0
  6
ByLayer
 62
    0
370
   -1
100
AcDbLine
 10
183.595
 20
87.2684
 11
197.594
 21
87.2684
  0
LINE
  5
E8
100
AcDbEntity
  8
0
  6
ByLayer
 62
    0
370
   -1
100
AcDbLine
 10
197.594
 20
87.2684
 11
197.594
 21
73.2688
  0
LINE
  5
E9
100
AcDbEntity
  8
0
  6
ByLayer
 62
    0
370
   -1
100
AcDbLine
 10
197.594
 20
73.2688
 11
183.595
 21
73.2688
  0
LINE
  5
EA
100
AcDbEntity
  8
0
  6
ByLayer
 62
    0
370
   -1
100
AcDbLine
 10
183.595
 20
73.2688
 11
183.595
 21
87.2684
  0
LINE
  5
EB
100
AcDbEntity
  8
0
  6
ByLayer
 62
    0
370
   -1
100
AcDbLine
 10
107.395
 20
87.2684
 11
121.394
 21
87.2684
  0
LINE
  5
EC
100
AcDbEntity
  8
0
  6
ByLayer
 62
    0
370
   -1
100
AcDbLine
 10
121.394
 20
87.2684
 11
121.394
 21
73.2688
  0
LINE
  5
ED
100
AcDbEntity
  8
0
  6
ByLayer
 62
    0
370
   -1
100
AcDbLine
 10
121.394
 20
73.2688
 11
107.395
 21
73.2688
  0
LINE
  5
EE
100
AcDbEntity
  8
0
  6
ByLayer
 62
    0
370
   -1
100
AcDbLine
 10
107.395
 20
73.2688
 11
107.395
 21
87.2684
  0
LINE
  5
EF
100
AcDbEntity
  8
0
  6
ByLayer
 62
    0
370
   -1
100
AcDbLine
 10
240.745
 20
88.2206
 11
254.744
 21
88.2206
  0
LINE
  5
F0
100
AcDbEntity
  8
0
  6
ByLayer
 62
    0
370
   -1
100
AcDbLine
 10
254.744
 20
88.2206
 11
254.744
 21
74.2213
  0
LINE
  5
F1
100
AcDbEntity
  8
0
  6
ByLayer
 62
    0
370
   -1
100
AcDbLine
 10
254.744
 20
74.2213
 11
240.745
 21
74.2213
  0
LINE
  5
F2
100
AcDbEntity
  8
0
  6
ByLayer
 62
    0
370
   -1
100
AcDbLine
 10
240.745
 20
74.2213
 11
240.745
 21
88.2206
  0
LINE
  5
F3
100
AcDbEntity
  8
0
  6
ByLayer
 62
    0
370
   -1
100
AcDbLine
 10
202.645
 20
88.2206
 11
216.644
 21
88.2206
  0
LINE
  5
F4
100
AcDbEntity
  8
0
  6
ByLayer
 62
    0
370
   -1
100
AcDbLine
 10
216.644
 20
88.2206
 11
216.644
 21
74.2213
  0
LINE
  5
F5
100
AcDbEntity
  8
0
  6
ByLayer
 62
    0
370
   -1
100
AcDbLine
 10
216.644
 20
74.2213
 11
202.645
 21
74.2213
  0
LINE
  5
F6
100
AcDbEntity
  8
0
  6
ByLayer
 62
    0
370
   -1
100
AcDbLine
 10
202.645
 20
74.2213
 11
202.645
 21
88.2206
  0
LINE
  5
F7
100
AcDbEntity
  8
0
  6
ByLayer
 62
    0
370
   -1
100
AcDbLine
 10
88.3447
 20
88.2206
 11
102.344
 21
88.2206
  0
LINE
  5
F8
100
AcDbEntity
  8
0
  6
ByLayer
 62
    0
370
   -1
100
AcDbLine
 10
102.344
 20
88.2206
 11
102.344
 21
74.2213
  0
LINE
  5
F9
100
AcDbEntity
  8
0
  6
ByLayer
 62
    0
370
   -1
100
AcDbLine
 10
102.344
 20
74.2213
 11
88.3447
 21
74.2213
  0
LINE
  5
FA
100
AcDbEntity
  8
0
  6
ByLayer
 62
    0
370
   -1
100
AcDbLine
 10
88.3447
 20
74.2213
 11
88.3447
 21
88.2206
  0
LINE
  5
FB
100
AcDbEntity
  8
0
  6
ByLayer
 62
    0
370
   -1
100
AcDbLine
 10
50.2447
 20
88.2206
 11
64.244
 21
88.2206
  0
LINE
  5
FC
100
AcDbEntity
  8
0
  6
ByLayer
 62
    0
370
   -1
100
AcDbLine
 10
64.244
 20
88.2206
 11
64.244
 21
74.2213
  0
LINE
  5
FD
100
AcDbEntity
  8
0
  6
ByLayer
 62
    0
370
   -1
100
AcDbLine
 10
64.244
 20
74.2213
 11
50.2447
 21
74.2213
  0
LINE
  5
FE
100
AcDbEntity
  8
0
  6
ByLayer
 62
    0
370
   -1
100
AcDbLine
 10
50.2447
 20
74.2213
 11
50.2447
 21
88.2206
  0
LINE
  5
FF
100
AcDbEntity
  8
0
  6
ByLayer
 62
    0
370
   -1
100
AcDbLine
 10
221.695
 20
90.5069
 11
235.694
 21
90.5069
  0
LINE
  5
100
100
AcDbEntity
  8
0
  6
ByLayer
 62
    0
370
   -1
100
AcDbLine
 10
235.694
 20
90.5069
 11
235.694
 21
76.5073
  0
LINE
  5
101
100
AcDbEntity
  8
0
  6
ByLayer
 62
    0
370
   -1
100
AcDbLine
 10
235.694
 20
76.5073
 11
221.695
 21
76.5073
  0
LINE
  5
102
100
AcDbEntity
  8
0
  6
ByLayer
 62
    0
370
   -1
100
AcDbLine
 10
221.695
 20
76.5073
 11
221.695
 21
90.5069
  0
LINE
  5
103
100
AcDbEntity
  8
0
  6
ByLayer
 62
    0
370
   -1
100
AcDbLine
 10
69.29470000000001
 20
90.5069
 11
83.294
 21
90.5069
  0
LINE
  5
104
100
AcDbEntity
  8
0
  6
ByLayer
 62
    0
370
   -1
100
AcDbLine
 10
83.294
 20
90.5069
 11
83.294
 21
76.5073
  0
LINE
  5
105
100
AcDbEntity
  8
0
  6
ByLayer
 62
    0
370
   -1
100
AcDbLine
 10
83.294
 20
76.5073
 11
69.29470000000001
 21
76.5073
  0
LINE
  5
106
100
AcDbEntity
  8
0
  6
ByLayer
 62
    0
370
   -1
100
AcDbLine
 10
69.29470000000001
 20
76.5073
 11
69.29470000000001
 21
90.5069
  0
ENDBLK
  5
4F
330
4D
100
AcDbEntity
  8
0
100
AcDbBlockEnd
  0
BLOCK
  5
51
330
50
100
AcDbEntity
  8
0
100
AcDbBlockBegin
  2
fat-edge
 70
    0
 10
0
 20
0
  3
fat-edge
  1

  0
LINE
  5
107
100
AcDbEntity
  8
0
  6
ByLayer
 62
    0
370
   -1
100
AcDbLine
 10
103.46107
 20
-61.67199999999998
 11
115.58507
 21
-68.67111999999999
  0
LINE
  5
108
100
AcDbEntity
  8
0
  6
ByLayer
 62
    0
370
   -1
100
AcDbLine
 10
115.58507
 20
-68.67111999999999
 11
122.58507
 21
-56.54709999999999
  0
LINE
  5
109
100
AcDbEntity
  8
0
  6
ByLayer
 62
    0
370
   -1
100
AcDbLine
 10
122.58507
 20
-56.54709999999999
 11
110.46107
 21
-49.54809999999998
  0
LINE
  5
10A
100
AcDbEntity
  8
0
  6
ByLayer
 62
    0
370
   -1
100
AcDbLine
 10
110.46107
 20
-49.54809999999998
 11
103.46107
 21
-61.67199999999998
  0
LINE
  5
10B
100
AcDbEntity
  8
0
  6
ByLayer
 62
    0
370
   -1
100
AcDbLine
 10
83.49307000000002
 20
-57.79839999999999
 11
97.01607000000001
 21
-61.42129999999999
  0
LINE
  5
10C
100
AcDbEntity
  8
0
  6
ByLayer
 62
    0
370
   -1
100
AcDbLine
 10
100.64007
 20
-47.89859999999999
 11
87.11707000000001
 21
-44.27569999999999
  0
LINE
  5
10D
100
AcDbEntity
  8
0
  6
ByLayer
 62
    0
370
   -1
100
AcDbLine
 10
87.11707000000001
 20
-44.27569999999999
 11
83.49307000000002
 21
-57.79839999999999
  0
LINE
  5
10E
100
AcDbEntity
  8
0
  6
ByLayer
 62
    0
370
   -1
100
AcDbLine
 10
64.43777000000001
 20
-40.62539999999998
 11
78.43707000000002
 21
-40.62539999999998
  0
LINE
  5
10F
100
AcDbEntity
  8
0
  6
ByLayer
 62
    0
370
   -1
100
AcDbLine
 10
78.43707000000002
 20
-40.62539999999998
 11
78.43707000000002
 21
-54.62479999999998
  0
LINE
  5
110
100
AcDbEntity
  8
0
  6
ByLayer
 62
    0
370
   -1
100
AcDbLine
 10
78.43707000000002
 20
-54.62479999999998
 11
64.43777000000001
 21
-54.62479999999998
  0
LINE
  5
111
100
AcDbEntity
  8
0
  6
ByLayer
 62
    0
370
   -1
100
AcDbLine
 10
64.43777000000001
 20
-54.62479999999998
 11
64.43777000000001
 21
-40.62539999999998
  0
LINE
  5
112
100
AcDbEntity
  8
0
  6
ByLayer
 62
    0
370
   -1
100
AcDbLine
 10
45.38777000000002
 20
-40.62539999999998
 11
59.38707000000002
 21
-40.62539999999998
  0
LINE
  5
113
100
AcDbEntity
  8
0
  6
ByLayer
 62
    0
370
   -1
100
AcDbLine
 10
59.38707000000002
 20
-40.62539999999998
 11
59.38707000000002
 21
-54.62479999999998
  0
LINE
  5
114
100
AcDbEntity
  8
0
  6
ByLayer
 62
    0
370
   -1
100
AcDbLine
 10
59.38707000000002
 20
-54.62479999999998
 11
45.38777000000002
 21
-54.62479999999998
  0
LINE
  5
115
100
AcDbEntity
  8
0
  6
ByLayer
 62
    0
370
   -1
100
AcDbLine
 10
45.38777000000002
 20
-54.62479999999998
 11
45.38777000000002
 21
-40.62539999999998
  0
LINE
  5
116
100
AcDbEntity
  8
0
  6
ByLayer
 62
    0
370
   -1
100
AcDbLine
 10
16.81277000000002
 20
-31.10039999999999
 11
30.81207000000002
 21
-31.10039999999999
  0
LINE
  5
117
100
AcDbEntity
  8
0
  6
ByLayer
 62
    0
370
   -1
100
AcDbLine
 10
30.81207000000002
 20
-31.10039999999999
 11
30.81207000000002
 21
-45.09979999999999
  0
LINE
  5
118
100
AcDbEntity
  8
0
  6
ByLayer
 62
    0
370
   -1
100
AcDbLine
 10
30.81207000000002
 20
-45.09979999999999
 11
16.81277000000002
 21
-45.09979999999999
  0
LINE
  5
119
100
AcDbEntity
  8
0
  6
ByLayer
 62
    0
370
   -1
100
AcDbLine
 10
16.81277000000002
 20
-45.09979999999999
 11
16.81277000000002
 21
-31.10039999999999
  0
LINE
  5
11A
100
AcDbEntity
  8
0
  6
ByLayer
 62
    0
370
   -1
100
AcDbLine
 10
-6.999769999999979
 20
-31.10039999999999
 11
6.999770000000019
 21
-31.10039999999999
  0
LINE
  5
11B
100
AcDbEntity
  8
0
  6
ByLayer
 62
    0
370
   -1
100
AcDbLine
 10
6.999770000000019
 20
-31.10039999999999
 11
6.999770000000019
 21
-45.09979999999999
  0
LINE
  5
11C
100
AcDbEntity
  8
0
  6
ByLayer
 62
    0
370
   -1
100
AcDbLine
 10
6.999770000000019
 20
-45.09979999999999
 11
-6.999769999999979
 21
-45.09979999999999
  0
LINE
  5
11D
100
AcDbEntity
  8
0
  6
ByLayer
 62
    0
370
   -1
100
AcDbLine
 10
-6.999769999999979
 20
-45.09979999999999
 11
-6.999769999999979
 21
-31.10039999999999
  0
LINE
  5
11E
100
AcDbEntity
  8
0
  6
ByLayer
 62
    0
370
   -1
100
AcDbLine
 10
93.01307000000001
 20
-24.05149999999998
 11
107.01207
 21
-24.05149999999998
  0
LINE
  5
11F
100
AcDbEntity
  8
0
  6
ByLayer
 62
    0
370
   -1
100
AcDbLine
 10
107.01207
 20
-24.05149999999998
 11
107.01207
 21
-38.05109999999998
  0
LINE
  5
120
100
AcDbEntity
  8
0
  6
ByLayer
 62
    0
370
   -1
100
AcDbLine
 10
107.01207
 20
-38.05109999999998
 11
93.01307000000001
 21
-38.05109999999998
  0
LINE
  5
121
100
AcDbEntity
  8
0
  6
ByLayer
 62
    0
370
   -1
100
AcDbLine
 10
93.01307000000001
 20
-38.05109999999998
 11
93.01307000000001
 21
-24.05149999999998
  0
LINE
  5
122
100
AcDbEntity
  8
0
  6
ByLayer
 62
    0
370
   -1
100
AcDbLine
 10
73.96277000000002
 20
-21.57539999999999
 11
87.96207000000001
 21
-21.57539999999999
  0
LINE
  5
123
100
AcDbEntity
  8
0
  6
ByLayer
 62
    0
370
   -1
100
AcDbLine
 10
87.96207000000001
 20
-21.57539999999999
 11
87.96207000000001
 21
-35.57459999999998
  0
LINE
  5
124
100
AcDbEntity
  8
0
  6
ByLayer
 62
    0
370
   -1
100
AcDbLine
 10
87.96207000000001
 20
-35.57459999999998
 11
73.96277000000002
 21
-35.57459999999998
  0
LINE
  5
125
100
AcDbEntity
  8
0
  6
ByLayer
 62
    0
370
   -1
100
AcDbLine
 10
73.96277000000002
 20
-35.57459999999998
 11
73.96277000000002
 21
-21.57539999999999
  0
LINE
  5
126
100
AcDbEntity
  8
0
  6
ByLayer
 62
    0
370
   -1
100
AcDbLine
 10
35.86277000000003
 20
-21.57539999999999
 11
49.86207000000002
 21
-21.57539999999999
  0
LINE
  5
127
100
AcDbEntity
  8
0
  6
ByLayer
 62
    0
370
   -1
100
AcDbLine
 10
49.86207000000002
 20
-21.57539999999999
 11
49.86207000000002
 21
-35.57459999999998
  0
LINE
  5
128
100
AcDbEntity
  8
0
  6
ByLayer
 62
    0
370
   -1
100
AcDbLine
 10
49.86207000000002
 20
-35.57459999999998
 11
35.86277000000003
 21
-35.57459999999998
  0
LINE
  5
129
100
AcDbEntity
  8
0
  6
ByLayer
 62
    0
370
   -1
100
AcDbLine
 10
35.86277000000003
 20
-35.57459999999998
 11
35.86277000000003
 21
-21.57539999999999
  0
LINE
  5
12A
100
AcDbEntity
  8
0
  6
ByLayer
 62
    0
370
   -1
100
AcDbLine
 10
54.91277000000002
 20
-19.28899999999999
 11
68.91207000000001
 21
-19.28899999999999
  0
LINE
  5
12B
100
AcDbEntity
  8
0
  6
ByLayer
 62
    0
370
   -1
100
AcDbLine
 10
68.91207000000001
 20
-19.28899999999999
 11
68.91207000000001
 21
-33.28859999999998
  0
LINE
  5
12C
100
AcDbEntity
  8
0
  6
ByLayer
 62
    0
370
   -1
100
AcDbLine
 10
68.91207000000001
 20
-33.28859999999998
 11
54.91277000000002
 21
-33.28859999999998
  0
LINE
  5
12D
100
AcDbEntity
  8
0
  6
ByLayer
 62
    0
370
   -1
100
AcDbLine
 10
54.91277000000002
 20
-33.28859999999998
 11
54.91277000000002
 21
-19.28899999999999
  0
LINE
  5
12E
100
AcDbEntity
  8
0
  6
ByLayer
 62
    0
370
   -1
100
AcDbLine
 10
16.81277000000002
 20
-12.05039999999998
 11
30.81207000000002
 21
-12.05039999999998
  0
LINE
  5
12F
100
AcDbEntity
  8
0
  6
ByLayer
 62
    0
370
   -1
100
AcDbLine
 10
30.81207000000002
 20
-12.05039999999998
 11
30.81207000000002
 21
-26.04959999999998
  0
LINE
  5
130
100
AcDbEntity
  8
0
  6
ByLayer
 62
    0
370
   -1
100
AcDbLine
 10
30.81207000000002
 20
-26.04959999999998
 11
16.81277000000002
 21
-26.04959999999998
  0
LINE
  5
131
100
AcDbEntity
  8
0
  6
ByLayer
 62
    0
370
   -1
100
AcDbLine
 10
16.81277000000002
 20
-26.04959999999998
 11
16.81277000000002
 21
-12.05039999999998
  0
LINE
  5
132
100
AcDbEntity
  8
0
  6
ByLayer
 62
    0
370
   -1
100
AcDbLine
 10
-6.999769999999979
 20
-12.05039999999998
 11
6.999770000000019
 21
-12.05039999999998
  0
LINE
  5
133
100
AcDbEntity
  8
0
  6
ByLayer
 62
    0
370
   -1
100
AcDbLine
 10
6.999770000000019
 20
-12.05039999999998
 11
6.999770000000019
 21
-26.04959999999998
  0
LINE
  5
134
100
AcDbEntity
  8
0
  6
ByLayer
 62
    0
370
   -1
100
AcDbLine
 10
6.999770000000019
 20
-26.04959999999998
 11
-6.999769999999979
 21
-26.04959999999998
  0
LINE
  5
135
100
AcDbEntity
  8
0
  6
ByLayer
 62
    0
370
   -1
100
AcDbLine
 10
-6.999769999999979
 20
-26.04959999999998
 11
-6.999769999999979
 21
-12.05039999999998
  0
LINE
  5
136
100
AcDbEntity
  8
0
  6
ByLayer
 62
    0
370
   -1
100
AcDbLine
 10
93.01307000000001
 20
-5.001499999999979
 11
107.01207
 21
-5.001499999999979
  0
LINE
  5
137
100
AcDbEntity
  8
0
  6
ByLayer
 62
    0
370
   -1
100
AcDbLine
 10
107.01207
 20
-5.001499999999979
 11
107.01207
 21
-19.00109999999999
  0
LINE
  5
138
100
AcDbEntity
  8
0
  6
ByLayer
 62
    0
370
   -1
100
AcDbLine
 10
107.01207
 20
-19.00109999999999
 11
93.01307000000001
 21
-19.00109999999999
  0
LINE
  5
139
100
AcDbEntity
  8
0
  6
ByLayer
 62
    0
370
   -1
100
AcDbLine
 10
93.01307000000001
 20
-19.00109999999999
 11
93.01307000000001
 21
-5.001499999999979
  0
LINE
  5
13A
100
AcDbEntity
  8
0
  6
ByLayer
 62
    0
370
   -1
100
AcDbLine
 10
73.96277000000002
 20
-2.525399999999991
 11
87.96207000000001
 21
-2.525399999999991
  0
LINE
  5
13B
100
AcDbEntity
  8
0
  6
ByLayer
 62
    0
370
   -1
100
AcDbLine
 10
87.96207000000001
 20
-2.525399999999991
 11
87.96207000000001
 21
-16.52459999999999
  0
LINE
  5
13C
100
AcDbEntity
  8
0
  6
ByLayer
 62
    0
370
   -1
100
AcDbLine
 10
87.96207000000001
 20
-16.52459999999999
 11
73.96277000000002
 21
-16.52459999999999
  0
LINE
  5
13D
100
AcDbEntity
  8
0
  6
ByLayer
 62
    0
370
   -1
100
AcDbLine
 10
73.96277000000002
 20
-16.52459999999999
 11
73.96277000000002
 21
-2.525399999999991
  0
LINE
  5
13E
100
AcDbEntity
  8
0
  6
ByLayer
 62
    0
370
   -1
100
AcDbLine
 10
35.86277000000003
 20
-2.525399999999991
 11
49.86207000000002
 21
-2.525399999999991
  0
LINE
  5
13F
100
AcDbEntity
  8
0
  6
ByLayer
 62
    0
370
   -1
100
AcDbLine
 10
49.86207000000002
 20
-2.525399999999991
 11
49.86207000000002
 21
-16.52459999999999
  0
LINE
  5
140
100
AcDbEntity
  8
0
  6
ByLayer
 62
    0
370
   -1
100
AcDbLine
 10
49.86207000000002
 20
-16.52459999999999
 11
35.86277000000003
 21
-16.52459999999999
  0
LINE
  5
141
100
AcDbEntity
  8
0
  6
ByLayer
 62
    0
370
   -1
100
AcDbLine
 10
35.86277000000003
 20
-16.52459999999999
 11
35.86277000000003
 21
-2.525399999999991
  0
LINE
  5
142
100
AcDbEntity
  8
0
  6
ByLayer
 62
    0
370
   -1
100
AcDbLine
 10
54.91277000000002
 20
-0.2389999999999901
 11
68.91207000000001
 21
-0.2389999999999901
  0
LINE
  5
143
100
AcDbEntity
  8
0
  6
ByLayer
 62
    0
370
   -1
100
AcDbLine
 10
68.91207000000001
 20
-0.2389999999999901
 11
68.91207000000001
 21
-14.23859999999998
  0
LINE
  5
144
100
AcDbEntity
  8
0
  6
ByLayer
 62
    0
370
   -1
100
AcDbLine
 10
68.91207000000001
 20
-14.23859999999998
 11
54.91277000000002
 21
-14.23859999999998
  0
LINE
  5
145
100
AcDbEntity
  8
0
  6
ByLayer
 62
    0
370
   -1
100
AcDbLine
 10
54.91277000000002
 20
-14.23859999999998
 11
54.91277000000002
 21
-0.2389999999999901
  0
LINE
  5
146
100
AcDbEntity
  8
0
  6
ByLayer
 62
    0
370
   -1
100
AcDbLine
 10
16.81277000000002
 20
6.999600000000015
 11
30.81207000000002
 21
6.999600000000015
  0
LINE
  5
147
100
AcDbEntity
  8
0
  6
ByLayer
 62
    0
370
   -1
100
AcDbLine
 10
30.81207000000002
 20
6.999600000000015
 11
30.81207000000002
 21
-6.999599999999987
  0
LINE
  5
148
100
AcDbEntity
  8
0
  6
ByLayer
 62
    0
370
   -1
100
AcDbLine
 10
30.81207000000002
 20
-6.999599999999987
 11
16.81277000000002
 21
-6.999599999999987
  0
LINE
  5
149
100
AcDbEntity
  8
0
  6
ByLayer
 62
    0
370
   -1
100
AcDbLine
 10
16.81277000000002
 20
-6.999599999999987
 11
16.81277000000002
 21
6.999600000000015
  0
LINE
  5
14A
100
AcDbEntity
  8
0
  6
ByLayer
 62
    0
370
   -1
100
AcDbLine
 10
-6.999769999999979
 20
6.999600000000015
 11
6.999770000000019
 21
6.999600000000015
  0
LINE
  5
14B
100
AcDbEntity
  8
0
  6
ByLayer
 62
    0
370
   -1
100
AcDbLine
 10
6.999770000000019
 20
6.999600000000015
 11
6.999770000000019
 21
-6.999599999999987
  0
LINE
  5
14C
100
AcDbEntity
  8
0
  6
ByLayer
 62
    0
370
   -1
100
AcDbLine
 10
6.999770000000019
 20
-6.999599999999987
 11
-6.999769999999979
 21
-6.999599999999987
  0
LINE
  5
14D
100
AcDbEntity
  8
0
  6
ByLayer
 62
    0
370
   -1
100
AcDbLine
 10
-6.999769999999979
 20
-6.999599999999987
 11
-6.999769999999979
 21
6.999600000000015
  0
LINE
  5
14E
100
AcDbEntity
  8
0
  6
ByLayer
 62
    0
370
   -1
100
AcDbLine
 10
93.01307000000001
 20
14.04850000000002
 11
107.01207
 21
14.04850000000002
  0
LINE
  5
14F
100
AcDbEntity
  8
0
  6
ByLayer
 62
    0
370
   -1
100
AcDbLine
 10
107.01207
 20
14.04850000000002
 11
107.01207
 21
0.04890000000001749
  0
LINE
  5
150
100
AcDbEntity
  8
0
  6
ByLayer
 62
    0
370
   -1
100
AcDbLine
 10
107.01207
 20
0.04890000000001749
 11
93.01307000000001
 21
0.04890000000001749
  0
LINE
  5
151
100
AcDbEntity
  8
0
  6
ByLayer
 62
    0
370
   -1
100
AcDbLine
 10
93.01307000000001
 20
0.04890000000001749
 11
93.01307000000001
 21
14.04850000000002
  0
LINE
  5
152
100
AcDbEntity
  8
0
  6
ByLayer
 62
    0
370
   -1
100
AcDbLine
 10
73.96277000000002
 20
16.52460000000002
 11
87.96207000000001
 21
16.52460000000002
  0
LINE
  5
153
100
AcDbEntity
  8
0
  6
ByLayer
 62
    0
370
   -1
100
AcDbLine
 10
87.96207000000001
 20
16.52460000000002
 11
87.96207000000001
 21
2.525400000000019
  0
LINE
  5
154
100
AcDbEntity
  8
0
  6
ByLayer
 62
    0
370
   -1
100
AcDbLine
 10
87.96207000000001
 20
2.525400000000019
 11
73.96277000000002
 21
2.525400000000019
  0
LINE
  5
155
100
AcDbEntity
  8
0
  6
ByLayer
 62
    0
370
   -1
100
AcDbLine
 10
73.96277000000002
 20
2.525400000000019
 11
73.96277000000002
 21
16.52460000000002
  0
LINE
  5
156
100
AcDbEntity
  8
0
  6
ByLayer
 62
    0
370
   -1
100
AcDbLine
 10
35.86277000000003
 20
16.52460000000002
 11
49.86207000000002
 21
16.52460000000002
  0
LINE
  5
157
100
AcDbEntity
  8
0
  6
ByLayer
 62
    0
370
   -1
100
AcDbLine
 10
49.86207000000002
 20
16.52460000000002
 11
49.86207000000002
 21
2.525400000000019
  0
LINE
  5
158
100
AcDbEntity
  8
0
  6
ByLayer
 62
    0
370
   -1
100
AcDbLine
 10
49.86207000000002
 20
2.525400000000019
 11
35.86277000000003
 21
2.525400000000019
  0
LINE
  5
159
100
AcDbEntity
  8
0
  6
ByLayer
 62
    0
370
   -1
100
AcDbLine
 10
35.86277000000003
 20
2.525400000000019
 11
35.86277000000003
 21
16.52460000000002
  0
LINE
  5
15A
100
AcDbEntity
  8
0
  6
ByLayer
 62
    0
370
   -1
100
AcDbLine
 10
54.91277000000002
 20
18.81100000000002
 11
68.91207000000001
 21
18.81100000000002
  0
LINE
  5
15B
100
AcDbEntity
  8
0
  6
ByLayer
 62
    0
370
   -1
100
AcDbLine
 10
68.91207000000001
 20
18.81100000000002
 11
68.91207000000001
 21
4.81140000000002
  0
LINE
  5
15C
100
AcDbEntity
  8
0
  6
ByLayer
 62
    0
370
   -1
100
AcDbLine
 10
68.91207000000001
 20
4.81140000000002
 11
54.91277000000002
 21
4.81140000000002
  0
LINE
  5
15D
100
AcDbEntity
  8
0
  6
ByLayer
 62
    0
370
   -1
100
AcDbLine
 10
54.91277000000002
 20
4.81140000000002
 11
54.91277000000002
 21
18.81100000000002
  0
LINE
  5
15E
100
AcDbEntity
  8
0
  6
ByLayer
 62
  256
370
   -1
100
AcDbLine
 10
-6.999769999999979
 20
6.999600000000015
 11
6.999770000000019
 21
-6.999599999999987
  0
LINE
  5
15F
100
AcDbEntity
  8
0
  6
ByLayer
 62
  256
370
   -1
100
AcDbLine
 10
6.999770000000019
 20
-6.999599999999987
 11
6.999770000000019
 21
6.999600000000015
  0
LINE
  5
160
100
AcDbEntity
  8
0
  6
ByLayer
 62
  256
370
   -1
100
AcDbLine
 10
6.999770000000019
 20
6.999600000000015
 11
-6.999769999999979
 21
-6.999599999999987
  0
CIRCLE
  5
161
100
AcDbEntity
  8
0
  6
ByLayer
 62
  256
370
   -1
100
AcDbCircle
 10
2.131628207280301e-014
 20
1.4210854715202e-014
 40
2
  0
CIRCLE
  5
162
100
AcDbEntity
  8
0
  6
ByLayer
 62
  256
370
   -1
100
AcDbCircle
 10
23.81254000000003
 20
1.4210854715202e-014
 40
2
  0
CIRCLE
  5
163
100
AcDbEntity
  8
0
  6
ByLayer
 62
  256
370
   -1
100
AcDbCircle
 10
42.86254000000002
 20
9.52500000000002
 40
2
  0
CIRCLE
  5
164
100
AcDbEntity
  8
0
  6
ByLayer
 62
  256
370
   -1
100
AcDbCircle
 10
61.91254000000004
 20
11.81100000000002
 40
2
  0
CIRCLE
  5
165
100
AcDbEntity
  8
0
  6
ByLayer
 62
  256
370
   -1
100
AcDbCircle
 10
80.96254000000002
 20
9.52500000000002
 40
2
  0
CIRCLE
  5
166
100
AcDbEntity
  8
0
  6
ByLayer
 62
  256
370
   -1
100
AcDbCircle
 10
100.01284
 20
7.048500000000018
 40
2
  0
CIRCLE
  5
167
100
AcDbEntity
  8
0
  6
ByLayer
 62
  256
370
   -1
100
AcDbCircle
 10
100.01284
 20
-12.00149999999999
 40
2
  0
CIRCLE
  5
168
100
AcDbEntity
  8
0
  6
ByLayer
 62
  256
370
   -1
100
AcDbCircle
 10
80.96254000000002
 20
-9.524999999999977
 40
2
  0
CIRCLE
  5
169
100
AcDbEntity
  8
0
  6
ByLayer
 62
  256
370
   -1
100
AcDbCircle
 10
61.91254000000004
 20
-7.238999999999976
 40
2
  0
CIRCLE
  5
16A
100
AcDbEntity
  8
0
  6
ByLayer
 62
  256
370
   -1
100
AcDbCircle
 10
42.86254000000002
 20
-9.524999999999977
 40
2
  0
CIRCLE
  5
16B
100
AcDbEntity
  8
0
  6
ByLayer
 62
  256
370
   -1
100
AcDbCircle
 10
23.81254000000003
 20
-19.04999999999998
 40
2
  0
CIRCLE
  5
16C
100
AcDbEntity
  8
0
  6
ByLayer
 62
  256
370
   -1
100
AcDbCircle
 10
2.486899575160351e-014
 20
-19.04999999999998
 40
2
  0
CIRCLE
  5
16D
100
AcDbEntity
  8
0
  6
ByLayer
 62
  256
370
   -1
100
AcDbCircle
 10
2.486899575160351e-014
 20
-38.10019999999999
 40
2
  0
CIRCLE
  5
16E
100
AcDbEntity
  8
0
  6
ByLayer
 62
  256
370
   -1
100
AcDbCircle
 10
23.81254000000003
 20
-38.10019999999999
 40
2
  0
CIRCLE
  5
16F
100
AcDbEntity
  8
0
  6
ByLayer
 62
  256
370
   -1
100
AcDbCircle
 10
42.86254000000002
 20
-28.57499999999998
 40
2
  0
CIRCLE
  5
170
100
AcDbEntity
  8
0
  6
ByLayer
 62
  256
370
   -1
100
AcDbCircle
 10
61.91254000000004
 20
-26.28899999999998
 40
2
  0
CIRCLE
  5
171
100
AcDbEntity
  8
0
  6
ByLayer
 62
  256
370
   -1
100
AcDbCircle
 10
80.96254000000002
 20
-28.57499999999997
 40
2
  0
CIRCLE
  5
172
100
AcDbEntity
  8
0
  6
ByLayer
 62
  256
370
   -1
100
AcDbCircle
 10
100.01284
 20
-31.05149999999998
 40
2
  0
CIRCLE
  5
173
100
AcDbEntity
  8
0
  6
ByLayer
 62
  256
370
   -1
100
AcDbCircle
 10
52.38754000000003
 20
-47.62519999999998
 40
2
  0
CIRCLE
  5
174
100
AcDbEntity
  8
0
  6
ByLayer
 62
  256
370
   -1
100
AcDbCircle
 10
71.43754000000001
 20
-47.62519999999998
 40
2
  0
LINE
  5
175
100
AcDbEntity
  8
0
  6
ByLayer
 62
  256
370
   -1
100
AcDbLine
 10
87.11707000000001
 20
-44.27569999999999
 11
97.01607000000001
 21
-61.42129999999998
  0
LINE
  5
176
100
AcDbEntity
  8
0
  6
ByLayer
 62
  256
370
   -1
100
AcDbLine
 10
97.01607000000001
 20
-61.42129999999998
 11
100.64007
 21
-47.89859999999999
  0
LINE
  5
177
100
AcDbEntity
  8
0
  6
ByLayer
 62
  256
370
   -1
100
AcDbLine
 10
100.64007
 20
-47.89859999999999
 11
83.49307000000002
 21
-57.79839999999999
  0
LINE
  5
178
100
AcDbEntity
  8
0
  6
ByLayer
 62
  256
370
   -1
100
AcDbLine
 10
110.46107
 20
-49.54809999999999
 11
115.58507
 21
-68.67111999999999
  0
LINE
  5
179
100
AcDbEntity
  8
0
  6
ByLayer
 62
  256
370
   -1
100
AcDbLine
 10
122.58507
 20
-56.54709999999999
 11
103.46107
 21
-61.67199999999998
  0
CIRCLE
  5
17A
100
AcDbEntity
  8
0
  6
ByLayer
 62
  256
370
   -1
100
AcDbCircle
 10
92.06657000000001
 20
-52.84849999999999
 40
2
  0
CIRCLE
  5
17B
100
AcDbEntity
  8
0
  6
ByLayer
 62
  256
370
   -1
100
AcDbCircle
 10
113.0230550001194
 20
-59.1095540197076
 40
2
  0
LWPOLYLINE
  5
17C
100
AcDbEntity
  8
0
  6
ByLayer
 62
  256
370
   -1
100
AcDbPolyline
 90
    4
 70
    1
 43
0
 10
-101.9483063349934
 20
48.51271469145429
 10
-82.89830633499344
 20
48.51271469145429
 10
-82.89830633499344
 20
67.56271469145429
 10
-101.9483063349934
 20
67.56271469145429
  0
LWPOLYLINE
  5
17D
100
AcDbEntity
  8
0
  6
ByLayer
 62
  256
370
   -1
100
AcDbPolyline
 90
    4
 70
    1
 43
0
 10
-102.0938088488956
 20
23.05053973150333
 10
-73.51880884889556
 20
23.05053973150333
 10
-73.51880884889556
 20
42.10053973150332
 10
-102.0938088488956
 20
42.10053973150332
  0
TEXT
  5
17E
100
AcDbEntity
  8
0
  6
ByLayer
 62
  256
370
   -1
100
AcDbText
 10
-73.51880884889556
 20
23.05053973150333
 30
0
 40
10
  1
1.5u
 50
0
 41
1
 51
0
  7
STANDARD
 71
    0
210
0
220
0
230
1
100
AcDbText
  0
LINE
  5
17F
100
AcDbEntity
  8
0
  6
ByLayer
 62
  256
370
   -1
100
AcDbLine
 10
-102.0938088488956
 20
42.10053973150332
 11
-73.51880884889556
 21
23.05053973150333
  0
LINE
  5
180
100
AcDbEntity
  8
0
  6
ByLayer
 62
  256
370
   -1
100
AcDbLine
 10
-73.51880884889556
 20
42.10053973150332
 11
-102.0938088488956
 21
23.05053973150333
  0
LWPOLYLINE
  5
181
100
AcDbEntity
  8
0
  6
ByLayer
 62
  256
370
   -1
100
AcDbPolyline
 90
    4
 70
    1
 43
0
 10
-14.28749999999997
 20
-9.524999999999984
 10
14.28750000000003
 20
-9.524999999999984
 10
14.28750000000003
 20
9.525000000000013
 10
-14.28749999999997
 20
9.525000000000013
  0
LINE
  5
182
100
AcDbEntity
  8
0
  6
ByLayer
 62
  256
370
   -1
100
AcDbLine
 10
2.131628207280301e-014
 20
1.4210854715202e-014
 11
-8.999999999999979
 21
1.531413884592325e-014
  0
TEXT
  5
183
100
AcDbEntity
  8
0
  6
ByLayer
 62
  256
370
   -1
100
AcDbText
 10
-82.89830633499344
 20
48.51271469145429
 30
0
 40
10
  1
1u
 50
0
 41
1
 51
0
  7
STANDARD
 71
    0
210
0
220
0
230
1
100
AcDbText
  0
LINE
  5
184
100
AcDbEntity
  8
0
  6
ByLayer
 62
  256
370
   -1
100
AcDbLine
 10
-101.9483063349934
 20
67.56271469145429
 11
-82.89830633499344
 21
48.51271469145429
  0
LINE
  5
185
100
AcDbEntity
  8
0
  6
ByLayer
 62
  256
370
   -1
100
AcDbLine
 10
-82.89830633499344
 20
67.56271469145429
 11
-101.9483063349934
 21
48.51271469145429
  0
LWPOLYLINE
  5
186
100
AcDbEntity
  8
0
  6
ByLayer
 62
  256
370
   -1
100
AcDbPolyline
 90
    4
 70
    1
 43
0
 10
14.28754000000004
 20
-9.524999999999984
 10
33.33754000000003
 20
-9.524999999999984
 10
33.33754000000003
 20
9.525000000000013
 10
14.28754000000004
 20
9.525000000000013
  0
LINE
  5
187
100
AcDbEntity
  8
0
  6
ByLayer
 62
  256
370
   -1
100
AcDbLine
 10
1.998401444325282e-014
 20
1.376676550535194e-014
 11
2.053218706166149e-014
 21
9.000000000000014
  0
LINE
  5
188
100
AcDbEntity
  8
0
  6
ByLayer
 62
  256
370
   -1
100
AcDbLine
 10
61.91254000000004
 20
11.81100000000002
 11
61.91254000000004
 21
20.81100000000002
  0
LINE
  5
189
100
AcDbEntity
  8
0
  6
ByLayer
 62
  256
370
   -1
100
AcDbLine
 10
100.01284
 20
7.048500000000018
 11
100.01284
 21
16.04850000000002
  0
LINE
  5
18A
100
AcDbEntity
  8
0
  6
ByLayer
 62
  256
370
   -1
100
AcDbLine
 10
100.01284
 20
16.04850000000002
 11
109.01284
 21
16.04850000000002
  0
LINE
  5
18B
100
AcDbEntity
  8
0
  6
ByLayer
 62
  256
370
   -1
100
AcDbLine
 10
100.01284
 20
-31.05149999999998
 11
109.01284
 21
-31.05149999999998
  0
LINE
  5
18C
100
AcDbEntity
  8
0
  6
ByLayer
 62
  256
370
   -1
100
AcDbLine
 10
109.01284
 20
-31.05149999999998
 11
109.01284
 21
-40.05149999999998
  0
LWPOLYLINE
  5
18D
100
AcDbEntity
  8
0
  6
ByLayer
 62
  256
370
   -1
100
AcDbPolyline
 90
    4
 70
    1
 43
0
 10
114.1282119710468
 20
-76.24544795657016
 10
128.4157119710468
 20
-51.49877204342982
 10
111.9179280289532
 20
-41.97377204342983
 10
97.63042802895323
 20
-66.72044795657017
  0
LWPOLYLINE
  5
18E
100
AcDbEntity
  8
0
  6
ByLayer
 62
  256
370
   -1
100
AcDbPolyline
 90
    4
 70
    1
 43
0
 10
80.40087509999513
 20
-59.58369209080184
 10
98.80176209080189
 20
-64.51419490000485
 10
103.7322649000049
 20
-46.11330790919811
 10
85.33137790919815
 20
-41.18280509999509
  0
LINE
  5
18F
100
AcDbEntity
  8
0
  6
ByLayer
 62
    0
370
   -1
100
AcDbLine
 10
109.2228564499613
 20
-167.1759089015907
 11
121.3468564499613
 21
-174.1763989015907
  0
LINE
  5
190
100
AcDbEntity
  8
0
  6
ByLayer
 62
    0
370
   -1
100
AcDbLine
 10
121.3468564499613
 20
-174.1763989015907
 11
128.3468564499613
 21
-162.0510089015907
  0
LINE
  5
191
100
AcDbEntity
  8
0
  6
ByLayer
 62
    0
370
   -1
100
AcDbLine
 10
128.3468564499613
 20
-162.0510089015907
 11
116.2228564499613
 21
-155.0506089015907
  0
LINE
  5
192
100
AcDbEntity
  8
0
  6
ByLayer
 62
    0
370
   -1
100
AcDbLine
 10
116.2228564499613
 20
-155.0506089015907
 11
109.2228564499613
 21
-167.1759089015907
  0
LINE
  5
193
100
AcDbEntity
  8
0
  6
ByLayer
 62
    0
370
   -1
100
AcDbLine
 10
88.30415644996127
 20
-165.5995089015907
 11
101.8268564499613
 21
-169.2223089015907
  0
LINE
  5
194
100
AcDbEntity
  8
0
  6
ByLayer
 62
    0
370
   -1
100
AcDbLine
 10
101.8268564499613
 20
-169.2223089015907
 11
105.4498564499613
 21
-155.6997089015907
  0
LINE
  5
195
100
AcDbEntity
  8
0
  6
ByLayer
 62
    0
370
   -1
100
AcDbLine
 10
105.4498564499613
 20
-155.6997089015907
 11
91.92685644996126
 21
-152.0768089015907
  0
LINE
  5
196
100
AcDbEntity
  8
0
  6
ByLayer
 62
    0
370
   -1
100
AcDbLine
 10
91.92685644996126
 20
-152.0768089015907
 11
88.30415644996127
 21
-165.5995089015907
  0
LINE
  5
197
100
AcDbEntity
  8
0
  6
ByLayer
 62
    0
370
   -1
100
AcDbLine
 10
68.92355644996127
 20
-150.8917089015907
 11
82.92285644996127
 21
-150.8917089015907
  0
LINE
  5
198
100
AcDbEntity
  8
0
  6
ByLayer
 62
    0
370
   -1
100
AcDbLine
 10
82.92285644996127
 20
-150.8917089015907
 11
82.92285644996127
 21
-164.8912089015907
  0
LINE
  5
199
100
AcDbEntity
  8
0
  6
ByLayer
 62
    0
370
   -1
100
AcDbLine
 10
82.92285644996127
 20
-164.8912089015907
 11
68.92355644996127
 21
-164.8912089015907
  0
LINE
  5
19A
100
AcDbEntity
  8
0
  6
ByLayer
 62
    0
370
   -1
100
AcDbLine
 10
68.92355644996127
 20
-164.8912089015907
 11
68.92355644996127
 21
-150.8917089015907
  0
LINE
  5
19B
100
AcDbEntity
  8
0
  6
ByLayer
 62
    0
370
   -1
100
AcDbLine
 10
49.87355644996128
 20
-150.8917089015907
 11
63.87285644996128
 21
-150.8917089015907
  0
LINE
  5
19C
100
AcDbEntity
  8
0
  6
ByLayer
 62
    0
370
   -1
100
AcDbLine
 10
63.87285644996128
 20
-150.8917089015907
 11
63.87285644996128
 21
-164.8912089015907
  0
LINE
  5
19D
100
AcDbEntity
  8
0
  6
ByLayer
 62
    0
370
   -1
100
AcDbLine
 10
63.87285644996128
 20
-164.8912089015907
 11
49.87355644996128
 21
-164.8912089015907
  0
LINE
  5
19E
100
AcDbEntity
  8
0
  6
ByLayer
 62
    0
370
   -1
100
AcDbLine
 10
49.87355644996128
 20
-164.8912089015907
 11
49.87355644996128
 21
-150.8917089015907
  0
LINE
  5
19F
100
AcDbEntity
  8
0
  6
ByLayer
 62
    0
370
   -1
100
AcDbLine
 10
21.29855644996128
 20
-141.3668089015907
 11
35.29785644996128
 21
-141.3668089015907
  0
LINE
  5
1A0
100
AcDbEntity
  8
0
  6
ByLayer
 62
    0
370
   -1
100
AcDbLine
 10
35.29785644996128
 20
-141.3668089015907
 11
35.29785644996128
 21
-155.3662089015907
  0
LINE
  5
1A1
100
AcDbEntity
  8
0
  6
ByLayer
 62
    0
370
   -1
100
AcDbLine
 10
35.29785644996128
 20
-155.3662089015907
 11
21.29855644996128
 21
-155.3662089015907
  0
LINE
  5
1A2
100
AcDbEntity
  8
0
  6
ByLayer
 62
    0
370
   -1
100
AcDbLine
 10
21.29855644996128
 20
-155.3662089015907
 11
21.29855644996128
 21
-141.3668089015907
  0
LINE
  5
1A3
100
AcDbEntity
  8
0
  6
ByLayer
 62
    0
370
   -1
100
AcDbLine
 10
-2.513983550038724
 20
-141.3668089015907
 11
11.48555644996128
 21
-141.3668089015907
  0
LINE
  5
1A4
100
AcDbEntity
  8
0
  6
ByLayer
 62
    0
370
   -1
100
AcDbLine
 10
11.48555644996128
 20
-141.3668089015907
 11
11.48555644996128
 21
-155.3662089015907
  0
LINE
  5
1A5
100
AcDbEntity
  8
0
  6
ByLayer
 62
    0
370
   -1
100
AcDbLine
 10
11.48555644996128
 20
-155.3662089015907
 11
-2.513983550038724
 21
-155.3662089015907
  0
LINE
  5
1A6
100
AcDbEntity
  8
0
  6
ByLayer
 62
    0
370
   -1
100
AcDbLine
 10
-2.513983550038724
 20
-155.3662089015907
 11
-2.513983550038724
 21
-141.3668089015907
  0
LINE
  5
1A7
100
AcDbEntity
  8
0
  6
ByLayer
 62
    0
370
   -1
100
AcDbLine
 10
97.49885644996127
 20
-132.7939089015907
 11
111.4978564499613
 21
-132.7939089015907
  0
LINE
  5
1A8
100
AcDbEntity
  8
0
  6
ByLayer
 62
    0
370
   -1
100
AcDbLine
 10
111.4978564499613
 20
-132.7939089015907
 11
111.4978564499613
 21
-146.7934089015907
  0
LINE
  5
1A9
100
AcDbEntity
  8
0
  6
ByLayer
 62
    0
370
   -1
100
AcDbLine
 10
111.4978564499613
 20
-146.7934089015907
 11
97.49885644996127
 21
-146.7934089015907
  0
LINE
  5
1AA
100
AcDbEntity
  8
0
  6
ByLayer
 62
    0
370
   -1
100
AcDbLine
 10
97.49885644996127
 20
-146.7934089015907
 11
97.49885644996127
 21
-132.7939089015907
  0
LINE
  5
1AB
100
AcDbEntity
  8
0
  6
ByLayer
 62
    0
370
   -1
100
AcDbLine
 10
78.44855644996127
 20
-131.8417089015907
 11
92.44785644996126
 21
-131.8417089015907
  0
LINE
  5
1AC
100
AcDbEntity
  8
0
  6
ByLayer
 62
    0
370
   -1
100
AcDbLine
 10
92.44785644996126
 20
-131.8417089015907
 11
92.44785644996126
 21
-145.8410089015907
  0
LINE
  5
1AD
100
AcDbEntity
  8
0
  6
ByLayer
 62
    0
370
   -1
100
AcDbLine
 10
92.44785644996126
 20
-145.8410089015907
 11
78.44855644996127
 21
-145.8410089015907
  0
LINE
  5
1AE
100
AcDbEntity
  8
0
  6
ByLayer
 62
    0
370
   -1
100
AcDbLine
 10
78.44855644996127
 20
-145.8410089015907
 11
78.44855644996127
 21
-131.8417089015907
  0
LINE
  5
1AF
100
AcDbEntity
  8
0
  6
ByLayer
 62
    0
370
   -1
100
AcDbLine
 10
40.34855644996128
 20
-131.8417089015907
 11
54.34785644996128
 21
-131.8417089015907
  0
LINE
  5
1B0
100
AcDbEntity
  8
0
  6
ByLayer
 62
    0
370
   -1
100
AcDbLine
 10
54.34785644996128
 20
-131.8417089015907
 11
54.34785644996128
 21
-145.8410089015907
  0
LINE
  5
1B1
100
AcDbEntity
  8
0
  6
ByLayer
 62
    0
370
   -1
100
AcDbLine
 10
54.34785644996128
 20
-145.8410089015907
 11
40.34855644996128
 21
-145.8410089015907
  0
LINE
  5
1B2
100
AcDbEntity
  8
0
  6
ByLayer
 62
    0
370
   -1
100
AcDbLine
 10
40.34855644996128
 20
-145.8410089015907
 11
40.34855644996128
 21
-131.8417089015907
  0
LINE
  5
1B3
100
AcDbEntity
  8
0
  6
ByLayer
 62
    0
370
   -1
100
AcDbLine
 10
59.39855644996128
 20
-129.5554089015907
 11
73.39785644996127
 21
-129.5554089015907
  0
LINE
  5
1B4
100
AcDbEntity
  8
0
  6
ByLayer
 62
    0
370
   -1
100
AcDbLine
 10
73.39785644996127
 20
-129.5554089015907
 11
73.39785644996127
 21
-143.5550089015907
  0
LINE
  5
1B5
100
AcDbEntity
  8
0
  6
ByLayer
 62
    0
370
   -1
100
AcDbLine
 10
73.39785644996127
 20
-143.5550089015907
 11
59.39855644996128
 21
-143.5550089015907
  0
LINE
  5
1B6
100
AcDbEntity
  8
0
  6
ByLayer
 62
    0
370
   -1
100
AcDbLine
 10
59.39855644996128
 20
-143.5550089015907
 11
59.39855644996128
 21
-129.5554089015907
  0
LINE
  5
1B7
100
AcDbEntity
  8
0
  6
ByLayer
 62
    0
370
   -1
100
AcDbLine
 10
21.29855644996128
 20
-122.3167089015907
 11
35.29785644996128
 21
-122.3167089015907
  0
LINE
  5
1B8
100
AcDbEntity
  8
0
  6
ByLayer
 62
    0
370
   -1
100
AcDbLine
 10
35.29785644996128
 20
-122.3167089015907
 11
35.29785644996128
 21
-136.3160089015907
  0
LINE
  5
1B9
100
AcDbEntity
  8
0
  6
ByLayer
 62
    0
370
   -1
100
AcDbLine
 10
35.29785644996128
 20
-136.3160089015907
 11
21.29855644996128
 21
-136.3160089015907
  0
LINE
  5
1BA
100
AcDbEntity
  8
0
  6
ByLayer
 62
    0
370
   -1
100
AcDbLine
 10
21.29855644996128
 20
-136.3160089015907
 11
21.29855644996128
 21
-122.3167089015907
  0
LINE
  5
1BB
100
AcDbEntity
  8
0
  6
ByLayer
 62
    0
370
   -1
100
AcDbLine
 10
-2.513983550038724
 20
-122.3167089015907
 11
11.48555644996128
 21
-122.3167089015907
  0
LINE
  5
1BC
100
AcDbEntity
  8
0
  6
ByLayer
 62
    0
370
   -1
100
AcDbLine
 10
11.48555644996128
 20
-122.3167089015907
 11
11.48555644996128
 21
-136.3160089015907
  0
LINE
  5
1BD
100
AcDbEntity
  8
0
  6
ByLayer
 62
    0
370
   -1
100
AcDbLine
 10
11.48555644996128
 20
-136.3160089015907
 11
-2.513983550038724
 21
-136.3160089015907
  0
LINE
  5
1BE
100
AcDbEntity
  8
0
  6
ByLayer
 62
    0
370
   -1
100
AcDbLine
 10
-2.513983550038724
 20
-136.3160089015907
 11
-2.513983550038724
 21
-122.3167089015907
  0
LINE
  5
1BF
100
AcDbEntity
  8
0
  6
ByLayer
 62
    0
370
   -1
100
AcDbLine
 10
97.49885644996127
 20
-113.7439089015907
 11
111.4978564499613
 21
-113.7439089015907
  0
LINE
  5
1C0
100
AcDbEntity
  8
0
  6
ByLayer
 62
    0
370
   -1
100
AcDbLine
 10
111.4978564499613
 20
-113.7439089015907
 11
111.4978564499613
 21
-127.7435089015907
  0
LINE
  5
1C1
100
AcDbEntity
  8
0
  6
ByLayer
 62
    0
370
   -1
100
AcDbLine
 10
111.4978564499613
 20
-127.7435089015907
 11
97.49885644996127
 21
-127.7435089015907
  0
LINE
  5
1C2
100
AcDbEntity
  8
0
  6
ByLayer
 62
    0
370
   -1
100
AcDbLine
 10
97.49885644996127
 20
-127.7435089015907
 11
97.49885644996127
 21
-113.7439089015907
  0
LINE
  5
1C3
100
AcDbEntity
  8
0
  6
ByLayer
 62
    0
370
   -1
100
AcDbLine
 10
78.44855644996127
 20
-112.7917089015907
 11
92.44785644996126
 21
-112.7917089015907
  0
LINE
  5
1C4
100
AcDbEntity
  8
0
  6
ByLayer
 62
    0
370
   -1
100
AcDbLine
 10
92.44785644996126
 20
-112.7917089015907
 11
92.44785644996126
 21
-126.7910089015907
  0
LINE
  5
1C5
100
AcDbEntity
  8
0
  6
ByLayer
 62
    0
370
   -1
100
AcDbLine
 10
92.44785644996126
 20
-126.7910089015907
 11
78.44855644996127
 21
-126.7910089015907
  0
LINE
  5
1C6
100
AcDbEntity
  8
0
  6
ByLayer
 62
    0
370
   -1
100
AcDbLine
 10
78.44855644996127
 20
-126.7910089015907
 11
78.44855644996127
 21
-112.7917089015907
  0
LINE
  5
1C7
100
AcDbEntity
  8
0
  6
ByLayer
 62
    0
370
   -1
100
AcDbLine
 10
40.34855644996128
 20
-112.7917089015907
 11
54.34785644996128
 21
-112.7917089015907
  0
LINE
  5
1C8
100
AcDbEntity
  8
0
  6
ByLayer
 62
    0
370
   -1
100
AcDbLine
 10
54.34785644996128
 20
-112.7917089015907
 11
54.34785644996128
 21
-126.7910089015907
  0
LINE
  5
1C9
100
AcDbEntity
  8
0
  6
ByLayer
 62
    0
370
   -1
100
AcDbLine
 10
54.34785644996128
 20
-126.7910089015907
 11
40.34855644996128
 21
-126.7910089015907
  0
LINE
  5
1CA
100
AcDbEntity
  8
0
  6
ByLayer
 62
    0
370
   -1
100
AcDbLine
 10
40.34855644996128
 20
-126.7910089015907
 11
40.34855644996128
 21
-112.7917089015907
  0
LINE
  5
1CB
100
AcDbEntity
  8
0
  6
ByLayer
 62
    0
370
   -1
100
AcDbLine
 10
59.39855644996128
 20
-110.5054089015907
 11
73.39785644996127
 21
-110.5054089015907
  0
LINE
  5
1CC
100
AcDbEntity
  8
0
  6
ByLayer
 62
    0
370
   -1
100
AcDbLine
 10
73.39785644996127
 20
-110.5054089015907
 11
73.39785644996127
 21
-124.5050089015907
  0
LINE
  5
1CD
100
AcDbEntity
  8
0
  6
ByLayer
 62
    0
370
   -1
100
AcDbLine
 10
73.39785644996127
 20
-124.5050089015907
 11
59.39855644996128
 21
-124.5050089015907
  0
LINE
  5
1CE
100
AcDbEntity
  8
0
  6
ByLayer
 62
    0
370
   -1
100
AcDbLine
 10
59.39855644996128
 20
-124.5050089015907
 11
59.39855644996128
 21
-110.5054089015907
  0
LINE
  5
1CF
100
AcDbEntity
  8
0
  6
ByLayer
 62
    0
370
   -1
100
AcDbLine
 10
21.29855644996128
 20
-103.2667089015907
 11
35.29785644996128
 21
-103.2667089015907
  0
LINE
  5
1D0
100
AcDbEntity
  8
0
  6
ByLayer
 62
    0
370
   -1
100
AcDbLine
 10
35.29785644996128
 20
-103.2667089015907
 11
35.29785644996128
 21
-117.2660089015907
  0
LINE
  5
1D1
100
AcDbEntity
  8
0
  6
ByLayer
 62
    0
370
   -1
100
AcDbLine
 10
35.29785644996128
 20
-117.2660089015907
 11
21.29855644996128
 21
-117.2660089015907
  0
LINE
  5
1D2
100
AcDbEntity
  8
0
  6
ByLayer
 62
    0
370
   -1
100
AcDbLine
 10
21.29855644996128
 20
-117.2660089015907
 11
21.29855644996128
 21
-103.2667089015907
  0
LINE
  5
1D3
100
AcDbEntity
  8
0
  6
ByLayer
 62
    0
370
   -1
100
AcDbLine
 10
-2.513983550038724
 20
-103.2667089015907
 11
11.48555644996128
 21
-103.2667089015907
  0
LINE
  5
1D4
100
AcDbEntity
  8
0
  6
ByLayer
 62
    0
370
   -1
100
AcDbLine
 10
11.48555644996128
 20
-103.2667089015907
 11
11.48555644996128
 21
-117.2660089015907
  0
LINE
  5
1D5
100
AcDbEntity
  8
0
  6
ByLayer
 62
    0
370
   -1
100
AcDbLine
 10
11.48555644996128
 20
-117.2660089015907
 11
-2.513983550038724
 21
-117.2660089015907
  0
LINE
  5
1D6
100
AcDbEntity
  8
0
  6
ByLayer
 62
    0
370
   -1
100
AcDbLine
 10
-2.513983550038724
 20
-117.2660089015907
 11
-2.513983550038724
 21
-103.2667089015907
  0
LINE
  5
1D7
100
AcDbEntity
  8
0
  6
ByLayer
 62
    0
370
   -1
100
AcDbLine
 10
97.49885644996127
 20
-94.69390890159067
 11
111.4978564499613
 21
-94.69390890159067
  0
LINE
  5
1D8
100
AcDbEntity
  8
0
  6
ByLayer
 62
    0
370
   -1
100
AcDbLine
 10
111.4978564499613
 20
-94.69390890159067
 11
111.4978564499613
 21
-108.6935089015907
  0
LINE
  5
1D9
100
AcDbEntity
  8
0
  6
ByLayer
 62
    0
370
   -1
100
AcDbLine
 10
111.4978564499613
 20
-108.6935089015907
 11
97.49885644996127
 21
-108.6935089015907
  0
LINE
  5
1DA
100
AcDbEntity
  8
0
  6
ByLayer
 62
    0
370
   -1
100
AcDbLine
 10
97.49885644996127
 20
-108.6935089015907
 11
97.49885644996127
 21
-94.69390890159067
  0
LINE
  5
1DB
100
AcDbEntity
  8
0
  6
ByLayer
 62
    0
370
   -1
100
AcDbLine
 10
78.44855644996127
 20
-93.74170890159067
 11
92.44785644996126
 21
-93.74170890159067
  0
LINE
  5
1DC
100
AcDbEntity
  8
0
  6
ByLayer
 62
    0
370
   -1
100
AcDbLine
 10
92.44785644996126
 20
-93.74170890159067
 11
92.44785644996126
 21
-107.7410089015907
  0
LINE
  5
1DD
100
AcDbEntity
  8
0
  6
ByLayer
 62
    0
370
   -1
100
AcDbLine
 10
92.44785644996126
 20
-107.7410089015907
 11
78.44855644996127
 21
-107.7410089015907
  0
LINE
  5
1DE
100
AcDbEntity
  8
0
  6
ByLayer
 62
    0
370
   -1
100
AcDbLine
 10
78.44855644996127
 20
-107.7410089015907
 11
78.44855644996127
 21
-93.74170890159067
  0
LINE
  5
1DF
100
AcDbEntity
  8
0
  6
ByLayer
 62
    0
370
   -1
100
AcDbLine
 10
40.34855644996128
 20
-93.74170890159067
 11
54.34785644996128
 21
-93.74170890159067
  0
LINE
  5
1E0
100
AcDbEntity
  8
0
  6
ByLayer
 62
    0
370
   -1
100
AcDbLine
 10
54.34785644996128
 20
-93.74170890159067
 11
54.34785644996128
 21
-107.7410089015907
  0
LINE
  5
1E1
100
AcDbEntity
  8
0
  6
ByLayer
 62
    0
370
   -1
100
AcDbLine
 10
54.34785644996128
 20
-107.7410089015907
 11
40.34855644996128
 21
-107.7410089015907
  0
LINE
  5
1E2
100
AcDbEntity
  8
0
  6
ByLayer
 62
    0
370
   -1
100
AcDbLine
 10
40.34855644996128
 20
-107.7410089015907
 11
40.34855644996128
 21
-93.74170890159067
  0
LINE
  5
1E3
100
AcDbEntity
  8
0
  6
ByLayer
 62
    0
370
   -1
100
AcDbLine
 10
59.39855644996128
 20
-91.45540890159067
 11
73.39785644996127
 21
-91.45540890159067
  0
LINE
  5
1E4
100
AcDbEntity
  8
0
  6
ByLayer
 62
    0
370
   -1
100
AcDbLine
 10
73.39785644996127
 20
-91.45540890159067
 11
73.39785644996127
 21
-105.4550089015907
  0
LINE
  5
1E5
100
AcDbEntity
  8
0
  6
ByLayer
 62
    0
370
   -1
100
AcDbLine
 10
73.39785644996127
 20
-105.4550089015907
 11
59.39855644996128
 21
-105.4550089015907
  0
LINE
  5
1E6
100
AcDbEntity
  8
0
  6
ByLayer
 62
    0
370
   -1
100
AcDbLine
 10
59.39855644996128
 20
-105.4550089015907
 11
59.39855644996128
 21
-91.45540890159067
  0
LINE
  5
1E7
100
AcDbEntity
  8
0
  6
ByLayer
 62
  256
370
   -1
100
AcDbLine
 10
116.2228564499613
 20
-155.0506089015907
 11
121.3468564499613
 21
-174.1763989015907
  0
LINE
  5
1E8
100
AcDbEntity
  8
0
  6
ByLayer
 62
  256
370
   -1
100
AcDbLine
 10
109.2228564499613
 20
-167.1759089015907
 11
128.3468564499613
 21
-162.0510089015907
  0
LINE
  5
1E9
100
AcDbEntity
  8
0
  6
ByLayer
 62
  256
370
   -1
100
AcDbLine
 10
91.92685644996125
 20
-152.0768089015907
 11
101.8268564499613
 21
-169.2223089015907
  0
LINE
  5
1EA
100
AcDbEntity
  8
0
  6
ByLayer
 62
  256
370
   -1
100
AcDbLine
 10
88.30415644996127
 20
-165.5995089015907
 11
105.4498564499613
 21
-155.6997089015907
  0
LWPOLYLINE
  5
1EB
100
AcDbEntity
  8
0
  6
ByLayer
 62
  256
370
   -1
100
AcDbPolyline
 90
    4
 70
    1
 43
0
 10
119.8900134208887
 20
-181.7493978384533
 10
134.1775134208887
 20
-157.0027219253129
 10
117.6797294787952
 20
-147.4777219253129
 10
103.3922294787951
 20
-172.2243978384533
  0
LWPOLYLINE
  5
1EC
100
AcDbEntity
  8
0
  6
ByLayer
 62
  256
370
   -1
100
AcDbPolyline
 90
    4
 70
    1
 43
0
 10
85.21131154995639
 20
-167.3848009923925
 10
103.6121985407631
 20
-172.3153038015955
 10
108.5427013499662
 20
-153.9144168107888
 10
90.14181435915941
 20
-148.9839140015858
  0
LINE
  5
1ED
100
AcDbEntity
  8
0
  6
ByLayer
 62
    0
370
   -1
100
AcDbLine
 10
273.3206332114775
 20
-57.00524142902559
 11
285.4446332114775
 21
-64.00574142902559
  0
LINE
  5
1EE
100
AcDbEntity
  8
0
  6
ByLayer
 62
    0
370
   -1
100
AcDbLine
 10
285.4446332114775
 20
-64.00574142902559
 11
292.4436332114775
 21
-51.88174142902559
  0
LINE
  5
1EF
100
AcDbEntity
  8
0
  6
ByLayer
 62
    0
370
   -1
100
AcDbLine
 10
292.4436332114775
 20
-51.88174142902559
 11
280.3196332114775
 21
-44.88134142902559
  0
LINE
  5
1F0
100
AcDbEntity
  8
0
  6
ByLayer
 62
    0
370
   -1
100
AcDbLine
 10
280.3196332114775
 20
-44.88134142902559
 11
273.3206332114775
 21
-57.00524142902559
  0
LINE
  5
1F1
100
AcDbEntity
  8
0
  6
ByLayer
 62
    0
370
   -1
100
AcDbLine
 10
252.1718332114775
 20
-55.33514142902558
 11
265.6946332114775
 21
-58.95794142902558
  0
LINE
  5
1F2
100
AcDbEntity
  8
0
  6
ByLayer
 62
    0
370
   -1
100
AcDbLine
 10
265.6946332114775
 20
-58.95794142902558
 11
269.3186332114775
 21
-45.43394142902559
  0
LINE
  5
1F3
100
AcDbEntity
  8
0
  6
ByLayer
 62
    0
370
   -1
100
AcDbLine
 10
269.3186332114775
 20
-45.43394142902559
 11
255.7946332114775
 21
-41.81104142902559
  0
LINE
  5
1F4
100
AcDbEntity
  8
0
  6
ByLayer
 62
    0
370
   -1
100
AcDbLine
 10
255.7946332114775
 20
-41.81104142902559
 11
252.1718332114775
 21
-55.33514142902558
  0
LINE
  5
1F5
100
AcDbEntity
  8
0
  6
ByLayer
 62
    0
370
   -1
100
AcDbLine
 10
232.5443332114775
 20
-40.59424142902559
 11
246.5436332114775
 21
-40.59424142902559
  0
LINE
  5
1F6
100
AcDbEntity
  8
0
  6
ByLayer
 62
    0
370
   -1
100
AcDbLine
 10
246.5436332114775
 20
-40.59424142902559
 11
246.5436332114775
 21
-54.59374142902558
  0
LINE
  5
1F7
100
AcDbEntity
  8
0
  6
ByLayer
 62
    0
370
   -1
100
AcDbLine
 10
246.5436332114775
 20
-54.59374142902558
 11
232.5443332114775
 21
-54.59374142902558
  0
LINE
  5
1F8
100
AcDbEntity
  8
0
  6
ByLayer
 62
    0
370
   -1
100
AcDbLine
 10
232.5443332114775
 20
-54.59374142902558
 11
232.5443332114775
 21
-40.59424142902559
  0
LINE
  5
1F9
100
AcDbEntity
  8
0
  6
ByLayer
 62
    0
370
   -1
100
AcDbLine
 10
213.4943332114775
 20
-40.59424142902559
 11
227.4936332114775
 21
-40.59424142902559
  0
LINE
  5
1FA
100
AcDbEntity
  8
0
  6
ByLayer
 62
    0
370
   -1
100
AcDbLine
 10
227.4936332114775
 20
-40.59424142902559
 11
227.4936332114775
 21
-54.59374142902558
  0
LINE
  5
1FB
100
AcDbEntity
  8
0
  6
ByLayer
 62
    0
370
   -1
100
AcDbLine
 10
227.4936332114775
 20
-54.59374142902558
 11
213.4943332114775
 21
-54.59374142902558
  0
LINE
  5
1FC
100
AcDbEntity
  8
0
  6
ByLayer
 62
    0
370
   -1
100
AcDbLine
 10
213.4943332114775
 20
-54.59374142902558
 11
213.4943332114775
 21
-40.59424142902559
  0
LINE
  5
1FD
100
AcDbEntity
  8
0
  6
ByLayer
 62
    0
370
   -1
100
AcDbLine
 10
184.9193332114775
 20
-31.06934142902558
 11
198.9186332114775
 21
-31.06934142902558
  0
LINE
  5
1FE
100
AcDbEntity
  8
0
  6
ByLayer
 62
    0
370
   -1
100
AcDbLine
 10
198.9186332114775
 20
-31.06934142902558
 11
198.9186332114775
 21
-45.06874142902559
  0
LINE
  5
1FF
100
AcDbEntity
  8
0
  6
ByLayer
 62
    0
370
   -1
100
AcDbLine
 10
198.9186332114775
 20
-45.06874142902559
 11
184.9193332114775
 21
-45.06874142902559
  0
LINE
  5
200
100
AcDbEntity
  8
0
  6
ByLayer
 62
    0
370
   -1
100
AcDbLine
 10
184.9193332114775
 20
-45.06874142902559
 11
184.9193332114775
 21
-31.06934142902558
  0
LINE
  5
201
100
AcDbEntity
  8
0
  6
ByLayer
 62
    0
370
   -1
100
AcDbLine
 10
161.1067932114775
 20
-31.06934142902558
 11
175.1063332114775
 21
-31.06934142902558
  0
LINE
  5
202
100
AcDbEntity
  8
0
  6
ByLayer
 62
    0
370
   -1
100
AcDbLine
 10
175.1063332114775
 20
-31.06934142902558
 11
175.1063332114775
 21
-45.06874142902559
  0
LINE
  5
203
100
AcDbEntity
  8
0
  6
ByLayer
 62
    0
370
   -1
100
AcDbLine
 10
175.1063332114775
 20
-45.06874142902559
 11
161.1067932114775
 21
-45.06874142902559
  0
LINE
  5
204
100
AcDbEntity
  8
0
  6
ByLayer
 62
    0
370
   -1
100
AcDbLine
 10
161.1067932114775
 20
-45.06874142902559
 11
161.1067932114775
 21
-31.06934142902558
  0
LINE
  5
205
100
AcDbEntity
  8
0
  6
ByLayer
 62
    0
370
   -1
100
AcDbLine
 10
261.1196332114775
 20
-22.49644142902559
 11
275.1186332114775
 21
-22.49644142902559
  0
LINE
  5
206
100
AcDbEntity
  8
0
  6
ByLayer
 62
    0
370
   -1
100
AcDbLine
 10
275.1186332114775
 20
-22.49644142902559
 11
275.1186332114775
 21
-36.49614142902558
  0
LINE
  5
207
100
AcDbEntity
  8
0
  6
ByLayer
 62
    0
370
   -1
100
AcDbLine
 10
275.1186332114775
 20
-36.49614142902558
 11
261.1196332114775
 21
-36.49614142902558
  0
LINE
  5
208
100
AcDbEntity
  8
0
  6
ByLayer
 62
    0
370
   -1
100
AcDbLine
 10
261.1196332114775
 20
-36.49614142902558
 11
261.1196332114775
 21
-22.49644142902559
  0
LINE
  5
209
100
AcDbEntity
  8
0
  6
ByLayer
 62
    0
370
   -1
100
AcDbLine
 10
242.0693332114775
 20
-21.54434142902559
 11
256.0686332114775
 21
-21.54434142902559
  0
LINE
  5
20A
100
AcDbEntity
  8
0
  6
ByLayer
 62
    0
370
   -1
100
AcDbLine
 10
256.0686332114775
 20
-21.54434142902559
 11
256.0686332114775
 21
-35.54364142902559
  0
LINE
  5
20B
100
AcDbEntity
  8
0
  6
ByLayer
 62
    0
370
   -1
100
AcDbLine
 10
256.0686332114775
 20
-35.54364142902559
 11
242.0693332114775
 21
-35.54364142902559
  0
LINE
  5
20C
100
AcDbEntity
  8
0
  6
ByLayer
 62
    0
370
   -1
100
AcDbLine
 10
242.0693332114775
 20
-35.54364142902559
 11
242.0693332114775
 21
-21.54434142902559
  0
LINE
  5
20D
100
AcDbEntity
  8
0
  6
ByLayer
 62
    0
370
   -1
100
AcDbLine
 10
203.9693332114775
 20
-21.54434142902559
 11
217.9686332114775
 21
-21.54434142902559
  0
LINE
  5
20E
100
AcDbEntity
  8
0
  6
ByLayer
 62
    0
370
   -1
100
AcDbLine
 10
217.9686332114775
 20
-21.54434142902559
 11
217.9686332114775
 21
-35.54364142902559
  0
LINE
  5
20F
100
AcDbEntity
  8
0
  6
ByLayer
 62
    0
370
   -1
100
AcDbLine
 10
217.9686332114775
 20
-35.54364142902559
 11
203.9693332114775
 21
-35.54364142902559
  0
LINE
  5
210
100
AcDbEntity
  8
0
  6
ByLayer
 62
    0
370
   -1
100
AcDbLine
 10
203.9693332114775
 20
-35.54364142902559
 11
203.9693332114775
 21
-21.54434142902559
  0
LINE
  5
211
100
AcDbEntity
  8
0
  6
ByLayer
 62
    0
370
   -1
100
AcDbLine
 10
223.0193332114775
 20
-18.68614142902559
 11
237.0186332114775
 21
-18.68614142902559
  0
LINE
  5
212
100
AcDbEntity
  8
0
  6
ByLayer
 62
    0
370
   -1
100
AcDbLine
 10
237.0186332114775
 20
-18.68614142902559
 11
237.0186332114775
 21
-32.68714142902559
  0
LINE
  5
213
100
AcDbEntity
  8
0
  6
ByLayer
 62
    0
370
   -1
100
AcDbLine
 10
237.0186332114775
 20
-32.68714142902559
 11
223.0193332114775
 21
-32.68714142902559
  0
LINE
  5
214
100
AcDbEntity
  8
0
  6
ByLayer
 62
    0
370
   -1
100
AcDbLine
 10
223.0193332114775
 20
-32.68714142902559
 11
223.0193332114775
 21
-18.68614142902559
  0
LINE
  5
215
100
AcDbEntity
  8
0
  6
ByLayer
 62
    0
370
   -1
100
AcDbLine
 10
184.9193332114775
 20
-12.01934142902559
 11
198.9186332114775
 21
-12.01934142902559
  0
LINE
  5
216
100
AcDbEntity
  8
0
  6
ByLayer
 62
    0
370
   -1
100
AcDbLine
 10
198.9186332114775
 20
-12.01934142902559
 11
198.9186332114775
 21
-26.01864142902559
  0
LINE
  5
217
100
AcDbEntity
  8
0
  6
ByLayer
 62
    0
370
   -1
100
AcDbLine
 10
198.9186332114775
 20
-26.01864142902559
 11
184.9193332114775
 21
-26.01864142902559
  0
LINE
  5
218
100
AcDbEntity
  8
0
  6
ByLayer
 62
    0
370
   -1
100
AcDbLine
 10
184.9193332114775
 20
-26.01864142902559
 11
184.9193332114775
 21
-12.01934142902559
  0
LINE
  5
219
100
AcDbEntity
  8
0
  6
ByLayer
 62
    0
370
   -1
100
AcDbLine
 10
161.1067932114775
 20
-12.01934142902559
 11
175.1063332114775
 21
-12.01934142902559
  0
LINE
  5
21A
100
AcDbEntity
  8
0
  6
ByLayer
 62
    0
370
   -1
100
AcDbLine
 10
175.1063332114775
 20
-12.01934142902559
 11
175.1063332114775
 21
-26.01864142902559
  0
LINE
  5
21B
100
AcDbEntity
  8
0
  6
ByLayer
 62
    0
370
   -1
100
AcDbLine
 10
175.1063332114775
 20
-26.01864142902559
 11
161.1067932114775
 21
-26.01864142902559
  0
LINE
  5
21C
100
AcDbEntity
  8
0
  6
ByLayer
 62
    0
370
   -1
100
AcDbLine
 10
161.1067932114775
 20
-26.01864142902559
 11
161.1067932114775
 21
-12.01934142902559
  0
LINE
  5
21D
100
AcDbEntity
  8
0
  6
ByLayer
 62
    0
370
   -1
100
AcDbLine
 10
261.1196332114775
 20
-3.446441429025581
 11
275.1186332114775
 21
-3.446441429025581
  0
LINE
  5
21E
100
AcDbEntity
  8
0
  6
ByLayer
 62
    0
370
   -1
100
AcDbLine
 10
275.1186332114775
 20
-3.446441429025581
 11
275.1186332114775
 21
-17.44614142902559
  0
LINE
  5
21F
100
AcDbEntity
  8
0
  6
ByLayer
 62
    0
370
   -1
100
AcDbLine
 10
275.1186332114775
 20
-17.44614142902559
 11
261.1196332114775
 21
-17.44614142902559
  0
LINE
  5
220
100
AcDbEntity
  8
0
  6
ByLayer
 62
    0
370
   -1
100
AcDbLine
 10
261.1196332114775
 20
-17.44614142902559
 11
261.1196332114775
 21
-3.446441429025581
  0
LINE
  5
221
100
AcDbEntity
  8
0
  6
ByLayer
 62
    0
370
   -1
100
AcDbLine
 10
242.0693332114775
 20
-2.49434142902558
 11
256.0686332114775
 21
-2.49434142902558
  0
LINE
  5
222
100
AcDbEntity
  8
0
  6
ByLayer
 62
    0
370
   -1
100
AcDbLine
 10
256.0686332114775
 20
-2.49434142902558
 11
256.0686332114775
 21
-16.49364142902559
  0
LINE
  5
223
100
AcDbEntity
  8
0
  6
ByLayer
 62
    0
370
   -1
100
AcDbLine
 10
256.0686332114775
 20
-16.49364142902559
 11
242.0693332114775
 21
-16.49364142902559
  0
LINE
  5
224
100
AcDbEntity
  8
0
  6
ByLayer
 62
    0
370
   -1
100
AcDbLine
 10
242.0693332114775
 20
-16.49364142902559
 11
242.0693332114775
 21
-2.49434142902558
  0
LINE
  5
225
100
AcDbEntity
  8
0
  6
ByLayer
 62
    0
370
   -1
100
AcDbLine
 10
203.9693332114775
 20
-2.49434142902558
 11
217.9686332114775
 21
-2.49434142902558
  0
LINE
  5
226
100
AcDbEntity
  8
0
  6
ByLayer
 62
    0
370
   -1
100
AcDbLine
 10
217.9686332114775
 20
-2.49434142902558
 11
217.9686332114775
 21
-16.49364142902559
  0
LINE
  5
227
100
AcDbEntity
  8
0
  6
ByLayer
 62
    0
370
   -1
100
AcDbLine
 10
217.9686332114775
 20
-16.49364142902559
 11
203.9693332114775
 21
-16.49364142902559
  0
LINE
  5
228
100
AcDbEntity
  8
0
  6
ByLayer
 62
    0
370
   -1
100
AcDbLine
 10
203.9693332114775
 20
-16.49364142902559
 11
203.9693332114775
 21
-2.49434142902558
  0
LINE
  5
229
100
AcDbEntity
  8
0
  6
ByLayer
 62
    0
370
   -1
100
AcDbLine
 10
223.0193332114775
 20
0.3638585709744167
 11
237.0186332114775
 21
0.3638585709744167
  0
LINE
  5
22A
100
AcDbEntity
  8
0
  6
ByLayer
 62
    0
370
   -1
100
AcDbLine
 10
237.0186332114775
 20
0.3638585709744167
 11
237.0186332114775
 21
-13.63714142902559
  0
LINE
  5
22B
100
AcDbEntity
  8
0
  6
ByLayer
 62
    0
370
   -1
100
AcDbLine
 10
237.0186332114775
 20
-13.63714142902559
 11
223.0193332114775
 21
-13.63714142902559
  0
LINE
  5
22C
100
AcDbEntity
  8
0
  6
ByLayer
 62
    0
370
   -1
100
AcDbLine
 10
223.0193332114775
 20
-13.63714142902559
 11
223.0193332114775
 21
0.3638585709744167
  0
LINE
  5
22D
100
AcDbEntity
  8
0
  6
ByLayer
 62
    0
370
   -1
100
AcDbLine
 10
184.9193332114775
 20
7.030658570974412
 11
198.9186332114775
 21
7.030658570974412
  0
LINE
  5
22E
100
AcDbEntity
  8
0
  6
ByLayer
 62
    0
370
   -1
100
AcDbLine
 10
198.9186332114775
 20
7.030658570974412
 11
198.9186332114775
 21
-6.968641429025579
  0
LINE
  5
22F
100
AcDbEntity
  8
0
  6
ByLayer
 62
    0
370
   -1
100
AcDbLine
 10
198.9186332114775
 20
-6.968641429025579
 11
184.9193332114775
 21
-6.968641429025579
  0
LINE
  5
230
100
AcDbEntity
  8
0
  6
ByLayer
 62
    0
370
   -1
100
AcDbLine
 10
184.9193332114775
 20
-6.968641429025579
 11
184.9193332114775
 21
7.030658570974412
  0
LINE
  5
231
100
AcDbEntity
  8
0
  6
ByLayer
 62
    0
370
   -1
100
AcDbLine
 10
161.1067932114775
 20
7.030658570974412
 11
175.1063332114775
 21
7.030658570974412
  0
LINE
  5
232
100
AcDbEntity
  8
0
  6
ByLayer
 62
    0
370
   -1
100
AcDbLine
 10
175.1063332114775
 20
7.030658570974412
 11
175.1063332114775
 21
-6.968641429025579
  0
LINE
  5
233
100
AcDbEntity
  8
0
  6
ByLayer
 62
    0
370
   -1
100
AcDbLine
 10
175.1063332114775
 20
-6.968641429025579
 11
161.1067932114775
 21
-6.968641429025579
  0
LINE
  5
234
100
AcDbEntity
  8
0
  6
ByLayer
 62
    0
370
   -1
100
AcDbLine
 10
161.1067932114775
 20
-6.968641429025579
 11
161.1067932114775
 21
7.030658570974412
  0
LINE
  5
235
100
AcDbEntity
  8
0
  6
ByLayer
 62
    0
370
   -1
100
AcDbLine
 10
261.1196332114775
 20
15.60355857097442
 11
275.1186332114775
 21
15.60355857097442
  0
LINE
  5
236
100
AcDbEntity
  8
0
  6
ByLayer
 62
    0
370
   -1
100
AcDbLine
 10
275.1186332114775
 20
15.60355857097442
 11
275.1186332114775
 21
1.603858570974412
  0
LINE
  5
237
100
AcDbEntity
  8
0
  6
ByLayer
 62
    0
370
   -1
100
AcDbLine
 10
275.1186332114775
 20
1.603858570974412
 11
261.1196332114775
 21
1.603858570974412
  0
LINE
  5
238
100
AcDbEntity
  8
0
  6
ByLayer
 62
    0
370
   -1
100
AcDbLine
 10
261.1196332114775
 20
1.603858570974412
 11
261.1196332114775
 21
15.60355857097442
  0
LINE
  5
239
100
AcDbEntity
  8
0
  6
ByLayer
 62
    0
370
   -1
100
AcDbLine
 10
242.0693332114775
 20
16.55565857097442
 11
256.0686332114775
 21
16.55565857097442
  0
LINE
  5
23A
100
AcDbEntity
  8
0
  6
ByLayer
 62
    0
370
   -1
100
AcDbLine
 10
256.0686332114775
 20
16.55565857097442
 11
256.0686332114775
 21
2.556358570974412
  0
LINE
  5
23B
100
AcDbEntity
  8
0
  6
ByLayer
 62
    0
370
   -1
100
AcDbLine
 10
256.0686332114775
 20
2.556358570974412
 11
242.0693332114775
 21
2.556358570974412
  0
LINE
  5
23C
100
AcDbEntity
  8
0
  6
ByLayer
 62
    0
370
   -1
100
AcDbLine
 10
242.0693332114775
 20
2.556358570974412
 11
242.0693332114775
 21
16.55565857097442
  0
LINE
  5
23D
100
AcDbEntity
  8
0
  6
ByLayer
 62
    0
370
   -1
100
AcDbLine
 10
203.9693332114775
 20
16.55565857097442
 11
217.9686332114775
 21
16.55565857097442
  0
LINE
  5
23E
100
AcDbEntity
  8
0
  6
ByLayer
 62
    0
370
   -1
100
AcDbLine
 10
217.9686332114775
 20
16.55565857097442
 11
217.9686332114775
 21
2.556358570974412
  0
LINE
  5
23F
100
AcDbEntity
  8
0
  6
ByLayer
 62
    0
370
   -1
100
AcDbLine
 10
217.9686332114775
 20
2.556358570974412
 11
203.9693332114775
 21
2.556358570974412
  0
LINE
  5
240
100
AcDbEntity
  8
0
  6
ByLayer
 62
    0
370
   -1
100
AcDbLine
 10
203.9693332114775
 20
2.556358570974412
 11
203.9693332114775
 21
16.55565857097442
  0
LINE
  5
241
100
AcDbEntity
  8
0
  6
ByLayer
 62
    0
370
   -1
100
AcDbLine
 10
223.0193332114775
 20
19.41385857097441
 11
237.0186332114775
 21
19.41385857097441
  0
LINE
  5
242
100
AcDbEntity
  8
0
  6
ByLayer
 62
    0
370
   -1
100
AcDbLine
 10
237.0186332114775
 20
19.41385857097441
 11
237.0186332114775
 21
5.412858570974409
  0
LINE
  5
243
100
AcDbEntity
  8
0
  6
ByLayer
 62
    0
370
   -1
100
AcDbLine
 10
237.0186332114775
 20
5.412858570974409
 11
223.0193332114775
 21
5.412858570974409
  0
LINE
  5
244
100
AcDbEntity
  8
0
  6
ByLayer
 62
    0
370
   -1
100
AcDbLine
 10
223.0193332114775
 20
5.412858570974409
 11
223.0193332114775
 21
19.41385857097441
  0
LWPOLYLINE
  5
245
100
AcDbEntity
  8
0
  6
ByLayer
 62
  256
370
   -1
100
AcDbPolyline
 90
    4
 70
    1
 43
0
 10
283.9235308276164
 20
-71.54217938559577
 10
298.2110308276164
 20
-46.79550347245544
 10
281.7132468855228
 20
-37.27050347245544
 10
267.4257468855228
 20
-62.01717938559578
  0
LWPOLYLINE
  5
246
100
AcDbEntity
  8
0
  6
ByLayer
 62
  256
370
   -1
100
AcDbPolyline
 90
    4
 70
    1
 43
0
 10
249.0784383114726
 20
-57.11903351982744
 10
267.4793253022794
 20
-62.04953632903045
 10
272.4098281114824
 20
-43.64864933822371
 10
254.0089411206756
 20
-38.71814652902069
  0
LWPOLYLINE
  5
247
100
AcDbEntity
  8
0
  6
ByLayer
 62
  256
370
   -1
100
AcDbPolyline
 90
    4
 70
    1
 43
0
 10
61.91254000000002
 20
-57.15019999999998
 10
80.96254000000002
 20
-57.15019999999998
 10
80.96254000000002
 20
-38.10019999999999
 10
61.91254000000002
 20
-38.10019999999999
  0
LWPOLYLINE
  5
248
100
AcDbEntity
  8
0
  6
ByLayer
 62
  256
370
   -1
100
AcDbPolyline
 90
    4
 70
    1
 43
0
 10
230.0191032114775
 20
-57.11904142902559
 10
249.0691032114775
 20
-57.11904142902559
 10
249.0691032114775
 20
-38.06904142902559
 10
230.0191032114775
 20
-38.06904142902559
  0
ENDBLK
  5
52
330
50
100
AcDbEntity
  8
0
100
AcDbBlockEnd
  0
ENDSEC
  0
SECTION
  2
ENTITIES
  0
TEXT
  5
249
100
AcDbEntity
  8
0
  6
ByLayer
 62
  256
370
   -1
100
AcDbText
 10
-89.18414257828778
 20
94.63279957250688
 30
0
 40
10
  1
1u
 50
0
 41
1
 51
0
  7
STANDARD
 71
    0
210
0
220
0
230
1
100
AcDbText
  0
LWPOLYLINE
  5
24A
100
AcDbEntity
  8
0
  6
ByLayer
 62
  256
370
   -1
100
AcDbPolyline
 90
    4
 70
    1
 43
0
 10
-109.2158569512421
 20
68.35927420134628
 10
-80.64085695124201
 20
68.35927420134628
 10
-80.64085695124201
 20
87.40927420134626
 10
-109.2158569512421
 20
87.40927420134626
  0
TEXT
  5
24B
100
AcDbEntity
  8
0
  6
ByLayer
 62
  256
370
   -1
100
AcDbText
 10
-80.64085695124201
 20
68.35927420134628
 30
0
 40
10
  1
1.5u
 50
0
 41
1
 51
0
  7
STANDARD
 71
    0
210
0
220
0
230
1
100
AcDbText
  0
LINE
  5
24C
100
AcDbEntity
  8
0
  6
ByLayer
 62
  256
370
   -1
100
AcDbLine
 10
-109.2158569512421
 20
87.40927420134626
 11
-80.64085695124201
 21
68.35927420134628
  0
LINE
  5
24D
100
AcDbEntity
  8
0
  6
ByLayer
 62
  256
370
   -1
100
AcDbLine
 10
-80.64085695124201
 20
87.40927420134626
 11
-109.2158569512421
 21
68.35927420134628
  0
LINE
  5
24E
100
AcDbEntity
  8
0
  6
ByLayer
 62
    0
370
   -1
100
AcDbLine
 10
19.05005
 20
-38.09999999999998
 11
33.04935
 21
-38.09999999999998
  0
LINE
  5
24F
100
AcDbEntity
  8
0
  6
ByLayer
 62
    0
370
   -1
100
AcDbLine
 10
33.04935
 20
-38.09999999999998
 11
33.04935
 21
-52.09939999999999
  0
LINE
  5
250
100
AcDbEntity
  8
0
  6
ByLayer
 62
    0
370
   -1
100
AcDbLine
 10
33.04935
 20
-52.09939999999999
 11
19.05005
 21
-52.09939999999999
  0
LINE
  5
251
100
AcDbEntity
  8
0
  6
ByLayer
 62
    0
370
   -1
100
AcDbLine
 10
19.05005
 20
-52.09939999999999
 11
19.05005
 21
-38.09999999999998
  0
LINE
  5
252
100
AcDbEntity
  8
0
  6
ByLayer
 62
    0
370
   -1
100
AcDbLine
 10
0
 20
-38.09999999999998
 11
13.99955
 21
-38.09999999999998
  0
LINE
  5
253
100
AcDbEntity
  8
0
  6
ByLayer
 62
    0
370
   -1
100
AcDbLine
 10
13.99955
 20
-38.09999999999998
 11
13.99955
 21
-52.09939999999999
  0
LINE
  5
254
100
AcDbEntity
  8
0
  6
ByLayer
 62
    0
370
   -1
100
AcDbLine
 10
13.99955
 20
-52.09939999999999
 11
0
 21
-52.09939999999999
  0
LINE
  5
255
100
AcDbEntity
  8
0
  6
ByLayer
 62
    0
370
   -1
100
AcDbLine
 10
0
 20
-52.09939999999999
 11
0
 21
-38.09999999999998
  0
LINE
  5
256
100
AcDbEntity
  8
0
  6
ByLayer
 62
    0
370
   -1
100
AcDbLine
 10
95.25004999999999
 20
-29.52709999999998
 11
109.24935
 21
-29.52709999999998
  0
LINE
  5
257
100
AcDbEntity
  8
0
  6
ByLayer
 62
    0
370
   -1
100
AcDbLine
 10
109.24935
 20
-29.52709999999998
 11
109.24935
 21
-43.52679999999998
  0
LINE
  5
258
100
AcDbEntity
  8
0
  6
ByLayer
 62
    0
370
   -1
100
AcDbLine
 10
109.24935
 20
-43.52679999999998
 11
95.25004999999999
 21
-43.52679999999998
  0
LINE
  5
259
100
AcDbEntity
  8
0
  6
ByLayer
 62
    0
370
   -1
100
AcDbLine
 10
95.25004999999999
 20
-43.52679999999998
 11
95.25004999999999
 21
-29.52709999999998
  0
LINE
  5
25A
100
AcDbEntity
  8
0
  6
ByLayer
 62
    0
370
   -1
100
AcDbLine
 10
76.20005
 20
-28.57499999999998
 11
90.19935000000001
 21
-28.57499999999998
  0
LINE
  5
25B
100
AcDbEntity
  8
0
  6
ByLayer
 62
    0
370
   -1
100
AcDbLine
 10
90.19935000000001
 20
-28.57499999999998
 11
90.19935000000001
 21
-42.57429999999999
  0
LINE
  5
25C
100
AcDbEntity
  8
0
  6
ByLayer
 62
    0
370
   -1
100
AcDbLine
 10
90.19935000000001
 20
-42.57429999999999
 11
76.20005
 21
-42.57429999999999
  0
LINE
  5
25D
100
AcDbEntity
  8
0
  6
ByLayer
 62
    0
370
   -1
100
AcDbLine
 10
76.20005
 20
-42.57429999999999
 11
76.20005
 21
-28.57499999999998
  0
LINE
  5
25E
100
AcDbEntity
  8
0
  6
ByLayer
 62
    0
370
   -1
100
AcDbLine
 10
38.10005
 20
-28.57499999999998
 11
52.09935
 21
-28.57499999999998
  0
LINE
  5
25F
100
AcDbEntity
  8
0
  6
ByLayer
 62
    0
370
   -1
100
AcDbLine
 10
52.09935
 20
-28.57499999999998
 11
52.09935
 21
-42.57429999999999
  0
LINE
  5
260
100
AcDbEntity
  8
0
  6
ByLayer
 62
    0
370
   -1
100
AcDbLine
 10
52.09935
 20
-42.57429999999999
 11
38.10005
 21
-42.57429999999999
  0
LINE
  5
261
100
AcDbEntity
  8
0
  6
ByLayer
 62
    0
370
   -1
100
AcDbLine
 10
38.10005
 20
-42.57429999999999
 11
38.10005
 21
-28.57499999999998
  0
LINE
  5
262
100
AcDbEntity
  8
0
  6
ByLayer
 62
    0
370
   -1
100
AcDbLine
 10
57.15005
 20
-23.81249999999999
 11
71.14935
 21
-23.81249999999999
  0
LINE
  5
263
100
AcDbEntity
  8
0
  6
ByLayer
 62
    0
370
   -1
100
AcDbLine
 10
71.14935
 20
-23.81249999999999
 11
71.14935
 21
-37.81179999999998
  0
LINE
  5
264
100
AcDbEntity
  8
0
  6
ByLayer
 62
    0
370
   -1
100
AcDbLine
 10
71.14935
 20
-37.81179999999998
 11
57.15005
 21
-37.81179999999998
  0
LINE
  5
265
100
AcDbEntity
  8
0
  6
ByLayer
 62
    0
370
   -1
100
AcDbLine
 10
57.15005
 20
-37.81179999999998
 11
57.15005
 21
-23.81249999999999
  0
LINE
  5
266
100
AcDbEntity
  8
0
  6
ByLayer
 62
    0
370
   -1
100
AcDbLine
 10
19.05005
 20
-19.04999999999998
 11
33.04935
 21
-19.04999999999998
  0
LINE
  5
267
100
AcDbEntity
  8
0
  6
ByLayer
 62
    0
370
   -1
100
AcDbLine
 10
33.04935
 20
-19.04999999999998
 11
33.04935
 21
-33.04929999999998
  0
LINE
  5
268
100
AcDbEntity
  8
0
  6
ByLayer
 62
    0
370
   -1
100
AcDbLine
 10
33.04935
 20
-33.04929999999998
 11
19.05005
 21
-33.04929999999998
  0
LINE
  5
269
100
AcDbEntity
  8
0
  6
ByLayer
 62
    0
370
   -1
100
AcDbLine
 10
19.05005
 20
-33.04929999999998
 11
19.05005
 21
-19.04999999999998
  0
LINE
  5
26A
100
AcDbEntity
  8
0
  6
ByLayer
 62
    0
370
   -1
100
AcDbLine
 10
0
 20
-19.04999999999998
 11
13.99955
 21
-19.04999999999998
  0
LINE
  5
26B
100
AcDbEntity
  8
0
  6
ByLayer
 62
    0
370
   -1
100
AcDbLine
 10
13.99955
 20
-19.04999999999998
 11
13.99955
 21
-33.04929999999998
  0
LINE
  5
26C
100
AcDbEntity
  8
0
  6
ByLayer
 62
    0
370
   -1
100
AcDbLine
 10
13.99955
 20
-33.04929999999998
 11
0
 21
-33.04929999999998
  0
LINE
  5
26D
100
AcDbEntity
  8
0
  6
ByLayer
 62
    0
370
   -1
100
AcDbLine
 10
0
 20
-33.04929999999998
 11
0
 21
-19.04999999999998
  0
LINE
  5
26E
100
AcDbEntity
  8
0
  6
ByLayer
 62
    0
370
   -1
100
AcDbLine
 10
95.25004999999999
 20
-10.47709999999998
 11
109.24935
 21
-10.47709999999998
  0
LINE
  5
26F
100
AcDbEntity
  8
0
  6
ByLayer
 62
    0
370
   -1
100
AcDbLine
 10
109.24935
 20
-10.47709999999998
 11
109.24935
 21
-24.47679999999998
  0
LINE
  5
270
100
AcDbEntity
  8
0
  6
ByLayer
 62
    0
370
   -1
100
AcDbLine
 10
109.24935
 20
-24.47679999999998
 11
95.25004999999999
 21
-24.47679999999998
  0
LINE
  5
271
100
AcDbEntity
  8
0
  6
ByLayer
 62
    0
370
   -1
100
AcDbLine
 10
95.25004999999999
 20
-24.47679999999998
 11
95.25004999999999
 21
-10.47709999999998
  0
LINE
  5
272
100
AcDbEntity
  8
0
  6
ByLayer
 62
    0
370
   -1
100
AcDbLine
 10
76.20005
 20
-9.524999999999977
 11
90.19935000000001
 21
-9.524999999999977
  0
LINE
  5
273
100
AcDbEntity
  8
0
  6
ByLayer
 62
    0
370
   -1
100
AcDbLine
 10
90.19935000000001
 20
-9.524999999999977
 11
90.19935000000001
 21
-23.52429999999998
  0
LINE
  5
274
100
AcDbEntity
  8
0
  6
ByLayer
 62
    0
370
   -1
100
AcDbLine
 10
90.19935000000001
 20
-23.52429999999998
 11
76.20005
 21
-23.52429999999998
  0
LINE
  5
275
100
AcDbEntity
  8
0
  6
ByLayer
 62
    0
370
   -1
100
AcDbLine
 10
76.20005
 20
-23.52429999999998
 11
76.20005
 21
-9.524999999999977
  0
LINE
  5
276
100
AcDbEntity
  8
0
  6
ByLayer
 62
    0
370
   -1
100
AcDbLine
 10
38.10005
 20
-9.524999999999977
 11
52.09935
 21
-9.524999999999977
  0
LINE
  5
277
100
AcDbEntity
  8
0
  6
ByLayer
 62
    0
370
   -1
100
AcDbLine
 10
52.09935
 20
-9.524999999999977
 11
52.09935
 21
-23.52429999999998
  0
LINE
  5
278
100
AcDbEntity
  8
0
  6
ByLayer
 62
    0
370
   -1
100
AcDbLine
 10
52.09935
 20
-23.52429999999998
 11
38.10005
 21
-23.52429999999998
  0
LINE
  5
279
100
AcDbEntity
  8
0
  6
ByLayer
 62
    0
370
   -1
100
AcDbLine
 10
38.10005
 20
-23.52429999999998
 11
38.10005
 21
-9.524999999999977
  0
LINE
  5
27A
100
AcDbEntity
  8
0
  6
ByLayer
 62
    0
370
   -1
100
AcDbLine
 10
57.15005
 20
-4.762499999999989
 11
71.14935
 21
-4.762499999999989
  0
LINE
  5
27B
100
AcDbEntity
  8
0
  6
ByLayer
 62
    0
370
   -1
100
AcDbLine
 10
71.14935
 20
-4.762499999999989
 11
71.14935
 21
-18.76179999999999
  0
LINE
  5
27C
100
AcDbEntity
  8
0
  6
ByLayer
 62
    0
370
   -1
100
AcDbLine
 10
71.14935
 20
-18.76179999999999
 11
57.15005
 21
-18.76179999999999
  0
LINE
  5
27D
100
AcDbEntity
  8
0
  6
ByLayer
 62
    0
370
   -1
100
AcDbLine
 10
57.15005
 20
-18.76179999999999
 11
57.15005
 21
-4.762499999999989
  0
LINE
  5
27E
100
AcDbEntity
  8
0
  6
ByLayer
 62
    0
370
   -1
100
AcDbLine
 10
19.05005
 20
1.4210854715202e-014
 11
33.04935
 21
1.4210854715202e-014
  0
LINE
  5
27F
100
AcDbEntity
  8
0
  6
ByLayer
 62
    0
370
   -1
100
AcDbLine
 10
33.04935
 20
1.4210854715202e-014
 11
33.04935
 21
-13.99929999999998
  0
LINE
  5
280
100
AcDbEntity
  8
0
  6
ByLayer
 62
    0
370
   -1
100
AcDbLine
 10
33.04935
 20
-13.99929999999998
 11
19.05005
 21
-13.99929999999998
  0
LINE
  5
281
100
AcDbEntity
  8
0
  6
ByLayer
 62
    0
370
   -1
100
AcDbLine
 10
19.05005
 20
-13.99929999999998
 11
19.05005
 21
1.4210854715202e-014
  0
LINE
  5
282
100
AcDbEntity
  8
0
  6
ByLayer
 62
    0
370
   -1
100
AcDbLine
 10
0
 20
1.4210854715202e-014
 11
13.99955
 21
1.4210854715202e-014
  0
LINE
  5
283
100
AcDbEntity
  8
0
  6
ByLayer
 62
    0
370
   -1
100
AcDbLine
 10
13.99955
 20
1.4210854715202e-014
 11
13.99955
 21
-13.99929999999998
  0
LINE
  5
284
100
AcDbEntity
  8
0
  6
ByLayer
 62
    0
370
   -1
100
AcDbLine
 10
13.99955
 20
-13.99929999999998
 11
0
 21
-13.99929999999998
  0
LINE
  5
285
100
AcDbEntity
  8
0
  6
ByLayer
 62
    0
370
   -1
100
AcDbLine
 10
0
 20
-13.99929999999998
 11
0
 21
1.4210854715202e-014
  0
LINE
  5
286
100
AcDbEntity
  8
0
  6
ByLayer
 62
    0
370
   -1
100
AcDbLine
 10
95.25004999999999
 20
8.572900000000018
 11
109.24935
 21
8.572900000000018
  0
LINE
  5
287
100
AcDbEntity
  8
0
  6
ByLayer
 62
    0
370
   -1
100
AcDbLine
 10
109.24935
 20
8.572900000000018
 11
109.24935
 21
-5.426799999999986
  0
LINE
  5
288
100
AcDbEntity
  8
0
  6
ByLayer
 62
    0
370
   -1
100
AcDbLine
 10
109.24935
 20
-5.426799999999986
 11
95.25004999999999
 21
-5.426799999999986
  0
LINE
  5
289
100
AcDbEntity
  8
0
  6
ByLayer
 62
    0
370
   -1
100
AcDbLine
 10
95.25004999999999
 20
-5.426799999999986
 11
95.25004999999999
 21
8.572900000000018
  0
LINE
  5
28A
100
AcDbEntity
  8
0
  6
ByLayer
 62
    0
370
   -1
100
AcDbLine
 10
76.20005
 20
9.52500000000002
 11
90.19935000000001
 21
9.52500000000002
  0
LINE
  5
28B
100
AcDbEntity
  8
0
  6
ByLayer
 62
    0
370
   -1
100
AcDbLine
 10
90.19935000000001
 20
9.52500000000002
 11
90.19935000000001
 21
-4.474299999999985
  0
LINE
  5
28C
100
AcDbEntity
  8
0
  6
ByLayer
 62
    0
370
   -1
100
AcDbLine
 10
90.19935000000001
 20
-4.474299999999985
 11
76.20005
 21
-4.474299999999985
  0
LINE
  5
28D
100
AcDbEntity
  8
0
  6
ByLayer
 62
    0
370
   -1
100
AcDbLine
 10
76.20005
 20
-4.474299999999985
 11
76.20005
 21
9.52500000000002
  0
LINE
  5
28E
100
AcDbEntity
  8
0
  6
ByLayer
 62
    0
370
   -1
100
AcDbLine
 10
38.10005
 20
9.52500000000002
 11
52.09935
 21
9.52500000000002
  0
LINE
  5
28F
100
AcDbEntity
  8
0
  6
ByLayer
 62
    0
370
   -1
100
AcDbLine
 10
52.09935
 20
9.52500000000002
 11
52.09935
 21
-4.474299999999985
  0
LINE
  5
290
100
AcDbEntity
  8
0
  6
ByLayer
 62
    0
370
   -1
100
AcDbLine
 10
52.09935
 20
-4.474299999999985
 11
38.10005
 21
-4.474299999999985
  0
LINE
  5
291
100
AcDbEntity
  8
0
  6
ByLayer
 62
    0
370
   -1
100
AcDbLine
 10
38.10005
 20
-4.474299999999985
 11
38.10005
 21
9.52500000000002
  0
LINE
  5
292
100
AcDbEntity
  8
0
  6
ByLayer
 62
    0
370
   -1
100
AcDbLine
 10
57.15005
 20
14.28750000000002
 11
71.14935
 21
14.28750000000002
  0
LINE
  5
293
100
AcDbEntity
  8
0
  6
ByLayer
 62
    0
370
   -1
100
AcDbLine
 10
71.14935
 20
14.28750000000002
 11
71.14935
 21
0.2882000000000176
  0
LINE
  5
294
100
AcDbEntity
  8
0
  6
ByLayer
 62
    0
370
   -1
100
AcDbLine
 10
71.14935
 20
0.2882000000000176
 11
57.15005
 21
0.2882000000000176
  0
LINE
  5
295
100
AcDbEntity
  8
0
  6
ByLayer
 62
    0
370
   -1
100
AcDbLine
 10
57.15005
 20
0.2882000000000176
 11
57.15005
 21
14.28750000000002
  0
LINE
  5
296
100
AcDbEntity
  8
0
  6
ByLayer
 62
  256
370
   -1
100
AcDbLine
 10
0
 20
0
 11
13.99955
 21
-13.99929999999998
  0
LINE
  5
297
100
AcDbEntity
  8
0
  6
ByLayer
 62
  256
370
   -1
100
AcDbLine
 10
13.99955
 20
-13.99929999999998
 11
13.99955
 21
0
  0
LINE
  5
298
100
AcDbEntity
  8
0
  6
ByLayer
 62
  256
370
   -1
100
AcDbLine
 10
13.99955
 20
0
 11
0
 21
-13.99929999999998
  0
LWPOLYLINE
  5
299
100
AcDbEntity
  8
0
  6
ByLayer
 62
  256
370
   -1
100
AcDbPolyline
 90
    4
 70
    1
 43
0
 10
-2.525224999999978
 20
-16.52464999999999
 10
16.52477499999998
 20
-16.52464999999999
 10
16.52477499999998
 20
2.525350000000003
 10
-2.525224999999978
 20
2.525350000000003
  0
LINE
  5
29A
100
AcDbEntity
  8
0
  6
ByLayer
 62
  256
370
   -1
100
AcDbLine
 10
-2.525224999999978
 20
2.525350000000003
 11
16.52477499999998
 21
-16.52464999999999
  0
LINE
  5
29B
100
AcDbEntity
  8
0
  6
ByLayer
 62
  256
370
   -1
100
AcDbLine
 10
16.52477499999998
 20
2.525350000000003
 11
-2.525224999999978
 21
-16.52464999999999
  0
LINE
  5
29C
100
AcDbEntity
  8
0
  6
ByLayer
 62
    0
370
   -1
100
AcDbLine
 10
209.549925
 20
-38.09999999999999
 11
223.549225
 21
-38.09999999999999
  0
LINE
  5
29D
100
AcDbEntity
  8
0
  6
ByLayer
 62
    0
370
   -1
100
AcDbLine
 10
223.549225
 20
-38.09999999999999
 11
223.549225
 21
-52.0994
  0
LINE
  5
29E
100
AcDbEntity
  8
0
  6
ByLayer
 62
    0
370
   -1
100
AcDbLine
 10
223.549225
 20
-52.0994
 11
209.549925
 21
-52.0994
  0
LINE
  5
29F
100
AcDbEntity
  8
0
  6
ByLayer
 62
    0
370
   -1
100
AcDbLine
 10
209.549925
 20
-52.0994
 11
209.549925
 21
-38.09999999999999
  0
LINE
  5
2A0
100
AcDbEntity
  8
0
  6
ByLayer
 62
    0
370
   -1
100
AcDbLine
 10
190.499875
 20
-38.09999999999999
 11
204.499425
 21
-38.09999999999999
  0
LINE
  5
2A1
100
AcDbEntity
  8
0
  6
ByLayer
 62
    0
370
   -1
100
AcDbLine
 10
204.499425
 20
-38.09999999999999
 11
204.499425
 21
-52.0994
  0
LINE
  5
2A2
100
AcDbEntity
  8
0
  6
ByLayer
 62
    0
370
   -1
100
AcDbLine
 10
204.499425
 20
-52.0994
 11
190.499875
 21
-52.0994
  0
LINE
  5
2A3
100
AcDbEntity
  8
0
  6
ByLayer
 62
    0
370
   -1
100
AcDbLine
 10
190.499875
 20
-52.0994
 11
190.499875
 21
-38.09999999999999
  0
LINE
  5
2A4
100
AcDbEntity
  8
0
  6
ByLayer
 62
    0
370
   -1
100
AcDbLine
 10
285.749925
 20
-29.5271
 11
299.749225
 21
-29.5271
  0
LINE
  5
2A5
100
AcDbEntity
  8
0
  6
ByLayer
 62
    0
370
   -1
100
AcDbLine
 10
299.749225
 20
-29.5271
 11
299.749225
 21
-43.52679999999999
  0
LINE
  5
2A6
100
AcDbEntity
  8
0
  6
ByLayer
 62
    0
370
   -1
100
AcDbLine
 10
299.749225
 20
-43.52679999999999
 11
285.749925
 21
-43.52679999999999
  0
LINE
  5
2A7
100
AcDbEntity
  8
0
  6
ByLayer
 62
    0
370
   -1
100
AcDbLine
 10
285.749925
 20
-43.52679999999999
 11
285.749925
 21
-29.5271
  0
LINE
  5
2A8
100
AcDbEntity
  8
0
  6
ByLayer
 62
    0
370
   -1
100
AcDbLine
 10
266.699925
 20
-28.575
 11
280.699225
 21
-28.575
  0
LINE
  5
2A9
100
AcDbEntity
  8
0
  6
ByLayer
 62
    0
370
   -1
100
AcDbLine
 10
280.699225
 20
-28.575
 11
280.699225
 21
-42.5743
  0
LINE
  5
2AA
100
AcDbEntity
  8
0
  6
ByLayer
 62
    0
370
   -1
100
AcDbLine
 10
280.699225
 20
-42.5743
 11
266.699925
 21
-42.5743
  0
LINE
  5
2AB
100
AcDbEntity
  8
0
  6
ByLayer
 62
    0
370
   -1
100
AcDbLine
 10
266.699925
 20
-42.5743
 11
266.699925
 21
-28.575
  0
LINE
  5
2AC
100
AcDbEntity
  8
0
  6
ByLayer
 62
    0
370
   -1
100
AcDbLine
 10
228.599925
 20
-28.575
 11
242.599225
 21
-28.575
  0
LINE
  5
2AD
100
AcDbEntity
  8
0
  6
ByLayer
 62
    0
370
   -1
100
AcDbLine
 10
242.599225
 20
-28.575
 11
242.599225
 21
-42.5743
  0
LINE
  5
2AE
100
AcDbEntity
  8
0
  6
ByLayer
 62
    0
370
   -1
100
AcDbLine
 10
242.599225
 20
-42.5743
 11
228.599925
 21
-42.5743
  0
LINE
  5
2AF
100
AcDbEntity
  8
0
  6
ByLayer
 62
    0
370
   -1
100
AcDbLine
 10
228.599925
 20
-42.5743
 11
228.599925
 21
-28.575
  0
LINE
  5
2B0
100
AcDbEntity
  8
0
  6
ByLayer
 62
    0
370
   -1
100
AcDbLine
 10
247.649925
 20
-23.8125
 11
261.649225
 21
-23.8125
  0
LINE
  5
2B1
100
AcDbEntity
  8
0
  6
ByLayer
 62
    0
370
   -1
100
AcDbLine
 10
261.649225
 20
-23.8125
 11
261.649225
 21
-37.8118
  0
LINE
  5
2B2
100
AcDbEntity
  8
0
  6
ByLayer
 62
    0
370
   -1
100
AcDbLine
 10
261.649225
 20
-37.8118
 11
247.649925
 21
-37.8118
  0
LINE
  5
2B3
100
AcDbEntity
  8
0
  6
ByLayer
 62
    0
370
   -1
100
AcDbLine
 10
247.649925
 20
-37.8118
 11
247.649925
 21
-23.8125
  0
LINE
  5
2B4
100
AcDbEntity
  8
0
  6
ByLayer
 62
    0
370
   -1
100
AcDbLine
 10
209.549925
 20
-19.05
 11
223.549225
 21
-19.05
  0
LINE
  5
2B5
100
AcDbEntity
  8
0
  6
ByLayer
 62
    0
370
   -1
100
AcDbLine
 10
223.549225
 20
-19.05
 11
223.549225
 21
-33.0493
  0
LINE
  5
2B6
100
AcDbEntity
  8
0
  6
ByLayer
 62
    0
370
   -1
100
AcDbLine
 10
223.549225
 20
-33.0493
 11
209.549925
 21
-33.0493
  0
LINE
  5
2B7
100
AcDbEntity
  8
0
  6
ByLayer
 62
    0
370
   -1
100
AcDbLine
 10
209.549925
 20
-33.0493
 11
209.549925
 21
-19.05
  0
LINE
  5
2B8
100
AcDbEntity
  8
0
  6
ByLayer
 62
    0
370
   -1
100
AcDbLine
 10
190.499875
 20
-19.05
 11
204.499425
 21
-19.05
  0
LINE
  5
2B9
100
AcDbEntity
  8
0
  6
ByLayer
 62
    0
370
   -1
100
AcDbLine
 10
204.499425
 20
-19.05
 11
204.499425
 21
-33.0493
  0
LINE
  5
2BA
100
AcDbEntity
  8
0
  6
ByLayer
 62
    0
370
   -1
100
AcDbLine
 10
204.499425
 20
-33.0493
 11
190.499875
 21
-33.0493
  0
LINE
  5
2BB
100
AcDbEntity
  8
0
  6
ByLayer
 62
    0
370
   -1
100
AcDbLine
 10
190.499875
 20
-33.0493
 11
190.499875
 21
-19.05
  0
LINE
  5
2BC
100
AcDbEntity
  8
0
  6
ByLayer
 62
    0
370
   -1
100
AcDbLine
 10
285.749925
 20
-10.47709999999999
 11
299.749225
 21
-10.47709999999999
  0
LINE
  5
2BD
100
AcDbEntity
  8
0
  6
ByLayer
 62
    0
370
   -1
100
AcDbLine
 10
299.749225
 20
-10.47709999999999
 11
299.749225
 21
-24.4768
  0
LINE
  5
2BE
100
AcDbEntity
  8
0
  6
ByLayer
 62
    0
370
   -1
100
AcDbLine
 10
299.749225
 20
-24.4768
 11
285.749925
 21
-24.4768
  0
LINE
  5
2BF
100
AcDbEntity
  8
0
  6
ByLayer
 62
    0
370
   -1
100
AcDbLine
 10
285.749925
 20
-24.4768
 11
285.749925
 21
-10.47709999999999
  0
LINE
  5
2C0
100
AcDbEntity
  8
0
  6
ByLayer
 62
    0
370
   -1
100
AcDbLine
 10
266.699925
 20
-9.524999999999991
 11
280.699225
 21
-9.524999999999991
  0
LINE
  5
2C1
100
AcDbEntity
  8
0
  6
ByLayer
 62
    0
370
   -1
100
AcDbLine
 10
280.699225
 20
-9.524999999999991
 11
280.699225
 21
-23.5243
  0
LINE
  5
2C2
100
AcDbEntity
  8
0
  6
ByLayer
 62
    0
370
   -1
100
AcDbLine
 10
280.699225
 20
-23.5243
 11
266.699925
 21
-23.5243
  0
LINE
  5
2C3
100
AcDbEntity
  8
0
  6
ByLayer
 62
    0
370
   -1
100
AcDbLine
 10
266.699925
 20
-23.5243
 11
266.699925
 21
-9.524999999999991
  0
LINE
  5
2C4
100
AcDbEntity
  8
0
  6
ByLayer
 62
    0
370
   -1
100
AcDbLine
 10
228.599925
 20
-9.524999999999991
 11
242.599225
 21
-9.524999999999991
  0
LINE
  5
2C5
100
AcDbEntity
  8
0
  6
ByLayer
 62
    0
370
   -1
100
AcDbLine
 10
242.599225
 20
-9.524999999999991
 11
242.599225
 21
-23.5243
  0
LINE
  5
2C6
100
AcDbEntity
  8
0
  6
ByLayer
 62
    0
370
   -1
100
AcDbLine
 10
242.599225
 20
-23.5243
 11
228.599925
 21
-23.5243
  0
LINE
  5
2C7
100
AcDbEntity
  8
0
  6
ByLayer
 62
    0
370
   -1
100
AcDbLine
 10
228.599925
 20
-23.5243
 11
228.599925
 21
-9.524999999999991
  0
LINE
  5
2C8
100
AcDbEntity
  8
0
  6
ByLayer
 62
    0
370
   -1
100
AcDbLine
 10
247.649925
 20
-4.762500000000003
 11
261.649225
 21
-4.762500000000003
  0
LINE
  5
2C9
100
AcDbEntity
  8
0
  6
ByLayer
 62
    0
370
   -1
100
AcDbLine
 10
261.649225
 20
-4.762500000000003
 11
261.649225
 21
-18.7618
  0
LINE
  5
2CA
100
AcDbEntity
  8
0
  6
ByLayer
 62
    0
370
   -1
100
AcDbLine
 10
261.649225
 20
-18.7618
 11
247.649925
 21
-18.7618
  0
LINE
  5
2CB
100
AcDbEntity
  8
0
  6
ByLayer
 62
    0
370
   -1
100
AcDbLine
 10
247.649925
 20
-18.7618
 11
247.649925
 21
-4.762500000000003
  0
LINE
  5
2CC
100
AcDbEntity
  8
0
  6
ByLayer
 62
    0
370
   -1
100
AcDbLine
 10
209.549925
 20
0
 11
223.549225
 21
0
  0
LINE
  5
2CD
100
AcDbEntity
  8
0
  6
ByLayer
 62
    0
370
   -1
100
AcDbLine
 10
223.549225
 20
0
 11
223.549225
 21
-13.99929999999999
  0
LINE
  5
2CE
100
AcDbEntity
  8
0
  6
ByLayer
 62
    0
370
   -1
100
AcDbLine
 10
223.549225
 20
-13.99929999999999
 11
209.549925
 21
-13.99929999999999
  0
LINE
  5
2CF
100
AcDbEntity
  8
0
  6
ByLayer
 62
    0
370
   -1
100
AcDbLine
 10
209.549925
 20
-13.99929999999999
 11
209.549925
 21
0
  0
LINE
  5
2D0
100
AcDbEntity
  8
0
  6
ByLayer
 62
    0
370
   -1
100
AcDbLine
 10
190.499875
 20
0
 11
204.499425
 21
0
  0
LINE
  5
2D1
100
AcDbEntity
  8
0
  6
ByLayer
 62
    0
370
   -1
100
AcDbLine
 10
204.499425
 20
0
 11
204.499425
 21
-13.99929999999999
  0
LINE
  5
2D2
100
AcDbEntity
  8
0
  6
ByLayer
 62
    0
370
   -1
100
AcDbLine
 10
204.499425
 20
-13.99929999999999
 11
190.499875
 21
-13.99929999999999
  0
LINE
  5
2D3
100
AcDbEntity
  8
0
  6
ByLayer
 62
    0
370
   -1
100
AcDbLine
 10
190.499875
 20
-13.99929999999999
 11
190.499875
 21
0
  0
LINE
  5
2D4
100
AcDbEntity
  8
0
  6
ByLayer
 62
    0
370
   -1
100
AcDbLine
 10
285.749925
 20
8.572900000000004
 11
299.749225
 21
8.572900000000004
  0
LINE
  5
2D5
100
AcDbEntity
  8
0
  6
ByLayer
 62
    0
370
   -1
100
AcDbLine
 10
299.749225
 20
8.572900000000004
 11
299.749225
 21
-5.4268
  0
LINE
  5
2D6
100
AcDbEntity
  8
0
  6
ByLayer
 62
    0
370
   -1
100
AcDbLine
 10
299.749225
 20
-5.4268
 11
285.749925
 21
-5.4268
  0
LINE
  5
2D7
100
AcDbEntity
  8
0
  6
ByLayer
 62
    0
370
   -1
100
AcDbLine
 10
285.749925
 20
-5.4268
 11
285.749925
 21
8.572900000000004
  0
LINE
  5
2D8
100
AcDbEntity
  8
0
  6
ByLayer
 62
    0
370
   -1
100
AcDbLine
 10
266.699925
 20
9.525000000000006
 11
280.699225
 21
9.525000000000006
  0
LINE
  5
2D9
100
AcDbEntity
  8
0
  6
ByLayer
 62
    0
370
   -1
100
AcDbLine
 10
280.699225
 20
9.525000000000006
 11
280.699225
 21
-4.474299999999999
  0
LINE
  5
2DA
100
AcDbEntity
  8
0
  6
ByLayer
 62
    0
370
   -1
100
AcDbLine
 10
280.699225
 20
-4.474299999999999
 11
266.699925
 21
-4.474299999999999
  0
LINE
  5
2DB
100
AcDbEntity
  8
0
  6
ByLayer
 62
    0
370
   -1
100
AcDbLine
 10
266.699925
 20
-4.474299999999999
 11
266.699925
 21
9.525000000000006
  0
LINE
  5
2DC
100
AcDbEntity
  8
0
  6
ByLayer
 62
    0
370
   -1
100
AcDbLine
 10
228.599925
 20
9.525000000000006
 11
242.599225
 21
9.525000000000006
  0
LINE
  5
2DD
100
AcDbEntity
  8
0
  6
ByLayer
 62
    0
370
   -1
100
AcDbLine
 10
242.599225
 20
9.525000000000006
 11
242.599225
 21
-4.474299999999999
  0
LINE
  5
2DE
100
AcDbEntity
  8
0
  6
ByLayer
 62
    0
370
   -1
100
AcDbLine
 10
242.599225
 20
-4.474299999999999
 11
228.599925
 21
-4.474299999999999
  0
LINE
  5
2DF
100
AcDbEntity
  8
0
  6
ByLayer
 62
    0
370
   -1
100
AcDbLine
 10
228.599925
 20
-4.474299999999999
 11
228.599925
 21
9.525000000000006
  0
LINE
  5
2E0
100
AcDbEntity
  8
0
  6
ByLayer
 62
    0
370
   -1
100
AcDbLine
 10
247.649925
 20
14.28750000000001
 11
261.649225
 21
14.28750000000001
  0
LINE
  5
2E1
100
AcDbEntity
  8
0
  6
ByLayer
 62
    0
370
   -1
100
AcDbLine
 10
261.649225
 20
14.28750000000001
 11
261.649225
 21
0.2882000000000033
  0
LINE
  5
2E2
100
AcDbEntity
  8
0
  6
ByLayer
 62
    0
370
   -1
100
AcDbLine
 10
261.649225
 20
0.2882000000000033
 11
247.649925
 21
0.2882000000000033
  0
LINE
  5
2E3
100
AcDbEntity
  8
0
  6
ByLayer
 62
    0
370
   -1
100
AcDbLine
 10
247.649925
 20
0.2882000000000033
 11
247.649925
 21
14.28750000000001
  0
LINE
  5
2E4
100
AcDbEntity
  8
0
  6
ByLayer
 62
  256
370
   -1
100
AcDbLine
 10
190.499875
 20
-1.4210854715202e-014
 11
204.499425
 21
-13.99929999999999
  0
LINE
  5
2E5
100
AcDbEntity
  8
0
  6
ByLayer
 62
  256
370
   -1
100
AcDbLine
 10
204.499425
 20
-13.99929999999999
 11
204.499425
 21
-1.4210854715202e-014
  0
LINE
  5
2E6
100
AcDbEntity
  8
0
  6
ByLayer
 62
  256
370
   -1
100
AcDbLine
 10
204.499425
 20
-1.4210854715202e-014
 11
190.499875
 21
-13.99929999999999
  0
LWPOLYLINE
  5
2E7
100
AcDbEntity
  8
0
  6
ByLayer
 62
  256
370
   -1
100
AcDbPolyline
 90
    4
 70
    1
 43
0
 10
187.97465
 20
-16.52465000000001
 10
207.02465
 20
-16.52465000000001
 10
207.02465
 20
2.525349999999989
 10
187.97465
 20
2.525349999999989
  0
LINE
  5
2E8
100
AcDbEntity
  8
0
  6
ByLayer
 62
  256
370
   -1
100
AcDbLine
 10
187.97465
 20
2.525349999999989
 11
207.02465
 21
-16.52465000000001
  0
LINE
  5
2E9
100
AcDbEntity
  8
0
  6
ByLayer
 62
  256
370
   -1
100
AcDbLine
 10
207.02465
 20
2.525349999999989
 11
187.97465
 21
-16.52465000000001
  0
LWPOLYLINE
  5
2EA
100
AcDbEntity
  8
0
  6
ByLayer
 62
  256
370
   -1
100
AcDbPolyline
 90
    4
 70
    1
 43
0
 10
-2.525349999999983
 20
-35.57464999999999
 10
16.52464999999997
 20
-35.57464999999999
 10
16.52464999999997
 20
-16.52464999999999
 10
-2.525349999999983
 20
-16.52464999999999
  0
LINE
  5
2EB
100
AcDbEntity
  8
0
  6
ByLayer
 62
  256
370
   -1
100
AcDbLine
 10
-2.525349999999983
 20
-16.52464999999999
 11
16.52464999999997
 21
-35.57464999999999
  0
LINE
  5
2EC
100
AcDbEntity
  8
0
  6
ByLayer
 62
  256
370
   -1
100
AcDbLine
 10
16.52464999999997
 20
-16.52464999999999
 11
-2.525349999999983
 21
-35.57464999999999
  0
LWPOLYLINE
  5
2ED
100
AcDbEntity
  8
0
  6
ByLayer
 62
  256
370
   -1
100
AcDbPolyline
 90
    4
 70
    1
 43
0
 10
-2.525349999999983
 20
-54.62464999999999
 10
16.52464999999997
 20
-54.62464999999999
 10
16.52464999999997
 20
-35.57464999999999
 10
-2.525349999999983
 20
-35.57464999999999
  0
LINE
  5
2EE
100
AcDbEntity
  8
0
  6
ByLayer
 62
  256
370
   -1
100
AcDbLine
 10
-2.525349999999983
 20
-35.57464999999999
 11
16.52464999999997
 21
-54.62464999999999
  0
LINE
  5
2EF
100
AcDbEntity
  8
0
  6
ByLayer
 62
  256
370
   -1
100
AcDbLine
 10
16.52464999999997
 20
-35.57464999999999
 11
-2.525349999999983
 21
-54.62464999999999
  0
LWPOLYLINE
  5
2F0
100
AcDbEntity
  8
0
  6
ByLayer
 62
  256
370
   -1
100
AcDbPolyline
 90
    4
 70
    1
 43
0
 10
16.52470000000002
 20
-16.52464999999999
 10
35.57469999999997
 20
-16.52464999999999
 10
35.57469999999997
 20
2.525350000000003
 10
16.52470000000002
 20
2.525350000000003
  0
LINE
  5
2F1
100
AcDbEntity
  8
0
  6
ByLayer
 62
  256
370
   -1
100
AcDbLine
 10
16.52470000000002
 20
2.525350000000003
 11
35.57469999999997
 21
-16.52464999999999
  0
LINE
  5
2F2
100
AcDbEntity
  8
0
  6
ByLayer
 62
  256
370
   -1
100
AcDbLine
 10
35.57469999999997
 20
2.525350000000003
 11
16.52470000000002
 21
-16.52464999999999
  0
LWPOLYLINE
  5
2F3
100
AcDbEntity
  8
0
  6
ByLayer
 62
  256
370
   -1
100
AcDbPolyline
 90
    4
 70
    1
 43
0
 10
35.57470000000002
 20
-26.04964999999999
 10
54.62469999999998
 20
-26.04964999999999
 10
54.62469999999998
 20
-6.999649999999988
 10
35.57470000000002
 20
-6.999649999999988
  0
LINE
  5
2F4
100
AcDbEntity
  8
0
  6
ByLayer
 62
  256
370
   -1
100
AcDbLine
 10
35.57470000000002
 20
-6.999649999999988
 11
54.62469999999998
 21
-26.04964999999999
  0
LINE
  5
2F5
100
AcDbEntity
  8
0
  6
ByLayer
 62
  256
370
   -1
100
AcDbLine
 10
54.62469999999998
 20
-6.999649999999988
 11
35.57470000000002
 21
-26.04964999999999
  0
LWPOLYLINE
  5
2F6
100
AcDbEntity
  8
0
  6
ByLayer
 62
  256
370
   -1
100
AcDbPolyline
 90
    4
 70
    1
 43
0
 10
92.7247
 20
-46.05174999999999
 10
111.7747
 20
-46.05174999999999
 10
111.7747
 20
-27.00174999999999
 10
92.7247
 20
-27.00174999999999
  0
LINE
  5
2F7
100
AcDbEntity
  8
0
  6
ByLayer
 62
  256
370
   -1
100
AcDbLine
 10
92.7247
 20
-27.00174999999999
 11
111.7747
 21
-46.05174999999999
  0
LINE
  5
2F8
100
AcDbEntity
  8
0
  6
ByLayer
 62
  256
370
   -1
100
AcDbLine
 10
111.7747
 20
-27.00174999999999
 11
92.7247
 21
-46.05174999999999
  0
LWPOLYLINE
  5
2F9
100
AcDbEntity
  8
0
  6
ByLayer
 62
  256
370
   -1
100
AcDbPolyline
 90
    4
 70
    1
 43
0
 10
73.67470000000002
 20
-45.09964999999999
 10
92.72469999999998
 20
-45.09964999999999
 10
92.72469999999998
 20
-26.04964999999999
 10
73.67470000000002
 20
-26.04964999999999
  0
LINE
  5
2FA
100
AcDbEntity
  8
0
  6
ByLayer
 62
  256
370
   -1
100
AcDbLine
 10
73.67470000000002
 20
-26.04964999999999
 11
92.72469999999998
 21
-45.09964999999999
  0
LINE
  5
2FB
100
AcDbEntity
  8
0
  6
ByLayer
 62
  256
370
   -1
100
AcDbLine
 10
92.72469999999998
 20
-26.04964999999999
 11
73.67470000000002
 21
-45.09964999999999
  0
LWPOLYLINE
  5
2FC
100
AcDbEntity
  8
0
  6
ByLayer
 62
  256
370
   -1
100
AcDbPolyline
 90
    4
 70
    1
 43
0
 10
-110.0794672878851
 20
91.17905576811864
 10
-91.02946728788518
 20
91.17905576811864
 10
-91.02946728788518
 20
110.2290557681186
 10
-110.0794672878851
 20
110.2290557681186
  0
LINE
  5
2FD
100
AcDbEntity
  8
0
  6
ByLayer
 62
  256
370
   -1
100
AcDbLine
 10
-110.0794672878851
 20
110.2290557681186
 11
-91.02946728788518
 21
91.17905576811864
  0
LINE
  5
2FE
100
AcDbEntity
  8
0
  6
ByLayer
 62
  256
370
   -1
100
AcDbLine
 10
-91.02946728788518
 20
110.2290557681186
 11
-110.0794672878851
 21
91.17905576811864
  0
LWPOLYLINE
  5
2FF
100
AcDbEntity
  8
0
  6
ByLayer
 62
  256
370
   -1
100
AcDbPolyline
 90
    4
 70
    1
 43
0
 10
20.01605433852232
 20
94.26804063778377
 10
38.41694132932903
 20
89.33753782858076
 10
43.34744413853205
 20
107.7384248193875
 10
24.94655714772534
 20
112.6689276285905
  0
LINE
  5
300
100
AcDbEntity
  8
0
  6
ByLayer
 62
  256
370
   -1
100
AcDbLine
 10
24.94655714772534
 20
112.6689276285905
 11
38.41694132932903
 21
89.33753782858076
  0
LINE
  5
301
100
AcDbEntity
  8
0
  6
ByLayer
 62
  256
370
   -1
100
AcDbLine
 10
43.34744413853205
 20
107.7384248193875
 11
20.01605433852232
 21
94.26804063778377
  0
LWPOLYLINE
  5
302
100
AcDbEntity
  8
0
  6
ByLayer
 62
  256
370
   -1
100
AcDbPolyline
 90
    4
 70
    1
 43
0
 10
-94.14485802895328
 20
-17.1358379565702
 10
-79.85735802895324
 20
7.610837956570202
 10
-96.35514197104678
 20
17.1358379565702
 10
-110.6426419710468
 20
-7.610837956570202
  0
LINE
  5
303
100
AcDbEntity
  8
0
  6
ByLayer
 62
  256
370
   -1
100
AcDbLine
 10
-110.6426419710468
 20
-7.610837956570202
 11
-79.85735802895324
 21
7.610837956570202
  0
LINE
  5
304
100
AcDbEntity
  8
0
  6
ByLayer
 62
  256
370
   -1
100
AcDbLine
 10
-96.35514197104678
 20
17.1358379565702
 11
-94.14485802895328
 21
-17.1358379565702
  0
LINE
  5
305
100
AcDbEntity
  8
0
  6
ByLayer
 62
    0
370
   -1
100
AcDbLine
 10
112.21335
 20
-65.03589999999998
 11
124.33735
 21
-72.03639999999999
  0
LINE
  5
306
100
AcDbEntity
  8
0
  6
ByLayer
 62
    0
370
   -1
100
AcDbLine
 10
124.33735
 20
-72.03639999999999
 11
131.33835
 21
-59.91239999999998
  0
LINE
  5
307
100
AcDbEntity
  8
0
  6
ByLayer
 62
    0
370
   -1
100
AcDbLine
 10
131.33835
 20
-59.91239999999998
 11
119.21435
 21
-52.91199999999998
  0
LINE
  5
308
100
AcDbEntity
  8
0
  6
ByLayer
 62
    0
370
   -1
100
AcDbLine
 10
119.21435
 20
-52.91199999999998
 11
112.21335
 21
-65.03589999999998
  0
LINE
  5
309
100
AcDbEntity
  8
0
  6
ByLayer
 62
    0
370
   -1
100
AcDbLine
 10
91.06505000000001
 20
-63.36579999999998
 11
104.58735
 21
-66.98859999999999
  0
LINE
  5
30A
100
AcDbEntity
  8
0
  6
ByLayer
 62
    0
370
   -1
100
AcDbLine
 10
104.58735
 20
-66.98859999999999
 11
108.21035
 21
-53.46459999999998
  0
LINE
  5
30B
100
AcDbEntity
  8
0
  6
ByLayer
 62
    0
370
   -1
100
AcDbLine
 10
108.21035
 20
-53.46459999999998
 11
94.68774999999999
 21
-49.84169999999998
  0
LINE
  5
30C
100
AcDbEntity
  8
0
  6
ByLayer
 62
    0
370
   -1
100
AcDbLine
 10
94.68774999999999
 20
-49.84169999999998
 11
91.06505000000001
 21
-63.36579999999998
  0
LINE
  5
30D
100
AcDbEntity
  8
0
  6
ByLayer
 62
    0
370
   -1
100
AcDbLine
 10
71.43754999999999
 20
-48.62489999999998
 11
85.43684999999999
 21
-48.62489999999998
  0
LINE
  5
30E
100
AcDbEntity
  8
0
  6
ByLayer
 62
    0
370
   -1
100
AcDbLine
 10
85.43684999999999
 20
-48.62489999999998
 11
85.43684999999999
 21
-62.62439999999998
  0
LINE
  5
30F
100
AcDbEntity
  8
0
  6
ByLayer
 62
    0
370
   -1
100
AcDbLine
 10
85.43684999999999
 20
-62.62439999999998
 11
71.43754999999999
 21
-62.62439999999998
  0
LINE
  5
310
100
AcDbEntity
  8
0
  6
ByLayer
 62
    0
370
   -1
100
AcDbLine
 10
71.43754999999999
 20
-62.62439999999998
 11
71.43754999999999
 21
-48.62489999999998
  0
LINE
  5
311
100
AcDbEntity
  8
0
  6
ByLayer
 62
    0
370
   -1
100
AcDbLine
 10
52.38755
 20
-48.62489999999998
 11
66.38685000000001
 21
-48.62489999999998
  0
LINE
  5
312
100
AcDbEntity
  8
0
  6
ByLayer
 62
    0
370
   -1
100
AcDbLine
 10
66.38685000000001
 20
-48.62489999999998
 11
66.38685000000001
 21
-62.62439999999998
  0
LINE
  5
313
100
AcDbEntity
  8
0
  6
ByLayer
 62
    0
370
   -1
100
AcDbLine
 10
66.38685000000001
 20
-62.62439999999998
 11
52.38755
 21
-62.62439999999998
  0
LINE
  5
314
100
AcDbEntity
  8
0
  6
ByLayer
 62
    0
370
   -1
100
AcDbLine
 10
52.38755
 20
-62.62439999999998
 11
52.38755
 21
-48.62489999999998
  0
LINE
  5
315
100
AcDbEntity
  8
0
  6
ByLayer
 62
  256
370
   -1
100
AcDbLine
 10
119.21435
 20
-52.91199999999998
 11
124.33735
 21
-72.03639999999997
  0
LINE
  5
316
100
AcDbEntity
  8
0
  6
ByLayer
 62
  256
370
   -1
100
AcDbLine
 10
124.33735
 20
-72.03639999999997
 11
112.21335
 21
-65.03589999999998
  0
LINE
  5
317
100
AcDbEntity
  8
0
  6
ByLayer
 62
  256
370
   -1
100
AcDbLine
 10
112.21335
 20
-65.03589999999998
 11
131.33835
 21
-59.91239999999998
  0
LINE
  5
318
100
AcDbEntity
  8
0
  6
ByLayer
 62
  256
370
   -1
100
AcDbLine
 10
94.68774999999999
 20
-49.84169999999998
 11
104.58735
 21
-66.98859999999998
  0
LINE
  5
319
100
AcDbEntity
  8
0
  6
ByLayer
 62
  256
370
   -1
100
AcDbLine
 10
104.58735
 20
-66.98859999999998
 11
108.21035
 21
-53.46459999999998
  0
LINE
  5
31A
100
AcDbEntity
  8
0
  6
ByLayer
 62
  256
370
   -1
100
AcDbLine
 10
108.21035
 20
-53.46459999999998
 11
91.06505000000001
 21
-63.36579999999998
  0
LWPOLYLINE
  5
31B
100
AcDbEntity
  8
0
  6
ByLayer
 62
  256
370
   -1
100
AcDbPolyline
 90
    4
 70
    1
 43
0
 10
68.9122
 20
-65.14954999999999
 10
87.96219999999997
 20
-65.14954999999999
 10
87.96219999999997
 20
-46.09954999999999
 10
68.9122
 20
-46.09954999999999
  0
LINE
  5
31C
100
AcDbEntity
  8
0
  6
ByLayer
 62
  256
370
   -1
100
AcDbLine
 10
68.9122
 20
-46.09954999999999
 11
87.96219999999997
 21
-65.14954999999999
  0
LINE
  5
31D
100
AcDbEntity
  8
0
  6
ByLayer
 62
  256
370
   -1
100
AcDbLine
 10
87.96219999999997
 20
-46.09954999999999
 11
68.9122
 21
-65.14954999999999
  0
LWPOLYLINE
  5
31E
100
AcDbEntity
  8
0
  6
ByLayer
 62
  256
370
   -1
100
AcDbPolyline
 90
    4
 70
    1
 43
0
 10
87.97200509999514
 20
-65.15039209080184
 10
106.3728920908019
 20
-70.08089490000485
 10
111.3033949000049
 20
-51.68000790919811
 10
92.90250790919816
 20
-46.7495050999951
  0
LINE
  5
31F
100
AcDbEntity
  8
0
  6
ByLayer
 62
  256
370
   -1
100
AcDbLine
 10
92.90250790919816
 20
-46.7495050999951
 11
106.3728920908019
 21
-70.08089490000485
  0
LINE
  5
320
100
AcDbEntity
  8
0
  6
ByLayer
 62
  256
370
   -1
100
AcDbLine
 10
111.3033949000049
 20
-51.68000790919811
 11
87.97200509999514
 21
-65.15039209080184
  0
LWPOLYLINE
  5
321
100
AcDbEntity
  8
0
  6
ByLayer
 62
  256
370
   -1
100
AcDbPolyline
 90
    4
 70
    1
 43
0
 10
122.8809919710467
 20
-79.61003795657018
 10
137.1684919710468
 20
-54.86336204342977
 10
120.6707080289532
 20
-45.33836204342978
 10
106.3832080289532
 20
-70.08503795657018
  0
LINE
  5
322
100
AcDbEntity
  8
0
  6
ByLayer
 62
  256
370
   -1
100
AcDbLine
 10
106.3832080289532
 20
-70.08503795657018
 11
137.1684919710468
 21
-54.86336204342977
  0
LINE
  5
323
100
AcDbEntity
  8
0
  6
ByLayer
 62
  256
370
   -1
100
AcDbLine
 10
120.6707080289532
 20
-45.33836204342978
 11
122.8809919710467
 21
-79.61003795657018
  0
LINE
  5
324
100
AcDbEntity
  8
0
  6
ByLayer
 62
    0
370
   -1
100
AcDbLine
 10
302.713225
 20
-65.0359
 11
314.837225
 21
-72.0364
  0
LINE
  5
325
100
AcDbEntity
  8
0
  6
ByLayer
 62
    0
370
   -1
100
AcDbLine
 10
314.837225
 20
-72.0364
 11
321.838225
 21
-59.9124
  0
LINE
  5
326
100
AcDbEntity
  8
0
  6
ByLayer
 62
    0
370
   -1
100
AcDbLine
 10
321.838225
 20
-59.9124
 11
309.714225
 21
-52.912
  0
LINE
  5
327
100
AcDbEntity
  8
0
  6
ByLayer
 62
    0
370
   -1
100
AcDbLine
 10
309.714225
 20
-52.912
 11
302.713225
 21
-65.0359
  0
LINE
  5
328
100
AcDbEntity
  8
0
  6
ByLayer
 62
    0
370
   -1
100
AcDbLine
 10
281.564925
 20
-63.36579999999999
 11
295.087225
 21
-66.98860000000001
  0
LINE
  5
329
100
AcDbEntity
  8
0
  6
ByLayer
 62
    0
370
   -1
100
AcDbLine
 10
295.087225
 20
-66.98860000000001
 11
298.710225
 21
-53.4646
  0
LINE
  5
32A
100
AcDbEntity
  8
0
  6
ByLayer
 62
    0
370
   -1
100
AcDbLine
 10
298.710225
 20
-53.4646
 11
285.187625
 21
-49.8417
  0
LINE
  5
32B
100
AcDbEntity
  8
0
  6
ByLayer
 62
    0
370
   -1
100
AcDbLine
 10
285.187625
 20
-49.8417
 11
281.564925
 21
-63.36579999999999
  0
LINE
  5
32C
100
AcDbEntity
  8
0
  6
ByLayer
 62
    0
370
   -1
100
AcDbLine
 10
261.937425
 20
-48.6249
 11
275.936725
 21
-48.6249
  0
LINE
  5
32D
100
AcDbEntity
  8
0
  6
ByLayer
 62
    0
370
   -1
100
AcDbLine
 10
275.936725
 20
-48.6249
 11
275.936725
 21
-62.62439999999999
  0
LINE
  5
32E
100
AcDbEntity
  8
0
  6
ByLayer
 62
    0
370
   -1
100
AcDbLine
 10
275.936725
 20
-62.62439999999999
 11
261.937425
 21
-62.62439999999999
  0
LINE
  5
32F
100
AcDbEntity
  8
0
  6
ByLayer
 62
    0
370
   -1
100
AcDbLine
 10
261.937425
 20
-62.62439999999999
 11
261.937425
 21
-48.6249
  0
LINE
  5
330
100
AcDbEntity
  8
0
  6
ByLayer
 62
    0
370
   -1
100
AcDbLine
 10
242.887425
 20
-48.6249
 11
256.886725
 21
-48.6249
  0
LINE
  5
331
100
AcDbEntity
  8
0
  6
ByLayer
 62
    0
370
   -1
100
AcDbLine
 10
256.886725
 20
-48.6249
 11
256.886725
 21
-62.62439999999999
  0
LINE
  5
332
100
AcDbEntity
  8
0
  6
ByLayer
 62
    0
370
   -1
100
AcDbLine
 10
256.886725
 20
-62.62439999999999
 11
242.887425
 21
-62.62439999999999
  0
LINE
  5
333
100
AcDbEntity
  8
0
  6
ByLayer
 62
    0
370
   -1
100
AcDbLine
 10
242.887425
 20
-62.62439999999999
 11
242.887425
 21
-48.6249
  0
LINE
  5
334
100
AcDbEntity
  8
0
  6
ByLayer
 62
  256
370
   -1
100
AcDbLine
 10
309.714225
 20
-52.912
 11
314.837225
 21
-72.03639999999999
  0
LINE
  5
335
100
AcDbEntity
  8
0
  6
ByLayer
 62
  256
370
   -1
100
AcDbLine
 10
314.837225
 20
-72.03639999999999
 11
302.713225
 21
-65.0359
  0
LINE
  5
336
100
AcDbEntity
  8
0
  6
ByLayer
 62
  256
370
   -1
100
AcDbLine
 10
302.713225
 20
-65.0359
 11
321.838225
 21
-59.9124
  0
LINE
  5
337
100
AcDbEntity
  8
0
  6
ByLayer
 62
  256
370
   -1
100
AcDbLine
 10
285.187625
 20
-49.8417
 11
295.087225
 21
-66.98859999999999
  0
LINE
  5
338
100
AcDbEntity
  8
0
  6
ByLayer
 62
  256
370
   -1
100
AcDbLine
 10
295.087225
 20
-66.98859999999999
 11
298.710225
 21
-53.4646
  0
LINE
  5
339
100
AcDbEntity
  8
0
  6
ByLayer
 62
  256
370
   -1
100
AcDbLine
 10
298.710225
 20
-53.4646
 11
281.564925
 21
-63.36579999999999
  0
ENDSEC
  0
SECTION
  2
OBJECTS
  0
DICTIONARY
  5
C
330
0
100
AcDbDictionary
281
    1
  3
ACAD_GROUP
350
D
  0
DICTIONARY
  5
D
330
C
100
AcDbDictionary
281
    1
  0
ENDSEC
  0
EOF
