999
dxfrw 0.6.3
  0
SECTION
  2
HEADER
  9
$ACADVER
  1
AC1021
  9
$DWGCODEPAGE
  3
ANSI_1252
  9
$INSBASE
 10
0
 20
0
 30
0
  9
$EXTMIN
 10
2.362359677674224
 20
-468.1763278900657
 30
0
  9
$EXTMAX
 10
270.5691607231666
 20
-159.0118452094091
 30
0
  9
$LIMMIN
 10
0
 20
0
  9
$LIMMAX
 10
420
 20
297
  9
$ORTHOMODE
 70
    0
  9
$REGENMODE
 70
    1
  9
$FILLMODE
 70
    0
  9
$QTEXTMODE
 70
    0
  9
$MIRRTEXT
 70
    0
  9
$LTSCALE
 40
1
  9
$ATTMODE
 70
    0
  9
$TEXTSIZE
 40
2.5
  9
$TRACEWID
 40
15.68
  9
$TEXTSTYLE
  7
STANDARD
  9
$CLAYER
  8
ref
  9
$CELTYPE
  6
BYLAYER
  9
$CECOLOR
 62
  256
  9
$CELTSCALE
 40
1
  9
$DISPSILH
 70
    0
  9
$DIMSCALE
 40
1
  9
$DIMASZ
 40
2.5
  9
$DIMEXO
 40
0.625
  9
$DIMDLI
 40
3.75
  9
$DIMRND
 40
0
  9
$DIMDLE
 40
0
  9
$DIMEXE
 40
1.25
  9
$DIMTP
 40
0
  9
$DIMTM
 40
0
  9
$DIMTXT
 40
2.5
  9
$DIMCEN
 40
2.5
  9
$DIMTSZ
 40
0
  9
$DIMTOL
 70
    0
  9
$DIMLIM
 70
    0
  9
$DIMTIH
 70
    0
  9
$DIMTOH
 70
    0
  9
$DIMSE1
 70
    0
  9
$DIMSE2
 70
    0
  9
$DIMTAD
 70
    1
  9
$DIMZIN
 70
    1
  9
$DIMBLK
  1

  9
$DIMASO
 70
    1
  9
$DIMSHO
 70
    1
  9
$DIMPOST
  1

  9
$DIMAPOST
  1

  9
$DIMALT
 70
    0
  9
$DIMALTD
 70
    3
  9
$DIMALTF
 40
0.03937
  9
$DIMLFAC
 40
1
  9
$DIMTOFL
 70
    1
  9
$DIMTVP
 40
0
  9
$DIMTIX
 70
    0
  9
$DIMSOXD
 70
    0
  9
$DIMSAH
 70
    0
  9
$DIMBLK1
  1

  9
$DIMBLK2
  1

  9
$DIMSTYLE
  2
Standard
  9
$DIMCLRD
 70
    0
  9
$DIMCLRE
 70
    0
  9
$DIMCLRT
 70
    0
  9
$DIMTFAC
 40
1
  9
$DIMGAP
 40
0.625
  9
$DIMJUST
 70
    0
  9
$DIMSD1
 70
    0
  9
$DIMSD2
 70
    0
  9
$DIMTOLJ
 70
    0
  9
$DIMTZIN
 70
    8
  9
$DIMALTZ
 70
    0
  9
$DIMALTTZ
 70
    0
  9
$DIMUPT
 70
    0
  9
$DIMDEC
 70
    4
  9
$DIMTDEC
 70
    2
  9
$DIMALTU
 70
    2
  9
$DIMALTTD
 70
    3
  9
$DIMTXSTY
  7
standard
  9
$DIMAUNIT
 70
    0
  9
$DIMADEC
 70
    2
  9
$DIMALTRND
 40
0
  9
$DIMAZIN
 70
    0
  9
$DIMDSEP
 70
    0
  9
$DIMATFIT
 70
    3
  9
$DIMFRAC
 70
    0
  9
$DIMLDRBLK
  1
STANDARD
  9
$DIMLUNIT
 70
    2
  9
$DIMLWD
 70
   -2
  9
$DIMLWE
 70
   -2
  9
$DIMTMOVE
 70
    0
  9
$DIMFXL
 40
1
  9
$DIMFXLON
 70
    0
  9
$DIMJOGANG
 40
0.7854
  9
$DIMTFILL
 70
    0
  9
$DIMTFILLCLR
 70
    0
  9
$DIMARCSYM
 70
    0
  9
$DIMLTYPE
  6

  9
$DIMLTEX1
  6

  9
$DIMLTEX2
  6

  9
$LUNITS
 70
    2
  9
$LUPREC
 70
    4
  9
$SKETCHINC
 40
1
  9
$FILLETRAD
 40
0
  9
$AUNITS
 70
    0
  9
$AUPREC
 70
    2
  9
$MENU
  1
.
  9
$ELEVATION
 40
0
  9
$PELEVATION
 40
0
  9
$THICKNESS
 40
0
  9
$LIMCHECK
 70
    0
  9
$CHAMFERA
 40
0
  9
$CHAMFERB
 40
0
  9
$CHAMFERC
 40
0
  9
$CHAMFERD
 40
0
  9
$SKPOLY
 70
    0
  9
$USRTIMER
 70
    1
  9
$ANGBASE
 50
0
  9
$ANGDIR
 70
    0
  9
$PDMODE
 70
   34
  9
$PDSIZE
 40
0
  9
$PLINEWID
 40
0
  9
$SPLFRAME
 70
    1
  9
$SPLINETYPE
 70
    2
  9
$SPLINESEGS
 70
    8
  9
$HANDSEED
  5
20000
  9
$SURFTAB1
 70
    6
  9
$SURFTAB2
 70
    6
  9
$SURFTYPE
 70
    6
  9
$SURFU
 70
    6
  9
$SURFV
 70
    6
  9
$UCSBASE
  2

  9
$UCSNAME
  2

  9
$UCSORG
 10
0
 20
0
 30
0
  9
$UCSXDIR
 10
1
 20
0
 30
0
  9
$UCSYDIR
 10
0
 20
1
 30
0
  9
$UCSORTHOREF
  2

  9
$UCSORTHOVIEW
 70
    0
  9
$UCSORGTOP
 10
0
 20
0
 30
0
  9
$UCSORGBOTTOM
 10
0
 20
0
 30
0
  9
$UCSORGLEFT
 10
0
 20
0
 30
0
  9
$UCSORGRIGHT
 10
0
 20
0
 30
0
  9
$UCSORGFRONT
 10
0
 20
0
 30
0
  9
$UCSORGBACK
 10
0
 20
0
 30
0
  9
$PUCSBASE
  2

  9
$PUCSNAME
  2

  9
$PUCSORG
 10
0
 20
0
 30
0
  9
$PUCSXDIR
 10
1
 20
0
 30
0
  9
$PUCSYDIR
 10
0
 20
1
 30
0
  9
$PUCSORTHOREF
  2

  9
$PUCSORTHOVIEW
 70
    0
  9
$PUCSORGTOP
 10
0
 20
0
 30
0
  9
$PUCSORGBOTTOM
 10
0
 20
0
 30
0
  9
$PUCSORGLEFT
 10
0
 20
0
 30
0
  9
$PUCSORGRIGHT
 10
0
 20
0
 30
0
  9
$PUCSORGFRONT
 10
0
 20
0
 30
0
  9
$PUCSORGBACK
 10
0
 20
0
 30
0
  9
$USERI1
 70
    0
  9
$USERI2
 70
    0
  9
$USERI3
 70
    0
  9
$USERI4
 70
    0
  9
$USERI5
 70
    0
  9
$USERR1
 40
0
  9
$USERR2
 40
0
  9
$USERR3
 40
0
  9
$USERR4
 40
0
  9
$USERR5
 40
0
  9
$WORLDVIEW
 70
    1
  9
$SHADEDGE
 70
    3
  9
$SHADEDIF
 70
   70
  9
$TILEMODE
 70
    1
  9
$MAXACTVP
 70
   64
  9
$PINSBASE
 10
0
 20
0
 30
0
  9
$PLIMCHECK
 70
    0
  9
$PEXTMIN
 10
0
 20
0
 30
0
  9
$PEXTMAX
 10
0
 20
0
 30
0
  9
$GRIDMODE
 70
    1
  9
$SNAPSTYLE
 70
    0
  9
$GRIDUNIT
 10
19.05
 20
19.05
  9
$PLIMMIN
 10
0
 20
0
  9
$PLIMMAX
 10
215.9
 20
279.4
  9
$UNITMODE
 70
    0
  9
$VISRETAIN
 70
    1
  9
$PLINEGEN
 70
    0
  9
$PSLTSCALE
 70
    1
  9
$TREEDEPTH
 70
 3020
  9
$CMLSTYLE
  2
Standard
  9
$CMLJUST
 70
    0
  9
$CMLSCALE
 40
20
  9
$PROXYGRAPHICS
 70
    1
  9
$MEASUREMENT
 70
    1
  9
$CELWEIGHT
370
   -1
  9
$ENDCAPS
280
    0
  9
$JOINSTYLE
280
    0
  9
$LWDISPLAY
290
    0
  9
$INSUNITS
 70
    4
  9
$HYPERLINKBASE
  1

  9
$STYLESHEET
  1

  9
$XEDIT
290
    1
  9
$CEPSNTYPE
380
    0
  9
$PSTYLEMODE
290
    1
  9
$EXTNAMES
290
    1
  9
$PSVPSCALE
 40
1
  9
$OLESTARTUP
290
    0
  9
$SORTENTS
280
  127
  9
$INDEXCTL
280
    0
  9
$HIDETEXT
280
    1
  9
$XCLIPFRAME
290
    0
  9
$HALOGAP
280
    0
  9
$OBSCOLOR
 70
  257
  9
$OBSLTYPE
280
    0
  9
$INTERSECTIONDISPLAY
280
    0
  9
$INTERSECTIONCOLOR
 70
  257
  9
$DIMASSOC
280
    1
  9
$PROJECTNAME
  1

  9
$CAMERADISPLAY
290
    0
  9
$LENSLENGTH
 40
50
  9
$CAMERAHEIGHT
 40
0
  9
$STEPSPERSEC
 40
2
  9
$STEPSIZE
 40
50
  9
$3DDWFPREC
 40
2
  9
$PSOLWIDTH
 40
5
  9
$PSOLHEIGHT
 40
80
  9
$LOFTANG1
 40
1.570796326794897
  9
$LOFTANG2
 40
1.570796326794897
  9
$LOFTMAG1
 40
0
  9
$LOFTMAG2
 40
0
  9
$LOFTPARAM
 70
    7
  9
$LOFTNORMALS
280
    1
  9
$LATITUDE
 40
1
  9
$LONGITUDE
 40
1
  9
$NORTHDIRECTION
 40
0
  9
$TIMEZONE
 70
-8000
  9
$LIGHTGLYPHDISPLAY
280
    1
  9
$TILEMODELIGHTSYNCH
280
    1
  9
$SOLIDHIST
280
    1
  9
$SHOWHIST
280
    1
  9
$DWFFRAME
280
    2
  9
$DGNFRAME
280
    0
  9
$REALWORLDSCALE
290
    1
  9
$INTERFERECOLOR
 62
    1
  9
$CSHADOW
280
    0
  9
$SHADOWPLANELOCATION
 40
0
  0
ENDSEC
  0
SECTION
  2
CLASSES
  0
ENDSEC
  0
SECTION
  2
TABLES
  0
TABLE
  2
VPORT
  5
8
330
0
100
AcDbSymbolTable
 70
    1
  0
VPORT
  5
31
330
2
100
AcDbSymbolTableRecord
100
AcDbViewportTableRecord
  2
*ACTIVE
 70
    0
 10
0
 20
0
 11
1
 21
1
 12
166.5911095669481
 22
-139.989595424028
 13
0
 23
0
 14
10
 24
10
 15
19.05
 25
19.05
 16
0
 26
0
 36
1
 17
0
 27
0
 37
0
 40
247.861877184688
 41
1.55830985915493
 42
50
 43
0
 44
0
 50
0
 51
0
 71
    0
 72
  100
 73
    1
 74
    3
 75
    0
 76
    1
 77
    0
 78
    0
281
    0
 65
    1
110
0
120
0
130
0
111
1
121
0
131
0
112
0
122
1
132
0
 79
    0
146
0
348
10020
 60
    3
 61
    5
292
1
282
    1
141
0
142
0
 63
  250
421
3358443
  0
ENDTAB
  0
TABLE
  2
LTYPE
  5
5
330
0
100
AcDbSymbolTable
 70
    4
  0
LTYPE
  5
14
330
5
100
AcDbSymbolTableRecord
100
AcDbLinetypeTableRecord
  2
ByBlock
 70
    0
  3

 72
   65
 73
    0
 40
0
  0
LTYPE
  5
15
330
5
100
AcDbSymbolTableRecord
100
AcDbLinetypeTableRecord
  2
ByLayer
 70
    0
  3

 72
   65
 73
    0
 40
0
  0
LTYPE
  5
16
330
5
100
AcDbSymbolTableRecord
100
AcDbLinetypeTableRecord
  2
Continuous
 70
    0
  3
Solid line
 72
   65
 73
    0
 40
0
  0
LTYPE
  5
32
330
5
100
AcDbSymbolTableRecord
100
AcDbLinetypeTableRecord
  2
DOT
 70
    0
  3
Dot . . . . . . . . . . . . . . . . . . . . . .
 72
   65
 73
    2
 40
6.35
 49
0
 74
    0
 49
-6.35
 74
    0
  0
LTYPE
  5
33
330
5
100
AcDbSymbolTableRecord
100
AcDbLinetypeTableRecord
  2
DOTTINY
 70
    0
  3
Dot (.15x) .....................................
 72
   65
 73
    2
 40
0.9525
 49
0
 74
    0
 49
-0.9525
 74
    0
  0
LTYPE
  5
34
330
5
100
AcDbSymbolTableRecord
100
AcDbLinetypeTableRecord
  2
DOT2
 70
    0
  3
Dot (.5x) .....................................
 72
   65
 73
    2
 40
3.175
 49
0
 74
    0
 49
-3.175
 74
    0
  0
LTYPE
  5
35
330
5
100
AcDbSymbolTableRecord
100
AcDbLinetypeTableRecord
  2
DOTX2
 70
    0
  3
Dot (2x) .  .  .  .  .  .  .  .  .  .  .  .  .
 72
   65
 73
    2
 40
12.7
 49
0
 74
    0
 49
-12.7
 74
    0
  0
LTYPE
  5
36
330
5
100
AcDbSymbolTableRecord
100
AcDbLinetypeTableRecord
  2
DASHED
 70
    0
  3
Dashed _ _ _ _ _ _ _ _ _ _ _ _ _ _ _ _ _
 72
   65
 73
    2
 40
19.05
 49
12.7
 74
    0
 49
-6.35
 74
    0
  0
LTYPE
  5
37
330
5
100
AcDbSymbolTableRecord
100
AcDbLinetypeTableRecord
  2
DASHEDTINY
 70
    0
  3
Dashed (.15x) _ _ _ _ _ _ _ _ _ _ _ _ _ _ _ _ _
 72
   65
 73
    2
 40
2.8575
 49
1.905
 74
    0
 49
-0.9525
 74
    0
  0
LTYPE
  5
38
330
5
100
AcDbSymbolTableRecord
100
AcDbLinetypeTableRecord
  2
DASHED2
 70
    0
  3
Dashed (.5x) _ _ _ _ _ _ _ _ _ _ _ _ _ _ _ _ _
 72
   65
 73
    2
 40
9.524999999999999
 49
6.35
 74
    0
 49
-3.175
 74
    0
  0
LTYPE
  5
39
330
5
100
AcDbSymbolTableRecord
100
AcDbLinetypeTableRecord
  2
DASHEDX2
 70
    0
  3
Dashed (2x) ____  ____  ____  ____  ____  ___
 72
   65
 73
    2
 40
38.09999999999999
 49
25.4
 74
    0
 49
-12.7
 74
    0
  0
LTYPE
  5
3A
330
5
100
AcDbSymbolTableRecord
100
AcDbLinetypeTableRecord
  2
DASHDOT
 70
    0
  3
Dash dot __ . __ . __ . __ . __ . __ . __ . __
 72
   65
 73
    4
 40
25.4
 49
12.7
 74
    0
 49
-6.35
 74
    0
 49
0
 74
    0
 49
-6.35
 74
    0
  0
LTYPE
  5
3B
330
5
100
AcDbSymbolTableRecord
100
AcDbLinetypeTableRecord
  2
DASHDOTTINY
 70
    0
  3
Dash dot (.15x) _._._._._._._._._._._._._._._.
 72
   65
 73
    4
 40
3.81
 49
1.905
 74
    0
 49
-0.9525
 74
    0
 49
0
 74
    0
 49
-0.9525
 74
    0
  0
LTYPE
  5
3C
330
5
100
AcDbSymbolTableRecord
100
AcDbLinetypeTableRecord
  2
DASHDOT2
 70
    0
  3
Dash dot (.5x) _._._._._._._._._._._._._._._.
 72
   65
 73
    4
 40
12.7
 49
6.35
 74
    0
 49
-3.175
 74
    0
 49
0
 74
    0
 49
-3.175
 74
    0
  0
LTYPE
  5
3D
330
5
100
AcDbSymbolTableRecord
100
AcDbLinetypeTableRecord
  2
DASHDOTX2
 70
    0
  3
Dash dot (2x) ____  .  ____  .  ____  .  ___
 72
   65
 73
    4
 40
50.8
 49
25.4
 74
    0
 49
-12.7
 74
    0
 49
0
 74
    0
 49
-12.7
 74
    0
  0
LTYPE
  5
3E
330
5
100
AcDbSymbolTableRecord
100
AcDbLinetypeTableRecord
  2
DIVIDE
 70
    0
  3
Divide ____ . . ____ . . ____ . . ____ . . ____
 72
   65
 73
    6
 40
31.75
 49
12.7
 74
    0
 49
-6.35
 74
    0
 49
0
 74
    0
 49
-6.35
 74
    0
 49
0
 74
    0
 49
-6.35
 74
    0
  0
LTYPE
  5
3F
330
5
100
AcDbSymbolTableRecord
100
AcDbLinetypeTableRecord
  2
DIVIDETINY
 70
    0
  3
Divide (.15x) __..__..__..__..__..__..__..__.._
 72
   65
 73
    6
 40
4.7625
 49
1.905
 74
    0
 49
-0.9525
 74
    0
 49
0
 74
    0
 49
-0.9525
 74
    0
 49
0
 74
    0
 49
-0.9525
 74
    0
  0
LTYPE
  5
40
330
5
100
AcDbSymbolTableRecord
100
AcDbLinetypeTableRecord
  2
DIVIDE2
 70
    0
  3
Divide (.5x) __..__..__..__..__..__..__..__.._
 72
   65
 73
    6
 40
15.875
 49
6.35
 74
    0
 49
-3.175
 74
    0
 49
0
 74
    0
 49
-3.175
 74
    0
 49
0
 74
    0
 49
-3.175
 74
    0
  0
LTYPE
  5
41
330
5
100
AcDbSymbolTableRecord
100
AcDbLinetypeTableRecord
  2
DIVIDEX2
 70
    0
  3
Divide (2x) ________  .  .  ________  .  .  _
 72
   65
 73
    6
 40
63.5
 49
25.4
 74
    0
 49
-12.7
 74
    0
 49
0
 74
    0
 49
-12.7
 74
    0
 49
0
 74
    0
 49
-12.7
 74
    0
  0
LTYPE
  5
42
330
5
100
AcDbSymbolTableRecord
100
AcDbLinetypeTableRecord
  2
BORDER
 70
    0
  3
Border __ __ . __ __ . __ __ . __ __ . __ __ .
 72
   65
 73
    6
 40
44.45
 49
12.7
 74
    0
 49
-6.35
 74
    0
 49
12.7
 74
    0
 49
-6.35
 74
    0
 49
0
 74
    0
 49
-6.35
 74
    0
  0
LTYPE
  5
43
330
5
100
AcDbSymbolTableRecord
100
AcDbLinetypeTableRecord
  2
BORDERTINY
 70
    0
  3
Border (.15x) __.__.__.__.__.__.__.__.__.__.__.
 72
   65
 73
    6
 40
6.6675
 49
1.905
 74
    0
 49
-0.9525
 74
    0
 49
1.905
 74
    0
 49
-0.9525
 74
    0
 49
0
 74
    0
 49
-0.9525
 74
    0
  0
LTYPE
  5
44
330
5
100
AcDbSymbolTableRecord
100
AcDbLinetypeTableRecord
  2
BORDER2
 70
    0
  3
Border (.5x) __.__.__.__.__.__.__.__.__.__.__.
 72
   65
 73
    6
 40
22.225
 49
6.35
 74
    0
 49
-3.175
 74
    0
 49
6.35
 74
    0
 49
-3.175
 74
    0
 49
0
 74
    0
 49
-3.175
 74
    0
  0
LTYPE
  5
45
330
5
100
AcDbSymbolTableRecord
100
AcDbLinetypeTableRecord
  2
BORDERX2
 70
    0
  3
Border (2x) ____  ____  .  ____  ____  .  ___
 72
   65
 73
    6
 40
88.89999999999999
 49
25.4
 74
    0
 49
-12.7
 74
    0
 49
25.4
 74
    0
 49
-12.7
 74
    0
 49
0
 74
    0
 49
-12.7
 74
    0
  0
LTYPE
  5
46
330
5
100
AcDbSymbolTableRecord
100
AcDbLinetypeTableRecord
  2
CENTER
 70
    0
  3
Center ____ _ ____ _ ____ _ ____ _ ____ _ ____
 72
   65
 73
    4
 40
50.8
 49
31.75
 74
    0
 49
-6.35
 74
    0
 49
6.35
 74
    0
 49
-6.35
 74
    0
  0
LTYPE
  5
47
330
5
100
AcDbSymbolTableRecord
100
AcDbLinetypeTableRecord
  2
CENTERTINY
 70
    0
  3
Center (.15x) ___ _ ___ _ ___ _ ___ _ ___ _ ___
 72
   65
 73
    4
 40
7.62
 49
4.7625
 74
    0
 49
-0.9525
 74
    0
 49
0.9525
 74
    0
 49
-0.9525
 74
    0
  0
LTYPE
  5
48
330
5
100
AcDbSymbolTableRecord
100
AcDbLinetypeTableRecord
  2
CENTER2
 70
    0
  3
Center (.5x) ___ _ ___ _ ___ _ ___ _ ___ _ ___
 72
   65
 73
    4
 40
28.575
 49
19.05
 74
    0
 49
-3.175
 74
    0
 49
3.175
 74
    0
 49
-3.175
 74
    0
  0
LTYPE
  5
49
330
5
100
AcDbSymbolTableRecord
100
AcDbLinetypeTableRecord
  2
CENTERX2
 70
    0
  3
Center (2x) ________  __  ________  __  _____
 72
   65
 73
    4
 40
101.6
 49
63.5
 74
    0
 49
-12.7
 74
    0
 49
12.7
 74
    0
 49
-12.7
 74
    0
  0
ENDTAB
  0
TABLE
  2
LAYER
  5
2
330
0
100
AcDbSymbolTable
 70
    1
  0
LAYER
  5
10
330
2
100
AcDbSymbolTableRecord
100
AcDbLayerTableRecord
  2
0
 70
    5
 62
    7
  6
CONTINUOUS
370
   -3
390
F
  0
LAYER
  5
4A
330
2
100
AcDbSymbolTableRecord
100
AcDbLayerTableRecord
  2
Outline
 70
    4
 62
    7
  6
CONTINUOUS
370
    0
390
F
  0
LAYER
  5
4B
330
2
100
AcDbSymbolTableRecord
100
AcDbLayerTableRecord
  2
ref
 70
    5
 62
    3
  6
DASHED
370
    0
390
F
1001
LibreCad
1070
    1
  0
LAYER
  5
4C
330
2
100
AcDbSymbolTableRecord
100
AcDbLayerTableRecord
  2
tilted
 70
    0
 62
    7
  6
CONTINUOUS
370
    0
390
F
  0
ENDTAB
  0
TABLE
  2
STYLE
  5
3
330
0
100
AcDbSymbolTable
 70
    3
  0
STYLE
  5
4D
330
2
100
AcDbSymbolTableRecord
100
AcDbTextStyleTableRecord
  2
standard
 70
    0
 40
0
 41
1
 50
0
 71
    0
 42
1
  3
standard
  4

  0
ENDTAB
  0
TABLE
  2
VIEW
  5
6
330
0
100
AcDbSymbolTable
 70
    0
  0
ENDTAB
  0
TABLE
  2
UCS
  5
7
330
0
100
AcDbSymbolTable
 70
    0
  0
ENDTAB
  0
TABLE
  2
APPID
  5
9
330
0
100
AcDbSymbolTable
 70
    1
  0
APPID
  5
12
330
9
100
AcDbSymbolTableRecord
100
AcDbRegAppTableRecord
  2
ACAD
 70
    0
  0
APPID
  5
4E
330
9
100
AcDbSymbolTableRecord
100
AcDbRegAppTableRecord
  2
LibreCad
 70
    0
  0
ENDTAB
  0
TABLE
  2
DIMSTYLE
  5
A
330
0
100
AcDbSymbolTable
 70
    1
100
AcDbDimStyleTable
 71
    1
  0
DIMSTYLE
105
4F
330
A
100
AcDbSymbolTableRecord
100
AcDbDimStyleTableRecord
  2
Standard
 70
    0
 40
1
 41
2.5
 42
0.625
 43
0.38
 44
1.25
 45
0
 46
0
 47
0
 48
0
 49
1
140
2.5
141
0.09
142
0
143
25.4
144
1
145
0
146
1
147
0.625
148
0
 71
    0
 72
    0
 73
    0
 74
    1
 75
    0
 76
    0
 77
    0
 78
    1
 79
    0
170
    0
171
    2
172
    0
173
    0
174
    0
175
    0
176
    0
177
    0
178
    0
179
    2
271
    4
272
    4
273
    2
274
    2
275
    0
276
    0
277
    2
278
    0
279
    0
280
    0
281
    0
282
    0
283
    1
284
    0
285
    0
286
    0
288
    0
289
    3
340
standard
341

371
   -2
372
   -2
  0
ENDTAB
  0
TABLE
  2
BLOCK_RECORD
  5
1
330
0
100
AcDbSymbolTable
 70
    2
  0
BLOCK_RECORD
  5
1F
330
1
100
AcDbSymbolTableRecord
100
AcDbBlockTableRecord
  2
*Model_Space
 70
    0
280
    1
281
    0
  0
BLOCK_RECORD
  5
1E
330
1
100
AcDbSymbolTableRecord
100
AcDbBlockTableRecord
  2
*Paper_Space
 70
    0
280
    1
281
    0
  0
ENDTAB
  0
ENDSEC
  0
SECTION
  2
BLOCKS
  0
BLOCK
  5
20
330
1F
100
AcDbEntity
  8
0
100
AcDbBlockBegin
  2
*Model_Space
 70
    0
 10
0
 20
0
 30
0
  3
*Model_Space
  1

  0
ENDBLK
  5
21
330
1F
100
AcDbEntity
  8
0
100
AcDbBlockEnd
  0
BLOCK
  5
1C
330
1B
100
AcDbEntity
  8
0
100
AcDbBlockBegin
  2
*Paper_Space
 70
    0
 10
0
 20
0
 30
0
  3
*Paper_Space
  1

  0
ENDBLK
  5
1D
330
1F
100
AcDbEntity
  8
0
100
AcDbBlockEnd
  0
ENDSEC
  0
SECTION
  2
ENTITIES
  0
TEXT
  5
50
100
AcDbEntity
  8
0
  6
ByLayer
 62
  256
370
   -1
100
AcDbText
 10
-89.18414257828778
 20
94.63279957250688
 30
0
 40
10
  1
1u
 50
0
 41
1
 51
0
  7
standard
 71
    0
210
0
220
0
230
1
100
AcDbText
  0
LWPOLYLINE
  5
51
100
AcDbEntity
  8
0
  6
ByLayer
 62
  256
370
   -1
100
AcDbPolyline
 90
    4
 70
    1
 43
0
 10
-109.2158569512421
 20
68.35927420134628
 10
-80.64085695124201
 20
68.35927420134628
 10
-80.64085695124201
 20
87.40927420134626
 10
-109.2158569512421
 20
87.40927420134626
  0
TEXT
  5
52
100
AcDbEntity
  8
0
  6
ByLayer
 62
  256
370
   -1
100
AcDbText
 10
-80.64085695124201
 20
68.35927420134628
 30
0
 40
10
  1
1.5u
 50
0
 41
1
 51
0
  7
standard
 71
    0
210
0
220
0
230
1
100
AcDbText
  0
LINE
  5
53
100
AcDbEntity
  8
0
  6
ByLayer
 62
  256
370
   -1
100
AcDbLine
 10
-109.2158569512421
 20
87.40927420134626
 11
-80.64085695124201
 21
68.35927420134628
  0
LINE
  5
54
100
AcDbEntity
  8
0
  6
ByLayer
 62
  256
370
   -1
100
AcDbLine
 10
-80.64085695124201
 20
87.40927420134626
 11
-109.2158569512421
 21
68.35927420134628
  0
LINE
  5
55
100
AcDbEntity
  8
0
  6
ByLayer
 62
    0
370
   -1
100
AcDbLine
 10
19.05005
 20
-38.09999999999998
 11
33.04935
 21
-38.09999999999998
  0
LINE
  5
56
100
AcDbEntity
  8
0
  6
ByLayer
 62
    0
370
   -1
100
AcDbLine
 10
33.04935
 20
-38.09999999999998
 11
33.04935
 21
-52.09939999999999
  0
LINE
  5
57
100
AcDbEntity
  8
0
  6
ByLayer
 62
    0
370
   -1
100
AcDbLine
 10
33.04935
 20
-52.09939999999999
 11
19.05005
 21
-52.09939999999999
  0
LINE
  5
58
100
AcDbEntity
  8
0
  6
ByLayer
 62
    0
370
   -1
100
AcDbLine
 10
19.05005
 20
-52.09939999999999
 11
19.05005
 21
-38.09999999999998
  0
LINE
  5
59
100
AcDbEntity
  8
0
  6
ByLayer
 62
    0
370
   -1
100
AcDbLine
 10
0
 20
-38.09999999999998
 11
13.99955
 21
-38.09999999999998
  0
LINE
  5
5A
100
AcDbEntity
  8
0
  6
ByLayer
 62
    0
370
   -1
100
AcDbLine
 10
13.99955
 20
-38.09999999999998
 11
13.99955
 21
-52.09939999999999
  0
LINE
  5
5B
100
AcDbEntity
  8
0
  6
ByLayer
 62
    0
370
   -1
100
AcDbLine
 10
13.99955
 20
-52.09939999999999
 11
0
 21
-52.09939999999999
  0
LINE
  5
5C
100
AcDbEntity
  8
0
  6
ByLayer
 62
    0
370
   -1
100
AcDbLine
 10
0
 20
-52.09939999999999
 11
0
 21
-38.09999999999998
  0
LINE
  5
5D
100
AcDbEntity
  8
0
  6
ByLayer
 62
    0
370
   -1
100
AcDbLine
 10
95.25004999999999
 20
-29.52709999999998
 11
109.24935
 21
-29.52709999999998
  0
LINE
  5
5E
100
AcDbEntity
  8
0
  6
ByLayer
 62
    0
370
   -1
100
AcDbLine
 10
109.24935
 20
-29.52709999999998
 11
109.24935
 21
-43.52679999999998
  0
LINE
  5
5F
100
AcDbEntity
  8
0
  6
ByLayer
 62
    0
370
   -1
100
AcDbLine
 10
109.24935
 20
-43.52679999999998
 11
95.25004999999999
 21
-43.52679999999998
  0
LINE
  5
60
100
AcDbEntity
  8
0
  6
ByLayer
 62
    0
370
   -1
100
AcDbLine
 10
95.25004999999999
 20
-43.52679999999998
 11
95.25004999999999
 21
-29.52709999999998
  0
LINE
  5
61
100
AcDbEntity
  8
0
  6
ByLayer
 62
    0
370
   -1
100
AcDbLine
 10
76.20005
 20
-28.57499999999998
 11
90.19935000000001
 21
-28.57499999999998
  0
LINE
  5
62
100
AcDbEntity
  8
0
  6
ByLayer
 62
    0
370
   -1
100
AcDbLine
 10
90.19935000000001
 20
-28.57499999999998
 11
90.19935000000001
 21
-42.57429999999999
  0
LINE
  5
63
100
AcDbEntity
  8
0
  6
ByLayer
 62
    0
370
   -1
100
AcDbLine
 10
90.19935000000001
 20
-42.57429999999999
 11
76.20005
 21
-42.57429999999999
  0
LINE
  5
64
100
AcDbEntity
  8
0
  6
ByLayer
 62
    0
370
   -1
100
AcDbLine
 10
76.20005
 20
-42.57429999999999
 11
76.20005
 21
-28.57499999999998
  0
LINE
  5
65
100
AcDbEntity
  8
0
  6
ByLayer
 62
    0
370
   -1
100
AcDbLine
 10
38.10005
 20
-28.57499999999998
 11
52.09935
 21
-28.57499999999998
  0
LINE
  5
66
100
AcDbEntity
  8
0
  6
ByLayer
 62
    0
370
   -1
100
AcDbLine
 10
52.09935
 20
-28.57499999999998
 11
52.09935
 21
-42.57429999999999
  0
LINE
  5
67
100
AcDbEntity
  8
0
  6
ByLayer
 62
    0
370
   -1
100
AcDbLine
 10
52.09935
 20
-42.57429999999999
 11
38.10005
 21
-42.57429999999999
  0
LINE
  5
68
100
AcDbEntity
  8
0
  6
ByLayer
 62
    0
370
   -1
100
AcDbLine
 10
38.10005
 20
-42.57429999999999
 11
38.10005
 21
-28.57499999999998
  0
LINE
  5
69
100
AcDbEntity
  8
0
  6
ByLayer
 62
    0
370
   -1
100
AcDbLine
 10
57.15005
 20
-23.81249999999999
 11
71.14935
 21
-23.81249999999999
  0
LINE
  5
6A
100
AcDbEntity
  8
0
  6
ByLayer
 62
    0
370
   -1
100
AcDbLine
 10
71.14935
 20
-23.81249999999999
 11
71.14935
 21
-37.81179999999998
  0
LINE
  5
6B
100
AcDbEntity
  8
0
  6
ByLayer
 62
    0
370
   -1
100
AcDbLine
 10
71.14935
 20
-37.81179999999998
 11
57.15005
 21
-37.81179999999998
  0
LINE
  5
6C
100
AcDbEntity
  8
0
  6
ByLayer
 62
    0
370
   -1
100
AcDbLine
 10
57.15005
 20
-37.81179999999998
 11
57.15005
 21
-23.81249999999999
  0
LINE
  5
6D
100
AcDbEntity
  8
0
  6
ByLayer
 62
    0
370
   -1
100
AcDbLine
 10
19.05005
 20
-19.04999999999998
 11
33.04935
 21
-19.04999999999998
  0
LINE
  5
6E
100
AcDbEntity
  8
0
  6
ByLayer
 62
    0
370
   -1
100
AcDbLine
 10
33.04935
 20
-19.04999999999998
 11
33.04935
 21
-33.04929999999998
  0
LINE
  5
6F
100
AcDbEntity
  8
0
  6
ByLayer
 62
    0
370
   -1
100
AcDbLine
 10
33.04935
 20
-33.04929999999998
 11
19.05005
 21
-33.04929999999998
  0
LINE
  5
70
100
AcDbEntity
  8
0
  6
ByLayer
 62
    0
370
   -1
100
AcDbLine
 10
19.05005
 20
-33.04929999999998
 11
19.05005
 21
-19.04999999999998
  0
LINE
  5
71
100
AcDbEntity
  8
0
  6
ByLayer
 62
    0
370
   -1
100
AcDbLine
 10
0
 20
-19.04999999999998
 11
13.99955
 21
-19.04999999999998
  0
LINE
  5
72
100
AcDbEntity
  8
0
  6
ByLayer
 62
    0
370
   -1
100
AcDbLine
 10
13.99955
 20
-19.04999999999998
 11
13.99955
 21
-33.04929999999998
  0
LINE
  5
73
100
AcDbEntity
  8
0
  6
ByLayer
 62
    0
370
   -1
100
AcDbLine
 10
13.99955
 20
-33.04929999999998
 11
0
 21
-33.04929999999998
  0
LINE
  5
74
100
AcDbEntity
  8
0
  6
ByLayer
 62
    0
370
   -1
100
AcDbLine
 10
0
 20
-33.04929999999998
 11
0
 21
-19.04999999999998
  0
LINE
  5
75
100
AcDbEntity
  8
0
  6
ByLayer
 62
    0
370
   -1
100
AcDbLine
 10
95.25004999999999
 20
-10.47709999999998
 11
109.24935
 21
-10.47709999999998
  0
LINE
  5
76
100
AcDbEntity
  8
0
  6
ByLayer
 62
    0
370
   -1
100
AcDbLine
 10
109.24935
 20
-10.47709999999998
 11
109.24935
 21
-24.47679999999998
  0
LINE
  5
77
100
AcDbEntity
  8
0
  6
ByLayer
 62
    0
370
   -1
100
AcDbLine
 10
109.24935
 20
-24.47679999999998
 11
95.25004999999999
 21
-24.47679999999998
  0
LINE
  5
78
100
AcDbEntity
  8
0
  6
ByLayer
 62
    0
370
   -1
100
AcDbLine
 10
95.25004999999999
 20
-24.47679999999998
 11
95.25004999999999
 21
-10.47709999999998
  0
LINE
  5
79
100
AcDbEntity
  8
0
  6
ByLayer
 62
    0
370
   -1
100
AcDbLine
 10
76.20005
 20
-9.524999999999977
 11
90.19935000000001
 21
-9.524999999999977
  0
LINE
  5
7A
100
AcDbEntity
  8
0
  6
ByLayer
 62
    0
370
   -1
100
AcDbLine
 10
90.19935000000001
 20
-9.524999999999977
 11
90.19935000000001
 21
-23.52429999999998
  0
LINE
  5
7B
100
AcDbEntity
  8
0
  6
ByLayer
 62
    0
370
   -1
100
AcDbLine
 10
90.19935000000001
 20
-23.52429999999998
 11
76.20005
 21
-23.52429999999998
  0
LINE
  5
7C
100
AcDbEntity
  8
0
  6
ByLayer
 62
    0
370
   -1
100
AcDbLine
 10
76.20005
 20
-23.52429999999998
 11
76.20005
 21
-9.524999999999977
  0
LINE
  5
7D
100
AcDbEntity
  8
0
  6
ByLayer
 62
    0
370
   -1
100
AcDbLine
 10
38.10005
 20
-9.524999999999977
 11
52.09935
 21
-9.524999999999977
  0
LINE
  5
7E
100
AcDbEntity
  8
0
  6
ByLayer
 62
    0
370
   -1
100
AcDbLine
 10
52.09935
 20
-9.524999999999977
 11
52.09935
 21
-23.52429999999998
  0
LINE
  5
7F
100
AcDbEntity
  8
0
  6
ByLayer
 62
    0
370
   -1
100
AcDbLine
 10
52.09935
 20
-23.52429999999998
 11
38.10005
 21
-23.52429999999998
  0
LINE
  5
80
100
AcDbEntity
  8
0
  6
ByLayer
 62
    0
370
   -1
100
AcDbLine
 10
38.10005
 20
-23.52429999999998
 11
38.10005
 21
-9.524999999999977
  0
LINE
  5
81
100
AcDbEntity
  8
0
  6
ByLayer
 62
    0
370
   -1
100
AcDbLine
 10
57.15005
 20
-4.762499999999989
 11
71.14935
 21
-4.762499999999989
  0
LINE
  5
82
100
AcDbEntity
  8
0
  6
ByLayer
 62
    0
370
   -1
100
AcDbLine
 10
71.14935
 20
-4.762499999999989
 11
71.14935
 21
-18.76179999999999
  0
LINE
  5
83
100
AcDbEntity
  8
0
  6
ByLayer
 62
    0
370
   -1
100
AcDbLine
 10
71.14935
 20
-18.76179999999999
 11
57.15005
 21
-18.76179999999999
  0
LINE
  5
84
100
AcDbEntity
  8
0
  6
ByLayer
 62
    0
370
   -1
100
AcDbLine
 10
57.15005
 20
-18.76179999999999
 11
57.15005
 21
-4.762499999999989
  0
LINE
  5
85
100
AcDbEntity
  8
0
  6
ByLayer
 62
    0
370
   -1
100
AcDbLine
 10
19.05005
 20
1.4210854715202e-014
 11
33.04935
 21
1.4210854715202e-014
  0
LINE
  5
86
100
AcDbEntity
  8
0
  6
ByLayer
 62
    0
370
   -1
100
AcDbLine
 10
33.04935
 20
1.4210854715202e-014
 11
33.04935
 21
-13.99929999999998
  0
LINE
  5
87
100
AcDbEntity
  8
0
  6
ByLayer
 62
    0
370
   -1
100
AcDbLine
 10
33.04935
 20
-13.99929999999998
 11
19.05005
 21
-13.99929999999998
  0
LINE
  5
88
100
AcDbEntity
  8
0
  6
ByLayer
 62
    0
370
   -1
100
AcDbLine
 10
19.05005
 20
-13.99929999999998
 11
19.05005
 21
1.4210854715202e-014
  0
LINE
  5
89
100
AcDbEntity
  8
0
  6
ByLayer
 62
    0
370
   -1
100
AcDbLine
 10
0
 20
1.4210854715202e-014
 11
13.99955
 21
1.4210854715202e-014
  0
LINE
  5
8A
100
AcDbEntity
  8
0
  6
ByLayer
 62
    0
370
   -1
100
AcDbLine
 10
13.99955
 20
1.4210854715202e-014
 11
13.99955
 21
-13.99929999999998
  0
LINE
  5
8B
100
AcDbEntity
  8
0
  6
ByLayer
 62
    0
370
   -1
100
AcDbLine
 10
13.99955
 20
-13.99929999999998
 11
0
 21
-13.99929999999998
  0
LINE
  5
8C
100
AcDbEntity
  8
0
  6
ByLayer
 62
    0
370
   -1
100
AcDbLine
 10
0
 20
-13.99929999999998
 11
0
 21
1.4210854715202e-014
  0
LINE
  5
8D
100
AcDbEntity
  8
0
  6
ByLayer
 62
    0
370
   -1
100
AcDbLine
 10
95.25004999999999
 20
8.572900000000018
 11
109.24935
 21
8.572900000000018
  0
LINE
  5
8E
100
AcDbEntity
  8
0
  6
ByLayer
 62
    0
370
   -1
100
AcDbLine
 10
109.24935
 20
8.572900000000018
 11
109.24935
 21
-5.426799999999986
  0
LINE
  5
8F
100
AcDbEntity
  8
0
  6
ByLayer
 62
    0
370
   -1
100
AcDbLine
 10
109.24935
 20
-5.426799999999986
 11
95.25004999999999
 21
-5.426799999999986
  0
LINE
  5
90
100
AcDbEntity
  8
0
  6
ByLayer
 62
    0
370
   -1
100
AcDbLine
 10
95.25004999999999
 20
-5.426799999999986
 11
95.25004999999999
 21
8.572900000000018
  0
LINE
  5
91
100
AcDbEntity
  8
0
  6
ByLayer
 62
    0
370
   -1
100
AcDbLine
 10
76.20005
 20
9.52500000000002
 11
90.19935000000001
 21
9.52500000000002
  0
LINE
  5
92
100
AcDbEntity
  8
0
  6
ByLayer
 62
    0
370
   -1
100
AcDbLine
 10
90.19935000000001
 20
9.52500000000002
 11
90.19935000000001
 21
-4.474299999999985
  0
LINE
  5
93
100
AcDbEntity
  8
0
  6
ByLayer
 62
    0
370
   -1
100
AcDbLine
 10
90.19935000000001
 20
-4.474299999999985
 11
76.20005
 21
-4.474299999999985
  0
LINE
  5
94
100
AcDbEntity
  8
0
  6
ByLayer
 62
    0
370
   -1
100
AcDbLine
 10
76.20005
 20
-4.474299999999985
 11
76.20005
 21
9.52500000000002
  0
LINE
  5
95
100
AcDbEntity
  8
0
  6
ByLayer
 62
    0
370
   -1
100
AcDbLine
 10
38.10005
 20
9.52500000000002
 11
52.09935
 21
9.52500000000002
  0
LINE
  5
96
100
AcDbEntity
  8
0
  6
ByLayer
 62
    0
370
   -1
100
AcDbLine
 10
52.09935
 20
9.52500000000002
 11
52.09935
 21
-4.474299999999985
  0
LINE
  5
97
100
AcDbEntity
  8
0
  6
ByLayer
 62
    0
370
   -1
100
AcDbLine
 10
52.09935
 20
-4.474299999999985
 11
38.10005
 21
-4.474299999999985
  0
LINE
  5
98
100
AcDbEntity
  8
0
  6
ByLayer
 62
    0
370
   -1
100
AcDbLine
 10
38.10005
 20
-4.474299999999985
 11
38.10005
 21
9.52500000000002
  0
LINE
  5
99
100
AcDbEntity
  8
0
  6
ByLayer
 62
    0
370
   -1
100
AcDbLine
 10
57.15005
 20
14.28750000000002
 11
71.14935
 21
14.28750000000002
  0
LINE
  5
9A
100
AcDbEntity
  8
0
  6
ByLayer
 62
    0
370
   -1
100
AcDbLine
 10
71.14935
 20
14.28750000000002
 11
71.14935
 21
0.2882000000000176
  0
LINE
  5
9B
100
AcDbEntity
  8
0
  6
ByLayer
 62
    0
370
   -1
100
AcDbLine
 10
71.14935
 20
0.2882000000000176
 11
57.15005
 21
0.2882000000000176
  0
LINE
  5
9C
100
AcDbEntity
  8
0
  6
ByLayer
 62
    0
370
   -1
100
AcDbLine
 10
57.15005
 20
0.2882000000000176
 11
57.15005
 21
14.28750000000002
  0
LINE
  5
9D
100
AcDbEntity
  8
0
  6
ByLayer
 62
  256
370
   -1
100
AcDbLine
 10
0
 20
0
 11
13.99955
 21
-13.99929999999998
  0
LINE
  5
9E
100
AcDbEntity
  8
0
  6
ByLayer
 62
  256
370
   -1
100
AcDbLine
 10
13.99955
 20
-13.99929999999998
 11
13.99955
 21
0
  0
LINE
  5
9F
100
AcDbEntity
  8
0
  6
ByLayer
 62
  256
370
   -1
100
AcDbLine
 10
13.99955
 20
0
 11
0
 21
-13.99929999999998
  0
LWPOLYLINE
  5
A0
100
AcDbEntity
  8
0
  6
ByLayer
 62
  256
370
   -1
100
AcDbPolyline
 90
    4
 70
    1
 43
0
 10
-2.525224999999978
 20
-16.52464999999999
 10
16.52477499999998
 20
-16.52464999999999
 10
16.52477499999998
 20
2.525350000000003
 10
-2.525224999999978
 20
2.525350000000003
  0
LINE
  5
A1
100
AcDbEntity
  8
0
  6
ByLayer
 62
  256
370
   -1
100
AcDbLine
 10
-2.525224999999978
 20
2.525350000000003
 11
16.52477499999998
 21
-16.52464999999999
  0
LINE
  5
A2
100
AcDbEntity
  8
0
  6
ByLayer
 62
  256
370
   -1
100
AcDbLine
 10
16.52477499999998
 20
2.525350000000003
 11
-2.525224999999978
 21
-16.52464999999999
  0
LWPOLYLINE
  5
A3
100
AcDbEntity
  8
0
  6
ByLayer
 62
  256
370
   -1
100
AcDbPolyline
 90
    4
 70
    1
 43
0
 10
-2.525349999999983
 20
-35.57464999999999
 10
16.52464999999997
 20
-35.57464999999999
 10
16.52464999999997
 20
-16.52464999999999
 10
-2.525349999999983
 20
-16.52464999999999
  0
LINE
  5
A4
100
AcDbEntity
  8
0
  6
ByLayer
 62
  256
370
   -1
100
AcDbLine
 10
-2.525349999999983
 20
-16.52464999999999
 11
16.52464999999997
 21
-35.57464999999999
  0
LINE
  5
A5
100
AcDbEntity
  8
0
  6
ByLayer
 62
  256
370
   -1
100
AcDbLine
 10
16.52464999999997
 20
-16.52464999999999
 11
-2.525349999999983
 21
-35.57464999999999
  0
LWPOLYLINE
  5
A6
100
AcDbEntity
  8
0
  6
ByLayer
 62
  256
370
   -1
100
AcDbPolyline
 90
    4
 70
    1
 43
0
 10
-2.525349999999983
 20
-54.62464999999999
 10
16.52464999999997
 20
-54.62464999999999
 10
16.52464999999997
 20
-35.57464999999999
 10
-2.525349999999983
 20
-35.57464999999999
  0
LINE
  5
A7
100
AcDbEntity
  8
0
  6
ByLayer
 62
  256
370
   -1
100
AcDbLine
 10
-2.525349999999983
 20
-35.57464999999999
 11
16.52464999999997
 21
-54.62464999999999
  0
LINE
  5
A8
100
AcDbEntity
  8
0
  6
ByLayer
 62
  256
370
   -1
100
AcDbLine
 10
16.52464999999997
 20
-35.57464999999999
 11
-2.525349999999983
 21
-54.62464999999999
  0
LWPOLYLINE
  5
A9
100
AcDbEntity
  8
0
  6
ByLayer
 62
  256
370
   -1
100
AcDbPolyline
 90
    4
 70
    1
 43
0
 10
16.52470000000002
 20
-16.52464999999999
 10
35.57469999999997
 20
-16.52464999999999
 10
35.57469999999997
 20
2.525350000000003
 10
16.52470000000002
 20
2.525350000000003
  0
LINE
  5
AA
100
AcDbEntity
  8
0
  6
ByLayer
 62
  256
370
   -1
100
AcDbLine
 10
16.52470000000002
 20
2.525350000000003
 11
35.57469999999997
 21
-16.52464999999999
  0
LINE
  5
AB
100
AcDbEntity
  8
0
  6
ByLayer
 62
  256
370
   -1
100
AcDbLine
 10
35.57469999999997
 20
2.525350000000003
 11
16.52470000000002
 21
-16.52464999999999
  0
LWPOLYLINE
  5
AC
100
AcDbEntity
  8
0
  6
ByLayer
 62
  256
370
   -1
100
AcDbPolyline
 90
    4
 70
    1
 43
0
 10
35.57470000000002
 20
-26.04964999999999
 10
54.62469999999998
 20
-26.04964999999999
 10
54.62469999999998
 20
-6.999649999999988
 10
35.57470000000002
 20
-6.999649999999988
  0
LINE
  5
AD
100
AcDbEntity
  8
0
  6
ByLayer
 62
  256
370
   -1
100
AcDbLine
 10
35.57470000000002
 20
-6.999649999999988
 11
54.62469999999998
 21
-26.04964999999999
  0
LINE
  5
AE
100
AcDbEntity
  8
0
  6
ByLayer
 62
  256
370
   -1
100
AcDbLine
 10
54.62469999999998
 20
-6.999649999999988
 11
35.57470000000002
 21
-26.04964999999999
  0
LWPOLYLINE
  5
AF
100
AcDbEntity
  8
0
  6
ByLayer
 62
  256
370
   -1
100
AcDbPolyline
 90
    4
 70
    1
 43
0
 10
92.7247
 20
-46.05174999999999
 10
111.7747
 20
-46.05174999999999
 10
111.7747
 20
-27.00174999999999
 10
92.7247
 20
-27.00174999999999
  0
LINE
  5
B0
100
AcDbEntity
  8
0
  6
ByLayer
 62
  256
370
   -1
100
AcDbLine
 10
92.7247
 20
-27.00174999999999
 11
111.7747
 21
-46.05174999999999
  0
LINE
  5
B1
100
AcDbEntity
  8
0
  6
ByLayer
 62
  256
370
   -1
100
AcDbLine
 10
111.7747
 20
-27.00174999999999
 11
92.7247
 21
-46.05174999999999
  0
LWPOLYLINE
  5
B2
100
AcDbEntity
  8
0
  6
ByLayer
 62
  256
370
   -1
100
AcDbPolyline
 90
    4
 70
    1
 43
0
 10
73.67470000000002
 20
-45.09964999999999
 10
92.72469999999998
 20
-45.09964999999999
 10
92.72469999999998
 20
-26.04964999999999
 10
73.67470000000002
 20
-26.04964999999999
  0
LINE
  5
B3
100
AcDbEntity
  8
0
  6
ByLayer
 62
  256
370
   -1
100
AcDbLine
 10
73.67470000000002
 20
-26.04964999999999
 11
92.72469999999998
 21
-45.09964999999999
  0
LINE
  5
B4
100
AcDbEntity
  8
0
  6
ByLayer
 62
  256
370
   -1
100
AcDbLine
 10
92.72469999999998
 20
-26.04964999999999
 11
73.67470000000002
 21
-45.09964999999999
  0
LWPOLYLINE
  5
B5
100
AcDbEntity
  8
0
  6
ByLayer
 62
  256
370
   -1
100
AcDbPolyline
 90
    4
 70
    1
 43
0
 10
-110.0794672878851
 20
91.17905576811864
 10
-91.02946728788518
 20
91.17905576811864
 10
-91.02946728788518
 20
110.2290557681186
 10
-110.0794672878851
 20
110.2290557681186
  0
LINE
  5
B6
100
AcDbEntity
  8
0
  6
ByLayer
 62
  256
370
   -1
100
AcDbLine
 10
-110.0794672878851
 20
110.2290557681186
 11
-91.02946728788518
 21
91.17905576811864
  0
LINE
  5
B7
100
AcDbEntity
  8
0
  6
ByLayer
 62
  256
370
   -1
100
AcDbLine
 10
-91.02946728788518
 20
110.2290557681186
 11
-110.0794672878851
 21
91.17905576811864
  0
LWPOLYLINE
  5
B8
100
AcDbEntity
  8
0
  6
ByLayer
 62
  256
370
   -1
100
AcDbPolyline
 90
    4
 70
    1
 43
0
 10
20.01605433852232
 20
94.26804063778377
 10
38.41694132932903
 20
89.33753782858076
 10
43.34744413853205
 20
107.7384248193875
 10
24.94655714772534
 20
112.6689276285905
  0
LINE
  5
B9
100
AcDbEntity
  8
0
  6
ByLayer
 62
  256
370
   -1
100
AcDbLine
 10
24.94655714772534
 20
112.6689276285905
 11
38.41694132932903
 21
89.33753782858076
  0
LINE
  5
BA
100
AcDbEntity
  8
0
  6
ByLayer
 62
  256
370
   -1
100
AcDbLine
 10
43.34744413853205
 20
107.7384248193875
 11
20.01605433852232
 21
94.26804063778377
  0
LWPOLYLINE
  5
BB
100
AcDbEntity
  8
0
  6
ByLayer
 62
  256
370
   -1
100
AcDbPolyline
 90
    4
 70
    1
 43
0
 10
-94.14485802895328
 20
-17.1358379565702
 10
-79.85735802895324
 20
7.610837956570202
 10
-96.35514197104678
 20
17.1358379565702
 10
-110.6426419710468
 20
-7.610837956570202
  0
LINE
  5
BC
100
AcDbEntity
  8
0
  6
ByLayer
 62
  256
370
   -1
100
AcDbLine
 10
-110.6426419710468
 20
-7.610837956570202
 11
-79.85735802895324
 21
7.610837956570202
  0
LINE
  5
BD
100
AcDbEntity
  8
0
  6
ByLayer
 62
  256
370
   -1
100
AcDbLine
 10
-96.35514197104678
 20
17.1358379565702
 11
-94.14485802895328
 21
-17.1358379565702
  0
LINE
  5
BE
100
AcDbEntity
  8
0
  6
ByLayer
 62
    0
370
   -1
100
AcDbLine
 10
107.21335
 20
-65.03589999999998
 11
119.33735
 21
-72.03639999999999
  0
LINE
  5
BF
100
AcDbEntity
  8
0
  6
ByLayer
 62
    0
370
   -1
100
AcDbLine
 10
119.33735
 20
-72.03639999999999
 11
126.33835
 21
-59.91239999999998
  0
LINE
  5
C0
100
AcDbEntity
  8
0
  6
ByLayer
 62
    0
370
   -1
100
AcDbLine
 10
126.33835
 20
-59.91239999999998
 11
114.21435
 21
-52.91199999999998
  0
LINE
  5
C1
100
AcDbEntity
  8
0
  6
ByLayer
 62
    0
370
   -1
100
AcDbLine
 10
114.21435
 20
-52.91199999999998
 11
107.21335
 21
-65.03589999999998
  0
LINE
  5
C2
100
AcDbEntity
  8
0
  6
ByLayer
 62
    0
370
   -1
100
AcDbLine
 10
86.06505000000001
 20
-63.36579999999998
 11
99.58735
 21
-66.98859999999999
  0
LINE
  5
C3
100
AcDbEntity
  8
0
  6
ByLayer
 62
    0
370
   -1
100
AcDbLine
 10
99.58735
 20
-66.98859999999999
 11
103.21035
 21
-53.46459999999998
  0
LINE
  5
C4
100
AcDbEntity
  8
0
  6
ByLayer
 62
    0
370
   -1
100
AcDbLine
 10
103.21035
 20
-53.46459999999998
 11
89.68774999999999
 21
-49.84169999999998
  0
LINE
  5
C5
100
AcDbEntity
  8
0
  6
ByLayer
 62
    0
370
   -1
100
AcDbLine
 10
89.68774999999999
 20
-49.84169999999998
 11
86.06505000000001
 21
-63.36579999999998
  0
LINE
  5
C6
100
AcDbEntity
  8
0
  6
ByLayer
 62
    0
370
   -1
100
AcDbLine
 10
66.43754999999999
 20
-48.62489999999998
 11
80.43684999999999
 21
-48.62489999999998
  0
LINE
  5
C7
100
AcDbEntity
  8
0
  6
ByLayer
 62
    0
370
   -1
100
AcDbLine
 10
80.43684999999999
 20
-48.62489999999998
 11
80.43684999999999
 21
-62.62439999999998
  0
LINE
  5
C8
100
AcDbEntity
  8
0
  6
ByLayer
 62
    0
370
   -1
100
AcDbLine
 10
80.43684999999999
 20
-62.62439999999998
 11
66.43754999999999
 21
-62.62439999999998
  0
LINE
  5
C9
100
AcDbEntity
  8
0
  6
ByLayer
 62
    0
370
   -1
100
AcDbLine
 10
66.43754999999999
 20
-62.62439999999998
 11
66.43754999999999
 21
-48.62489999999998
  0
LINE
  5
CA
100
AcDbEntity
  8
0
  6
ByLayer
 62
    0
370
   -1
100
AcDbLine
 10
47.38755
 20
-48.62489999999998
 11
61.38685000000001
 21
-48.62489999999998
  0
LINE
  5
CB
100
AcDbEntity
  8
0
  6
ByLayer
 62
    0
370
   -1
100
AcDbLine
 10
61.38685000000001
 20
-48.62489999999998
 11
61.38685000000001
 21
-62.62439999999998
  0
LINE
  5
CC
100
AcDbEntity
  8
0
  6
ByLayer
 62
    0
370
   -1
100
AcDbLine
 10
61.38685000000001
 20
-62.62439999999998
 11
47.38755
 21
-62.62439999999998
  0
LINE
  5
CD
100
AcDbEntity
  8
0
  6
ByLayer
 62
    0
370
   -1
100
AcDbLine
 10
47.38755
 20
-62.62439999999998
 11
47.38755
 21
-48.62489999999998
  0
LINE
  5
CE
100
AcDbEntity
  8
0
  6
ByLayer
 62
  256
370
   -1
100
AcDbLine
 10
114.21435
 20
-52.91199999999998
 11
119.33735
 21
-72.03639999999997
  0
LINE
  5
CF
100
AcDbEntity
  8
0
  6
ByLayer
 62
  256
370
   -1
100
AcDbLine
 10
119.33735
 20
-72.03639999999997
 11
107.21335
 21
-65.03589999999998
  0
LINE
  5
D0
100
AcDbEntity
  8
0
  6
ByLayer
 62
  256
370
   -1
100
AcDbLine
 10
107.21335
 20
-65.03589999999998
 11
126.33835
 21
-59.91239999999998
  0
LINE
  5
D1
100
AcDbEntity
  8
0
  6
ByLayer
 62
  256
370
   -1
100
AcDbLine
 10
89.68774999999999
 20
-49.84169999999998
 11
99.58735
 21
-66.98859999999998
  0
LINE
  5
D2
100
AcDbEntity
  8
0
  6
ByLayer
 62
  256
370
   -1
100
AcDbLine
 10
99.58735
 20
-66.98859999999998
 11
103.21035
 21
-53.46459999999998
  0
LINE
  5
D3
100
AcDbEntity
  8
0
  6
ByLayer
 62
  256
370
   -1
100
AcDbLine
 10
103.21035
 20
-53.46459999999998
 11
86.06505000000001
 21
-63.36579999999998
  0
LWPOLYLINE
  5
D4
100
AcDbEntity
  8
0
  6
ByLayer
 62
  256
370
   -1
100
AcDbPolyline
 90
    4
 70
    1
 43
0
 10
63.9122
 20
-65.14954999999999
 10
82.96219999999997
 20
-65.14954999999999
 10
82.96219999999997
 20
-46.09954999999999
 10
63.9122
 20
-46.09954999999999
  0
LINE
  5
D5
100
AcDbEntity
  8
0
  6
ByLayer
 62
  256
370
   -1
100
AcDbLine
 10
63.9122
 20
-46.09954999999999
 11
82.96219999999997
 21
-65.14954999999999
  0
LINE
  5
D6
100
AcDbEntity
  8
0
  6
ByLayer
 62
  256
370
   -1
100
AcDbLine
 10
82.96219999999997
 20
-46.09954999999999
 11
63.9122
 21
-65.14954999999999
  0
LWPOLYLINE
  5
D7
100
AcDbEntity
  8
0
  6
ByLayer
 62
  256
370
   -1
100
AcDbPolyline
 90
    4
 70
    1
 43
0
 10
82.97200509999514
 20
-65.15039209080184
 10
101.3728920908019
 20
-70.08089490000485
 10
106.3033949000049
 20
-51.68000790919811
 10
87.90250790919816
 20
-46.7495050999951
  0
LINE
  5
D8
100
AcDbEntity
  8
0
  6
ByLayer
 62
  256
370
   -1
100
AcDbLine
 10
87.90250790919816
 20
-46.7495050999951
 11
101.3728920908019
 21
-70.08089490000485
  0
LINE
  5
D9
100
AcDbEntity
  8
0
  6
ByLayer
 62
  256
370
   -1
100
AcDbLine
 10
106.3033949000049
 20
-51.68000790919811
 11
82.97200509999514
 21
-65.15039209080184
  0
LWPOLYLINE
  5
DA
100
AcDbEntity
  8
0
  6
ByLayer
 62
  256
370
   -1
100
AcDbPolyline
 90
    4
 70
    1
 43
0
 10
117.8809919710467
 20
-79.61003795657018
 10
132.1684919710468
 20
-54.86336204342977
 10
115.6707080289532
 20
-45.33836204342978
 10
101.3832080289532
 20
-70.08503795657018
  0
LINE
  5
DB
100
AcDbEntity
  8
0
  6
ByLayer
 62
  256
370
   -1
100
AcDbLine
 10
101.3832080289532
 20
-70.08503795657018
 11
132.1684919710468
 21
-54.86336204342977
  0
LINE
  5
DC
100
AcDbEntity
  8
0
  6
ByLayer
 62
  256
370
   -1
100
AcDbLine
 10
115.6707080289532
 20
-45.33836204342978
 11
117.8809919710467
 21
-79.61003795657018
  0
LINE
  5
DD
100
AcDbEntity
  8
0
  6
ByLayer
 62
    0
370
   -1
100
AcDbLine
 10
253.8817204008408
 20
-38.09999999999997
 11
239.8824204008408
 21
-38.09999999999997
  0
LINE
  5
DE
100
AcDbEntity
  8
0
  6
ByLayer
 62
    0
370
   -1
100
AcDbLine
 10
239.8824204008408
 20
-38.09999999999997
 11
239.8824204008408
 21
-52.0994
  0
LINE
  5
DF
100
AcDbEntity
  8
0
  6
ByLayer
 62
    0
370
   -1
100
AcDbLine
 10
239.8824204008408
 20
-52.0994
 11
253.8817204008408
 21
-52.0994
  0
LINE
  5
E0
100
AcDbEntity
  8
0
  6
ByLayer
 62
    0
370
   -1
100
AcDbLine
 10
253.8817204008408
 20
-52.0994
 11
253.8817204008408
 21
-38.09999999999997
  0
LINE
  5
E1
100
AcDbEntity
  8
0
  6
ByLayer
 62
    0
370
   -1
100
AcDbLine
 10
272.9317704008408
 20
-38.09999999999997
 11
258.9322204008408
 21
-38.09999999999997
  0
LINE
  5
E2
100
AcDbEntity
  8
0
  6
ByLayer
 62
    0
370
   -1
100
AcDbLine
 10
258.9322204008408
 20
-38.09999999999997
 11
258.9322204008408
 21
-52.0994
  0
LINE
  5
E3
100
AcDbEntity
  8
0
  6
ByLayer
 62
    0
370
   -1
100
AcDbLine
 10
258.9322204008408
 20
-52.0994
 11
272.9317704008408
 21
-52.0994
  0
LINE
  5
E4
100
AcDbEntity
  8
0
  6
ByLayer
 62
    0
370
   -1
100
AcDbLine
 10
272.9317704008408
 20
-52.0994
 11
272.9317704008408
 21
-38.09999999999997
  0
LINE
  5
E5
100
AcDbEntity
  8
0
  6
ByLayer
 62
    0
370
   -1
100
AcDbLine
 10
177.6817204008408
 20
-29.52709999999997
 11
163.6824204008408
 21
-29.52709999999997
  0
LINE
  5
E6
100
AcDbEntity
  8
0
  6
ByLayer
 62
    0
370
   -1
100
AcDbLine
 10
163.6824204008408
 20
-29.52709999999997
 11
163.6824204008408
 21
-43.52679999999997
  0
LINE
  5
E7
100
AcDbEntity
  8
0
  6
ByLayer
 62
    0
370
   -1
100
AcDbLine
 10
163.6824204008408
 20
-43.52679999999997
 11
177.6817204008408
 21
-43.52679999999997
  0
LINE
  5
E8
100
AcDbEntity
  8
0
  6
ByLayer
 62
    0
370
   -1
100
AcDbLine
 10
177.6817204008408
 20
-43.52679999999997
 11
177.6817204008408
 21
-29.52709999999997
  0
LINE
  5
E9
100
AcDbEntity
  8
0
  6
ByLayer
 62
    0
370
   -1
100
AcDbLine
 10
196.7317204008408
 20
-28.57499999999997
 11
182.7324204008408
 21
-28.57499999999997
  0
LINE
  5
EA
100
AcDbEntity
  8
0
  6
ByLayer
 62
    0
370
   -1
100
AcDbLine
 10
182.7324204008408
 20
-28.57499999999997
 11
182.7324204008408
 21
-42.57429999999998
  0
LINE
  5
EB
100
AcDbEntity
  8
0
  6
ByLayer
 62
    0
370
   -1
100
AcDbLine
 10
182.7324204008408
 20
-42.57429999999998
 11
196.7317204008408
 21
-42.57429999999998
  0
LINE
  5
EC
100
AcDbEntity
  8
0
  6
ByLayer
 62
    0
370
   -1
100
AcDbLine
 10
196.7317204008408
 20
-42.57429999999998
 11
196.7317204008408
 21
-28.57499999999997
  0
LINE
  5
ED
100
AcDbEntity
  8
0
  6
ByLayer
 62
    0
370
   -1
100
AcDbLine
 10
234.8317204008408
 20
-28.57499999999997
 11
220.8324204008408
 21
-28.57499999999997
  0
LINE
  5
EE
100
AcDbEntity
  8
0
  6
ByLayer
 62
    0
370
   -1
100
AcDbLine
 10
220.8324204008408
 20
-28.57499999999997
 11
220.8324204008408
 21
-42.57429999999998
  0
LINE
  5
EF
100
AcDbEntity
  8
0
  6
ByLayer
 62
    0
370
   -1
100
AcDbLine
 10
220.8324204008408
 20
-42.57429999999998
 11
234.8317204008408
 21
-42.57429999999998
  0
LINE
  5
F0
100
AcDbEntity
  8
0
  6
ByLayer
 62
    0
370
   -1
100
AcDbLine
 10
234.8317204008408
 20
-42.57429999999998
 11
234.8317204008408
 21
-28.57499999999997
  0
LINE
  5
F1
100
AcDbEntity
  8
0
  6
ByLayer
 62
    0
370
   -1
100
AcDbLine
 10
215.7817204008408
 20
-23.81249999999999
 11
201.7824204008408
 21
-23.81249999999999
  0
LINE
  5
F2
100
AcDbEntity
  8
0
  6
ByLayer
 62
    0
370
   -1
100
AcDbLine
 10
201.7824204008408
 20
-23.81249999999999
 11
201.7824204008408
 21
-37.81179999999998
  0
LINE
  5
F3
100
AcDbEntity
  8
0
  6
ByLayer
 62
    0
370
   -1
100
AcDbLine
 10
201.7824204008408
 20
-37.81179999999998
 11
215.7817204008408
 21
-37.81179999999998
  0
LINE
  5
F4
100
AcDbEntity
  8
0
  6
ByLayer
 62
    0
370
   -1
100
AcDbLine
 10
215.7817204008408
 20
-37.81179999999998
 11
215.7817204008408
 21
-23.81249999999999
  0
LINE
  5
F5
100
AcDbEntity
  8
0
  6
ByLayer
 62
    0
370
   -1
100
AcDbLine
 10
253.8817204008408
 20
-19.04999999999998
 11
239.8824204008408
 21
-19.04999999999998
  0
LINE
  5
F6
100
AcDbEntity
  8
0
  6
ByLayer
 62
    0
370
   -1
100
AcDbLine
 10
239.8824204008408
 20
-19.04999999999998
 11
239.8824204008408
 21
-33.04929999999997
  0
LINE
  5
F7
100
AcDbEntity
  8
0
  6
ByLayer
 62
    0
370
   -1
100
AcDbLine
 10
239.8824204008408
 20
-33.04929999999997
 11
253.8817204008408
 21
-33.04929999999997
  0
LINE
  5
F8
100
AcDbEntity
  8
0
  6
ByLayer
 62
    0
370
   -1
100
AcDbLine
 10
253.8817204008408
 20
-33.04929999999997
 11
253.8817204008408
 21
-19.04999999999998
  0
LINE
  5
F9
100
AcDbEntity
  8
0
  6
ByLayer
 62
    0
370
   -1
100
AcDbLine
 10
272.9317704008408
 20
-19.04999999999998
 11
258.9322204008408
 21
-19.04999999999998
  0
LINE
  5
FA
100
AcDbEntity
  8
0
  6
ByLayer
 62
    0
370
   -1
100
AcDbLine
 10
258.9322204008408
 20
-19.04999999999998
 11
258.9322204008408
 21
-33.04929999999997
  0
LINE
  5
FB
100
AcDbEntity
  8
0
  6
ByLayer
 62
    0
370
   -1
100
AcDbLine
 10
258.9322204008408
 20
-33.04929999999997
 11
272.9317704008408
 21
-33.04929999999997
  0
LINE
  5
FC
100
AcDbEntity
  8
0
  6
ByLayer
 62
    0
370
   -1
100
AcDbLine
 10
272.9317704008408
 20
-33.04929999999997
 11
272.9317704008408
 21
-19.04999999999998
  0
LINE
  5
FD
100
AcDbEntity
  8
0
  6
ByLayer
 62
    0
370
   -1
100
AcDbLine
 10
177.6817204008408
 20
-10.47709999999998
 11
163.6824204008408
 21
-10.47709999999998
  0
LINE
  5
FE
100
AcDbEntity
  8
0
  6
ByLayer
 62
    0
370
   -1
100
AcDbLine
 10
163.6824204008408
 20
-10.47709999999998
 11
163.6824204008408
 21
-24.47679999999998
  0
LINE
  5
FF
100
AcDbEntity
  8
0
  6
ByLayer
 62
    0
370
   -1
100
AcDbLine
 10
163.6824204008408
 20
-24.47679999999998
 11
177.6817204008408
 21
-24.47679999999998
  0
LINE
  5
100
100
AcDbEntity
  8
0
  6
ByLayer
 62
    0
370
   -1
100
AcDbLine
 10
177.6817204008408
 20
-24.47679999999998
 11
177.6817204008408
 21
-10.47709999999998
  0
LINE
  5
101
100
AcDbEntity
  8
0
  6
ByLayer
 62
    0
370
   -1
100
AcDbLine
 10
196.7317204008408
 20
-9.52499999999997
 11
182.7324204008408
 21
-9.52499999999997
  0
LINE
  5
102
100
AcDbEntity
  8
0
  6
ByLayer
 62
    0
370
   -1
100
AcDbLine
 10
182.7324204008408
 20
-9.52499999999997
 11
182.7324204008408
 21
-23.52429999999998
  0
LINE
  5
103
100
AcDbEntity
  8
0
  6
ByLayer
 62
    0
370
   -1
100
AcDbLine
 10
182.7324204008408
 20
-23.52429999999998
 11
196.7317204008408
 21
-23.52429999999998
  0
LINE
  5
104
100
AcDbEntity
  8
0
  6
ByLayer
 62
    0
370
   -1
100
AcDbLine
 10
196.7317204008408
 20
-23.52429999999998
 11
196.7317204008408
 21
-9.52499999999997
  0
LINE
  5
105
100
AcDbEntity
  8
0
  6
ByLayer
 62
    0
370
   -1
100
AcDbLine
 10
234.8317204008408
 20
-9.52499999999997
 11
220.8324204008408
 21
-9.52499999999997
  0
LINE
  5
106
100
AcDbEntity
  8
0
  6
ByLayer
 62
    0
370
   -1
100
AcDbLine
 10
220.8324204008408
 20
-9.52499999999997
 11
220.8324204008408
 21
-23.52429999999998
  0
LINE
  5
107
100
AcDbEntity
  8
0
  6
ByLayer
 62
    0
370
   -1
100
AcDbLine
 10
220.8324204008408
 20
-23.52429999999998
 11
234.8317204008408
 21
-23.52429999999998
  0
LINE
  5
108
100
AcDbEntity
  8
0
  6
ByLayer
 62
    0
370
   -1
100
AcDbLine
 10
234.8317204008408
 20
-23.52429999999998
 11
234.8317204008408
 21
-9.52499999999997
  0
LINE
  5
109
100
AcDbEntity
  8
0
  6
ByLayer
 62
    0
370
   -1
100
AcDbLine
 10
215.7817204008408
 20
-4.762499999999982
 11
201.7824204008408
 21
-4.762499999999982
  0
LINE
  5
10A
100
AcDbEntity
  8
0
  6
ByLayer
 62
    0
370
   -1
100
AcDbLine
 10
201.7824204008408
 20
-4.762499999999982
 11
201.7824204008408
 21
-18.76179999999998
  0
LINE
  5
10B
100
AcDbEntity
  8
0
  6
ByLayer
 62
    0
370
   -1
100
AcDbLine
 10
201.7824204008408
 20
-18.76179999999998
 11
215.7817204008408
 21
-18.76179999999998
  0
LINE
  5
10C
100
AcDbEntity
  8
0
  6
ByLayer
 62
    0
370
   -1
100
AcDbLine
 10
215.7817204008408
 20
-18.76179999999998
 11
215.7817204008408
 21
-4.762499999999982
  0
LINE
  5
10D
100
AcDbEntity
  8
0
  6
ByLayer
 62
    0
370
   -1
100
AcDbLine
 10
253.8817204008408
 20
1.421085471520201e-014
 11
239.8824204008408
 21
1.421085471520201e-014
  0
LINE
  5
10E
100
AcDbEntity
  8
0
  6
ByLayer
 62
    0
370
   -1
100
AcDbLine
 10
239.8824204008408
 20
1.421085471520201e-014
 11
239.8824204008408
 21
-13.99929999999998
  0
LINE
  5
10F
100
AcDbEntity
  8
0
  6
ByLayer
 62
    0
370
   -1
100
AcDbLine
 10
239.8824204008408
 20
-13.99929999999998
 11
253.8817204008408
 21
-13.99929999999998
  0
LINE
  5
110
100
AcDbEntity
  8
0
  6
ByLayer
 62
    0
370
   -1
100
AcDbLine
 10
253.8817204008408
 20
-13.99929999999998
 11
253.8817204008408
 21
1.421085471520201e-014
  0
LINE
  5
111
100
AcDbEntity
  8
0
  6
ByLayer
 62
    0
370
   -1
100
AcDbLine
 10
272.9317704008408
 20
1.421085471520201e-014
 11
258.9322204008408
 21
1.421085471520201e-014
  0
LINE
  5
112
100
AcDbEntity
  8
0
  6
ByLayer
 62
    0
370
   -1
100
AcDbLine
 10
258.9322204008408
 20
1.421085471520201e-014
 11
258.9322204008408
 21
-13.99929999999998
  0
LINE
  5
113
100
AcDbEntity
  8
0
  6
ByLayer
 62
    0
370
   -1
100
AcDbLine
 10
258.9322204008408
 20
-13.99929999999998
 11
272.9317704008408
 21
-13.99929999999998
  0
LINE
  5
114
100
AcDbEntity
  8
0
  6
ByLayer
 62
    0
370
   -1
100
AcDbLine
 10
272.9317704008408
 20
-13.99929999999998
 11
272.9317704008408
 21
1.421085471520201e-014
  0
LINE
  5
115
100
AcDbEntity
  8
0
  6
ByLayer
 62
    0
370
   -1
100
AcDbLine
 10
177.6817204008408
 20
8.572900000000022
 11
163.6824204008408
 21
8.572900000000022
  0
LINE
  5
116
100
AcDbEntity
  8
0
  6
ByLayer
 62
    0
370
   -1
100
AcDbLine
 10
163.6824204008408
 20
8.572900000000022
 11
163.6824204008408
 21
-5.426799999999979
  0
LINE
  5
117
100
AcDbEntity
  8
0
  6
ByLayer
 62
    0
370
   -1
100
AcDbLine
 10
163.6824204008408
 20
-5.426799999999979
 11
177.6817204008408
 21
-5.426799999999979
  0
LINE
  5
118
100
AcDbEntity
  8
0
  6
ByLayer
 62
    0
370
   -1
100
AcDbLine
 10
177.6817204008408
 20
-5.426799999999979
 11
177.6817204008408
 21
8.572900000000022
  0
LINE
  5
119
100
AcDbEntity
  8
0
  6
ByLayer
 62
    0
370
   -1
100
AcDbLine
 10
196.7317204008408
 20
9.52500000000002
 11
182.7324204008408
 21
9.52500000000002
  0
LINE
  5
11A
100
AcDbEntity
  8
0
  6
ByLayer
 62
    0
370
   -1
100
AcDbLine
 10
182.7324204008408
 20
9.52500000000002
 11
182.7324204008408
 21
-4.474299999999978
  0
LINE
  5
11B
100
AcDbEntity
  8
0
  6
ByLayer
 62
    0
370
   -1
100
AcDbLine
 10
182.7324204008408
 20
-4.474299999999978
 11
196.7317204008408
 21
-4.474299999999978
  0
LINE
  5
11C
100
AcDbEntity
  8
0
  6
ByLayer
 62
    0
370
   -1
100
AcDbLine
 10
196.7317204008408
 20
-4.474299999999978
 11
196.7317204008408
 21
9.52500000000002
  0
LINE
  5
11D
100
AcDbEntity
  8
0
  6
ByLayer
 62
    0
370
   -1
100
AcDbLine
 10
234.8317204008408
 20
9.52500000000002
 11
220.8324204008408
 21
9.52500000000002
  0
LINE
  5
11E
100
AcDbEntity
  8
0
  6
ByLayer
 62
    0
370
   -1
100
AcDbLine
 10
220.8324204008408
 20
9.52500000000002
 11
220.8324204008408
 21
-4.474299999999978
  0
LINE
  5
11F
100
AcDbEntity
  8
0
  6
ByLayer
 62
    0
370
   -1
100
AcDbLine
 10
220.8324204008408
 20
-4.474299999999978
 11
234.8317204008408
 21
-4.474299999999978
  0
LINE
  5
120
100
AcDbEntity
  8
0
  6
ByLayer
 62
    0
370
   -1
100
AcDbLine
 10
234.8317204008408
 20
-4.474299999999978
 11
234.8317204008408
 21
9.52500000000002
  0
LINE
  5
121
100
AcDbEntity
  8
0
  6
ByLayer
 62
    0
370
   -1
100
AcDbLine
 10
215.7817204008408
 20
14.28750000000002
 11
201.7824204008408
 21
14.28750000000002
  0
LINE
  5
122
100
AcDbEntity
  8
0
  6
ByLayer
 62
    0
370
   -1
100
AcDbLine
 10
201.7824204008408
 20
14.28750000000002
 11
201.7824204008408
 21
0.2882000000000175
  0
LINE
  5
123
100
AcDbEntity
  8
0
  6
ByLayer
 62
    0
370
   -1
100
AcDbLine
 10
201.7824204008408
 20
0.2882000000000175
 11
215.7817204008408
 21
0.2882000000000175
  0
LINE
  5
124
100
AcDbEntity
  8
0
  6
ByLayer
 62
    0
370
   -1
100
AcDbLine
 10
215.7817204008408
 20
0.2882000000000175
 11
215.7817204008408
 21
14.28750000000002
  0
LINE
  5
125
100
AcDbEntity
  8
0
  6
ByLayer
 62
  256
370
   -1
100
AcDbLine
 10
272.9317704008408
 20
7.105427357601002e-015
 11
258.9322204008408
 21
-13.99929999999998
  0
LINE
  5
126
100
AcDbEntity
  8
0
  6
ByLayer
 62
  256
370
   -1
100
AcDbLine
 10
258.9322204008408
 20
-13.99929999999998
 11
258.9322204008408
 21
7.105427357601002e-015
  0
LINE
  5
127
100
AcDbEntity
  8
0
  6
ByLayer
 62
  256
370
   -1
100
AcDbLine
 10
258.9322204008408
 20
7.105427357601002e-015
 11
272.9317704008408
 21
-13.99929999999998
  0
LWPOLYLINE
  5
128
100
AcDbEntity
  8
0
  6
ByLayer
 62
  256
370
   -1
100
AcDbPolyline
 90
    4
 70
    1
 43
0
 10
275.4569954008408
 20
-16.52464999999998
 10
256.4069954008409
 20
-16.52464999999998
 10
256.4069954008409
 20
2.525350000000003
 10
275.4569954008408
 20
2.525350000000003
  0
LINE
  5
129
100
AcDbEntity
  8
0
  6
ByLayer
 62
  256
370
   -1
100
AcDbLine
 10
275.4569954008408
 20
2.525350000000003
 11
256.4069954008409
 21
-16.52464999999998
  0
LINE
  5
12A
100
AcDbEntity
  8
0
  6
ByLayer
 62
  256
370
   -1
100
AcDbLine
 10
256.4069954008409
 20
2.525350000000003
 11
275.4569954008408
 21
-16.52464999999998
  0
LWPOLYLINE
  5
12B
100
AcDbEntity
  8
0
  6
ByLayer
 62
  256
370
   -1
100
AcDbPolyline
 90
    4
 70
    1
 43
0
 10
275.4571204008408
 20
-35.57464999999998
 10
256.4071204008409
 20
-35.57464999999998
 10
256.4071204008409
 20
-16.52464999999998
 10
275.4571204008408
 20
-16.52464999999998
  0
LINE
  5
12C
100
AcDbEntity
  8
0
  6
ByLayer
 62
  256
370
   -1
100
AcDbLine
 10
275.4571204008408
 20
-16.52464999999998
 11
256.4071204008409
 21
-35.57464999999998
  0
LINE
  5
12D
100
AcDbEntity
  8
0
  6
ByLayer
 62
  256
370
   -1
100
AcDbLine
 10
256.4071204008409
 20
-16.52464999999998
 11
275.4571204008408
 21
-35.57464999999998
  0
LWPOLYLINE
  5
12E
100
AcDbEntity
  8
0
  6
ByLayer
 62
  256
370
   -1
100
AcDbPolyline
 90
    4
 70
    1
 43
0
 10
275.4571204008408
 20
-54.62464999999997
 10
256.4071204008409
 20
-54.62464999999997
 10
256.4071204008409
 20
-35.57464999999998
 10
275.4571204008408
 20
-35.57464999999998
  0
LINE
  5
12F
100
AcDbEntity
  8
0
  6
ByLayer
 62
  256
370
   -1
100
AcDbLine
 10
275.4571204008408
 20
-35.57464999999998
 11
256.4071204008409
 21
-54.62464999999997
  0
LINE
  5
130
100
AcDbEntity
  8
0
  6
ByLayer
 62
  256
370
   -1
100
AcDbLine
 10
256.4071204008409
 20
-35.57464999999998
 11
275.4571204008408
 21
-54.62464999999997
  0
LWPOLYLINE
  5
131
100
AcDbEntity
  8
0
  6
ByLayer
 62
  256
370
   -1
100
AcDbPolyline
 90
    4
 70
    1
 43
0
 10
256.4070704008408
 20
-16.52464999999998
 10
237.3570704008409
 20
-16.52464999999998
 10
237.3570704008409
 20
2.525350000000003
 10
256.4070704008408
 20
2.525350000000003
  0
LINE
  5
132
100
AcDbEntity
  8
0
  6
ByLayer
 62
  256
370
   -1
100
AcDbLine
 10
256.4070704008408
 20
2.525350000000003
 11
237.3570704008409
 21
-16.52464999999998
  0
LINE
  5
133
100
AcDbEntity
  8
0
  6
ByLayer
 62
  256
370
   -1
100
AcDbLine
 10
237.3570704008409
 20
2.525350000000003
 11
256.4070704008408
 21
-16.52464999999998
  0
LWPOLYLINE
  5
134
100
AcDbEntity
  8
0
  6
ByLayer
 62
  256
370
   -1
100
AcDbPolyline
 90
    4
 70
    1
 43
0
 10
237.3570704008408
 20
-26.04964999999997
 10
218.3070704008408
 20
-26.04964999999997
 10
218.3070704008408
 20
-6.999649999999981
 10
237.3570704008408
 20
-6.999649999999981
  0
LINE
  5
135
100
AcDbEntity
  8
0
  6
ByLayer
 62
  256
370
   -1
100
AcDbLine
 10
237.3570704008408
 20
-6.999649999999981
 11
218.3070704008408
 21
-26.04964999999997
  0
LINE
  5
136
100
AcDbEntity
  8
0
  6
ByLayer
 62
  256
370
   -1
100
AcDbLine
 10
218.3070704008408
 20
-6.999649999999981
 11
237.3570704008408
 21
-26.04964999999997
  0
LWPOLYLINE
  5
137
100
AcDbEntity
  8
0
  6
ByLayer
 62
  256
370
   -1
100
AcDbPolyline
 90
    4
 70
    1
 43
0
 10
180.2070704008408
 20
-46.05174999999998
 10
161.1570704008408
 20
-46.05174999999998
 10
161.1570704008408
 20
-27.00174999999998
 10
180.2070704008408
 20
-27.00174999999998
  0
LINE
  5
138
100
AcDbEntity
  8
0
  6
ByLayer
 62
  256
370
   -1
100
AcDbLine
 10
180.2070704008408
 20
-27.00174999999998
 11
161.1570704008408
 21
-46.05174999999998
  0
LINE
  5
139
100
AcDbEntity
  8
0
  6
ByLayer
 62
  256
370
   -1
100
AcDbLine
 10
161.1570704008408
 20
-27.00174999999998
 11
180.2070704008408
 21
-46.05174999999998
  0
LWPOLYLINE
  5
13A
100
AcDbEntity
  8
0
  6
ByLayer
 62
  256
370
   -1
100
AcDbPolyline
 90
    4
 70
    1
 43
0
 10
199.2570704008408
 20
-45.09964999999998
 10
180.2070704008408
 20
-45.09964999999998
 10
180.2070704008408
 20
-26.04964999999997
 10
199.2570704008408
 20
-26.04964999999997
  0
LINE
  5
13B
100
AcDbEntity
  8
0
  6
ByLayer
 62
  256
370
   -1
100
AcDbLine
 10
199.2570704008408
 20
-26.04964999999997
 11
180.2070704008408
 21
-45.09964999999998
  0
LINE
  5
13C
100
AcDbEntity
  8
0
  6
ByLayer
 62
  256
370
   -1
100
AcDbLine
 10
180.2070704008408
 20
-26.04964999999997
 11
199.2570704008408
 21
-45.09964999999998
  0
LINE
  5
13D
100
AcDbEntity
  8
0
  6
ByLayer
 62
    0
370
   -1
100
AcDbLine
 10
165.7184204008408
 20
-65.03589999999997
 11
153.5944204008408
 21
-72.03639999999996
  0
LINE
  5
13E
100
AcDbEntity
  8
0
  6
ByLayer
 62
    0
370
   -1
100
AcDbLine
 10
153.5944204008408
 20
-72.03639999999996
 11
146.5934204008408
 21
-59.91239999999996
  0
LINE
  5
13F
100
AcDbEntity
  8
0
  6
ByLayer
 62
    0
370
   -1
100
AcDbLine
 10
146.5934204008408
 20
-59.91239999999996
 11
158.7174204008408
 21
-52.91199999999998
  0
LINE
  5
140
100
AcDbEntity
  8
0
  6
ByLayer
 62
    0
370
   -1
100
AcDbLine
 10
158.7174204008408
 20
-52.91199999999998
 11
165.7184204008408
 21
-65.03589999999997
  0
LINE
  5
141
100
AcDbEntity
  8
0
  6
ByLayer
 62
    0
370
   -1
100
AcDbLine
 10
186.8667204008408
 20
-63.36579999999996
 11
173.3444204008408
 21
-66.98859999999996
  0
LINE
  5
142
100
AcDbEntity
  8
0
  6
ByLayer
 62
    0
370
   -1
100
AcDbLine
 10
173.3444204008408
 20
-66.98859999999996
 11
169.7214204008408
 21
-53.46459999999998
  0
LINE
  5
143
100
AcDbEntity
  8
0
  6
ByLayer
 62
    0
370
   -1
100
AcDbLine
 10
169.7214204008408
 20
-53.46459999999998
 11
183.2440204008408
 21
-49.84169999999997
  0
LINE
  5
144
100
AcDbEntity
  8
0
  6
ByLayer
 62
    0
370
   -1
100
AcDbLine
 10
183.2440204008408
 20
-49.84169999999997
 11
186.8667204008408
 21
-63.36579999999996
  0
LINE
  5
145
100
AcDbEntity
  8
0
  6
ByLayer
 62
    0
370
   -1
100
AcDbLine
 10
206.4942204008408
 20
-48.62489999999996
 11
192.4949204008408
 21
-48.62489999999996
  0
LINE
  5
146
100
AcDbEntity
  8
0
  6
ByLayer
 62
    0
370
   -1
100
AcDbLine
 10
192.4949204008408
 20
-48.62489999999996
 11
192.4949204008408
 21
-62.62439999999999
  0
LINE
  5
147
100
AcDbEntity
  8
0
  6
ByLayer
 62
    0
370
   -1
100
AcDbLine
 10
192.4949204008408
 20
-62.62439999999999
 11
206.4942204008408
 21
-62.62439999999999
  0
LINE
  5
148
100
AcDbEntity
  8
0
  6
ByLayer
 62
    0
370
   -1
100
AcDbLine
 10
206.4942204008408
 20
-62.62439999999999
 11
206.4942204008408
 21
-48.62489999999996
  0
LINE
  5
149
100
AcDbEntity
  8
0
  6
ByLayer
 62
    0
370
   -1
100
AcDbLine
 10
225.5442204008408
 20
-48.62489999999996
 11
211.5449204008408
 21
-48.62489999999996
  0
LINE
  5
14A
100
AcDbEntity
  8
0
  6
ByLayer
 62
    0
370
   -1
100
AcDbLine
 10
211.5449204008408
 20
-48.62489999999996
 11
211.5449204008408
 21
-62.62439999999999
  0
LINE
  5
14B
100
AcDbEntity
  8
0
  6
ByLayer
 62
    0
370
   -1
100
AcDbLine
 10
211.5449204008408
 20
-62.62439999999999
 11
225.5442204008408
 21
-62.62439999999999
  0
LINE
  5
14C
100
AcDbEntity
  8
0
  6
ByLayer
 62
    0
370
   -1
100
AcDbLine
 10
225.5442204008408
 20
-62.62439999999999
 11
225.5442204008408
 21
-48.62489999999996
  0
LINE
  5
14D
100
AcDbEntity
  8
0
  6
ByLayer
 62
  256
370
   -1
100
AcDbLine
 10
158.7174204008408
 20
-52.91199999999998
 11
153.5944204008408
 21
-72.03639999999996
  0
LINE
  5
14E
100
AcDbEntity
  8
0
  6
ByLayer
 62
  256
370
   -1
100
AcDbLine
 10
153.5944204008408
 20
-72.03639999999996
 11
165.7184204008408
 21
-65.03589999999997
  0
LINE
  5
14F
100
AcDbEntity
  8
0
  6
ByLayer
 62
  256
370
   -1
100
AcDbLine
 10
165.7184204008408
 20
-65.03589999999997
 11
146.5934204008408
 21
-59.91239999999996
  0
LINE
  5
150
100
AcDbEntity
  8
0
  6
ByLayer
 62
  256
370
   -1
100
AcDbLine
 10
183.2440204008408
 20
-49.84169999999997
 11
173.3444204008408
 21
-66.98859999999996
  0
LINE
  5
151
100
AcDbEntity
  8
0
  6
ByLayer
 62
  256
370
   -1
100
AcDbLine
 10
173.3444204008408
 20
-66.98859999999996
 11
169.7214204008408
 21
-53.46459999999998
  0
LINE
  5
152
100
AcDbEntity
  8
0
  6
ByLayer
 62
  256
370
   -1
100
AcDbLine
 10
169.7214204008408
 20
-53.46459999999998
 11
186.8667204008408
 21
-63.36579999999996
  0
LWPOLYLINE
  5
153
100
AcDbEntity
  8
0
  6
ByLayer
 62
  256
370
   -1
100
AcDbPolyline
 90
    4
 70
    1
 43
0
 10
209.0195704008408
 20
-65.14954999999998
 10
189.9695704008409
 20
-65.14954999999998
 10
189.9695704008409
 20
-46.09954999999998
 10
209.0195704008408
 20
-46.09954999999998
  0
LINE
  5
154
100
AcDbEntity
  8
0
  6
ByLayer
 62
  256
370
   -1
100
AcDbLine
 10
209.0195704008408
 20
-46.09954999999998
 11
189.9695704008409
 21
-65.14954999999998
  0
LINE
  5
155
100
AcDbEntity
  8
0
  6
ByLayer
 62
  256
370
   -1
100
AcDbLine
 10
189.9695704008409
 20
-46.09954999999998
 11
209.0195704008408
 21
-65.14954999999998
  0
LWPOLYLINE
  5
156
100
AcDbEntity
  8
0
  6
ByLayer
 62
  256
370
   -1
100
AcDbPolyline
 90
    4
 70
    1
 43
0
 10
189.9597653008457
 20
-65.15039209080183
 10
171.5588783100389
 20
-70.08089490000486
 10
166.6283755008359
 20
-51.68000790919809
 10
185.0292624916427
 20
-46.74950509999509
  0
LINE
  5
157
100
AcDbEntity
  8
0
  6
ByLayer
 62
  256
370
   -1
100
AcDbLine
 10
185.0292624916427
 20
-46.74950509999509
 11
171.5588783100389
 21
-70.08089490000486
  0
LINE
  5
158
100
AcDbEntity
  8
0
  6
ByLayer
 62
  256
370
   -1
100
AcDbLine
 10
166.6283755008359
 20
-51.68000790919809
 11
189.9597653008457
 21
-65.15039209080183
  0
LWPOLYLINE
  5
159
100
AcDbEntity
  8
0
  6
ByLayer
 62
  256
370
   -1
100
AcDbPolyline
 90
    4
 70
    1
 43
0
 10
155.0507784297941
 20
-79.61003795657018
 10
140.763278429794
 20
-54.86336204342976
 10
157.2610623718876
 20
-45.33836204342979
 10
171.5485623718876
 20
-70.08503795657015
  0
LINE
  5
15A
100
AcDbEntity
  8
0
  6
ByLayer
 62
  256
370
   -1
100
AcDbLine
 10
171.5485623718876
 20
-70.08503795657015
 11
140.763278429794
 21
-54.86336204342976
  0
LINE
  5
15B
100
AcDbEntity
  8
0
  6
ByLayer
 62
  256
370
   -1
100
AcDbLine
 10
157.2610623718876
 20
-45.33836204342979
 11
155.0507784297941
 21
-79.61003795657018
  0
LINE
  5
15C
100
AcDbEntity
  8
ref
  6
DASHED
 62
  256
370
   -1
100
AcDbLine
 10
136.4657602004204
 20
-170.6650020452488
 11
136.4657602004204
 21
-284.9650020452488
  0
LINE
  5
15D
100
AcDbEntity
  8
ref
  6
ByLayer
 62
  256
370
   -1
100
AcDbLine
 10
136.4657602004204
 20
-182.060776634013
 11
109.249225
 21
-181.9271000000001
  0
LINE
  5
15E
100
AcDbEntity
  8
tilted
  6
ByLayer
 62
    0
370
   -1
100
AcDbLine
 10
27.26009140705939
 20
-203.7980394369042
 11
40.78237682702795
 21
-207.4213248950079
  0
LINE
  5
15F
100
AcDbEntity
  8
tilted
  6
ByLayer
 62
    0
370
   -1
100
AcDbLine
 10
40.78237682702795
 20
-207.4213248950079
 11
37.15906548701972
 21
-220.9437069075591
  0
LINE
  5
160
100
AcDbEntity
  8
tilted
  6
ByLayer
 62
    0
370
   -1
100
AcDbLine
 10
37.15906548701972
 20
-220.9437069075591
 11
23.63678006705116
 21
-217.3204214494554
  0
LINE
  5
161
100
AcDbEntity
  8
tilted
  6
ByLayer
 62
    0
370
   -1
100
AcDbLine
 10
23.63678006705116
 20
-217.3204214494554
 11
27.26009140705939
 21
-203.7980394369042
  0
LINE
  5
162
100
AcDbEntity
  8
tilted
  6
ByLayer
 62
    0
370
   -1
100
AcDbLine
 10
8.859156119961328
 20
-198.8675236867489
 11
22.38168302138645
 21
-202.4908738496139
  0
LINE
  5
163
100
AcDbEntity
  8
tilted
  6
ByLayer
 62
    0
370
   -1
100
AcDbLine
 10
22.38168302138645
 20
-202.4908738496139
 11
18.75837168137822
 21
-216.0132558621651
  0
LINE
  5
164
100
AcDbEntity
  8
tilted
  6
ByLayer
 62
    0
370
   -1
100
AcDbLine
 10
18.75837168137822
 20
-216.0132558621651
 11
5.235844779953096
 21
-212.3899056993001
  0
LINE
  5
165
100
AcDbEntity
  8
tilted
  6
ByLayer
 62
    0
370
   -1
100
AcDbLine
 10
5.235844779953096
 20
-212.3899056993001
 11
8.859156119961328
 21
-198.8675236867489
  0
LINE
  5
166
100
AcDbEntity
  8
tilted
  6
ByLayer
 62
    0
370
   -1
100
AcDbLine
 10
103.0824691620458
 20
-215.2392651575227
 11
116.6047545820144
 21
-218.8625506156264
  0
LINE
  5
167
100
AcDbEntity
  8
tilted
  6
ByLayer
 62
    0
370
   -1
100
AcDbLine
 10
116.6047545820144
 20
-218.8625506156264
 11
112.9813655962926
 21
-232.3852224059255
  0
LINE
  5
168
100
AcDbEntity
  8
tilted
  6
ByLayer
 62
    0
370
   -1
100
AcDbLine
 10
112.9813655962926
 20
-232.3852224059255
 11
99.45908017632402
 21
-228.7619369478218
  0
LINE
  5
169
100
AcDbEntity
  8
tilted
  6
ByLayer
 62
    0
370
   -1
100
AcDbLine
 10
99.45908017632402
 20
-228.7619369478218
 11
103.0824691620458
 21
-215.2392651575227
  0
LINE
  5
16A
100
AcDbEntity
  8
tilted
  6
ByLayer
 62
    0
370
   -1
100
AcDbLine
 10
84.92800378408116
 20
-209.3891043691099
 11
98.45028920404972
 21
-213.0123898272136
  0
LINE
  5
16B
100
AcDbEntity
  8
tilted
  6
ByLayer
 62
    0
370
   -1
100
AcDbLine
 10
98.45028920404972
 20
-213.0123898272136
 11
94.827003745946
 21
-226.5346752471822
  0
LINE
  5
16C
100
AcDbEntity
  8
tilted
  6
ByLayer
 62
    0
370
   -1
100
AcDbLine
 10
94.827003745946
 20
-226.5346752471822
 11
81.30471832597745
 21
-222.9113897890784
  0
LINE
  5
16D
100
AcDbEntity
  8
tilted
  6
ByLayer
 62
    0
370
   -1
100
AcDbLine
 10
81.30471832597745
 20
-222.9113897890784
 11
84.92800378408116
 21
-209.3891043691099
  0
LINE
  5
16E
100
AcDbEntity
  8
tilted
  6
ByLayer
 62
    0
370
   -1
100
AcDbLine
 10
48.12622980246766
 20
-199.5280987507038
 11
61.64851522243621
 21
-203.1513842088075
  0
LINE
  5
16F
100
AcDbEntity
  8
tilted
  6
ByLayer
 62
    0
370
   -1
100
AcDbLine
 10
61.64851522243621
 20
-203.1513842088075
 11
58.02522976433249
 21
-216.6736696287761
  0
LINE
  5
170
100
AcDbEntity
  8
tilted
  6
ByLayer
 62
    0
370
   -1
100
AcDbLine
 10
58.02522976433249
 20
-216.6736696287761
 11
44.50294434436395
 21
-213.0503841706724
  0
LINE
  5
171
100
AcDbEntity
  8
tilted
  6
ByLayer
 62
    0
370
   -1
100
AcDbLine
 10
44.50294434436395
 20
-213.0503841706724
 11
48.12622980246766
 21
-199.5280987507038
  0
LINE
  5
172
100
AcDbEntity
  8
tilted
  6
ByLayer
 62
    0
370
   -1
100
AcDbLine
 10
67.75974249557517
 20
-199.8583798122052
 11
81.28202791554371
 21
-203.4816652703089
  0
LINE
  5
173
100
AcDbEntity
  8
tilted
  6
ByLayer
 62
    0
370
   -1
100
AcDbLine
 10
81.28202791554371
 20
-203.4816652703089
 11
77.65874245744
 21
-217.0039506902774
  0
LINE
  5
174
100
AcDbEntity
  8
tilted
  6
ByLayer
 62
    0
370
   -1
100
AcDbLine
 10
77.65874245744
 20
-217.0039506902774
 11
64.13645703747144
 21
-213.3806652321737
  0
LINE
  5
175
100
AcDbEntity
  8
tilted
  6
ByLayer
 62
    0
370
   -1
100
AcDbLine
 10
64.13645703747144
 20
-213.3806652321737
 11
67.75974249557517
 21
-199.8583798122052
  0
LINE
  5
176
100
AcDbEntity
  8
tilted
  6
ByLayer
 62
    0
370
   -1
100
AcDbLine
 10
32.19059421626241
 20
-185.3971524460974
 11
45.71287963623097
 21
-189.0204379042011
  0
LINE
  5
177
100
AcDbEntity
  8
tilted
  6
ByLayer
 62
    0
370
   -1
100
AcDbLine
 10
45.71287963623097
 20
-189.0204379042011
 11
42.08959417812726
 21
-202.5427233241697
  0
LINE
  5
178
100
AcDbEntity
  8
tilted
  6
ByLayer
 62
    0
370
   -1
100
AcDbLine
 10
42.08959417812726
 20
-202.5427233241697
 11
28.5673087581587
 21
-198.919437866066
  0
LINE
  5
179
100
AcDbEntity
  8
tilted
  6
ByLayer
 62
    0
370
   -1
100
AcDbLine
 10
28.5673087581587
 20
-198.919437866066
 11
32.19059421626241
 21
-185.3971524460974
  0
LINE
  5
17A
100
AcDbEntity
  8
tilted
  6
ByLayer
 62
    0
370
   -1
100
AcDbLine
 10
13.78965892916435
 20
-180.4666366959422
 11
27.31218583058948
 21
-184.0899868588072
  0
LINE
  5
17B
100
AcDbEntity
  8
tilted
  6
ByLayer
 62
    0
370
   -1
100
AcDbLine
 10
27.31218583058948
 20
-184.0899868588072
 11
23.68890037248576
 21
-197.6122722787757
  0
LINE
  5
17C
100
AcDbEntity
  8
tilted
  6
ByLayer
 62
    0
370
   -1
100
AcDbLine
 10
23.68890037248576
 20
-197.6122722787757
 11
10.16637347106063
 21
-193.9889221159107
  0
LINE
  5
17D
100
AcDbEntity
  8
tilted
  6
ByLayer
 62
    0
370
   -1
100
AcDbLine
 10
10.16637347106063
 20
-193.9889221159107
 11
13.78965892916435
 21
-180.4666366959422
  0
LINE
  5
17E
100
AcDbEntity
  8
tilted
  6
ByLayer
 62
    0
370
   -1
100
AcDbLine
 10
108.0129719712488
 20
-196.838378166716
 11
121.5352573912174
 21
-200.4616636248197
  0
LINE
  5
17F
100
AcDbEntity
  8
tilted
  6
ByLayer
 62
    0
370
   -1
100
AcDbLine
 10
121.5352573912174
 20
-200.4616636248197
 11
117.9118684054956
 21
-213.9843354151187
  0
LINE
  5
180
100
AcDbEntity
  8
tilted
  6
ByLayer
 62
    0
370
   -1
100
AcDbLine
 10
117.9118684054956
 20
-213.9843354151187
 11
104.389582985527
 21
-210.361049957015
  0
LINE
  5
181
100
AcDbEntity
  8
tilted
  6
ByLayer
 62
    0
370
   -1
100
AcDbLine
 10
104.389582985527
 20
-210.361049957015
 11
108.0129719712488
 21
-196.838378166716
  0
LINE
  5
182
100
AcDbEntity
  8
tilted
  6
ByLayer
 62
    0
370
   -1
100
AcDbLine
 10
89.85850659328418
 20
-190.9882173783031
 11
103.3807920132527
 21
-194.6115028364069
  0
LINE
  5
183
100
AcDbEntity
  8
tilted
  6
ByLayer
 62
    0
370
   -1
100
AcDbLine
 10
103.3807920132527
 20
-194.6115028364069
 11
99.75750655514902
 21
-208.1337882563754
  0
LINE
  5
184
100
AcDbEntity
  8
tilted
  6
ByLayer
 62
    0
370
   -1
100
AcDbLine
 10
99.75750655514902
 20
-208.1337882563754
 11
86.23522113518047
 21
-204.5105027982717
  0
LINE
  5
185
100
AcDbEntity
  8
tilted
  6
ByLayer
 62
    0
370
   -1
100
AcDbLine
 10
86.23522113518047
 20
-204.5105027982717
 11
89.85850659328418
 21
-190.9882173783031
  0
LINE
  5
186
100
AcDbEntity
  8
tilted
  6
ByLayer
 62
    0
370
   -1
100
AcDbLine
 10
53.05673261167068
 20
-181.1272117598971
 11
66.57901803163924
 21
-184.7504972180008
  0
LINE
  5
187
100
AcDbEntity
  8
tilted
  6
ByLayer
 62
    0
370
   -1
100
AcDbLine
 10
66.57901803163924
 20
-184.7504972180008
 11
62.95573257353551
 21
-198.2727826379694
  0
LINE
  5
188
100
AcDbEntity
  8
tilted
  6
ByLayer
 62
    0
370
   -1
100
AcDbLine
 10
62.95573257353551
 20
-198.2727826379694
 11
49.43344715356697
 21
-194.6494971798656
  0
LINE
  5
189
100
AcDbEntity
  8
tilted
  6
ByLayer
 62
    0
370
   -1
100
AcDbLine
 10
49.43344715356697
 20
-194.6494971798656
 11
53.05673261167068
 21
-181.1272117598971
  0
LINE
  5
18A
100
AcDbEntity
  8
tilted
  6
ByLayer
 62
    0
370
   -1
100
AcDbLine
 10
72.69024530477819
 20
-181.4574928213984
 11
86.21253072474673
 21
-185.0807782795022
  0
LINE
  5
18B
100
AcDbEntity
  8
tilted
  6
ByLayer
 62
    0
370
   -1
100
AcDbLine
 10
86.21253072474673
 20
-185.0807782795022
 11
82.58924526664302
 21
-198.6030636994707
  0
LINE
  5
18C
100
AcDbEntity
  8
tilted
  6
ByLayer
 62
    0
370
   -1
100
AcDbLine
 10
82.58924526664302
 20
-198.6030636994707
 11
69.06695984667448
 21
-194.979778241367
  0
LINE
  5
18D
100
AcDbEntity
  8
tilted
  6
ByLayer
 62
    0
370
   -1
100
AcDbLine
 10
69.06695984667448
 20
-194.979778241367
 11
72.69024530477819
 21
-181.4574928213984
  0
LINE
  5
18E
100
AcDbEntity
  8
tilted
  6
ByLayer
 62
    0
370
   -1
100
AcDbLine
 10
37.12109702546543
 20
-166.9962654552907
 11
50.64338244543399
 21
-170.6195509133944
  0
LINE
  5
18F
100
AcDbEntity
  8
tilted
  6
ByLayer
 62
    0
370
   -1
100
AcDbLine
 10
50.64338244543399
 20
-170.6195509133944
 11
47.02009698733027
 21
-184.141836333363
  0
LINE
  5
190
100
AcDbEntity
  8
tilted
  6
ByLayer
 62
    0
370
   -1
100
AcDbLine
 10
47.02009698733027
 20
-184.141836333363
 11
33.49781156736171
 21
-180.5185508752593
  0
LINE
  5
191
100
AcDbEntity
  8
tilted
  6
ByLayer
 62
    0
370
   -1
100
AcDbLine
 10
33.49781156736171
 20
-180.5185508752593
 11
37.12109702546543
 21
-166.9962654552907
  0
LINE
  5
192
100
AcDbEntity
  8
tilted
  6
ByLayer
 62
    0
370
   -1
100
AcDbLine
 10
18.72016173836737
 20
-162.0657497051354
 11
32.24268863979249
 21
-165.6890998680004
  0
LINE
  5
193
100
AcDbEntity
  8
tilted
  6
ByLayer
 62
    0
370
   -1
100
AcDbLine
 10
32.24268863979249
 20
-165.6890998680004
 11
28.61940318168877
 21
-179.211385287969
  0
LINE
  5
194
100
AcDbEntity
  8
tilted
  6
ByLayer
 62
    0
370
   -1
100
AcDbLine
 10
28.61940318168877
 20
-179.211385287969
 11
15.09687628026365
 21
-175.588035125104
  0
LINE
  5
195
100
AcDbEntity
  8
tilted
  6
ByLayer
 62
    0
370
   -1
100
AcDbLine
 10
15.09687628026365
 20
-175.588035125104
 11
18.72016173836737
 21
-162.0657497051354
  0
LINE
  5
196
100
AcDbEntity
  8
tilted
  6
ByLayer
 62
    0
370
   -1
100
AcDbLine
 10
112.9434747804518
 20
-178.4374911759092
 11
126.4657602004204
 21
-182.0607766340129
  0
LINE
  5
197
100
AcDbEntity
  8
tilted
  6
ByLayer
 62
    0
370
   -1
100
AcDbLine
 10
126.4657602004204
 20
-182.0607766340129
 11
122.8423712146986
 21
-195.583448424312
  0
LINE
  5
198
100
AcDbEntity
  8
tilted
  6
ByLayer
 62
    0
370
   -1
100
AcDbLine
 10
122.8423712146986
 20
-195.583448424312
 11
109.3200857947301
 21
-191.9601629662083
  0
LINE
  5
199
100
AcDbEntity
  8
tilted
  6
ByLayer
 62
    0
370
   -1
100
AcDbLine
 10
109.3200857947301
 20
-191.9601629662083
 11
112.9434747804518
 21
-178.4374911759092
  0
LINE
  5
19A
100
AcDbEntity
  8
tilted
  6
ByLayer
 62
    0
370
   -1
100
AcDbLine
 10
94.7890094024872
 20
-172.5873303874964
 11
108.3112948224558
 21
-176.2106158456001
  0
LINE
  5
19B
100
AcDbEntity
  8
tilted
  6
ByLayer
 62
    0
370
   -1
100
AcDbLine
 10
108.3112948224558
 20
-176.2106158456001
 11
104.688009364352
 21
-189.7329012655686
  0
LINE
  5
19C
100
AcDbEntity
  8
tilted
  6
ByLayer
 62
    0
370
   -1
100
AcDbLine
 10
104.688009364352
 20
-189.7329012655686
 11
91.16572394438349
 21
-186.1096158074649
  0
LINE
  5
19D
100
AcDbEntity
  8
tilted
  6
ByLayer
 62
    0
370
   -1
100
AcDbLine
 10
91.16572394438349
 20
-186.1096158074649
 11
94.7890094024872
 21
-172.5873303874964
  0
LINE
  5
19E
100
AcDbEntity
  8
tilted
  6
ByLayer
 62
    0
370
   -1
100
AcDbLine
 10
57.9872354208737
 20
-162.7263247690903
 11
71.50952084084224
 21
-166.3496102271941
  0
LINE
  5
19F
100
AcDbEntity
  8
tilted
  6
ByLayer
 62
    0
370
   -1
100
AcDbLine
 10
71.50952084084224
 20
-166.3496102271941
 11
67.88623538273853
 21
-179.8718956471626
  0
LINE
  5
1A0
100
AcDbEntity
  8
tilted
  6
ByLayer
 62
    0
370
   -1
100
AcDbLine
 10
67.88623538273853
 20
-179.8718956471626
 11
54.36394996276999
 21
-176.2486101890589
  0
LINE
  5
1A1
100
AcDbEntity
  8
tilted
  6
ByLayer
 62
    0
370
   -1
100
AcDbLine
 10
54.36394996276999
 20
-176.2486101890589
 11
57.9872354208737
 21
-162.7263247690903
  0
LINE
  5
1A2
100
AcDbEntity
  8
tilted
  6
ByLayer
 62
    0
370
   -1
100
AcDbLine
 10
77.62074811398121
 20
-163.0566058305917
 11
91.14303353394975
 21
-166.6798912886954
  0
LINE
  5
1A3
100
AcDbEntity
  8
tilted
  6
ByLayer
 62
    0
370
   -1
100
AcDbLine
 10
91.14303353394975
 20
-166.6798912886954
 11
87.51974807584604
 21
-180.2021767086639
  0
LINE
  5
1A4
100
AcDbEntity
  8
tilted
  6
ByLayer
 62
    0
370
   -1
100
AcDbLine
 10
87.51974807584604
 20
-180.2021767086639
 11
73.99746265587748
 21
-176.5788912505602
  0
LINE
  5
1A5
100
AcDbEntity
  8
tilted
  6
ByLayer
 62
    0
370
   -1
100
AcDbLine
 10
73.99746265587748
 20
-176.5788912505602
 11
77.62074811398121
 21
-163.0566058305917
  0
LINE
  5
1A6
100
AcDbEntity
  8
tilted
  6
ByLayer
 62
  256
370
   -1
100
AcDbLine
 10
18.72016173836736
 20
-162.0657497051355
 11
28.61940318168877
 21
-179.211385287969
  0
LINE
  5
1A7
100
AcDbEntity
  8
tilted
  6
ByLayer
 62
  256
370
   -1
100
AcDbLine
 10
28.61940318168877
 20
-179.211385287969
 11
32.24268863979248
 21
-165.6890998680005
  0
LINE
  5
1A8
100
AcDbEntity
  8
tilted
  6
ByLayer
 62
  256
370
   -1
100
AcDbLine
 10
32.24268863979248
 20
-165.6890998680005
 11
15.09687628026365
 21
-175.588035125104
  0
LWPOLYLINE
  5
1A9
100
AcDbEntity
  8
tilted
  6
ByLayer
 62
  256
370
   -1
100
AcDbPolyline
 90
    4
 70
    1
 43
0
 10
12.0040875600232
 20
-177.3737595873541
 10
30.40497455082991
 20
-182.3042623965571
 10
35.33547736003293
 20
-163.9033754057504
 10
16.93459036922622
 20
-158.9728725965473
  0
LINE
  5
1AA
100
AcDbEntity
  8
tilted
  6
ByLayer
 62
  256
370
   -1
100
AcDbLine
 10
16.93459036922622
 20
-158.9728725965473
 11
30.40497455082991
 21
-182.3042623965571
  0
LINE
  5
1AB
100
AcDbEntity
  8
tilted
  6
ByLayer
 62
  256
370
   -1
100
AcDbLine
 10
35.33547736003293
 20
-163.9033754057504
 11
12.0040875600232
 21
-177.3737595873541
  0
LWPOLYLINE
  5
1AC
100
AcDbEntity
  8
tilted
  6
ByLayer
 62
  256
370
   -1
100
AcDbPolyline
 90
    4
 70
    1
 43
0
 10
7.073464010091897
 20
-195.7746142257802
 10
25.4743510008986
 20
-200.7051170349832
 10
30.40485381010162
 20
-182.3042300441764
 10
12.00396681929491
 20
-177.3737272349734
  0
LINE
  5
1AD
100
AcDbEntity
  8
tilted
  6
ByLayer
 62
  256
370
   -1
100
AcDbLine
 10
12.00396681929491
 20
-177.3737272349734
 11
25.4743510008986
 21
-200.7051170349832
  0
LINE
  5
1AE
100
AcDbEntity
  8
tilted
  6
ByLayer
 62
  256
370
   -1
100
AcDbLine
 10
30.40485381010162
 20
-182.3042300441764
 11
7.073464010091897
 21
-195.7746142257802
  0
LWPOLYLINE
  5
1AF
100
AcDbEntity
  8
tilted
  6
ByLayer
 62
  256
370
   -1
100
AcDbPolyline
 90
    4
 70
    1
 43
0
 10
2.142961200888873
 20
-214.1755012165869
 10
20.54384819169558
 20
-219.1060040257899
 10
25.4743510008986
 20
-200.7051170349832
 10
7.073464010091897
 20
-195.7746142257802
  0
LINE
  5
1B0
100
AcDbEntity
  8
tilted
  6
ByLayer
 62
  256
370
   -1
100
AcDbLine
 10
7.073464010091897
 20
-195.7746142257802
 11
20.54384819169558
 21
-219.1060040257899
  0
LINE
  5
1B1
100
AcDbEntity
  8
tilted
  6
ByLayer
 62
  256
370
   -1
100
AcDbLine
 10
25.4743510008986
 20
-200.7051170349832
 11
2.142961200888873
 21
-214.1755012165869
  0
LWPOLYLINE
  5
1B2
100
AcDbEntity
  8
tilted
  6
ByLayer
 62
  256
370
   -1
100
AcDbPolyline
 90
    4
 70
    1
 43
0
 10
30.40490210639298
 20
-182.3042429851287
 10
48.80578909719969
 20
-187.2347457943317
 10
53.73629190640271
 20
-168.833858803525
 10
35.335404915596
 20
-163.903355994322
  0
LINE
  5
1B3
100
AcDbEntity
  8
tilted
  6
ByLayer
 62
  256
370
   -1
100
AcDbLine
 10
35.335404915596
 20
-163.903355994322
 11
48.80578909719969
 21
-187.2347457943317
  0
LINE
  5
1B4
100
AcDbEntity
  8
tilted
  6
ByLayer
 62
  256
370
   -1
100
AcDbLine
 10
53.73629190640271
 20
-168.833858803525
 11
30.40490210639298
 21
-182.3042429851287
  0
LWPOLYLINE
  5
1B5
100
AcDbEntity
  8
tilted
  6
ByLayer
 62
  256
370
   -1
100
AcDbPolyline
 90
    4
 70
    1
 43
0
 10
46.34053769259822
 20
-196.4351892897351
 10
64.74142468340494
 20
-201.3656920989381
 10
69.67192749260796
 20
-182.9648051081314
 10
51.27104050180125
 20
-178.0343022989283
  0
LINE
  5
1B6
100
AcDbEntity
  8
tilted
  6
ByLayer
 62
  256
370
   -1
100
AcDbLine
 10
51.27104050180125
 20
-178.0343022989283
 11
64.74142468340494
 21
-201.3656920989381
  0
LINE
  5
1B7
100
AcDbEntity
  8
tilted
  6
ByLayer
 62
  256
370
   -1
100
AcDbLine
 10
69.67192749260796
 20
-182.9648051081314
 11
46.34053769259822
 21
-196.4351892897351
  0
LWPOLYLINE
  5
1B8
100
AcDbEntity
  8
tilted
  6
ByLayer
 62
  256
370
   -1
100
AcDbPolyline
 90
    4
 70
    1
 43
0
 10
96.36627424297333
 20
-230.5472426873607
 10
114.7671612337801
 20
-235.4777454965638
 10
119.6976640429831
 20
-217.076858505757
 10
101.2967770521763
 20
-212.146355696554
  0
LINE
  5
1B9
100
AcDbEntity
  8
tilted
  6
ByLayer
 62
  256
370
   -1
100
AcDbLine
 10
101.2967770521763
 20
-212.146355696554
 11
114.7671612337801
 21
-235.4777454965638
  0
LINE
  5
1BA
100
AcDbEntity
  8
tilted
  6
ByLayer
 62
  256
370
   -1
100
AcDbLine
 10
119.6976640429831
 20
-217.076858505757
 11
96.36627424297333
 21
-230.5472426873607
  0
LWPOLYLINE
  5
1BB
100
AcDbEntity
  8
tilted
  6
ByLayer
 62
  256
370
   -1
100
AcDbPolyline
 90
    4
 70
    1
 43
0
 10
78.21180886500871
 20
-224.6970818989479
 10
96.61269585581542
 20
-229.6275847081509
 10
101.5431986650184
 20
-211.2266977173442
 10
83.14231167421171
 20
-206.2961949081412
  0
LINE
  5
1BC
100
AcDbEntity
  8
tilted
  6
ByLayer
 62
  256
370
   -1
100
AcDbLine
 10
83.14231167421171
 20
-206.2961949081412
 11
96.61269585581542
 21
-229.6275847081509
  0
LINE
  5
1BD
100
AcDbEntity
  8
tilted
  6
ByLayer
 62
  256
370
   -1
100
AcDbLine
 10
101.5431986650184
 20
-211.2266977173442
 11
78.21180886500871
 21
-224.6970818989479
  0
LINE
  5
1BE
100
AcDbEntity
  8
tilted
  6
ByLayer
 62
    0
370
   -1
100
AcDbLine
 10
105.4477758909534
 20
-252.634462020331
 11
115.3467978836419
 21
-262.5343478700905
  0
LINE
  5
1BF
100
AcDbEntity
  8
tilted
  6
ByLayer
 62
    0
370
   -1
100
AcDbLine
 10
115.3467978836419
 20
-262.5343478700905
 11
125.2471666963146
 21
-252.6354552869246
  0
LINE
  5
1C0
100
AcDbEntity
  8
tilted
  6
ByLayer
 62
    0
370
   -1
100
AcDbLine
 10
125.2471666963146
 20
-252.6354552869246
 11
115.3481188217216
 21
-242.7356660297477
  0
LINE
  5
1C1
100
AcDbEntity
  8
tilted
  6
ByLayer
 62
    0
370
   -1
100
AcDbLine
 10
115.3481188217216
 20
-242.7356660297477
 11
105.4477758909534
 21
-252.634462020331
  0
LINE
  5
1C2
100
AcDbEntity
  8
tilted
  6
ByLayer
 62
    0
370
   -1
100
AcDbLine
 10
85.45234042607005
 20
-245.547686486304
 11
97.5762295903013
 21
-252.5468713433738
  0
LINE
  5
1C3
100
AcDbEntity
  8
tilted
  6
ByLayer
 62
    0
370
   -1
100
AcDbLine
 10
97.5762295903013
 20
-252.5468713433738
 11
104.5760476249131
 21
-240.4213918690469
  0
LINE
  5
1C4
100
AcDbEntity
  8
tilted
  6
ByLayer
 62
    0
370
   -1
100
AcDbLine
 10
104.5760476249131
 20
-240.4213918690469
 11
92.45189456483844
 21
-233.4220327736809
  0
LINE
  5
1C5
100
AcDbEntity
  8
tilted
  6
ByLayer
 62
    0
370
   -1
100
AcDbLine
 10
92.45189456483844
 20
-233.4220327736809
 11
85.45234042607005
 21
-245.547686486304
  0
LINE
  5
1C6
100
AcDbEntity
  8
tilted
  6
ByLayer
 62
    0
370
   -1
100
AcDbLine
 10
70.30885693253308
 20
-226.2290996658097
 11
83.83114235250164
 21
-229.8523851239134
  0
LINE
  5
1C7
100
AcDbEntity
  8
tilted
  6
ByLayer
 62
    0
370
   -1
100
AcDbLine
 10
83.83114235250164
 20
-229.8523851239134
 11
80.20780513058889
 21
-243.3748637290473
  0
LINE
  5
1C8
100
AcDbEntity
  8
tilted
  6
ByLayer
 62
    0
370
   -1
100
AcDbLine
 10
80.20780513058889
 20
-243.3748637290473
 11
66.68551971062034
 21
-239.7515782709435
  0
LINE
  5
1C9
100
AcDbEntity
  8
tilted
  6
ByLayer
 62
    0
370
   -1
100
AcDbLine
 10
66.68551971062034
 20
-239.7515782709435
 11
70.30885693253308
 21
-226.2290996658097
  0
LINE
  5
1CA
100
AcDbEntity
  8
tilted
  6
ByLayer
 62
    0
370
   -1
100
AcDbLine
 10
51.90796994172635
 20
-221.2985968566067
 11
65.43025536169492
 21
-224.9218823147104
  0
LINE
  5
1CB
100
AcDbEntity
  8
tilted
  6
ByLayer
 62
    0
370
   -1
100
AcDbLine
 10
65.43025536169492
 20
-224.9218823147104
 11
61.80691813978216
 21
-238.4443609198442
  0
LINE
  5
1CC
100
AcDbEntity
  8
tilted
  6
ByLayer
 62
    0
370
   -1
100
AcDbLine
 10
61.80691813978216
 20
-238.4443609198442
 11
48.28463271981361
 21
-234.8210754617405
  0
LINE
  5
1CD
100
AcDbEntity
  8
tilted
  6
ByLayer
 62
    0
370
   -1
100
AcDbLine
 10
48.28463271981361
 20
-234.8210754617405
 11
51.90796994172635
 21
-221.2985968566067
  0
LINE
  5
1CE
100
AcDbEntity
  8
tilted
  6
ByLayer
 62
  256
370
   -1
100
AcDbLine
 10
115.3481188217216
 20
-242.7356660297477
 11
115.3467978836419
 21
-262.5343478700905
  0
LINE
  5
1CF
100
AcDbEntity
  8
tilted
  6
ByLayer
 62
  256
370
   -1
100
AcDbLine
 10
115.3467978836419
 20
-262.5343478700905
 11
105.4477758909534
 21
-252.634462020331
  0
LINE
  5
1D0
100
AcDbEntity
  8
tilted
  6
ByLayer
 62
  256
370
   -1
100
AcDbLine
 10
105.4477758909534
 20
-252.634462020331
 11
125.2471666963146
 21
-252.6354552869246
  0
LINE
  5
1D1
100
AcDbEntity
  8
tilted
  6
ByLayer
 62
  256
370
   -1
100
AcDbLine
 10
92.45189456483844
 20
-233.4220327736809
 11
97.5762295903013
 21
-252.5468713433738
  0
LINE
  5
1D2
100
AcDbEntity
  8
tilted
  6
ByLayer
 62
  256
370
   -1
100
AcDbLine
 10
97.5762295903013
 20
-252.5468713433738
 11
104.5760476249131
 21
-240.4213918690469
  0
LINE
  5
1D3
100
AcDbEntity
  8
tilted
  6
ByLayer
 62
  256
370
   -1
100
AcDbLine
 10
104.5760476249131
 20
-240.4213918690469
 11
85.45234042607005
 21
-245.547686486304
  0
LWPOLYLINE
  5
1D4
100
AcDbEntity
  8
tilted
  6
ByLayer
 62
  256
370
   -1
100
AcDbPolyline
 90
    4
 70
    1
 43
0
 10
63.59266201346063
 20
-241.5370771956477
 10
81.99354900426735
 20
-246.4675800048507
 10
86.92405181347037
 20
-228.066693014044
 10
68.52316482266365
 20
-223.136190204841
  0
LINE
  5
1D5
100
AcDbEntity
  8
tilted
  6
ByLayer
 62
  256
370
   -1
100
AcDbLine
 10
68.52316482266365
 20
-223.136190204841
 11
81.99354900426735
 21
-246.4675800048507
  0
LINE
  5
1D6
100
AcDbEntity
  8
tilted
  6
ByLayer
 62
  256
370
   -1
100
AcDbLine
 10
86.92405181347037
 20
-228.066693014044
 11
63.59266201346063
 21
-241.5370771956477
  0
LWPOLYLINE
  5
1D7
100
AcDbEntity
  8
tilted
  6
ByLayer
 62
  256
370
   -1
100
AcDbPolyline
 90
    4
 70
    1
 43
0
 10
82.00280205444481
 20
-246.4709311487222
 10
98.50058599653838
 20
-255.9959311487222
 10
108.0255859965384
 20
-239.4981472066286
 10
91.52780205444481
 20
-229.9731472066287
  0
LINE
  5
1D8
100
AcDbEntity
  8
tilted
  6
ByLayer
 62
  256
370
   -1
100
AcDbLine
 10
91.52780205444481
 20
-229.9731472066287
 11
98.50058599653838
 21
-255.9959311487222
  0
LINE
  5
1D9
100
AcDbEntity
  8
tilted
  6
ByLayer
 62
  256
370
   -1
100
AcDbLine
 10
108.0255859965384
 20
-239.4981472066286
 11
82.00280205444481
 21
-246.4709311487222
  0
LWPOLYLINE
  5
1DA
100
AcDbEntity
  8
tilted
  6
ByLayer
 62
  256
370
   -1
100
AcDbPolyline
 90
    4
 70
    1
 43
0
 10
111.9798623072807
 20
-269.4729871769238
 10
132.1854385796864
 20
-249.2674109045182
 10
118.7150543980827
 20
-235.7970267229144
 10
98.50947812567708
 20
-256.0026029953201
  0
LINE
  5
1DB
100
AcDbEntity
  8
tilted
  6
ByLayer
 62
  256
370
   -1
100
AcDbLine
 10
98.50947812567708
 20
-256.0026029953201
 11
132.1854385796864
 21
-249.2674109045182
  0
LINE
  5
1DC
100
AcDbEntity
  8
tilted
  6
ByLayer
 62
  256
370
   -1
100
AcDbLine
 10
118.7150543980827
 20
-235.7970267229144
 11
111.9798623072807
 21
-269.4729871769238
  0
LINE
  5
1DD
100
AcDbEntity
  8
tilted
  6
ByLayer
 62
    0
370
   -1
100
AcDbLine
 10
245.6714289937814
 20
-203.7980394369042
 11
232.1491435738129
 21
-207.421324895008
  0
LINE
  5
1DE
100
AcDbEntity
  8
tilted
  6
ByLayer
 62
    0
370
   -1
100
AcDbLine
 10
232.1491435738129
 20
-207.421324895008
 11
235.7724549138211
 21
-220.9437069075591
  0
LINE
  5
1DF
100
AcDbEntity
  8
tilted
  6
ByLayer
 62
    0
370
   -1
100
AcDbLine
 10
235.7724549138211
 20
-220.9437069075591
 11
249.2947403337896
 21
-217.3204214494554
  0
LINE
  5
1E0
100
AcDbEntity
  8
tilted
  6
ByLayer
 62
    0
370
   -1
100
AcDbLine
 10
249.2947403337896
 20
-217.3204214494554
 11
245.6714289937814
 21
-203.7980394369042
  0
LINE
  5
1E1
100
AcDbEntity
  8
tilted
  6
ByLayer
 62
    0
370
   -1
100
AcDbLine
 10
264.0723642808795
 20
-198.8675236867489
 11
250.5498373794544
 21
-202.4908738496139
  0
LINE
  5
1E2
100
AcDbEntity
  8
tilted
  6
ByLayer
 62
    0
370
   -1
100
AcDbLine
 10
250.5498373794544
 20
-202.4908738496139
 11
254.1731487194626
 21
-216.0132558621651
  0
LINE
  5
1E3
100
AcDbEntity
  8
tilted
  6
ByLayer
 62
    0
370
   -1
100
AcDbLine
 10
254.1731487194626
 20
-216.0132558621651
 11
267.6956756208878
 21
-212.3899056993001
  0
LINE
  5
1E4
100
AcDbEntity
  8
tilted
  6
ByLayer
 62
    0
370
   -1
100
AcDbLine
 10
267.6956756208878
 20
-212.3899056993001
 11
264.0723642808795
 21
-198.8675236867489
  0
LINE
  5
1E5
100
AcDbEntity
  8
tilted
  6
ByLayer
 62
    0
370
   -1
100
AcDbLine
 10
169.849051238795
 20
-215.2392651575227
 11
156.3267658188265
 21
-218.8625506156265
  0
LINE
  5
1E6
100
AcDbEntity
  8
tilted
  6
ByLayer
 62
    0
370
   -1
100
AcDbLine
 10
156.3267658188265
 20
-218.8625506156265
 11
159.9501548045482
 21
-232.3852224059255
  0
LINE
  5
1E7
100
AcDbEntity
  8
tilted
  6
ByLayer
 62
    0
370
   -1
100
AcDbLine
 10
159.9501548045482
 20
-232.3852224059255
 11
173.4724402245168
 21
-228.7619369478218
  0
LINE
  5
1E8
100
AcDbEntity
  8
tilted
  6
ByLayer
 62
    0
370
   -1
100
AcDbLine
 10
173.4724402245168
 20
-228.7619369478218
 11
169.849051238795
 21
-215.2392651575227
  0
LINE
  5
1E9
100
AcDbEntity
  8
tilted
  6
ByLayer
 62
    0
370
   -1
100
AcDbLine
 10
188.0035166167596
 20
-209.3891043691099
 11
174.4812311967911
 21
-213.0123898272136
  0
LINE
  5
1EA
100
AcDbEntity
  8
tilted
  6
ByLayer
 62
    0
370
   -1
100
AcDbLine
 10
174.4812311967911
 20
-213.0123898272136
 11
178.1045166548948
 21
-226.5346752471822
  0
LINE
  5
1EB
100
AcDbEntity
  8
tilted
  6
ByLayer
 62
    0
370
   -1
100
AcDbLine
 10
178.1045166548948
 20
-226.5346752471822
 11
191.6268020748633
 21
-222.9113897890785
  0
LINE
  5
1EC
100
AcDbEntity
  8
tilted
  6
ByLayer
 62
    0
370
   -1
100
AcDbLine
 10
191.6268020748633
 20
-222.9113897890785
 11
188.0035166167596
 21
-209.3891043691099
  0
LINE
  5
1ED
100
AcDbEntity
  8
tilted
  6
ByLayer
 62
    0
370
   -1
100
AcDbLine
 10
224.8052905983731
 20
-199.5280987507039
 11
211.2830051784046
 21
-203.1513842088076
  0
LINE
  5
1EE
100
AcDbEntity
  8
tilted
  6
ByLayer
 62
    0
370
   -1
100
AcDbLine
 10
211.2830051784046
 20
-203.1513842088076
 11
214.9062906365083
 21
-216.6736696287761
  0
LINE
  5
1EF
100
AcDbEntity
  8
tilted
  6
ByLayer
 62
    0
370
   -1
100
AcDbLine
 10
214.9062906365083
 20
-216.6736696287761
 11
228.4285760564769
 21
-213.0503841706724
  0
LINE
  5
1F0
100
AcDbEntity
  8
tilted
  6
ByLayer
 62
    0
370
   -1
100
AcDbLine
 10
228.4285760564769
 20
-213.0503841706724
 11
224.8052905983731
 21
-199.5280987507039
  0
LINE
  5
1F1
100
AcDbEntity
  8
tilted
  6
ByLayer
 62
    0
370
   -1
100
AcDbLine
 10
205.1717779052657
 20
-199.8583798122052
 11
191.6494924852971
 21
-203.4816652703089
  0
LINE
  5
1F2
100
AcDbEntity
  8
tilted
  6
ByLayer
 62
    0
370
   -1
100
AcDbLine
 10
191.6494924852971
 20
-203.4816652703089
 11
195.2727779434008
 21
-217.0039506902775
  0
LINE
  5
1F3
100
AcDbEntity
  8
tilted
  6
ByLayer
 62
    0
370
   -1
100
AcDbLine
 10
195.2727779434008
 20
-217.0039506902775
 11
208.7950633633694
 21
-213.3806652321738
  0
LINE
  5
1F4
100
AcDbEntity
  8
tilted
  6
ByLayer
 62
    0
370
   -1
100
AcDbLine
 10
208.7950633633694
 20
-213.3806652321738
 11
205.1717779052657
 21
-199.8583798122052
  0
LINE
  5
1F5
100
AcDbEntity
  8
tilted
  6
ByLayer
 62
    0
370
   -1
100
AcDbLine
 10
240.7409261845784
 20
-185.3971524460975
 11
227.2186407646098
 21
-189.0204379042012
  0
LINE
  5
1F6
100
AcDbEntity
  8
tilted
  6
ByLayer
 62
    0
370
   -1
100
AcDbLine
 10
227.2186407646098
 20
-189.0204379042012
 11
230.8419262227135
 21
-202.5427233241697
  0
LINE
  5
1F7
100
AcDbEntity
  8
tilted
  6
ByLayer
 62
    0
370
   -1
100
AcDbLine
 10
230.8419262227135
 20
-202.5427233241697
 11
244.3642116426821
 21
-198.919437866066
  0
LINE
  5
1F8
100
AcDbEntity
  8
tilted
  6
ByLayer
 62
    0
370
   -1
100
AcDbLine
 10
244.3642116426821
 20
-198.919437866066
 11
240.7409261845784
 21
-185.3971524460975
  0
LINE
  5
1F9
100
AcDbEntity
  8
tilted
  6
ByLayer
 62
    0
370
   -1
100
AcDbLine
 10
259.1418614716764
 20
-180.4666366959422
 11
245.6193345702513
 21
-184.0899868588072
  0
LINE
  5
1FA
100
AcDbEntity
  8
tilted
  6
ByLayer
 62
    0
370
   -1
100
AcDbLine
 10
245.6193345702513
 20
-184.0899868588072
 11
249.2426200283551
 21
-197.6122722787757
  0
LINE
  5
1FB
100
AcDbEntity
  8
tilted
  6
ByLayer
 62
    0
370
   -1
100
AcDbLine
 10
249.2426200283551
 20
-197.6122722787757
 11
262.7651469297801
 21
-193.9889221159108
  0
LINE
  5
1FC
100
AcDbEntity
  8
tilted
  6
ByLayer
 62
    0
370
   -1
100
AcDbLine
 10
262.7651469297801
 20
-193.9889221159108
 11
259.1418614716764
 21
-180.4666366959422
  0
LINE
  5
1FD
100
AcDbEntity
  8
tilted
  6
ByLayer
 62
    0
370
   -1
100
AcDbLine
 10
164.918548429592
 20
-196.838378166716
 11
151.3962630096235
 21
-200.4616636248197
  0
LINE
  5
1FE
100
AcDbEntity
  8
tilted
  6
ByLayer
 62
    0
370
   -1
100
AcDbLine
 10
151.3962630096235
 20
-200.4616636248197
 11
155.0196519953452
 21
-213.9843354151188
  0
LINE
  5
1FF
100
AcDbEntity
  8
tilted
  6
ByLayer
 62
    0
370
   -1
100
AcDbLine
 10
155.0196519953452
 20
-213.9843354151188
 11
168.5419374153138
 21
-210.3610499570151
  0
LINE
  5
200
100
AcDbEntity
  8
tilted
  6
ByLayer
 62
    0
370
   -1
100
AcDbLine
 10
168.5419374153138
 20
-210.3610499570151
 11
164.918548429592
 21
-196.838378166716
  0
LINE
  5
201
100
AcDbEntity
  8
tilted
  6
ByLayer
 62
    0
370
   -1
100
AcDbLine
 10
183.0730138075566
 20
-190.9882173783031
 11
169.5507283875881
 21
-194.6115028364069
  0
LINE
  5
202
100
AcDbEntity
  8
tilted
  6
ByLayer
 62
    0
370
   -1
100
AcDbLine
 10
169.5507283875881
 20
-194.6115028364069
 11
173.1740138456918
 21
-208.1337882563754
  0
LINE
  5
203
100
AcDbEntity
  8
tilted
  6
ByLayer
 62
    0
370
   -1
100
AcDbLine
 10
173.1740138456918
 20
-208.1337882563754
 11
186.6962992656603
 21
-204.5105027982717
  0
LINE
  5
204
100
AcDbEntity
  8
tilted
  6
ByLayer
 62
    0
370
   -1
100
AcDbLine
 10
186.6962992656603
 20
-204.5105027982717
 11
183.0730138075566
 21
-190.9882173783031
  0
LINE
  5
205
100
AcDbEntity
  8
tilted
  6
ByLayer
 62
    0
370
   -1
100
AcDbLine
 10
219.8747877891701
 20
-181.1272117598971
 11
206.3525023692015
 21
-184.7504972180008
  0
LINE
  5
206
100
AcDbEntity
  8
tilted
  6
ByLayer
 62
    0
370
   -1
100
AcDbLine
 10
206.3525023692015
 20
-184.7504972180008
 11
209.9757878273053
 21
-198.2727826379694
  0
LINE
  5
207
100
AcDbEntity
  8
tilted
  6
ByLayer
 62
    0
370
   -1
100
AcDbLine
 10
209.9757878273053
 20
-198.2727826379694
 11
223.4980732472738
 21
-194.6494971798657
  0
LINE
  5
208
100
AcDbEntity
  8
tilted
  6
ByLayer
 62
    0
370
   -1
100
AcDbLine
 10
223.4980732472738
 20
-194.6494971798657
 11
219.8747877891701
 21
-181.1272117598971
  0
LINE
  5
209
100
AcDbEntity
  8
tilted
  6
ByLayer
 62
    0
370
   -1
100
AcDbLine
 10
200.2412750960626
 20
-181.4574928213984
 11
186.7189896760941
 21
-185.0807782795022
  0
LINE
  5
20A
100
AcDbEntity
  8
tilted
  6
ByLayer
 62
    0
370
   -1
100
AcDbLine
 10
186.7189896760941
 20
-185.0807782795022
 11
190.3422751341978
 21
-198.6030636994707
  0
LINE
  5
20B
100
AcDbEntity
  8
tilted
  6
ByLayer
 62
    0
370
   -1
100
AcDbLine
 10
190.3422751341978
 20
-198.6030636994707
 11
203.8645605541664
 21
-194.979778241367
  0
LINE
  5
20C
100
AcDbEntity
  8
tilted
  6
ByLayer
 62
    0
370
   -1
100
AcDbLine
 10
203.8645605541664
 20
-194.979778241367
 11
200.2412750960626
 21
-181.4574928213984
  0
LINE
  5
20D
100
AcDbEntity
  8
tilted
  6
ByLayer
 62
    0
370
   -1
100
AcDbLine
 10
235.8104233753754
 20
-166.9962654552907
 11
222.2881379554068
 21
-170.6195509133944
  0
LINE
  5
20E
100
AcDbEntity
  8
tilted
  6
ByLayer
 62
    0
370
   -1
100
AcDbLine
 10
222.2881379554068
 20
-170.6195509133944
 11
225.9114234135105
 21
-184.141836333363
  0
LINE
  5
20F
100
AcDbEntity
  8
tilted
  6
ByLayer
 62
    0
370
   -1
100
AcDbLine
 10
225.9114234135105
 20
-184.141836333363
 11
239.433708833479
 21
-180.5185508752593
  0
LINE
  5
210
100
AcDbEntity
  8
tilted
  6
ByLayer
 62
    0
370
   -1
100
AcDbLine
 10
239.433708833479
 20
-180.5185508752593
 11
235.8104233753754
 21
-166.9962654552907
  0
LINE
  5
211
100
AcDbEntity
  8
tilted
  6
ByLayer
 62
    0
370
   -1
100
AcDbLine
 10
254.2113586624735
 20
-162.0657497051355
 11
240.6888317610483
 21
-165.6890998680005
  0
LINE
  5
212
100
AcDbEntity
  8
tilted
  6
ByLayer
 62
    0
370
   -1
100
AcDbLine
 10
240.6888317610483
 20
-165.6890998680005
 11
244.312117219152
 21
-179.211385287969
  0
LINE
  5
213
100
AcDbEntity
  8
tilted
  6
ByLayer
 62
    0
370
   -1
100
AcDbLine
 10
244.312117219152
 20
-179.211385287969
 11
257.8346441205772
 21
-175.588035125104
  0
LINE
  5
214
100
AcDbEntity
  8
tilted
  6
ByLayer
 62
    0
370
   -1
100
AcDbLine
 10
257.8346441205772
 20
-175.588035125104
 11
254.2113586624735
 21
-162.0657497051355
  0
LINE
  5
215
100
AcDbEntity
  8
tilted
  6
ByLayer
 62
    0
370
   -1
100
AcDbLine
 10
159.988045620389
 20
-178.4374911759093
 11
146.4657602004204
 21
-182.060776634013
  0
LINE
  5
216
100
AcDbEntity
  8
tilted
  6
ByLayer
 62
    0
370
   -1
100
AcDbLine
 10
146.4657602004204
 20
-182.060776634013
 11
150.0891491861422
 21
-195.583448424312
  0
LINE
  5
217
100
AcDbEntity
  8
tilted
  6
ByLayer
 62
    0
370
   -1
100
AcDbLine
 10
150.0891491861422
 20
-195.583448424312
 11
163.6114346061107
 21
-191.9601629662083
  0
LINE
  5
218
100
AcDbEntity
  8
tilted
  6
ByLayer
 62
    0
370
   -1
100
AcDbLine
 10
163.6114346061107
 20
-191.9601629662083
 11
159.988045620389
 21
-178.4374911759093
  0
LINE
  5
219
100
AcDbEntity
  8
tilted
  6
ByLayer
 62
    0
370
   -1
100
AcDbLine
 10
178.1425109983536
 20
-172.5873303874964
 11
164.620225578385
 21
-176.2106158456001
  0
LINE
  5
21A
100
AcDbEntity
  8
tilted
  6
ByLayer
 62
    0
370
   -1
100
AcDbLine
 10
164.620225578385
 20
-176.2106158456001
 11
168.2435110364888
 21
-189.7329012655687
  0
LINE
  5
21B
100
AcDbEntity
  8
tilted
  6
ByLayer
 62
    0
370
   -1
100
AcDbLine
 10
168.2435110364888
 20
-189.7329012655687
 11
181.7657964564573
 21
-186.109615807465
  0
LINE
  5
21C
100
AcDbEntity
  8
tilted
  6
ByLayer
 62
    0
370
   -1
100
AcDbLine
 10
181.7657964564573
 20
-186.109615807465
 11
178.1425109983536
 21
-172.5873303874964
  0
LINE
  5
21D
100
AcDbEntity
  8
tilted
  6
ByLayer
 62
    0
370
   -1
100
AcDbLine
 10
214.9442849799671
 20
-162.7263247690904
 11
201.4219995599985
 21
-166.3496102271941
  0
LINE
  5
21E
100
AcDbEntity
  8
tilted
  6
ByLayer
 62
    0
370
   -1
100
AcDbLine
 10
201.4219995599985
 20
-166.3496102271941
 11
205.0452850181022
 21
-179.8718956471627
  0
LINE
  5
21F
100
AcDbEntity
  8
tilted
  6
ByLayer
 62
    0
370
   -1
100
AcDbLine
 10
205.0452850181022
 20
-179.8718956471627
 11
218.5675704380708
 21
-176.2486101890589
  0
LINE
  5
220
100
AcDbEntity
  8
tilted
  6
ByLayer
 62
    0
370
   -1
100
AcDbLine
 10
218.5675704380708
 20
-176.2486101890589
 11
214.9442849799671
 21
-162.7263247690904
  0
LINE
  5
221
100
AcDbEntity
  8
tilted
  6
ByLayer
 62
    0
370
   -1
100
AcDbLine
 10
195.3107722868596
 20
-163.0566058305917
 11
181.788486866891
 21
-166.6798912886954
  0
LINE
  5
222
100
AcDbEntity
  8
tilted
  6
ByLayer
 62
    0
370
   -1
100
AcDbLine
 10
181.788486866891
 20
-166.6798912886954
 11
185.4117723249948
 21
-180.202176708664
  0
LINE
  5
223
100
AcDbEntity
  8
tilted
  6
ByLayer
 62
    0
370
   -1
100
AcDbLine
 10
185.4117723249948
 20
-180.202176708664
 11
198.9340577449633
 21
-176.5788912505603
  0
LINE
  5
224
100
AcDbEntity
  8
tilted
  6
ByLayer
 62
    0
370
   -1
100
AcDbLine
 10
198.9340577449633
 20
-176.5788912505603
 11
195.3107722868596
 21
-163.0566058305917
  0
LINE
  5
225
100
AcDbEntity
  8
tilted
  6
ByLayer
 62
  256
370
   -1
100
AcDbLine
 10
254.2113586624735
 20
-162.0657497051355
 11
244.312117219152
 21
-179.211385287969
  0
LINE
  5
226
100
AcDbEntity
  8
tilted
  6
ByLayer
 62
  256
370
   -1
100
AcDbLine
 10
244.312117219152
 20
-179.211385287969
 11
240.6888317610483
 21
-165.6890998680005
  0
LINE
  5
227
100
AcDbEntity
  8
tilted
  6
ByLayer
 62
  256
370
   -1
100
AcDbLine
 10
240.6888317610483
 20
-165.6890998680005
 11
257.8346441205772
 21
-175.588035125104
  0
LWPOLYLINE
  5
228
100
AcDbEntity
  8
tilted
  6
ByLayer
 62
  256
370
   -1
100
AcDbPolyline
 90
    4
 70
    1
 43
0
 10
260.9274328408176
 20
-177.3737595873541
 10
242.5265458500108
 20
-182.3042623965571
 10
237.5960430408079
 20
-163.9033754057504
 10
255.9969300316146
 20
-158.9728725965474
  0
LINE
  5
229
100
AcDbEntity
  8
tilted
  6
ByLayer
 62
  256
370
   -1
100
AcDbLine
 10
255.9969300316146
 20
-158.9728725965474
 11
242.5265458500108
 21
-182.3042623965571
  0
LINE
  5
22A
100
AcDbEntity
  8
tilted
  6
ByLayer
 62
  256
370
   -1
100
AcDbLine
 10
237.5960430408079
 20
-163.9033754057504
 11
260.9274328408176
 21
-177.3737595873541
  0
LWPOLYLINE
  5
22B
100
AcDbEntity
  8
tilted
  6
ByLayer
 62
  256
370
   -1
100
AcDbPolyline
 90
    4
 70
    1
 43
0
 10
265.858056390749
 20
-195.7746142257802
 10
247.4571693999422
 20
-200.7051170349832
 10
242.5266665907392
 20
-182.3042300441764
 10
260.9275535815459
 20
-177.3737272349734
  0
LINE
  5
22C
100
AcDbEntity
  8
tilted
  6
ByLayer
 62
  256
370
   -1
100
AcDbLine
 10
260.9275535815459
 20
-177.3737272349734
 11
247.4571693999422
 21
-200.7051170349832
  0
LINE
  5
22D
100
AcDbEntity
  8
tilted
  6
ByLayer
 62
  256
370
   -1
100
AcDbLine
 10
242.5266665907392
 20
-182.3042300441764
 11
265.858056390749
 21
-195.7746142257802
  0
LWPOLYLINE
  5
22E
100
AcDbEntity
  8
tilted
  6
ByLayer
 62
  256
370
   -1
100
AcDbPolyline
 90
    4
 70
    1
 43
0
 10
270.7885591999519
 20
-214.1755012165869
 10
252.3876722091452
 20
-219.1060040257899
 10
247.4571693999422
 20
-200.7051170349832
 10
265.858056390749
 20
-195.7746142257802
  0
LINE
  5
22F
100
AcDbEntity
  8
tilted
  6
ByLayer
 62
  256
370
   -1
100
AcDbLine
 10
265.858056390749
 20
-195.7746142257802
 11
252.3876722091452
 21
-219.1060040257899
  0
LINE
  5
230
100
AcDbEntity
  8
tilted
  6
ByLayer
 62
  256
370
   -1
100
AcDbLine
 10
247.4571693999422
 20
-200.7051170349832
 11
270.7885591999519
 21
-214.1755012165869
  0
LWPOLYLINE
  5
231
100
AcDbEntity
  8
tilted
  6
ByLayer
 62
  256
370
   -1
100
AcDbPolyline
 90
    4
 70
    1
 43
0
 10
242.5266182944479
 20
-182.3042429851287
 10
224.1257313036411
 20
-187.2347457943317
 10
219.1952284944381
 20
-168.833858803525
 10
237.5961154852448
 20
-163.903355994322
  0
LINE
  5
232
100
AcDbEntity
  8
tilted
  6
ByLayer
 62
  256
370
   -1
100
AcDbLine
 10
237.5961154852448
 20
-163.903355994322
 11
224.1257313036411
 21
-187.2347457943317
  0
LINE
  5
233
100
AcDbEntity
  8
tilted
  6
ByLayer
 62
  256
370
   -1
100
AcDbLine
 10
219.1952284944381
 20
-168.833858803525
 11
242.5266182944479
 21
-182.3042429851287
  0
LWPOLYLINE
  5
234
100
AcDbEntity
  8
tilted
  6
ByLayer
 62
  256
370
   -1
100
AcDbPolyline
 90
    4
 70
    1
 43
0
 10
226.5909827082426
 20
-196.4351892897351
 10
208.1900957174359
 20
-201.3656920989381
 10
203.2595929082328
 20
-182.9648051081314
 10
221.6604798990396
 20
-178.0343022989284
  0
LINE
  5
235
100
AcDbEntity
  8
tilted
  6
ByLayer
 62
  256
370
   -1
100
AcDbLine
 10
221.6604798990396
 20
-178.0343022989284
 11
208.1900957174359
 21
-201.3656920989381
  0
LINE
  5
236
100
AcDbEntity
  8
tilted
  6
ByLayer
 62
  256
370
   -1
100
AcDbLine
 10
203.2595929082328
 20
-182.9648051081314
 11
226.5909827082426
 21
-196.4351892897351
  0
LWPOLYLINE
  5
237
100
AcDbEntity
  8
tilted
  6
ByLayer
 62
  256
370
   -1
100
AcDbPolyline
 90
    4
 70
    1
 43
0
 10
176.5652461578675
 20
-230.5472426873608
 10
158.1643591670607
 20
-235.4777454965638
 10
153.2338563578577
 20
-217.076858505757
 10
171.6347433486645
 20
-212.146355696554
  0
LINE
  5
238
100
AcDbEntity
  8
tilted
  6
ByLayer
 62
  256
370
   -1
100
AcDbLine
 10
171.6347433486645
 20
-212.146355696554
 11
158.1643591670607
 21
-235.4777454965638
  0
LINE
  5
239
100
AcDbEntity
  8
tilted
  6
ByLayer
 62
  256
370
   -1
100
AcDbLine
 10
153.2338563578577
 20
-217.076858505757
 11
176.5652461578675
 21
-230.5472426873608
  0
LWPOLYLINE
  5
23A
100
AcDbEntity
  8
tilted
  6
ByLayer
 62
  256
370
   -1
100
AcDbPolyline
 90
    4
 70
    1
 43
0
 10
194.7197115358321
 20
-224.6970818989479
 10
176.3188245450254
 20
-229.6275847081509
 10
171.3883217358224
 20
-211.2266977173442
 10
189.7892087266291
 20
-206.2961949081412
  0
LINE
  5
23B
100
AcDbEntity
  8
tilted
  6
ByLayer
 62
  256
370
   -1
100
AcDbLine
 10
189.7892087266291
 20
-206.2961949081412
 11
176.3188245450254
 21
-229.6275847081509
  0
LINE
  5
23C
100
AcDbEntity
  8
tilted
  6
ByLayer
 62
  256
370
   -1
100
AcDbLine
 10
171.3883217358224
 20
-211.2266977173442
 11
194.7197115358321
 21
-224.6970818989479
  0
LINE
  5
23D
100
AcDbEntity
  8
tilted
  6
ByLayer
 62
    0
370
   -1
100
AcDbLine
 10
167.4837445098874
 20
-252.634462020331
 11
157.5847225171989
 21
-262.5343478700906
  0
LINE
  5
23E
100
AcDbEntity
  8
tilted
  6
ByLayer
 62
    0
370
   -1
100
AcDbLine
 10
157.5847225171989
 20
-262.5343478700906
 11
147.6843537045262
 21
-252.6354552869246
  0
LINE
  5
23F
100
AcDbEntity
  8
tilted
  6
ByLayer
 62
    0
370
   -1
100
AcDbLine
 10
147.6843537045262
 20
-252.6354552869246
 11
157.5834015791192
 21
-242.7356660297477
  0
LINE
  5
240
100
AcDbEntity
  8
tilted
  6
ByLayer
 62
    0
370
   -1
100
AcDbLine
 10
157.5834015791192
 20
-242.7356660297477
 11
167.4837445098874
 21
-252.634462020331
  0
LINE
  5
241
100
AcDbEntity
  8
tilted
  6
ByLayer
 62
    0
370
   -1
100
AcDbLine
 10
187.4791799747707
 20
-245.547686486304
 11
175.3552908105395
 21
-252.5468713433739
  0
LINE
  5
242
100
AcDbEntity
  8
tilted
  6
ByLayer
 62
    0
370
   -1
100
AcDbLine
 10
175.3552908105395
 20
-252.5468713433739
 11
168.3554727759277
 21
-240.4213918690469
  0
LINE
  5
243
100
AcDbEntity
  8
tilted
  6
ByLayer
 62
    0
370
   -1
100
AcDbLine
 10
168.3554727759277
 20
-240.4213918690469
 11
180.4796258360024
 21
-233.4220327736809
  0
LINE
  5
244
100
AcDbEntity
  8
tilted
  6
ByLayer
 62
    0
370
   -1
100
AcDbLine
 10
180.4796258360024
 20
-233.4220327736809
 11
187.4791799747707
 21
-245.547686486304
  0
LINE
  5
245
100
AcDbEntity
  8
tilted
  6
ByLayer
 62
    0
370
   -1
100
AcDbLine
 10
202.6226634683077
 20
-226.2290996658097
 11
189.1003780483392
 21
-229.8523851239134
  0
LINE
  5
246
100
AcDbEntity
  8
tilted
  6
ByLayer
 62
    0
370
   -1
100
AcDbLine
 10
189.1003780483392
 20
-229.8523851239134
 11
192.7237152702519
 21
-243.3748637290473
  0
LINE
  5
247
100
AcDbEntity
  8
tilted
  6
ByLayer
 62
    0
370
   -1
100
AcDbLine
 10
192.7237152702519
 20
-243.3748637290473
 11
206.2460006902205
 21
-239.7515782709436
  0
LINE
  5
248
100
AcDbEntity
  8
tilted
  6
ByLayer
 62
    0
370
   -1
100
AcDbLine
 10
206.2460006902205
 20
-239.7515782709436
 11
202.6226634683077
 21
-226.2290996658097
  0
LINE
  5
249
100
AcDbEntity
  8
tilted
  6
ByLayer
 62
    0
370
   -1
100
AcDbLine
 10
221.0235504591145
 20
-221.2985968566067
 11
207.5012650391459
 21
-224.9218823147104
  0
LINE
  5
24A
100
AcDbEntity
  8
tilted
  6
ByLayer
 62
    0
370
   -1
100
AcDbLine
 10
207.5012650391459
 20
-224.9218823147104
 11
211.1246022610586
 21
-238.4443609198443
  0
LINE
  5
24B
100
AcDbEntity
  8
tilted
  6
ByLayer
 62
    0
370
   -1
100
AcDbLine
 10
211.1246022610586
 20
-238.4443609198443
 11
224.6468876810272
 21
-234.8210754617405
  0
LINE
  5
24C
100
AcDbEntity
  8
tilted
  6
ByLayer
 62
    0
370
   -1
100
AcDbLine
 10
224.6468876810272
 20
-234.8210754617405
 11
221.0235504591145
 21
-221.2985968566067
  0
LINE
  5
24D
100
AcDbEntity
  8
tilted
  6
ByLayer
 62
  256
370
   -1
100
AcDbLine
 10
157.5834015791192
 20
-242.7356660297477
 11
157.5847225171989
 21
-262.5343478700906
  0
LINE
  5
24E
100
AcDbEntity
  8
tilted
  6
ByLayer
 62
  256
370
   -1
100
AcDbLine
 10
157.5847225171989
 20
-262.5343478700906
 11
167.4837445098874
 21
-252.634462020331
  0
LINE
  5
24F
100
AcDbEntity
  8
tilted
  6
ByLayer
 62
  256
370
   -1
100
AcDbLine
 10
167.4837445098874
 20
-252.634462020331
 11
147.6843537045262
 21
-252.6354552869246
  0
LINE
  5
250
100
AcDbEntity
  8
tilted
  6
ByLayer
 62
  256
370
   -1
100
AcDbLine
 10
180.4796258360024
 20
-233.4220327736809
 11
175.3552908105395
 21
-252.5468713433739
  0
LINE
  5
251
100
AcDbEntity
  8
tilted
  6
ByLayer
 62
  256
370
   -1
100
AcDbLine
 10
175.3552908105395
 20
-252.5468713433739
 11
168.3554727759277
 21
-240.4213918690469
  0
LINE
  5
252
100
AcDbEntity
  8
tilted
  6
ByLayer
 62
  256
370
   -1
100
AcDbLine
 10
168.3554727759277
 20
-240.4213918690469
 11
187.4791799747707
 21
-245.547686486304
  0
LWPOLYLINE
  5
253
100
AcDbEntity
  8
tilted
  6
ByLayer
 62
  256
370
   -1
100
AcDbPolyline
 90
    4
 70
    1
 43
0
 10
209.3388583873802
 20
-241.5370771956478
 10
190.9379713965735
 20
-246.4675800048508
 10
186.0074685873704
 20
-228.066693014044
 10
204.4083555781772
 20
-223.136190204841
  0
LINE
  5
254
100
AcDbEntity
  8
tilted
  6
ByLayer
 62
  256
370
   -1
100
AcDbLine
 10
204.4083555781772
 20
-223.136190204841
 11
190.9379713965735
 21
-246.4675800048508
  0
LINE
  5
255
100
AcDbEntity
  8
tilted
  6
ByLayer
 62
  256
370
   -1
100
AcDbLine
 10
186.0074685873704
 20
-228.066693014044
 11
209.3388583873802
 21
-241.5370771956478
  0
LWPOLYLINE
  5
256
100
AcDbEntity
  8
tilted
  6
ByLayer
 62
  256
370
   -1
100
AcDbPolyline
 90
    4
 70
    1
 43
0
 10
190.928718346396
 20
-246.4709311487222
 10
174.4309344043025
 20
-255.9959311487223
 10
164.9059344043025
 20
-239.4981472066287
 10
181.403718346396
 20
-229.9731472066287
  0
LINE
  5
257
100
AcDbEntity
  8
tilted
  6
ByLayer
 62
  256
370
   -1
100
AcDbLine
 10
181.403718346396
 20
-229.9731472066287
 11
174.4309344043025
 21
-255.9959311487223
  0
LINE
  5
258
100
AcDbEntity
  8
tilted
  6
ByLayer
 62
  256
370
   -1
100
AcDbLine
 10
164.9059344043025
 20
-239.4981472066287
 11
190.928718346396
 21
-246.4709311487222
  0
LWPOLYLINE
  5
259
100
AcDbEntity
  8
tilted
  6
ByLayer
 62
  256
370
   -1
100
AcDbPolyline
 90
    4
 70
    1
 43
0
 10
160.9516580935601
 20
-269.4729871769239
 10
140.7460818211543
 20
-249.2674109045182
 10
154.2164660027581
 20
-235.7970267229145
 10
174.4220422751637
 20
-256.0026029953201
  0
LINE
  5
25A
100
AcDbEntity
  8
tilted
  6
ByLayer
 62
  256
370
   -1
100
AcDbLine
 10
174.4220422751637
 20
-256.0026029953201
 11
140.7460818211543
 21
-249.2674109045182
  0
LINE
  5
25B
100
AcDbEntity
  8
tilted
  6
ByLayer
 62
  256
370
   -1
100
AcDbLine
 10
154.2164660027581
 20
-235.7970267229145
 11
160.9516580935601
 21
-269.4729871769239
  0
LWPOLYLINE
  5
25C
100
AcDbEntity
  8
tilted
  6
ByLayer
 62
  256
370
   -1
100
AcDbPolyline
 90
    4
 70
    1
 43
0
 10
51.27116124252954
 20
-178.0343346513089
 10
69.67204823333626
 20
-182.9648374605119
 10
74.60255104253926
 20
-164.5639504697052
 10
56.20166405173256
 20
-159.6334476605022
  0
LWPOLYLINE
  5
25D
100
AcDbEntity
  8
tilted
  6
ByLayer
 62
  256
370
   -1
100
AcDbPolyline
 90
    4
 70
    1
 43
0
 10
70.90467393563705
 20
-178.3646157128103
 10
89.30556092644376
 20
-183.2951185220133
 10
94.23606373564678
 20
-164.8942315312066
 10
75.83517674484007
 20
-159.9637287220036
  0
LWPOLYLINE
  5
25E
100
AcDbEntity
  8
tilted
  6
ByLayer
 62
  256
370
   -1
100
AcDbPolyline
 90
    4
 70
    1
 43
0
 10
106.2274006021077
 20
-193.7455010581278
 10
124.6282875929144
 20
-198.6760038673308
 10
129.5587904021174
 20
-180.2751168765241
 10
111.1579034113107
 20
-175.3446140673211
  0
LINE
  5
25F
100
AcDbEntity
  8
tilted
  6
ByLayer
 62
    0
370
   -1
100
AcDbLine
 10
38.35379517220315
 20
-163.7171485421659
 11
51.87608059217166
 21
-167.3404340002697
  0
LWPOLYLINE
  5
260
100
AcDbEntity
  8
tilted
  6
ByLayer
 62
  256
370
   -1
100
AcDbPolyline
 90
    4
 70
    1
 43
0
 10
221.6604798990395
 20
-178.0343022989283
 10
203.2595929082328
 20
-182.9648051081313
 10
198.3290900990298
 20
-164.5639181173246
 10
216.7299770898366
 20
-159.6334153081216
  0
LINE
  5
261
100
AcDbEntity
  8
tilted
  6
ByLayer
 62
    0
370
   -1
100
AcDbLine
 10
18.72028247909566
 20
-164.0474296036673
 11
32.24256789906417
 21
-167.670715061771
  0
LWPOLYLINE
  5
262
100
AcDbEntity
  8
tilted
  6
ByLayer
 62
  256
370
   -1
100
AcDbPolyline
 90
    4
 70
    1
 43
0
 10
202.026967205932
 20
-178.3645833604297
 10
183.6260802151253
 20
-183.2950861696327
 10
178.6955774059223
 20
-164.894199178826
 10
197.0964643967291
 20
-159.963696369623
  0
LWPOLYLINE
  5
263
100
AcDbEntity
  8
tilted
  6
ByLayer
 62
  256
370
   -1
100
AcDbPolyline
 90
    4
 70
    1
 43
0
 10
166.7042405394614
 20
-193.7454687057472
 10
148.3033535486547
 20
-198.6759715149502
 10
143.3728507394517
 20
-180.2750845241435
 10
161.7737377302584
 20
-175.3445817149405
  0
LWPOLYLINE
  5
264
100
AcDbEntity
  8
tilted
  6
ByLayer
 62
  256
370
   -1
100
AcDbPolyline
 90
    4
 70
    1
 43
0
 10
45.19177502265389
 20
-236.6065743864447
 10
63.59266201346061
 20
-241.5370771956477
 10
68.52316482266363
 20
-223.136190204841
 10
50.12227783185691
 20
-218.205687395638
  0
LWPOLYLINE
  5
265
100
AcDbEntity
  8
tilted
  6
ByLayer
 62
  256
370
   -1
100
AcDbPolyline
 90
    4
 70
    1
 43
0
 10
227.7397453781869
 20
-236.6065743864447
 10
209.3388583873802
 20
-241.5370771956478
 10
204.4083555781772
 20
-223.136190204841
 10
222.8092425689839
 20
-218.205687395638
  0
LWPOLYLINE
  5
266
100
AcDbEntity
  8
Outline
  6
ByLayer
 62
  256
370
   -1
100
AcDbPolyline
 90
   22
 70
    1
 43
0
 10
4.277387611589569
 20
-215.2876683297699
 10
45.19177502265388
 20
-236.6065743864447
 10
111.3534318187712
 20
-269.1647207800714
 42
0.1148276265814511
 10
112.6780337248871
 20
-269.4729871769238
 10
160.2534866759536
 20
-269.4729871769239
 42
0.1148276265814597
 10
161.5780885820696
 20
-269.1647207800715
 10
227.739745378187
 20
-236.6065743864448
 10
268.6541327892512
 20
-215.2876683297699
 42
0.3515566105879007
 10
270.1656281389227
 20
-211.8507111865955
 10
256.6031728323192
 20
-161.2353817360075
 42
0.344150033499345
 10
253.6549381835218
 20
-159.0122695889892
 10
197.4657295001992
 20
-159.9574845911737
 42
0.06132143272358192
 10
196.7397312331165
 20
-160.0592827327264
 10
179.0770764838487
 20
-164.7919768089824
 42
-0.0655433666408622
 10
178.3006204976969
 20
-164.894199330115
 10
94.6310218129456
 20
-164.8942313799171
 42
-0.06554355898961731
 10
93.85456352848222
 20
-164.7920088587845
 10
76.19190915149366
 20
-160.0593148822804
 42
0.06132130357934029
 10
75.46591242811778
 20
-159.9575167666963
 10
19.27658343942558
 20
-159.012270815176
 42
0.3441501773982332
 10
16.32834724692133
 20
-161.2353829362256
 10
2.765892261918062
 20
-211.8507111865954
 42
0.3515566105878972
  0
LINE
  5
267
100
AcDbEntity
  8
tilted
  6
ByLayer
 62
  256
370
   -1
100
AcDbLine
 10
18.72016173836735
 20
-360.7704882555547
 11
28.61940318168877
 21
-377.9161238383882
  0
LINE
  5
268
100
AcDbEntity
  8
tilted
  6
ByLayer
 62
  256
370
   -1
100
AcDbLine
 10
28.61940318168877
 20
-377.9161238383882
 11
32.24268863979248
 21
-364.3938384184197
  0
LINE
  5
269
100
AcDbEntity
  8
tilted
  6
ByLayer
 62
  256
370
   -1
100
AcDbLine
 10
32.24268863979248
 20
-364.3938384184197
 11
15.09687628026364
 21
-374.2927736755232
  0
LINE
  5
26A
100
AcDbEntity
  8
tilted
  6
ByLayer
 62
  256
370
   -1
100
AcDbLine
 10
16.93459036922621
 20
-357.6776111469665
 11
30.40497455082991
 21
-381.0090009469764
  0
LINE
  5
26B
100
AcDbEntity
  8
ref
  6
ByLayer
 62
  256
370
   -1
100
AcDbLine
 10
93.00343803334611
 20
-368.1991918293274
 11
111.4043250241528
 21
-373.1296946385306
  0
LINE
  5
26C
100
AcDbEntity
  8
ref
  6
ByLayer
 62
  256
370
   -1
100
AcDbLine
 10
179.928203108223
 20
-368.1991594769469
 11
161.5273161174162
 21
-373.1296622861498
  0
LINE
  5
26D
100
AcDbEntity
  8
ref
  6
ByLayer
 62
  256
370
   -1
100
AcDbLine
 10
270.7885591999519
 20
-412.8802397670061
 11
233.986736922047
 21
-422.7412583263643
  0
LINE
  5
26E
100
AcDbEntity
  8
ref
  6
ByLayer
 62
  256
370
   -1
100
AcDbLine
 10
233.986736922047
 20
-422.7412583263643
 11
2.142961200888875
 21
-412.8802397670061
  0
LINE
  5
26F
100
AcDbEntity
  8
ref
  6
ByLayer
 62
  256
370
   -1
100
AcDbLine
 10
2.142961200888875
 20
-412.8802397670061
 11
38.94490421952199
 21
-422.7412906787451
  0
LINE
  5
270
100
AcDbEntity
  8
ref
  6
ByLayer
 62
  256
370
   -1
100
AcDbLine
 10
-2.857038799111267
 20
-404.2199857291617
 11
7.142961200888735
 21
-421.5404938048504
  0
LINE
  5
271
100
AcDbEntity
  8
ref
  6
ByLayer
 62
  256
370
   -1
100
AcDbLine
 10
45.19177502529783
 20
-435.3113129375723
 11
55.19177502529783
 21
-435.3113129375723
  0
LINE
  5
272
100
AcDbEntity
  8
ref
  6
ByLayer
 62
  256
370
   -1
100
AcDbLine
 10
81.99354900426735
 20
-445.17231855527
 11
91.99354900426735
 21
-445.17231855527
  0
LINE
  5
273
100
AcDbEntity
  8
ref
  6
ByLayer
 62
  256
370
   -1
100
AcDbLine
 10
275.7885591999521
 20
-404.2199857291617
 11
265.7885591999521
 21
-421.5404938048504
  0
LINE
  5
274
100
AcDbEntity
  8
ref
  6
ByLayer
 62
  256
370
   -1
100
AcDbLine
 10
94.23606373564684
 20
-363.5989700816257
 11
94.23606373564684
 21
-353.5989700816257
  0
LINE
  5
275
100
AcDbEntity
  8
ref
  6
ByLayer
 62
  256
370
   -1
100
AcDbLine
 10
178.6955774059226
 20
-363.5989377292452
 11
178.6955774059226
 21
-353.5989377292452
  0
LINE
  5
276
100
AcDbEntity
  8
ref
  6
ByLayer
 62
  256
370
   -1
100
AcDbLine
 10
182.2464199874362
 20
-376.8508626531347
 11
163.8455329966295
 21
-381.7813654623376
  0
LINE
  5
277
100
AcDbEntity
  8
ref
  6
ByLayer
 62
  256
370
   -1
100
AcDbLine
 10
90.68522081711072
 20
-376.8508962632983
 11
109.0861078079174
 21
-381.7813990725015
  0
LINE
  5
278
100
AcDbEntity
  8
ref
  6
ByLayer
 62
  256
370
   -1
100
AcDbLine
 10
94.23606373564684
 20
-363.598970081626
 11
112.6369507264535
 21
-368.5294728908293
  0
LINE
  5
279
100
AcDbEntity
  8
ref
  6
ByLayer
 62
  256
370
   -1
100
AcDbLine
 10
178.6955774059223
 20
-363.5989377292452
 11
160.2946904151155
 21
-368.5294405384481
  0
LINE
  5
27A
100
AcDbEntity
  8
ref
  6
ByLayer
 62
  256
370
   -1
100
AcDbLine
 10
216.7299770898366
 20
-358.3381538585409
 11
221.6604798990395
 21
-376.7390408493475
  0
LINE
  5
27B
100
AcDbEntity
  8
ref
  6
ByLayer
 62
  256
370
   -1
100
AcDbLine
 10
56.20166405173257
 20
-358.3381862109214
 11
51.27116124252954
 21
-376.7390732017282
  0
LINE
  5
27C
100
AcDbEntity
  8
tilted
  6
ByLayer
 62
    0
370
   -1
100
AcDbLine
 10
32.24268864046439
 20
-364.3938384195834
 11
28.61940318236068
 21
-377.916123839552
  0
LINE
  5
27D
100
AcDbEntity
  8
tilted
  6
ByLayer
 62
  256
370
   -1
100
AcDbLine
 10
18.72016173903927
 20
-360.7704882567185
 11
28.61940318236068
 21
-377.916123839552
  0
LINE
  5
27E
100
AcDbEntity
  8
tilted
  6
ByLayer
 62
  256
370
   -1
100
AcDbLine
 10
32.24268864046439
 20
-364.3938384195835
 11
15.09687628093556
 21
-374.292773676687
  0
LINE
  5
27F
100
AcDbEntity
  8
tilted
  6
ByLayer
 62
  256
370
   -1
100
AcDbLine
 10
16.93459036989813
 20
-357.6776111481303
 11
30.40497455150182
 21
-381.0090009481402
  0
ARC
  5
280
100
AcDbEntity
  8
ref
  6
ByLayer
 62
  256
370
   -1
100
AcDbCircle
 10
77.24939030788508
 20
-361.1179570163698
 40
2
100
AcDbArc
 50
75.00000000000041
 51
165.0000000000005
  0
LWPOLYLINE
  5
281
100
AcDbEntity
  8
Outline
  6
CONTINUOUS
 62
    7
370
    0
100
AcDbPolyline
 90
   50
 70
    0
 43
0
 10
178.6955774059223
 20
-363.5989377292452
 10
178.6955774059222
 20
-363.5989377292453
 10
178.6955774059223
 20
-363.5989377292452
 10
195.1646127449192
 20
-359.1860730112441
 42
-0.4142135623531395
 10
197.6141024875707
 20
-360.6002865736525
 10
197.8114520094967
 20
-361.3368050163295
 42
0.414213562373095
 10
200.2609417522798
 20
-362.7510185787026
 10
213.8321996114721
 20
-359.1146109950575
 42
-0.4142135623901997
 10
217.5064342256922
 20
-361.2359313387864
 10
218.2717368337424
 20
-364.0920795558616
 42
0.4142135623730925
 10
221.9459714479171
 20
-366.2133998994212
 10
253.6549385501548
 20
-357.7170077715517
 42
-0.3441499903295594
 10
256.6031727358388
 20
-359.9401199263604
 10
270.4669365037392
 20
-411.6799380252066
 42
-0.1989129358213918
 10
270.16723693452
 20
-413.9564014986083
 10
258.7039984705215
 20
-433.8113129375315
 42
-0.2679491924374321
 10
256.1059222590976
 20
-435.3113129375315
 10
228.1347028709849
 20
-435.3113129368733
 42
0.06554346282114761
 10
227.3582457356067
 20
-435.4135354580062
 10
191.514251859261
 20
-445.0179046706792
 42
0.09847073686643586
 10
190.4646195737616
 20
-445.5354726152371
 10
161.7613437006716
 20
-467.5565374243751
 42
-0.1654321370660522
 10
159.9311367913565
 20
-468.1763250644458
 10
113.0588834142906
 20
-468.1119930156421
 42
-0.1641080923994477
 10
111.2426559420935
 20
-467.4966015160089
 10
82.47401289954348
 20
-445.5353796069005
 42
0.09785655127985078
 10
81.43018910450566
 20
-445.0222249604217
 10
45.57330497641797
 20
-435.4135526156475
 42
0.0655490106629823
 10
44.79678381067989
 20
-435.3113129368732
 10
16.82559814174331
 20
-435.3113129375316
 42
-0.2679491924374246
 10
14.2275219303194
 20
-433.8113129375315
 10
2.764283466320873
 20
-413.9564014986082
 42
-0.1989129358213919
 10
2.464583897101666
 20
-411.6799380252065
 10
16.32834718260138
 20
-359.9401217266879
 42
-0.3441502061779418
 10
19.27658368384624
 20
-357.7170096108321
 10
50.98566935663018
 20
-366.2134335095843
 42
0.4142135623731031
 10
54.65990397080496
 20
-364.0921131660247
 10
55.42520691617906
 20
-361.2359636907065
 42
-0.4142135623730914
 10
59.0994415303538
 20
-359.1146433471469
 10
72.67069939024779
 20
-362.7510509309799
 42
0.4142135624315285
 10
75.12018913313406
 20
-361.3368373682214
 10
75.31753865491719
 20
-360.6003189254896
 42
-0.4142135624315205
 10
77.7670283978038
 20
-359.1861053627312
 10
94.23606373564682
 20
-363.5989700816257
 10
94.23606373564684
 20
-368.5294728908287
 10
94.23606373564684
 20
-368.5294728908287
 10
94.23606373564684
 20
-368.5294728908287
 10
136.4657602004204
 20
-379.8448859551768
 10
178.6955774059226
 20
-368.5294405384481
 10
178.6955774059223
 20
-363.5989377292452
  0
ENDSEC
  0
SECTION
  2
OBJECTS
  0
DICTIONARY
  5
C
330
0
100
AcDbDictionary
281
    1
  3
ACAD_GROUP
350
D
  0
DICTIONARY
  5
D
330
C
100
AcDbDictionary
281
    1
  0
ENDSEC
  0
EOF
